<svg xmlns="http://www.w3.org/2000/svg" viewBox="0 0 100 100" fill="none">
  <g stroke="#00B3E3" stroke-width="0.3" stroke-linecap="round">
    <line x1="49.49" y1="6.40" x2="49.51" y2="8.01"/>
    <line x1="49.49" y1="6.40" x2="61.00" y2="13.18"/>
    <line x1="49.49" y1="6.40" x2="38.67" y2="13.28"/>
    <line x1="49.49" y1="6.40" x2="44.86" y2="13.89"/>
    <line x1="49.49" y1="6.40" x2="55.10" y2="13.85"/>
    <line x1="49.93" y1="13.35" x2="49.85" y2="16.71"/>
    <line x1="61.00" y1="13.18" x2="55.10" y2="13.85"/>
    <line x1="61.00" y1="13.18" x2="70.87" y2="16.60"/>
    <line x1="61.00" y1="13.18" x2="64.26" y2="19.26"/>
    <line x1="38.67" y1="13.28" x2="44.86" y2="13.89"/>
    <line x1="38.67" y1="13.28" x2="28.37" y2="16.60"/>
    <line x1="38.67" y1="13.28" x2="35.31" y2="19.08"/>
    <line x1="44.86" y1="13.89" x2="49.85" y2="16.71"/>
    <line x1="44.86" y1="13.89" x2="35.31" y2="19.08"/>
    <line x1="44.86" y1="13.89" x2="44.10" y2="20.37"/>
    <line x1="55.10" y1="13.85" x2="49.85" y2="16.71"/>
    <line x1="55.10" y1="13.85" x2="64.26" y2="19.26"/>
    <line x1="55.10" y1="13.85" x2="55.57" y2="20.31"/>
    <line x1="28.37" y1="16.60" x2="35.31" y2="19.08"/>
    <line x1="28.37" y1="16.60" x2="16.99" y2="19.36"/>
    <line x1="28.37" y1="16.60" x2="27.03" y2="21.95"/>
    <line x1="70.87" y1="16.60" x2="64.26" y2="19.26"/>
    <line x1="70.87" y1="16.60" x2="83.15" y2="19.38"/>
    <line x1="70.87" y1="16.60" x2="72.38" y2="22.05"/>
    <line x1="49.85" y1="16.71" x2="44.10" y2="20.37"/>
    <line x1="49.85" y1="16.71" x2="55.57" y2="20.31"/>
    <line x1="49.85" y1="16.71" x2="49.93" y2="22.07"/>
    <line x1="35.31" y1="19.08" x2="27.03" y2="21.95"/>
    <line x1="35.31" y1="19.08" x2="38.39" y2="24.31"/>
    <line x1="35.31" y1="19.08" x2="32.30" y2="25.95"/>
    <line x1="64.26" y1="19.26" x2="55.57" y2="20.31"/>
    <line x1="64.26" y1="19.26" x2="72.38" y2="22.05"/>
    <line x1="64.26" y1="19.26" x2="61.13" y2="24.78"/>
    <line x1="64.26" y1="19.26" x2="67.33" y2="25.85"/>
    <line x1="16.99" y1="19.36" x2="21.88" y2="20.41"/>
    <line x1="16.99" y1="19.36" x2="20.95" y2="24.61"/>
    <line x1="16.99" y1="19.36" x2="15.65" y2="29.88"/>
    <line x1="83.15" y1="19.38" x2="72.38" y2="22.05"/>
    <line x1="83.15" y1="19.38" x2="78.71" y2="24.58"/>
    <line x1="83.15" y1="19.38" x2="83.74" y2="29.59"/>
    <line x1="35.70" y1="19.18" x2="44.10" y2="20.37"/>
    <line x1="44.10" y1="20.37" x2="38.39" y2="24.31"/>
    <line x1="44.10" y1="20.37" x2="49.78" y2="23.96"/>
    <line x1="44.10" y1="20.37" x2="43.21" y2="29.01"/>
    <line x1="55.57" y1="20.31" x2="49.78" y2="23.96"/>
    <line x1="55.57" y1="20.31" x2="61.13" y2="24.78"/>
    <line x1="55.57" y1="20.31" x2="56.48" y2="28.95"/>
    <line x1="21.88" y1="20.41" x2="26.42" y2="21.90"/>
    <line x1="26.42" y1="21.90" x2="27.03" y2="21.95"/>
    <line x1="26.42" y1="21.90" x2="20.95" y2="24.61"/>
    <line x1="26.42" y1="21.90" x2="26.31" y2="29.06"/>
    <line x1="27.03" y1="21.95" x2="32.30" y2="25.95"/>
    <line x1="72.38" y1="22.05" x2="78.71" y2="24.58"/>
    <line x1="72.38" y1="22.05" x2="67.33" y2="25.85"/>
    <line x1="72.38" y1="22.05" x2="73.33" y2="28.99"/>
    <line x1="38.39" y1="24.31" x2="32.30" y2="25.95"/>
    <line x1="38.39" y1="24.31" x2="43.21" y2="29.01"/>
    <line x1="38.39" y1="24.31" x2="35.76" y2="32.14"/>
    <line x1="20.95" y1="24.61" x2="26.31" y2="29.06"/>
    <line x1="20.95" y1="24.61" x2="15.65" y2="29.88"/>
    <line x1="20.95" y1="24.61" x2="20.76" y2="34.50"/>
    <line x1="49.78" y1="23.96" x2="49.90" y2="28.71"/>
    <line x1="49.78" y1="23.96" x2="43.21" y2="29.01"/>
    <line x1="49.78" y1="23.96" x2="56.48" y2="28.95"/>
    <line x1="78.71" y1="24.58" x2="73.33" y2="28.99"/>
    <line x1="78.71" y1="24.58" x2="83.74" y2="29.59"/>
    <line x1="78.71" y1="24.58" x2="78.91" y2="34.47"/>
    <line x1="61.13" y1="24.78" x2="67.33" y2="25.85"/>
    <line x1="61.13" y1="24.78" x2="56.48" y2="28.95"/>
    <line x1="61.13" y1="24.78" x2="64.04" y2="31.92"/>
    <line x1="32.30" y1="25.95" x2="26.31" y2="29.06"/>
    <line x1="32.30" y1="25.95" x2="32.12" y2="30.90"/>
    <line x1="67.33" y1="25.85" x2="73.33" y2="28.99"/>
    <line x1="67.33" y1="25.85" x2="68.00" y2="30.73"/>
    <line x1="49.90" y1="28.71" x2="49.84" y2="32.24"/>
    <line x1="43.21" y1="29.01" x2="35.76" y2="32.14"/>
    <line x1="43.21" y1="29.01" x2="49.84" y2="32.24"/>
    <line x1="43.21" y1="29.01" x2="41.91" y2="35.21"/>
    <line x1="43.21" y1="29.01" x2="46.35" y2="36.41"/>
    <line x1="56.48" y1="28.95" x2="49.84" y2="32.24"/>
    <line x1="56.48" y1="28.95" x2="57.78" y2="35.12"/>
    <line x1="56.48" y1="28.95" x2="53.21" y2="36.47"/>
    <line x1="26.31" y1="29.06" x2="27.15" y2="29.32"/>
    <line x1="26.31" y1="29.06" x2="20.76" y2="34.50"/>
    <line x1="26.31" y1="29.06" x2="28.54" y2="37.65"/>
    <line x1="73.33" y1="28.99" x2="68.00" y2="30.73"/>
    <line x1="73.33" y1="28.99" x2="78.91" y2="34.47"/>
    <line x1="73.33" y1="28.99" x2="70.69" y2="37.26"/>
    <line x1="83.74" y1="29.59" x2="78.91" y2="34.47"/>
    <line x1="83.74" y1="29.59" x2="83.74" y2="40.32"/>
    <line x1="15.65" y1="29.88" x2="20.76" y2="34.50"/>
    <line x1="15.65" y1="29.88" x2="15.96" y2="40.37"/>
    <line x1="27.15" y1="29.32" x2="32.12" y2="30.90"/>
    <line x1="56.67" y1="29.07" x2="64.04" y2="31.92"/>
    <line x1="32.12" y1="30.90" x2="28.54" y2="37.65"/>
    <line x1="68.00" y1="30.73" x2="64.04" y2="31.92"/>
    <line x1="68.00" y1="30.73" x2="70.69" y2="37.26"/>
    <line x1="35.76" y1="32.14" x2="34.34" y2="31.66"/>
    <line x1="35.76" y1="32.14" x2="41.91" y2="35.21"/>
    <line x1="35.76" y1="32.14" x2="28.54" y2="37.65"/>
    <line x1="64.04" y1="31.92" x2="57.78" y2="35.12"/>
    <line x1="64.04" y1="31.92" x2="70.69" y2="37.26"/>
    <line x1="64.04" y1="31.92" x2="61.07" y2="40.51"/>
    <line x1="49.84" y1="32.24" x2="46.35" y2="36.41"/>
    <line x1="49.84" y1="32.24" x2="53.21" y2="36.47"/>
    <line x1="49.84" y1="32.24" x2="50.07" y2="36.77"/>
    <line x1="20.76" y1="34.50" x2="25.00" y2="36.13"/>
    <line x1="20.76" y1="34.50" x2="21.83" y2="40.71"/>
    <line x1="20.76" y1="34.50" x2="15.96" y2="40.37"/>
    <line x1="78.91" y1="34.47" x2="71.20" y2="37.35"/>
    <line x1="78.91" y1="34.47" x2="83.74" y2="40.32"/>
    <line x1="78.91" y1="34.47" x2="77.66" y2="40.99"/>
    <line x1="35.77" y1="32.54" x2="38.27" y2="40.15"/>
    <line x1="41.91" y1="35.21" x2="46.35" y2="36.41"/>
    <line x1="41.91" y1="35.21" x2="38.27" y2="40.15"/>
    <line x1="57.78" y1="35.12" x2="53.21" y2="36.47"/>
    <line x1="57.78" y1="35.12" x2="61.07" y2="40.51"/>
    <line x1="25.00" y1="36.13" x2="28.54" y2="37.65"/>
    <line x1="46.35" y1="36.41" x2="50.07" y2="36.77"/>
    <line x1="46.35" y1="36.41" x2="38.27" y2="40.15"/>
    <line x1="46.35" y1="36.41" x2="49.89" y2="40.04"/>
    <line x1="46.35" y1="36.41" x2="42.95" y2="41.42"/>
    <line x1="46.35" y1="36.41" x2="45.37" y2="40.33"/>
    <line x1="53.21" y1="36.47" x2="50.07" y2="36.77"/>
    <line x1="53.21" y1="36.47" x2="49.89" y2="40.04"/>
    <line x1="53.21" y1="36.47" x2="61.07" y2="40.51"/>
    <line x1="53.21" y1="36.47" x2="54.72" y2="40.52"/>
    <line x1="50.07" y1="36.77" x2="49.89" y2="40.04"/>
    <line x1="70.69" y1="37.26" x2="61.07" y2="40.51"/>
    <line x1="70.69" y1="37.26" x2="77.66" y2="40.99"/>
    <line x1="70.69" y1="37.26" x2="72.17" y2="41.80"/>
    <line x1="70.69" y1="37.26" x2="67.12" y2="44.34"/>
    <line x1="28.54" y1="37.65" x2="38.27" y2="40.15"/>
    <line x1="28.54" y1="37.65" x2="21.83" y2="40.71"/>
    <line x1="28.54" y1="37.65" x2="32.65" y2="44.30"/>
    <line x1="28.54" y1="37.65" x2="26.21" y2="46.66"/>
    <line x1="38.27" y1="40.15" x2="38.78" y2="40.56"/>
    <line x1="38.27" y1="40.15" x2="32.65" y2="44.30"/>
    <line x1="38.27" y1="40.15" x2="41.39" y2="44.23"/>
    <line x1="21.83" y1="40.71" x2="15.96" y2="40.37"/>
    <line x1="21.83" y1="40.71" x2="19.80" y2="45.81"/>
    <line x1="21.83" y1="40.71" x2="26.21" y2="46.66"/>
    <line x1="83.74" y1="40.32" x2="77.66" y2="40.99"/>
    <line x1="83.74" y1="40.32" x2="79.66" y2="45.92"/>
    <line x1="83.74" y1="40.32" x2="81.60" y2="52.26"/>
    <line x1="15.96" y1="40.37" x2="19.80" y2="45.81"/>
    <line x1="15.96" y1="40.37" x2="18.03" y2="52.79"/>
    <line x1="49.89" y1="40.04" x2="45.37" y2="40.33"/>
    <line x1="49.89" y1="40.04" x2="53.17" y2="40.45"/>
    <line x1="49.89" y1="40.04" x2="45.43" y2="43.29"/>
    <line x1="49.89" y1="40.04" x2="54.30" y2="43.55"/>
    <line x1="49.89" y1="40.04" x2="49.82" y2="48.30"/>
    <line x1="61.07" y1="40.51" x2="54.72" y2="40.52"/>
    <line x1="61.07" y1="40.51" x2="56.74" y2="41.70"/>
    <line x1="61.07" y1="40.51" x2="67.12" y2="44.34"/>
    <line x1="61.07" y1="40.51" x2="58.09" y2="43.96"/>
    <line x1="61.07" y1="40.51" x2="59.63" y2="45.65"/>
    <line x1="61.07" y1="40.51" x2="63.73" y2="47.92"/>
    <line x1="42.95" y1="41.42" x2="38.78" y2="40.56"/>
    <line x1="42.95" y1="41.42" x2="45.37" y2="40.33"/>
    <line x1="42.95" y1="41.42" x2="45.43" y2="43.29"/>
    <line x1="42.95" y1="41.42" x2="41.39" y2="44.23"/>
    <line x1="54.72" y1="40.52" x2="56.74" y2="41.70"/>
    <line x1="54.72" y1="40.52" x2="54.30" y2="43.55"/>
    <line x1="38.78" y1="40.56" x2="40.43" y2="45.36"/>
    <line x1="38.78" y1="40.56" x2="36.02" y2="48.00"/>
    <line x1="45.37" y1="40.33" x2="45.43" y2="43.29"/>
    <line x1="77.66" y1="40.99" x2="73.37" y2="46.11"/>
    <line x1="77.66" y1="40.99" x2="79.66" y2="45.92"/>
    <line x1="72.17" y1="41.80" x2="73.37" y2="46.11"/>
    <line x1="56.74" y1="41.70" x2="54.30" y2="43.55"/>
    <line x1="56.74" y1="41.70" x2="58.09" y2="43.96"/>
    <line x1="45.43" y1="43.29" x2="41.39" y2="44.23"/>
    <line x1="45.43" y1="43.29" x2="49.82" y2="48.30"/>
    <line x1="45.43" y1="43.29" x2="43.09" y2="48.49"/>
    <line x1="54.30" y1="43.55" x2="58.09" y2="43.96"/>
    <line x1="54.30" y1="43.55" x2="49.82" y2="48.30"/>
    <line x1="54.30" y1="43.55" x2="56.30" y2="48.56"/>
    <line x1="67.12" y1="44.34" x2="73.37" y2="46.11"/>
    <line x1="67.12" y1="44.34" x2="63.73" y2="47.92"/>
    <line x1="67.12" y1="44.34" x2="67.55" y2="49.32"/>
    <line x1="32.65" y1="44.30" x2="26.21" y2="46.66"/>
    <line x1="32.65" y1="44.30" x2="36.02" y2="48.00"/>
    <line x1="32.65" y1="44.30" x2="31.84" y2="49.39"/>
    <line x1="41.39" y1="44.23" x2="40.43" y2="45.36"/>
    <line x1="41.39" y1="44.23" x2="43.09" y2="48.49"/>
    <line x1="41.39" y1="44.23" x2="39.51" y2="49.16"/>
    <line x1="58.09" y1="43.96" x2="59.63" y2="45.65"/>
    <line x1="58.09" y1="43.96" x2="56.30" y2="48.56"/>
    <line x1="73.37" y1="46.11" x2="79.66" y2="45.92"/>
    <line x1="73.37" y1="46.11" x2="73.39" y2="46.47"/>
    <line x1="73.37" y1="46.11" x2="67.55" y2="49.32"/>
    <line x1="19.80" y1="45.81" x2="26.21" y2="46.66"/>
    <line x1="19.80" y1="45.81" x2="18.03" y2="52.79"/>
    <line x1="19.80" y1="45.81" x2="23.24" y2="53.66"/>
    <line x1="79.66" y1="45.92" x2="81.32" y2="49.93"/>
    <line x1="79.66" y1="45.92" x2="76.37" y2="53.39"/>
    <line x1="40.43" y1="45.36" x2="36.02" y2="48.00"/>
    <line x1="40.43" y1="45.36" x2="39.51" y2="49.16"/>
    <line x1="59.63" y1="45.65" x2="63.73" y2="47.92"/>
    <line x1="59.63" y1="45.65" x2="60.17" y2="48.74"/>
    <line x1="26.21" y1="46.66" x2="31.84" y2="49.39"/>
    <line x1="26.21" y1="46.66" x2="23.24" y2="53.66"/>
    <line x1="26.21" y1="46.66" x2="28.16" y2="54.75"/>
    <line x1="73.39" y1="46.47" x2="76.37" y2="53.39"/>
    <line x1="73.39" y1="46.47" x2="71.31" y2="54.31"/>
    <line x1="63.73" y1="47.92" x2="60.17" y2="48.74"/>
    <line x1="63.73" y1="47.92" x2="67.55" y2="49.32"/>
    <line x1="63.73" y1="47.92" x2="59.18" y2="52.76"/>
    <line x1="63.73" y1="47.92" x2="65.79" y2="53.01"/>
    <line x1="36.02" y1="48.00" x2="31.84" y2="49.39"/>
    <line x1="36.02" y1="48.00" x2="39.51" y2="49.16"/>
    <line x1="36.02" y1="48.00" x2="33.76" y2="52.91"/>
    <line x1="36.02" y1="48.00" x2="39.29" y2="55.71"/>
    <line x1="49.82" y1="48.30" x2="43.09" y2="48.49"/>
    <line x1="49.82" y1="48.30" x2="56.30" y2="48.56"/>
    <line x1="49.82" y1="48.30" x2="44.87" y2="52.88"/>
    <line x1="49.82" y1="48.30" x2="54.77" y2="53.16"/>
    <line x1="49.82" y1="48.30" x2="49.80" y2="55.80"/>
    <line x1="43.09" y1="48.49" x2="39.51" y2="49.16"/>
    <line x1="43.09" y1="48.49" x2="42.29" y2="52.22"/>
    <line x1="43.09" y1="48.49" x2="44.87" y2="52.88"/>
    <line x1="56.30" y1="48.56" x2="60.17" y2="48.74"/>
    <line x1="56.30" y1="48.56" x2="57.59" y2="52.20"/>
    <line x1="56.30" y1="48.56" x2="54.77" y2="53.16"/>
    <line x1="60.17" y1="48.74" x2="57.59" y2="52.20"/>
    <line x1="60.17" y1="48.74" x2="59.18" y2="52.76"/>
    <line x1="31.84" y1="49.39" x2="33.76" y2="52.91"/>
    <line x1="31.84" y1="49.39" x2="28.16" y2="54.75"/>
    <line x1="39.51" y1="49.16" x2="42.29" y2="52.22"/>
    <line x1="39.51" y1="49.16" x2="39.29" y2="55.71"/>
    <line x1="67.55" y1="49.32" x2="65.79" y2="53.01"/>
    <line x1="67.55" y1="49.32" x2="71.31" y2="54.31"/>
    <line x1="18.03" y1="52.79" x2="23.24" y2="53.66"/>
    <line x1="18.03" y1="52.79" x2="23.86" y2="59.23"/>
    <line x1="18.03" y1="52.79" x2="21.83" y2="63.92"/>
    <line x1="42.29" y1="52.22" x2="44.87" y2="52.88"/>
    <line x1="42.29" y1="52.22" x2="39.29" y2="55.71"/>
    <line x1="57.59" y1="52.20" x2="59.18" y2="52.76"/>
    <line x1="76.37" y1="53.39" x2="81.60" y2="52.26"/>
    <line x1="76.37" y1="53.39" x2="71.31" y2="54.31"/>
    <line x1="76.37" y1="53.39" x2="75.70" y2="59.34"/>
    <line x1="59.18" y1="52.76" x2="60.25" y2="55.57"/>
    <line x1="81.60" y1="52.26" x2="75.70" y2="59.34"/>
    <line x1="81.60" y1="52.26" x2="77.87" y2="63.78"/>
    <line x1="23.24" y1="53.66" x2="28.16" y2="54.75"/>
    <line x1="23.24" y1="53.66" x2="23.86" y2="59.23"/>
    <line x1="33.76" y1="52.91" x2="28.16" y2="54.75"/>
    <line x1="33.76" y1="52.91" x2="39.29" y2="55.71"/>
    <line x1="33.76" y1="52.91" x2="31.82" y2="60.92"/>
    <line x1="44.87" y1="52.88" x2="39.29" y2="55.71"/>
    <line x1="44.87" y1="52.88" x2="49.80" y2="55.80"/>
    <line x1="44.87" y1="52.88" x2="45.70" y2="55.86"/>
    <line x1="54.77" y1="53.16" x2="60.25" y2="55.57"/>
    <line x1="54.77" y1="53.16" x2="49.80" y2="55.80"/>
    <line x1="54.77" y1="53.16" x2="54.15" y2="55.35"/>
    <line x1="65.79" y1="53.01" x2="71.31" y2="54.31"/>
    <line x1="65.79" y1="53.01" x2="60.25" y2="55.57"/>
    <line x1="65.79" y1="53.01" x2="67.52" y2="60.80"/>
    <line x1="28.16" y1="54.75" x2="23.86" y2="59.23"/>
    <line x1="28.16" y1="54.75" x2="31.82" y2="60.92"/>
    <line x1="71.31" y1="54.31" x2="75.70" y2="59.34"/>
    <line x1="71.31" y1="54.31" x2="67.52" y2="60.80"/>
    <line x1="39.29" y1="55.71" x2="46.52" y2="59.92"/>
    <line x1="39.29" y1="55.71" x2="31.82" y2="60.92"/>
    <line x1="39.29" y1="55.71" x2="37.47" y2="63.06"/>
    <line x1="39.29" y1="55.71" x2="42.55" y2="62.43"/>
    <line x1="60.25" y1="55.57" x2="54.15" y2="55.35"/>
    <line x1="60.25" y1="55.57" x2="60.22" y2="56.40"/>
    <line x1="60.25" y1="55.57" x2="53.34" y2="59.93"/>
    <line x1="60.25" y1="55.57" x2="67.52" y2="60.80"/>
    <line x1="60.25" y1="55.57" x2="57.03" y2="62.57"/>
    <line x1="49.80" y1="55.80" x2="45.70" y2="55.86"/>
    <line x1="49.80" y1="55.80" x2="54.15" y2="55.35"/>
    <line x1="49.80" y1="55.80" x2="49.74" y2="59.80"/>
    <line x1="49.80" y1="55.80" x2="53.34" y2="59.93"/>
    <line x1="49.80" y1="55.80" x2="46.52" y2="59.92"/>
    <line x1="45.70" y1="55.86" x2="39.53" y2="55.79"/>
    <line x1="45.70" y1="55.86" x2="46.52" y2="59.92"/>
    <line x1="54.15" y1="55.35" x2="53.34" y2="59.93"/>
    <line x1="23.86" y1="59.23" x2="31.82" y2="60.92"/>
    <line x1="23.86" y1="59.23" x2="21.83" y2="63.92"/>
    <line x1="23.86" y1="59.23" x2="27.89" y2="65.36"/>
    <line x1="75.70" y1="59.34" x2="67.52" y2="60.80"/>
    <line x1="75.70" y1="59.34" x2="77.87" y2="63.78"/>
    <line x1="75.70" y1="59.34" x2="71.60" y2="65.68"/>
    <line x1="49.74" y1="59.80" x2="46.52" y2="59.92"/>
    <line x1="53.34" y1="59.93" x2="49.84" y2="62.63"/>
    <line x1="53.34" y1="59.93" x2="57.03" y2="62.57"/>
    <line x1="53.34" y1="59.93" x2="56.41" y2="68.46"/>
    <line x1="46.52" y1="59.92" x2="42.55" y2="62.43"/>
    <line x1="46.52" y1="59.92" x2="49.84" y2="62.63"/>
    <line x1="46.52" y1="59.92" x2="43.07" y2="66.89"/>
    <line x1="67.52" y1="60.80" x2="61.83" y2="63.20"/>
    <line x1="67.52" y1="60.80" x2="71.60" y2="65.68"/>
    <line x1="67.52" y1="60.80" x2="64.18" y2="68.70"/>
    <line x1="61.13" y1="59.57" x2="61.83" y2="63.20"/>
    <line x1="31.82" y1="60.92" x2="37.47" y2="63.06"/>
    <line x1="31.82" y1="60.92" x2="27.89" y2="65.36"/>
    <line x1="31.82" y1="60.92" x2="35.53" y2="68.76"/>
    <line x1="37.47" y1="63.06" x2="42.55" y2="62.43"/>
    <line x1="37.47" y1="63.06" x2="35.53" y2="68.76"/>
    <line x1="37.47" y1="63.06" x2="43.00" y2="68.72"/>
    <line x1="42.55" y1="62.43" x2="43.07" y2="66.89"/>
    <line x1="49.84" y1="62.63" x2="56.41" y2="68.46"/>
    <line x1="49.84" y1="62.63" x2="43.00" y2="68.72"/>
    <line x1="49.84" y1="62.63" x2="49.75" y2="72.11"/>
    <line x1="57.03" y1="62.57" x2="61.83" y2="63.20"/>
    <line x1="57.03" y1="62.57" x2="56.41" y2="68.46"/>
    <line x1="61.83" y1="63.20" x2="56.41" y2="68.46"/>
    <line x1="61.83" y1="63.20" x2="64.18" y2="68.70"/>
    <line x1="21.83" y1="63.92" x2="27.89" y2="65.36"/>
    <line x1="21.83" y1="63.92" x2="27.70" y2="72.85"/>
    <line x1="77.87" y1="63.78" x2="71.60" y2="65.68"/>
    <line x1="77.87" y1="63.78" x2="71.88" y2="72.85"/>
    <line x1="27.89" y1="65.36" x2="35.53" y2="68.76"/>
    <line x1="27.89" y1="65.36" x2="32.26" y2="72.50"/>
    <line x1="71.60" y1="65.68" x2="64.18" y2="68.70"/>
    <line x1="71.60" y1="65.68" x2="67.58" y2="72.46"/>
    <line x1="71.60" y1="65.68" x2="71.88" y2="72.85"/>
    <line x1="56.41" y1="68.46" x2="49.75" y2="72.11"/>
    <line x1="56.41" y1="68.46" x2="60.18" y2="75.21"/>
    <line x1="56.41" y1="68.46" x2="54.58" y2="75.56"/>
    <line x1="28.02" y1="65.71" x2="27.70" y2="72.85"/>
    <line x1="64.18" y1="68.70" x2="56.71" y2="68.68"/>
    <line x1="64.18" y1="68.70" x2="67.58" y2="72.46"/>
    <line x1="64.18" y1="68.70" x2="64.26" y2="74.22"/>
    <line x1="64.18" y1="68.70" x2="60.18" y2="75.21"/>
    <line x1="35.53" y1="68.76" x2="32.26" y2="72.50"/>
    <line x1="35.53" y1="68.76" x2="35.13" y2="73.76"/>
    <line x1="35.53" y1="68.76" x2="39.34" y2="75.25"/>
    <line x1="35.89" y1="68.82" x2="43.00" y2="68.72"/>
    <line x1="43.00" y1="68.72" x2="49.75" y2="72.11"/>
    <line x1="43.00" y1="68.72" x2="39.34" y2="75.25"/>
    <line x1="67.58" y1="72.46" x2="71.88" y2="72.85"/>
    <line x1="67.58" y1="72.46" x2="64.26" y2="74.22"/>
    <line x1="67.58" y1="72.46" x2="64.89" y2="80.37"/>
    <line x1="43.24" y1="69.63" x2="44.82" y2="75.59"/>
    <line x1="49.75" y1="72.11" x2="44.82" y2="75.59"/>
    <line x1="49.75" y1="72.11" x2="54.58" y2="75.56"/>
    <line x1="49.75" y1="72.11" x2="49.80" y2="77.05"/>
    <line x1="32.26" y1="72.50" x2="27.70" y2="72.85"/>
    <line x1="32.26" y1="72.50" x2="35.13" y2="73.76"/>
    <line x1="32.26" y1="72.50" x2="33.66" y2="77.73"/>
    <line x1="27.70" y1="72.85" x2="34.64" y2="80.16"/>
    <line x1="35.13" y1="73.76" x2="39.34" y2="75.25"/>
    <line x1="35.13" y1="73.76" x2="34.64" y2="80.16"/>
    <line x1="71.88" y1="72.85" x2="64.89" y2="80.37"/>
    <line x1="64.26" y1="74.22" x2="60.18" y2="75.21"/>
    <line x1="64.26" y1="74.22" x2="64.89" y2="80.37"/>
    <line x1="60.18" y1="75.21" x2="54.58" y2="75.56"/>
    <line x1="60.18" y1="75.21" x2="64.89" y2="80.37"/>
    <line x1="60.18" y1="75.21" x2="56.86" y2="81.33"/>
    <line x1="39.34" y1="75.25" x2="44.82" y2="75.59"/>
    <line x1="39.34" y1="75.25" x2="34.64" y2="80.16"/>
    <line x1="39.34" y1="75.25" x2="42.93" y2="81.25"/>
    <line x1="44.82" y1="75.59" x2="49.94" y2="80.21"/>
    <line x1="44.82" y1="75.59" x2="42.93" y2="81.25"/>
    <line x1="54.58" y1="75.56" x2="49.94" y2="80.21"/>
    <line x1="54.58" y1="75.56" x2="56.86" y2="81.33"/>
    <line x1="49.80" y1="77.05" x2="49.94" y2="80.21"/>
    <line x1="64.89" y1="80.37" x2="56.86" y2="81.33"/>
    <line x1="64.89" y1="80.37" x2="57.03" y2="86.99"/>
    <line x1="34.64" y1="80.16" x2="42.93" y2="81.25"/>
    <line x1="34.64" y1="80.16" x2="42.68" y2="87.11"/>
    <line x1="49.94" y1="80.21" x2="42.93" y2="81.25"/>
    <line x1="49.94" y1="80.21" x2="56.86" y2="81.33"/>
    <line x1="49.94" y1="80.21" x2="46.52" y2="85.90"/>
    <line x1="49.94" y1="80.21" x2="53.09" y2="85.97"/>
    <line x1="42.93" y1="81.25" x2="46.52" y2="85.90"/>
    <line x1="42.93" y1="81.25" x2="42.68" y2="87.11"/>
    <line x1="56.86" y1="81.33" x2="53.09" y2="85.97"/>
    <line x1="56.86" y1="81.33" x2="57.03" y2="86.99"/>
    <line x1="46.52" y1="85.90" x2="42.68" y2="87.11"/>
    <line x1="46.52" y1="85.90" x2="49.80" y2="91.41"/>
    <line x1="53.09" y1="85.97" x2="57.03" y2="86.99"/>
    <line x1="53.09" y1="85.97" x2="49.80" y2="91.41"/>
    <line x1="57.03" y1="86.99" x2="49.80" y2="91.41"/>
    <line x1="42.68" y1="87.11" x2="49.80" y2="91.41"/>
    <line x1="49.95" y1="87.40" x2="49.80" y2="91.41"/>
  </g>
  <g fill="#00B3E3">
    <circle cx="49.49" cy="6.40" r="0.85"/>
    <circle cx="49.51" cy="8.01" r="0.85"/>
    <circle cx="49.93" cy="13.35" r="0.85"/>
    <circle cx="61.00" cy="13.18" r="0.85"/>
    <circle cx="38.67" cy="13.28" r="0.85"/>
    <circle cx="44.86" cy="13.89" r="0.85"/>
    <circle cx="55.10" cy="13.85" r="0.85"/>
    <circle cx="28.37" cy="16.60" r="0.85"/>
    <circle cx="70.87" cy="16.60" r="0.85"/>
    <circle cx="49.85" cy="16.71" r="0.85"/>
    <circle cx="35.31" cy="19.08" r="0.85"/>
    <circle cx="64.26" cy="19.26" r="0.85"/>
    <circle cx="16.99" cy="19.36" r="0.85"/>
    <circle cx="83.15" cy="19.38" r="0.85"/>
    <circle cx="35.70" cy="19.18" r="0.85"/>
    <circle cx="44.10" cy="20.37" r="0.85"/>
    <circle cx="55.57" cy="20.31" r="0.85"/>
    <circle cx="21.88" cy="20.41" r="0.85"/>
    <circle cx="26.42" cy="21.90" r="0.85"/>
    <circle cx="49.93" cy="22.07" r="0.85"/>
    <circle cx="27.03" cy="21.95" r="0.85"/>
    <circle cx="72.38" cy="22.05" r="0.85"/>
    <circle cx="38.39" cy="24.31" r="0.85"/>
    <circle cx="20.95" cy="24.61" r="0.85"/>
    <circle cx="49.78" cy="23.96" r="0.85"/>
    <circle cx="78.71" cy="24.58" r="0.85"/>
    <circle cx="61.13" cy="24.78" r="0.85"/>
    <circle cx="32.30" cy="25.95" r="0.85"/>
    <circle cx="67.33" cy="25.85" r="0.85"/>
    <circle cx="49.90" cy="28.71" r="0.85"/>
    <circle cx="43.21" cy="29.01" r="0.85"/>
    <circle cx="56.48" cy="28.95" r="0.85"/>
    <circle cx="26.31" cy="29.06" r="0.85"/>
    <circle cx="73.33" cy="28.99" r="0.85"/>
    <circle cx="83.74" cy="29.59" r="0.85"/>
    <circle cx="15.65" cy="29.88" r="0.85"/>
    <circle cx="27.15" cy="29.32" r="0.85"/>
    <circle cx="56.67" cy="29.07" r="0.85"/>
    <circle cx="32.12" cy="30.90" r="0.85"/>
    <circle cx="68.00" cy="30.73" r="0.85"/>
    <circle cx="35.76" cy="32.14" r="0.85"/>
    <circle cx="64.04" cy="31.92" r="0.85"/>
    <circle cx="34.34" cy="31.66" r="0.85"/>
    <circle cx="49.84" cy="32.24" r="0.85"/>
    <circle cx="20.76" cy="34.50" r="0.85"/>
    <circle cx="78.91" cy="34.47" r="0.85"/>
    <circle cx="35.77" cy="32.54" r="0.85"/>
    <circle cx="41.91" cy="35.21" r="0.85"/>
    <circle cx="57.78" cy="35.12" r="0.85"/>
    <circle cx="25.00" cy="36.13" r="0.85"/>
    <circle cx="46.35" cy="36.41" r="0.85"/>
    <circle cx="53.21" cy="36.47" r="0.85"/>
    <circle cx="50.07" cy="36.77" r="0.85"/>
    <circle cx="70.69" cy="37.26" r="0.85"/>
    <circle cx="71.20" cy="37.35" r="0.85"/>
    <circle cx="28.54" cy="37.65" r="0.85"/>
    <circle cx="38.27" cy="40.15" r="0.85"/>
    <circle cx="21.83" cy="40.71" r="0.85"/>
    <circle cx="83.74" cy="40.32" r="0.85"/>
    <circle cx="15.96" cy="40.37" r="0.85"/>
    <circle cx="49.89" cy="40.04" r="0.85"/>
    <circle cx="61.07" cy="40.51" r="0.85"/>
    <circle cx="42.95" cy="41.42" r="0.85"/>
    <circle cx="54.72" cy="40.52" r="0.85"/>
    <circle cx="38.78" cy="40.56" r="0.85"/>
    <circle cx="45.37" cy="40.33" r="0.85"/>
    <circle cx="53.17" cy="40.45" r="0.85"/>
    <circle cx="77.66" cy="40.99" r="0.85"/>
    <circle cx="72.17" cy="41.80" r="0.85"/>
    <circle cx="56.74" cy="41.70" r="0.85"/>
    <circle cx="45.43" cy="43.29" r="0.85"/>
    <circle cx="54.30" cy="43.55" r="0.85"/>
    <circle cx="67.12" cy="44.34" r="0.85"/>
    <circle cx="32.65" cy="44.30" r="0.85"/>
    <circle cx="41.39" cy="44.23" r="0.85"/>
    <circle cx="58.09" cy="43.96" r="0.85"/>
    <circle cx="73.37" cy="46.11" r="0.85"/>
    <circle cx="19.80" cy="45.81" r="0.85"/>
    <circle cx="79.66" cy="45.92" r="0.85"/>
    <circle cx="40.43" cy="45.36" r="0.85"/>
    <circle cx="59.63" cy="45.65" r="0.85"/>
    <circle cx="26.21" cy="46.66" r="0.85"/>
    <circle cx="73.39" cy="46.47" r="0.85"/>
    <circle cx="63.73" cy="47.92" r="0.85"/>
    <circle cx="36.02" cy="48.00" r="0.85"/>
    <circle cx="49.82" cy="48.30" r="0.85"/>
    <circle cx="43.09" cy="48.49" r="0.85"/>
    <circle cx="56.30" cy="48.56" r="0.85"/>
    <circle cx="60.17" cy="48.74" r="0.85"/>
    <circle cx="31.84" cy="49.39" r="0.85"/>
    <circle cx="39.51" cy="49.16" r="0.85"/>
    <circle cx="67.55" cy="49.32" r="0.85"/>
    <circle cx="81.32" cy="49.93" r="0.85"/>
    <circle cx="18.03" cy="52.79" r="0.85"/>
    <circle cx="42.29" cy="52.22" r="0.85"/>
    <circle cx="57.59" cy="52.20" r="0.85"/>
    <circle cx="76.37" cy="53.39" r="0.85"/>
    <circle cx="59.18" cy="52.76" r="0.85"/>
    <circle cx="81.60" cy="52.26" r="0.85"/>
    <circle cx="23.24" cy="53.66" r="0.85"/>
    <circle cx="33.76" cy="52.91" r="0.85"/>
    <circle cx="44.87" cy="52.88" r="0.85"/>
    <circle cx="54.77" cy="53.16" r="0.85"/>
    <circle cx="65.79" cy="53.01" r="0.85"/>
    <circle cx="28.16" cy="54.75" r="0.85"/>
    <circle cx="71.31" cy="54.31" r="0.85"/>
    <circle cx="39.29" cy="55.71" r="0.85"/>
    <circle cx="60.25" cy="55.57" r="0.85"/>
    <circle cx="49.80" cy="55.80" r="0.85"/>
    <circle cx="45.70" cy="55.86" r="0.85"/>
    <circle cx="54.15" cy="55.35" r="0.85"/>
    <circle cx="39.53" cy="55.79" r="0.85"/>
    <circle cx="60.22" cy="56.40" r="0.85"/>
    <circle cx="23.86" cy="59.23" r="0.85"/>
    <circle cx="75.70" cy="59.34" r="0.85"/>
    <circle cx="49.74" cy="59.80" r="0.85"/>
    <circle cx="53.34" cy="59.93" r="0.85"/>
    <circle cx="46.52" cy="59.92" r="0.85"/>
    <circle cx="67.52" cy="60.80" r="0.85"/>
    <circle cx="61.13" cy="59.57" r="0.85"/>
    <circle cx="31.82" cy="60.92" r="0.85"/>
    <circle cx="37.47" cy="63.06" r="0.85"/>
    <circle cx="42.55" cy="62.43" r="0.85"/>
    <circle cx="49.84" cy="62.63" r="0.85"/>
    <circle cx="57.03" cy="62.57" r="0.85"/>
    <circle cx="61.83" cy="63.20" r="0.85"/>
    <circle cx="21.83" cy="63.92" r="0.85"/>
    <circle cx="77.87" cy="63.78" r="0.85"/>
    <circle cx="27.89" cy="65.36" r="0.85"/>
    <circle cx="71.60" cy="65.68" r="0.85"/>
    <circle cx="43.07" cy="66.89" r="0.85"/>
    <circle cx="56.41" cy="68.46" r="0.85"/>
    <circle cx="28.02" cy="65.71" r="0.85"/>
    <circle cx="64.18" cy="68.70" r="0.85"/>
    <circle cx="35.53" cy="68.76" r="0.85"/>
    <circle cx="35.89" cy="68.82" r="0.85"/>
    <circle cx="43.00" cy="68.72" r="0.85"/>
    <circle cx="56.71" cy="68.68" r="0.85"/>
    <circle cx="67.58" cy="72.46" r="0.85"/>
    <circle cx="43.24" cy="69.63" r="0.85"/>
    <circle cx="49.75" cy="72.11" r="0.85"/>
    <circle cx="32.26" cy="72.50" r="0.85"/>
    <circle cx="27.70" cy="72.85" r="0.85"/>
    <circle cx="35.13" cy="73.76" r="0.85"/>
    <circle cx="71.88" cy="72.85" r="0.85"/>
    <circle cx="64.26" cy="74.22" r="0.85"/>
    <circle cx="60.18" cy="75.21" r="0.85"/>
    <circle cx="39.34" cy="75.25" r="0.85"/>
    <circle cx="44.82" cy="75.59" r="0.85"/>
    <circle cx="54.58" cy="75.56" r="0.85"/>
    <circle cx="49.80" cy="77.05" r="0.85"/>
    <circle cx="33.66" cy="77.73" r="0.85"/>
    <circle cx="64.89" cy="80.37" r="0.85"/>
    <circle cx="34.64" cy="80.16" r="0.85"/>
    <circle cx="49.94" cy="80.21" r="0.85"/>
    <circle cx="42.93" cy="81.25" r="0.85"/>
    <circle cx="56.86" cy="81.33" r="0.85"/>
    <circle cx="50.34" cy="83.06" r="0.85"/>
    <circle cx="46.52" cy="85.90" r="0.85"/>
    <circle cx="53.09" cy="85.97" r="0.85"/>
    <circle cx="57.03" cy="86.99" r="0.85"/>
    <circle cx="42.68" cy="87.11" r="0.85"/>
    <circle cx="49.95" cy="87.40" r="0.85"/>
    <circle cx="49.80" cy="91.41" r="0.85"/>
  </g>
</svg>