<svg xmlns="http://www.w3.org/2000/svg" viewBox="0 0 100 100" fill="none">
  <g stroke="#00B3E3" stroke-width="0.3" stroke-linecap="round">
    <line x1="48.63" y1="11.57" x2="42.29" y2="11.96"/>
    <line x1="48.63" y1="11.57" x2="47.40" y2="16.99"/>
    <line x1="50.10" y1="11.52" x2="53.91" y2="11.72"/>
    <line x1="42.29" y1="11.96" x2="35.74" y2="13.71"/>
    <line x1="42.29" y1="11.96" x2="47.40" y2="16.99"/>
    <line x1="42.29" y1="11.96" x2="35.79" y2="17.84"/>
    <line x1="53.91" y1="11.72" x2="55.76" y2="14.65"/>
    <line x1="53.91" y1="11.72" x2="47.40" y2="16.99"/>
    <line x1="56.05" y1="11.91" x2="66.70" y2="14.75"/>
    <line x1="35.74" y1="13.71" x2="27.05" y2="16.46"/>
    <line x1="55.76" y1="14.65" x2="56.75" y2="16.82"/>
    <line x1="66.70" y1="14.75" x2="73.29" y2="17.58"/>
    <line x1="66.70" y1="14.75" x2="72.66" y2="21.44"/>
    <line x1="66.70" y1="14.75" x2="63.57" y2="21.68"/>
    <line x1="64.65" y1="14.84" x2="56.75" y2="16.82"/>
    <line x1="35.84" y1="14.84" x2="35.79" y2="17.84"/>
    <line x1="27.05" y1="16.46" x2="20.75" y2="22.72"/>
    <line x1="27.05" y1="16.46" x2="27.80" y2="24.46"/>
    <line x1="28.19" y1="16.34" x2="34.08" y2="17.38"/>
    <line x1="47.40" y1="16.99" x2="38.28" y2="17.77"/>
    <line x1="47.40" y1="16.99" x2="40.04" y2="22.59"/>
    <line x1="47.40" y1="16.99" x2="47.46" y2="26.64"/>
    <line x1="56.75" y1="16.82" x2="52.15" y2="16.99"/>
    <line x1="56.75" y1="16.82" x2="56.54" y2="19.63"/>
    <line x1="56.75" y1="16.82" x2="63.57" y2="21.68"/>
    <line x1="26.68" y1="16.58" x2="19.34" y2="20.51"/>
    <line x1="49.41" y1="17.32" x2="56.20" y2="24.35"/>
    <line x1="35.79" y1="17.84" x2="34.08" y2="17.38"/>
    <line x1="35.79" y1="17.84" x2="40.04" y2="22.59"/>
    <line x1="35.79" y1="17.84" x2="27.80" y2="24.46"/>
    <line x1="35.79" y1="17.84" x2="33.96" y2="26.98"/>
    <line x1="73.29" y1="17.58" x2="78.12" y2="19.92"/>
    <line x1="73.29" y1="17.58" x2="73.05" y2="20.70"/>
    <line x1="56.54" y1="19.63" x2="56.20" y2="24.35"/>
    <line x1="19.34" y1="20.51" x2="20.75" y2="22.72"/>
    <line x1="19.34" y1="20.51" x2="14.71" y2="24.87"/>
    <line x1="72.66" y1="21.44" x2="64.14" y2="21.70"/>
    <line x1="72.66" y1="21.44" x2="72.97" y2="22.44"/>
    <line x1="63.57" y1="21.68" x2="64.14" y2="21.70"/>
    <line x1="63.57" y1="21.68" x2="56.20" y2="24.35"/>
    <line x1="63.57" y1="21.68" x2="69.31" y2="27.62"/>
    <line x1="63.57" y1="21.68" x2="62.01" y2="30.52"/>
    <line x1="40.04" y1="22.59" x2="40.43" y2="23.05"/>
    <line x1="40.04" y1="22.59" x2="33.96" y2="26.98"/>
    <line x1="20.75" y1="22.72" x2="25.20" y2="23.83"/>
    <line x1="20.75" y1="22.72" x2="14.71" y2="24.87"/>
    <line x1="20.75" y1="22.72" x2="21.19" y2="27.25"/>
    <line x1="20.75" y1="22.72" x2="14.70" y2="29.93"/>
    <line x1="79.49" y1="22.27" x2="80.33" y2="26.98"/>
    <line x1="72.97" y1="22.44" x2="83.79" y2="26.07"/>
    <line x1="72.97" y1="22.44" x2="80.33" y2="26.98"/>
    <line x1="72.97" y1="22.44" x2="69.31" y2="27.62"/>
    <line x1="72.97" y1="22.44" x2="74.79" y2="31.72"/>
    <line x1="40.43" y1="23.05" x2="47.46" y2="26.64"/>
    <line x1="40.43" y1="23.05" x2="41.70" y2="29.39"/>
    <line x1="56.20" y1="24.35" x2="47.79" y2="26.79"/>
    <line x1="56.20" y1="24.35" x2="56.05" y2="31.18"/>
    <line x1="56.20" y1="24.35" x2="61.61" y2="31.63"/>
    <line x1="56.20" y1="24.35" x2="51.17" y2="32.32"/>
    <line x1="27.80" y1="24.46" x2="26.95" y2="24.37"/>
    <line x1="27.80" y1="24.46" x2="33.96" y2="26.98"/>
    <line x1="27.80" y1="24.46" x2="21.39" y2="28.76"/>
    <line x1="27.80" y1="24.46" x2="25.54" y2="33.34"/>
    <line x1="14.71" y1="24.87" x2="14.24" y2="25.22"/>
    <line x1="14.24" y1="25.22" x2="14.70" y2="29.93"/>
    <line x1="14.24" y1="25.22" x2="9.34" y2="32.52"/>
    <line x1="83.79" y1="26.07" x2="80.33" y2="26.98"/>
    <line x1="83.79" y1="26.07" x2="86.33" y2="29.10"/>
    <line x1="83.79" y1="26.07" x2="83.59" y2="32.81"/>
    <line x1="47.46" y1="26.64" x2="47.79" y2="26.79"/>
    <line x1="47.46" y1="26.64" x2="42.13" y2="31.31"/>
    <line x1="33.96" y1="26.98" x2="33.11" y2="31.05"/>
    <line x1="33.96" y1="26.98" x2="25.54" y2="33.34"/>
    <line x1="47.79" y1="26.79" x2="48.63" y2="28.91"/>
    <line x1="80.33" y1="26.98" x2="74.79" y2="31.72"/>
    <line x1="80.33" y1="26.98" x2="83.95" y2="35.08"/>
    <line x1="21.19" y1="27.25" x2="21.39" y2="28.76"/>
    <line x1="69.31" y1="27.62" x2="62.01" y2="30.52"/>
    <line x1="69.31" y1="27.62" x2="74.79" y2="31.72"/>
    <line x1="69.31" y1="27.62" x2="68.59" y2="34.83"/>
    <line x1="34.23" y1="27.12" x2="40.33" y2="30.27"/>
    <line x1="48.63" y1="28.91" x2="48.34" y2="31.15"/>
    <line x1="21.39" y1="28.76" x2="14.70" y2="29.93"/>
    <line x1="21.39" y1="28.76" x2="25.54" y2="33.34"/>
    <line x1="21.39" y1="28.76" x2="19.34" y2="35.96"/>
    <line x1="86.33" y1="29.10" x2="87.43" y2="30.79"/>
    <line x1="14.70" y1="29.93" x2="14.30" y2="30.51"/>
    <line x1="41.70" y1="29.39" x2="42.13" y2="31.31"/>
    <line x1="62.01" y1="30.52" x2="61.61" y2="31.63"/>
    <line x1="49.41" y1="29.59" x2="51.17" y2="32.32"/>
    <line x1="40.33" y1="30.27" x2="42.13" y2="31.31"/>
    <line x1="56.05" y1="31.18" x2="61.61" y2="31.63"/>
    <line x1="56.05" y1="31.18" x2="53.52" y2="31.93"/>
    <line x1="56.05" y1="31.18" x2="55.99" y2="31.93"/>
    <line x1="14.30" y1="30.51" x2="9.34" y2="32.52"/>
    <line x1="14.30" y1="30.51" x2="19.34" y2="35.96"/>
    <line x1="14.30" y1="30.51" x2="11.40" y2="38.49"/>
    <line x1="87.43" y1="30.79" x2="88.28" y2="32.94"/>
    <line x1="87.43" y1="30.79" x2="83.95" y2="35.08"/>
    <line x1="33.11" y1="31.05" x2="32.35" y2="34.30"/>
    <line x1="42.13" y1="31.31" x2="32.35" y2="34.30"/>
    <line x1="42.13" y1="31.31" x2="43.03" y2="33.46"/>
    <line x1="42.13" y1="31.31" x2="38.15" y2="37.34"/>
    <line x1="48.34" y1="31.15" x2="48.42" y2="32.78"/>
    <line x1="61.61" y1="31.63" x2="61.46" y2="31.93"/>
    <line x1="61.61" y1="31.63" x2="68.59" y2="34.83"/>
    <line x1="61.61" y1="31.63" x2="55.97" y2="37.52"/>
    <line x1="61.61" y1="31.63" x2="63.28" y2="38.06"/>
    <line x1="74.79" y1="31.72" x2="77.93" y2="33.01"/>
    <line x1="74.79" y1="31.72" x2="68.59" y2="34.83"/>
    <line x1="74.79" y1="31.72" x2="75.17" y2="40.36"/>
    <line x1="42.95" y1="31.72" x2="47.44" y2="36.28"/>
    <line x1="51.17" y1="32.32" x2="53.52" y2="31.93"/>
    <line x1="51.17" y1="32.32" x2="48.42" y2="32.78"/>
    <line x1="51.17" y1="32.32" x2="54.10" y2="35.62"/>
    <line x1="51.17" y1="32.32" x2="51.42" y2="37.81"/>
    <line x1="55.99" y1="31.93" x2="56.25" y2="33.79"/>
    <line x1="55.99" y1="31.93" x2="54.10" y2="35.62"/>
    <line x1="9.34" y1="32.52" x2="9.45" y2="33.52"/>
    <line x1="9.34" y1="32.52" x2="7.67" y2="39.26"/>
    <line x1="45.12" y1="31.93" x2="48.42" y2="32.78"/>
    <line x1="48.42" y1="32.78" x2="48.24" y2="33.76"/>
    <line x1="48.42" y1="32.78" x2="51.42" y2="37.81"/>
    <line x1="25.54" y1="33.34" x2="28.81" y2="33.89"/>
    <line x1="25.54" y1="33.34" x2="19.34" y2="35.96"/>
    <line x1="25.54" y1="33.34" x2="19.79" y2="41.80"/>
    <line x1="25.54" y1="33.34" x2="28.71" y2="41.19"/>
    <line x1="61.46" y1="31.93" x2="60.45" y2="34.67"/>
    <line x1="77.93" y1="33.01" x2="83.48" y2="35.45"/>
    <line x1="28.81" y1="33.89" x2="32.35" y2="34.30"/>
    <line x1="32.35" y1="34.30" x2="32.44" y2="34.74"/>
    <line x1="32.35" y1="34.30" x2="38.15" y2="37.34"/>
    <line x1="32.35" y1="34.30" x2="28.71" y2="41.19"/>
    <line x1="43.03" y1="33.46" x2="43.65" y2="37.27"/>
    <line x1="68.59" y1="34.83" x2="68.46" y2="35.18"/>
    <line x1="68.59" y1="34.83" x2="73.83" y2="39.06"/>
    <line x1="9.45" y1="33.52" x2="11.40" y2="38.49"/>
    <line x1="83.95" y1="35.08" x2="83.48" y2="35.45"/>
    <line x1="83.95" y1="35.08" x2="89.28" y2="36.11"/>
    <line x1="60.45" y1="34.67" x2="59.10" y2="39.45"/>
    <line x1="88.87" y1="34.52" x2="89.28" y2="36.11"/>
    <line x1="48.24" y1="33.76" x2="47.44" y2="36.28"/>
    <line x1="83.48" y1="35.45" x2="75.17" y2="40.36"/>
    <line x1="83.48" y1="35.45" x2="86.72" y2="40.82"/>
    <line x1="83.48" y1="35.45" x2="82.53" y2="43.16"/>
    <line x1="54.10" y1="35.62" x2="51.42" y2="37.81"/>
    <line x1="54.10" y1="35.62" x2="55.97" y2="37.52"/>
    <line x1="68.46" y1="35.18" x2="63.28" y2="38.06"/>
    <line x1="68.46" y1="35.18" x2="66.86" y2="42.79"/>
    <line x1="19.34" y1="35.96" x2="19.32" y2="36.39"/>
    <line x1="19.34" y1="35.96" x2="11.40" y2="38.49"/>
    <line x1="56.05" y1="36.72" x2="55.97" y2="37.52"/>
    <line x1="47.44" y1="36.28" x2="43.65" y2="37.27"/>
    <line x1="47.44" y1="36.28" x2="51.54" y2="38.41"/>
    <line x1="47.44" y1="36.28" x2="46.74" y2="40.76"/>
    <line x1="89.28" y1="36.11" x2="91.50" y2="40.62"/>
    <line x1="89.28" y1="36.11" x2="87.38" y2="42.21"/>
    <line x1="38.15" y1="37.34" x2="38.48" y2="37.50"/>
    <line x1="38.15" y1="37.34" x2="34.46" y2="41.54"/>
    <line x1="51.42" y1="37.81" x2="51.54" y2="38.41"/>
    <line x1="19.32" y1="36.39" x2="19.79" y2="41.80"/>
    <line x1="43.65" y1="37.27" x2="42.63" y2="37.40"/>
    <line x1="43.65" y1="37.27" x2="46.74" y2="40.76"/>
    <line x1="43.65" y1="37.27" x2="41.92" y2="41.81"/>
    <line x1="33.01" y1="36.65" x2="34.46" y2="41.54"/>
    <line x1="42.63" y1="37.40" x2="38.48" y2="37.50"/>
    <line x1="55.97" y1="37.52" x2="54.62" y2="38.02"/>
    <line x1="55.97" y1="37.52" x2="58.72" y2="39.67"/>
    <line x1="55.97" y1="37.52" x2="55.86" y2="41.46"/>
    <line x1="38.48" y1="37.50" x2="41.92" y2="41.81"/>
    <line x1="63.28" y1="38.06" x2="59.10" y2="39.45"/>
    <line x1="63.28" y1="38.06" x2="61.91" y2="42.38"/>
    <line x1="63.28" y1="38.06" x2="66.86" y2="42.79"/>
    <line x1="11.40" y1="38.49" x2="7.67" y2="39.26"/>
    <line x1="11.40" y1="38.49" x2="11.82" y2="41.89"/>
    <line x1="11.40" y1="38.49" x2="19.22" y2="41.95"/>
    <line x1="11.40" y1="38.49" x2="8.46" y2="43.75"/>
    <line x1="54.62" y1="38.02" x2="51.54" y2="38.41"/>
    <line x1="51.54" y1="38.41" x2="46.74" y2="40.76"/>
    <line x1="51.54" y1="38.41" x2="55.18" y2="41.86"/>
    <line x1="51.54" y1="38.41" x2="51.00" y2="44.04"/>
    <line x1="7.67" y1="39.26" x2="8.46" y2="43.75"/>
    <line x1="59.10" y1="39.45" x2="58.72" y2="39.67"/>
    <line x1="59.10" y1="39.45" x2="61.91" y2="42.38"/>
    <line x1="38.48" y1="39.45" x2="38.48" y2="41.80"/>
    <line x1="58.72" y1="39.67" x2="55.86" y2="41.46"/>
    <line x1="58.72" y1="39.67" x2="58.06" y2="43.41"/>
    <line x1="75.17" y1="40.36" x2="67.87" y2="42.68"/>
    <line x1="75.17" y1="40.36" x2="82.53" y2="43.16"/>
    <line x1="75.17" y1="40.36" x2="72.35" y2="47.16"/>
    <line x1="75.17" y1="40.36" x2="78.49" y2="47.27"/>
    <line x1="46.74" y1="40.76" x2="41.92" y2="41.81"/>
    <line x1="46.74" y1="40.76" x2="50.10" y2="43.55"/>
    <line x1="46.74" y1="40.76" x2="46.88" y2="43.95"/>
    <line x1="46.74" y1="40.76" x2="43.99" y2="44.53"/>
    <line x1="91.50" y1="40.62" x2="92.16" y2="42.09"/>
    <line x1="86.72" y1="40.82" x2="87.38" y2="42.21"/>
    <line x1="19.79" y1="41.80" x2="28.71" y2="41.19"/>
    <line x1="19.79" y1="41.80" x2="19.22" y2="41.95"/>
    <line x1="19.79" y1="41.80" x2="19.60" y2="42.09"/>
    <line x1="19.79" y1="41.80" x2="26.56" y2="47.43"/>
    <line x1="28.71" y1="41.19" x2="29.88" y2="41.26"/>
    <line x1="28.71" y1="41.19" x2="26.56" y2="47.43"/>
    <line x1="28.71" y1="41.19" x2="33.22" y2="47.38"/>
    <line x1="55.86" y1="41.46" x2="55.18" y2="41.86"/>
    <line x1="29.88" y1="41.26" x2="34.46" y2="41.54"/>
    <line x1="34.46" y1="41.54" x2="38.48" y2="41.80"/>
    <line x1="34.46" y1="41.54" x2="39.45" y2="46.35"/>
    <line x1="34.46" y1="41.54" x2="33.22" y2="47.38"/>
    <line x1="41.92" y1="41.81" x2="38.48" y2="41.80"/>
    <line x1="41.92" y1="41.81" x2="43.99" y2="44.53"/>
    <line x1="41.92" y1="41.81" x2="39.45" y2="46.35"/>
    <line x1="11.82" y1="41.89" x2="11.65" y2="46.48"/>
    <line x1="19.22" y1="41.95" x2="19.60" y2="42.09"/>
    <line x1="19.22" y1="41.95" x2="12.61" y2="46.85"/>
    <line x1="38.48" y1="41.80" x2="38.80" y2="43.10"/>
    <line x1="55.18" y1="41.86" x2="58.06" y2="43.41"/>
    <line x1="55.18" y1="41.86" x2="51.00" y2="44.04"/>
    <line x1="55.18" y1="41.86" x2="55.47" y2="46.90"/>
    <line x1="61.91" y1="42.38" x2="58.59" y2="43.36"/>
    <line x1="61.91" y1="42.38" x2="61.23" y2="44.73"/>
    <line x1="87.38" y1="42.21" x2="82.53" y2="43.16"/>
    <line x1="87.38" y1="42.21" x2="89.06" y2="45.12"/>
    <line x1="87.38" y1="42.21" x2="83.79" y2="49.14"/>
    <line x1="92.16" y1="42.09" x2="89.65" y2="42.38"/>
    <line x1="92.16" y1="42.09" x2="92.19" y2="46.16"/>
    <line x1="19.60" y1="42.09" x2="19.73" y2="48.05"/>
    <line x1="66.86" y1="42.79" x2="62.83" y2="42.45"/>
    <line x1="66.86" y1="42.79" x2="69.04" y2="44.34"/>
    <line x1="66.86" y1="42.79" x2="60.76" y2="46.93"/>
    <line x1="66.86" y1="42.79" x2="66.80" y2="48.24"/>
    <line x1="82.53" y1="43.16" x2="78.49" y2="47.27"/>
    <line x1="50.10" y1="43.55" x2="51.00" y2="44.04"/>
    <line x1="50.10" y1="43.55" x2="47.95" y2="45.80"/>
    <line x1="58.06" y1="43.41" x2="58.59" y2="43.36"/>
    <line x1="58.06" y1="43.41" x2="55.47" y2="46.90"/>
    <line x1="58.59" y1="43.36" x2="60.76" y2="46.93"/>
    <line x1="8.46" y1="43.75" x2="9.08" y2="45.36"/>
    <line x1="38.80" y1="43.10" x2="39.45" y2="46.35"/>
    <line x1="46.88" y1="43.95" x2="46.84" y2="45.55"/>
    <line x1="51.00" y1="44.04" x2="55.47" y2="46.90"/>
    <line x1="51.00" y1="44.04" x2="49.96" y2="49.16"/>
    <line x1="92.04" y1="42.77" x2="92.19" y2="46.16"/>
    <line x1="43.99" y1="44.53" x2="46.84" y2="45.55"/>
    <line x1="43.99" y1="44.53" x2="39.45" y2="46.35"/>
    <line x1="43.99" y1="44.53" x2="44.25" y2="47.71"/>
    <line x1="69.04" y1="44.34" x2="71.73" y2="46.92"/>
    <line x1="61.23" y1="44.73" x2="60.76" y2="46.93"/>
    <line x1="89.06" y1="45.12" x2="90.12" y2="46.48"/>
    <line x1="47.95" y1="45.80" x2="49.96" y2="49.16"/>
    <line x1="9.08" y1="45.36" x2="11.65" y2="46.48"/>
    <line x1="9.08" y1="45.36" x2="11.72" y2="50.89"/>
    <line x1="46.84" y1="45.55" x2="44.25" y2="47.71"/>
    <line x1="39.45" y1="46.35" x2="38.81" y2="46.68"/>
    <line x1="39.45" y1="46.35" x2="40.95" y2="46.94"/>
    <line x1="39.45" y1="46.35" x2="40.14" y2="48.44"/>
    <line x1="39.45" y1="46.35" x2="35.45" y2="52.52"/>
    <line x1="92.19" y1="46.16" x2="92.97" y2="48.83"/>
    <line x1="71.73" y1="46.92" x2="72.35" y2="47.16"/>
    <line x1="71.73" y1="46.92" x2="66.80" y2="48.24"/>
    <line x1="11.65" y1="46.48" x2="12.61" y2="46.85"/>
    <line x1="90.12" y1="46.48" x2="90.51" y2="47.64"/>
    <line x1="55.47" y1="46.90" x2="60.76" y2="46.93"/>
    <line x1="55.47" y1="46.90" x2="49.96" y2="49.16"/>
    <line x1="55.47" y1="46.90" x2="54.06" y2="51.09"/>
    <line x1="60.76" y1="46.93" x2="63.28" y2="47.56"/>
    <line x1="60.76" y1="46.93" x2="57.50" y2="49.61"/>
    <line x1="60.76" y1="46.93" x2="61.24" y2="51.37"/>
    <line x1="38.81" y1="46.68" x2="35.16" y2="47.17"/>
    <line x1="44.25" y1="47.71" x2="40.95" y2="46.94"/>
    <line x1="44.25" y1="47.71" x2="44.55" y2="48.15"/>
    <line x1="12.61" y1="46.85" x2="19.70" y2="50.42"/>
    <line x1="12.61" y1="46.85" x2="11.72" y2="50.89"/>
    <line x1="72.35" y1="47.16" x2="77.15" y2="53.98"/>
    <line x1="72.35" y1="47.16" x2="68.12" y2="53.78"/>
    <line x1="26.56" y1="47.43" x2="33.22" y2="47.38"/>
    <line x1="26.56" y1="47.43" x2="27.08" y2="49.15"/>
    <line x1="26.56" y1="47.43" x2="19.70" y2="50.42"/>
    <line x1="33.22" y1="47.38" x2="35.16" y2="47.17"/>
    <line x1="33.22" y1="47.38" x2="34.28" y2="49.61"/>
    <line x1="33.22" y1="47.38" x2="28.53" y2="53.78"/>
    <line x1="78.49" y1="47.27" x2="73.83" y2="47.17"/>
    <line x1="78.49" y1="47.27" x2="83.79" y2="49.14"/>
    <line x1="78.49" y1="47.27" x2="77.15" y2="53.98"/>
    <line x1="63.28" y1="47.56" x2="65.33" y2="47.95"/>
    <line x1="90.51" y1="47.64" x2="84.08" y2="49.97"/>
    <line x1="90.51" y1="47.64" x2="92.60" y2="50.93"/>
    <line x1="90.51" y1="47.64" x2="90.51" y2="53.65"/>
    <line x1="19.73" y1="48.05" x2="19.70" y2="50.42"/>
    <line x1="65.33" y1="47.95" x2="66.80" y2="48.24"/>
    <line x1="66.80" y1="48.24" x2="62.23" y2="51.91"/>
    <line x1="66.80" y1="48.24" x2="68.12" y2="53.78"/>
    <line x1="56.01" y1="47.61" x2="57.50" y2="49.61"/>
    <line x1="40.14" y1="48.44" x2="40.43" y2="49.54"/>
    <line x1="44.55" y1="48.15" x2="46.88" y2="48.73"/>
    <line x1="44.55" y1="48.15" x2="44.99" y2="48.99"/>
    <line x1="44.55" y1="48.15" x2="41.19" y2="52.10"/>
    <line x1="83.79" y1="49.14" x2="84.08" y2="49.97"/>
    <line x1="46.88" y1="48.73" x2="49.96" y2="49.16"/>
    <line x1="49.96" y1="49.16" x2="45.87" y2="52.23"/>
    <line x1="49.96" y1="49.16" x2="53.73" y2="51.74"/>
    <line x1="49.96" y1="49.16" x2="49.58" y2="53.49"/>
    <line x1="27.08" y1="49.15" x2="28.53" y2="53.78"/>
    <line x1="34.28" y1="49.61" x2="35.45" y2="52.52"/>
    <line x1="57.50" y1="49.61" x2="54.06" y2="51.09"/>
    <line x1="57.50" y1="49.61" x2="57.40" y2="53.49"/>
    <line x1="40.43" y1="49.54" x2="41.19" y2="52.10"/>
    <line x1="44.99" y1="48.99" x2="45.87" y2="52.23"/>
    <line x1="84.08" y1="49.97" x2="77.15" y2="53.98"/>
    <line x1="84.08" y1="49.97" x2="90.51" y2="53.65"/>
    <line x1="84.08" y1="49.97" x2="84.18" y2="57.91"/>
    <line x1="19.70" y1="50.42" x2="11.72" y2="50.89"/>
    <line x1="19.70" y1="50.42" x2="15.43" y2="53.56"/>
    <line x1="19.70" y1="50.42" x2="20.12" y2="53.71"/>
    <line x1="19.70" y1="50.42" x2="23.63" y2="55.66"/>
    <line x1="11.72" y1="50.89" x2="15.43" y2="53.56"/>
    <line x1="54.06" y1="51.09" x2="53.73" y2="51.74"/>
    <line x1="92.60" y1="50.93" x2="90.51" y2="53.65"/>
    <line x1="92.60" y1="50.93" x2="92.15" y2="57.58"/>
    <line x1="20.04" y1="50.53" x2="28.53" y2="53.78"/>
    <line x1="61.24" y1="51.37" x2="62.23" y2="51.91"/>
    <line x1="61.24" y1="51.37" x2="57.68" y2="53.66"/>
    <line x1="41.19" y1="52.10" x2="45.87" y2="52.23"/>
    <line x1="41.19" y1="52.10" x2="35.45" y2="52.52"/>
    <line x1="41.19" y1="52.10" x2="44.47" y2="56.58"/>
    <line x1="41.19" y1="52.10" x2="38.28" y2="58.57"/>
    <line x1="45.87" y1="52.23" x2="46.04" y2="52.85"/>
    <line x1="53.73" y1="51.74" x2="57.40" y2="53.49"/>
    <line x1="53.73" y1="51.74" x2="49.58" y2="53.49"/>
    <line x1="53.73" y1="51.74" x2="52.47" y2="56.45"/>
    <line x1="62.23" y1="51.91" x2="68.12" y2="53.78"/>
    <line x1="62.23" y1="51.91" x2="61.78" y2="56.99"/>
    <line x1="35.45" y1="52.52" x2="28.53" y2="53.78"/>
    <line x1="35.45" y1="52.52" x2="33.43" y2="57.49"/>
    <line x1="35.45" y1="52.52" x2="38.28" y2="58.57"/>
    <line x1="46.04" y1="52.85" x2="49.58" y2="53.49"/>
    <line x1="46.04" y1="52.85" x2="44.47" y2="56.58"/>
    <line x1="57.40" y1="53.49" x2="57.68" y2="53.66"/>
    <line x1="57.40" y1="53.49" x2="52.47" y2="56.45"/>
    <line x1="77.15" y1="53.98" x2="77.12" y2="54.54"/>
    <line x1="90.51" y1="53.65" x2="90.28" y2="53.98"/>
    <line x1="90.51" y1="53.65" x2="92.15" y2="57.58"/>
    <line x1="49.58" y1="53.49" x2="52.47" y2="56.45"/>
    <line x1="68.12" y1="53.78" x2="70.51" y2="57.32"/>
    <line x1="68.12" y1="53.78" x2="66.00" y2="60.12"/>
    <line x1="15.43" y1="53.56" x2="23.63" y2="55.66"/>
    <line x1="28.53" y1="53.78" x2="23.63" y2="55.66"/>
    <line x1="28.53" y1="53.78" x2="33.43" y2="57.49"/>
    <line x1="28.53" y1="53.78" x2="26.53" y2="59.77"/>
    <line x1="57.68" y1="53.66" x2="57.35" y2="58.37"/>
    <line x1="69.73" y1="53.81" x2="75.20" y2="54.10"/>
    <line x1="90.28" y1="53.98" x2="84.18" y2="57.91"/>
    <line x1="90.28" y1="53.98" x2="88.61" y2="60.81"/>
    <line x1="49.36" y1="53.68" x2="45.05" y2="56.51"/>
    <line x1="77.12" y1="54.54" x2="77.37" y2="54.64"/>
    <line x1="77.12" y1="54.54" x2="71.22" y2="58.51"/>
    <line x1="77.12" y1="54.54" x2="75.90" y2="60.94"/>
    <line x1="77.12" y1="54.54" x2="80.47" y2="60.89"/>
    <line x1="58.53" y1="54.17" x2="61.78" y2="56.99"/>
    <line x1="66.99" y1="54.30" x2="61.78" y2="56.99"/>
    <line x1="23.63" y1="55.66" x2="26.53" y2="59.77"/>
    <line x1="77.37" y1="54.64" x2="84.18" y2="57.91"/>
    <line x1="28.71" y1="54.79" x2="29.93" y2="61.20"/>
    <line x1="44.47" y1="56.58" x2="45.05" y2="56.51"/>
    <line x1="44.47" y1="56.58" x2="44.59" y2="56.74"/>
    <line x1="44.47" y1="56.58" x2="38.28" y2="58.57"/>
    <line x1="44.47" y1="56.58" x2="47.98" y2="60.87"/>
    <line x1="45.05" y1="56.51" x2="52.10" y2="56.54"/>
    <line x1="52.47" y1="56.45" x2="52.10" y2="56.54"/>
    <line x1="52.47" y1="56.45" x2="52.47" y2="56.67"/>
    <line x1="52.47" y1="56.45" x2="57.35" y2="58.37"/>
    <line x1="52.47" y1="56.45" x2="47.98" y2="60.87"/>
    <line x1="61.78" y1="56.99" x2="57.35" y2="58.37"/>
    <line x1="61.78" y1="56.99" x2="66.00" y2="60.12"/>
    <line x1="61.78" y1="56.99" x2="60.77" y2="61.52"/>
    <line x1="33.43" y1="57.49" x2="33.68" y2="57.87"/>
    <line x1="33.43" y1="57.49" x2="38.28" y2="58.57"/>
    <line x1="33.43" y1="57.49" x2="29.93" y2="61.20"/>
    <line x1="70.51" y1="57.32" x2="71.22" y2="58.51"/>
    <line x1="92.15" y1="57.58" x2="91.99" y2="57.92"/>
    <line x1="44.59" y1="56.74" x2="42.30" y2="63.12"/>
    <line x1="52.47" y1="56.67" x2="53.01" y2="61.86"/>
    <line x1="84.18" y1="57.91" x2="80.47" y2="60.89"/>
    <line x1="84.18" y1="57.91" x2="87.62" y2="61.80"/>
    <line x1="84.18" y1="57.91" x2="84.03" y2="63.21"/>
    <line x1="57.35" y1="58.37" x2="53.01" y2="61.86"/>
    <line x1="57.35" y1="58.37" x2="60.21" y2="62.15"/>
    <line x1="33.68" y1="57.87" x2="34.67" y2="61.91"/>
    <line x1="38.28" y1="58.57" x2="41.52" y2="63.22"/>
    <line x1="38.28" y1="58.57" x2="34.77" y2="63.48"/>
    <line x1="71.22" y1="58.51" x2="66.00" y2="60.12"/>
    <line x1="71.22" y1="58.51" x2="75.90" y2="60.94"/>
    <line x1="71.22" y1="58.51" x2="69.53" y2="62.50"/>
    <line x1="91.99" y1="57.92" x2="88.61" y2="60.81"/>
    <line x1="91.99" y1="57.92" x2="89.18" y2="63.48"/>
    <line x1="26.53" y1="59.77" x2="29.93" y2="61.20"/>
    <line x1="66.00" y1="60.12" x2="60.77" y2="61.52"/>
    <line x1="66.00" y1="60.12" x2="65.89" y2="60.31"/>
    <line x1="66.00" y1="60.12" x2="69.53" y2="62.50"/>
    <line x1="75.90" y1="60.94" x2="71.61" y2="62.50"/>
    <line x1="75.90" y1="60.94" x2="75.83" y2="62.00"/>
    <line x1="75.90" y1="60.94" x2="79.84" y2="64.41"/>
    <line x1="47.98" y1="60.87" x2="50.00" y2="61.23"/>
    <line x1="47.98" y1="60.87" x2="42.30" y2="63.12"/>
    <line x1="47.98" y1="60.87" x2="47.56" y2="63.09"/>
    <line x1="60.77" y1="61.52" x2="60.21" y2="62.15"/>
    <line x1="80.47" y1="60.89" x2="84.03" y2="63.21"/>
    <line x1="88.61" y1="60.81" x2="87.62" y2="61.80"/>
    <line x1="29.93" y1="61.20" x2="31.90" y2="62.17"/>
    <line x1="29.93" y1="61.20" x2="28.19" y2="63.15"/>
    <line x1="26.72" y1="60.12" x2="28.19" y2="63.15"/>
    <line x1="76.15" y1="61.01" x2="79.30" y2="60.84"/>
    <line x1="50.00" y1="61.23" x2="53.01" y2="61.86"/>
    <line x1="34.67" y1="61.91" x2="34.77" y2="63.48"/>
    <line x1="53.01" y1="61.86" x2="58.45" y2="62.55"/>
    <line x1="53.01" y1="61.86" x2="54.61" y2="64.31"/>
    <line x1="53.01" y1="61.86" x2="47.24" y2="65.01"/>
    <line x1="53.01" y1="61.86" x2="51.86" y2="65.65"/>
    <line x1="87.62" y1="61.80" x2="84.03" y2="63.21"/>
    <line x1="87.62" y1="61.80" x2="89.18" y2="63.48"/>
    <line x1="87.62" y1="61.80" x2="85.06" y2="65.62"/>
    <line x1="71.61" y1="62.50" x2="69.53" y2="62.50"/>
    <line x1="71.61" y1="62.50" x2="73.83" y2="63.09"/>
    <line x1="58.45" y1="62.55" x2="60.21" y2="62.15"/>
    <line x1="58.45" y1="62.55" x2="54.61" y2="64.31"/>
    <line x1="60.21" y1="62.15" x2="58.30" y2="65.66"/>
    <line x1="60.21" y1="62.15" x2="61.89" y2="65.94"/>
    <line x1="31.90" y1="62.17" x2="34.77" y2="63.48"/>
    <line x1="69.53" y1="62.50" x2="65.36" y2="63.22"/>
    <line x1="69.53" y1="62.50" x2="66.17" y2="65.22"/>
    <line x1="69.53" y1="62.50" x2="71.79" y2="65.39"/>
    <line x1="75.83" y1="62.00" x2="71.79" y2="65.39"/>
    <line x1="75.83" y1="62.00" x2="77.15" y2="66.37"/>
    <line x1="61.57" y1="62.06" x2="65.36" y2="63.22"/>
    <line x1="80.47" y1="62.21" x2="79.84" y2="64.41"/>
    <line x1="28.19" y1="63.15" x2="33.33" y2="66.15"/>
    <line x1="42.30" y1="63.12" x2="41.52" y2="63.22"/>
    <line x1="42.30" y1="63.12" x2="45.21" y2="64.36"/>
    <line x1="41.52" y1="63.22" x2="34.77" y2="63.48"/>
    <line x1="41.52" y1="63.22" x2="42.24" y2="64.36"/>
    <line x1="41.52" y1="63.22" x2="38.35" y2="66.28"/>
    <line x1="47.56" y1="63.09" x2="47.24" y2="65.01"/>
    <line x1="65.36" y1="63.22" x2="61.89" y2="65.94"/>
    <line x1="84.03" y1="63.21" x2="85.06" y2="65.62"/>
    <line x1="34.77" y1="63.48" x2="29.10" y2="63.77"/>
    <line x1="34.77" y1="63.48" x2="33.33" y2="66.15"/>
    <line x1="34.77" y1="63.48" x2="37.07" y2="66.52"/>
    <line x1="89.18" y1="63.48" x2="85.06" y2="65.62"/>
    <line x1="75.78" y1="63.40" x2="79.84" y2="64.41"/>
    <line x1="83.79" y1="63.34" x2="79.84" y2="64.41"/>
    <line x1="54.61" y1="64.31" x2="51.86" y2="65.65"/>
    <line x1="54.61" y1="64.31" x2="58.30" y2="65.66"/>
    <line x1="54.61" y1="64.31" x2="54.84" y2="65.12"/>
    <line x1="79.84" y1="64.41" x2="85.06" y2="65.62"/>
    <line x1="79.84" y1="64.41" x2="77.15" y2="66.37"/>
    <line x1="45.21" y1="64.36" x2="47.24" y2="65.01"/>
    <line x1="47.24" y1="65.01" x2="51.86" y2="65.65"/>
    <line x1="47.24" y1="65.01" x2="43.36" y2="66.31"/>
    <line x1="47.24" y1="65.01" x2="47.75" y2="65.84"/>
    <line x1="66.17" y1="65.22" x2="71.79" y2="65.39"/>
    <line x1="66.17" y1="65.22" x2="62.87" y2="68.22"/>
    <line x1="66.17" y1="65.22" x2="68.25" y2="68.95"/>
    <line x1="42.24" y1="64.36" x2="43.36" y2="66.31"/>
    <line x1="51.86" y1="65.65" x2="55.55" y2="69.20"/>
    <line x1="51.86" y1="65.65" x2="51.61" y2="70.10"/>
    <line x1="71.79" y1="65.39" x2="73.51" y2="68.60"/>
    <line x1="71.79" y1="65.39" x2="68.25" y2="68.95"/>
    <line x1="58.30" y1="65.66" x2="61.89" y2="65.94"/>
    <line x1="58.30" y1="65.66" x2="58.98" y2="68.59"/>
    <line x1="58.30" y1="65.66" x2="55.55" y2="69.20"/>
    <line x1="38.35" y1="66.28" x2="37.07" y2="66.52"/>
    <line x1="38.35" y1="66.28" x2="41.70" y2="66.02"/>
    <line x1="61.89" y1="65.94" x2="65.49" y2="65.49"/>
    <line x1="61.89" y1="65.94" x2="58.98" y2="68.59"/>
    <line x1="72.46" y1="65.38" x2="77.15" y2="66.37"/>
    <line x1="54.84" y1="65.12" x2="55.55" y2="69.20"/>
    <line x1="80.04" y1="64.84" x2="81.07" y2="68.20"/>
    <line x1="33.33" y1="66.15" x2="37.07" y2="66.52"/>
    <line x1="47.75" y1="65.84" x2="51.61" y2="70.10"/>
    <line x1="77.15" y1="66.37" x2="79.95" y2="67.58"/>
    <line x1="77.15" y1="66.37" x2="73.51" y2="68.60"/>
    <line x1="77.15" y1="66.37" x2="76.89" y2="69.69"/>
    <line x1="62.87" y1="68.22" x2="59.34" y2="68.71"/>
    <line x1="62.87" y1="68.22" x2="64.45" y2="68.80"/>
    <line x1="62.87" y1="68.22" x2="61.46" y2="72.12"/>
    <line x1="58.98" y1="68.59" x2="56.15" y2="69.19"/>
    <line x1="58.98" y1="68.59" x2="58.30" y2="71.55"/>
    <line x1="58.98" y1="68.59" x2="61.46" y2="72.12"/>
    <line x1="81.07" y1="68.20" x2="77.54" y2="69.58"/>
    <line x1="81.07" y1="68.20" x2="80.47" y2="70.48"/>
    <line x1="48.93" y1="67.68" x2="51.27" y2="70.18"/>
    <line x1="55.55" y1="69.20" x2="51.61" y2="70.10"/>
    <line x1="55.55" y1="69.20" x2="55.76" y2="69.56"/>
    <line x1="55.55" y1="69.20" x2="58.30" y2="71.55"/>
    <line x1="73.51" y1="68.60" x2="68.25" y2="68.95"/>
    <line x1="73.51" y1="68.60" x2="76.89" y2="69.69"/>
    <line x1="73.51" y1="68.60" x2="72.58" y2="71.31"/>
    <line x1="64.45" y1="68.80" x2="68.25" y2="68.95"/>
    <line x1="68.25" y1="68.95" x2="65.26" y2="71.24"/>
    <line x1="68.25" y1="68.95" x2="68.67" y2="72.25"/>
    <line x1="76.89" y1="69.69" x2="80.47" y2="70.48"/>
    <line x1="76.89" y1="69.69" x2="72.58" y2="71.31"/>
    <line x1="68.82" y1="69.18" x2="72.58" y2="71.31"/>
    <line x1="51.61" y1="70.10" x2="51.37" y2="72.36"/>
    <line x1="51.61" y1="70.10" x2="53.29" y2="73.58"/>
    <line x1="55.76" y1="69.56" x2="56.54" y2="71.88"/>
    <line x1="55.76" y1="69.56" x2="54.17" y2="74.07"/>
    <line x1="64.52" y1="70.77" x2="65.26" y2="71.24"/>
    <line x1="64.52" y1="70.77" x2="61.46" y2="72.12"/>
    <line x1="80.47" y1="70.48" x2="77.85" y2="73.05"/>
    <line x1="80.47" y1="70.48" x2="77.84" y2="74.18"/>
    <line x1="65.26" y1="71.24" x2="68.67" y2="72.25"/>
    <line x1="65.26" y1="71.24" x2="65.00" y2="74.10"/>
    <line x1="72.58" y1="71.31" x2="68.67" y2="72.25"/>
    <line x1="72.58" y1="71.31" x2="74.35" y2="71.68"/>
    <line x1="72.58" y1="71.31" x2="72.38" y2="71.64"/>
    <line x1="72.58" y1="71.31" x2="75.51" y2="75.05"/>
    <line x1="58.30" y1="71.55" x2="61.46" y2="72.12"/>
    <line x1="58.30" y1="71.55" x2="59.07" y2="73.86"/>
    <line x1="68.67" y1="72.25" x2="65.00" y2="74.10"/>
    <line x1="68.67" y1="72.25" x2="72.11" y2="74.86"/>
    <line x1="68.67" y1="72.25" x2="69.02" y2="75.82"/>
    <line x1="74.35" y1="71.68" x2="75.49" y2="71.97"/>
    <line x1="51.37" y1="72.36" x2="53.29" y2="73.58"/>
    <line x1="51.37" y1="72.36" x2="54.00" y2="76.37"/>
    <line x1="61.46" y1="72.12" x2="61.94" y2="72.33"/>
    <line x1="61.46" y1="72.12" x2="59.07" y2="73.86"/>
    <line x1="61.46" y1="72.12" x2="61.52" y2="74.93"/>
    <line x1="72.38" y1="71.64" x2="72.11" y2="74.86"/>
    <line x1="77.85" y1="73.05" x2="77.84" y2="74.18"/>
    <line x1="77.85" y1="73.05" x2="75.51" y2="75.05"/>
    <line x1="61.94" y1="72.33" x2="65.00" y2="74.10"/>
    <line x1="53.29" y1="73.58" x2="54.17" y2="74.07"/>
    <line x1="56.84" y1="72.85" x2="55.83" y2="75.14"/>
    <line x1="59.07" y1="73.86" x2="61.52" y2="74.93"/>
    <line x1="59.07" y1="73.86" x2="57.73" y2="75.39"/>
    <line x1="65.00" y1="74.10" x2="61.52" y2="74.93"/>
    <line x1="54.17" y1="74.07" x2="55.83" y2="75.14"/>
    <line x1="77.84" y1="74.18" x2="75.51" y2="75.05"/>
    <line x1="75.51" y1="75.05" x2="72.11" y2="74.86"/>
    <line x1="75.51" y1="75.05" x2="72.07" y2="76.95"/>
    <line x1="61.52" y1="74.93" x2="62.27" y2="75.39"/>
    <line x1="61.52" y1="74.93" x2="61.29" y2="81.17"/>
    <line x1="65.49" y1="74.52" x2="65.16" y2="75.98"/>
    <line x1="72.11" y1="74.86" x2="69.02" y2="75.82"/>
    <line x1="72.11" y1="74.86" x2="66.99" y2="76.95"/>
    <line x1="55.83" y1="75.14" x2="57.73" y2="75.39"/>
    <line x1="59.10" y1="74.34" x2="59.23" y2="77.44"/>
    <line x1="69.02" y1="75.82" x2="65.16" y2="75.98"/>
    <line x1="62.27" y1="75.39" x2="65.16" y2="75.98"/>
    <line x1="54.00" y1="76.37" x2="54.24" y2="77.91"/>
    <line x1="61.13" y1="75.20" x2="59.23" y2="77.44"/>
    <line x1="58.18" y1="76.95" x2="56.40" y2="77.59"/>
    <line x1="58.18" y1="76.95" x2="59.23" y2="77.44"/>
    <line x1="58.18" y1="76.95" x2="57.88" y2="79.75"/>
    <line x1="56.40" y1="77.59" x2="57.88" y2="79.75"/>
    <line x1="59.23" y1="77.44" x2="58.19" y2="80.62"/>
    <line x1="54.24" y1="77.91" x2="58.19" y2="80.62"/>
    <line x1="57.88" y1="79.75" x2="58.19" y2="80.62"/>
    <line x1="54.47" y1="78.39" x2="56.93" y2="83.95"/>
    <line x1="58.19" y1="80.62" x2="56.93" y2="83.95"/>
    <line x1="58.19" y1="80.62" x2="59.77" y2="84.90"/>
    <line x1="61.29" y1="81.17" x2="61.54" y2="82.98"/>
    <line x1="58.53" y1="81.18" x2="61.54" y2="82.98"/>
    <line x1="61.54" y1="82.98" x2="60.13" y2="85.97"/>
    <line x1="61.54" y1="82.98" x2="61.87" y2="88.09"/>
    <line x1="57.26" y1="84.41" x2="60.13" y2="85.97"/>
    <line x1="57.26" y1="84.41" x2="59.30" y2="88.48"/>
    <line x1="60.13" y1="85.97" x2="61.87" y2="88.09"/>
    <line x1="60.13" y1="85.97" x2="59.30" y2="88.48"/>
    <line x1="61.87" y1="88.09" x2="59.30" y2="88.48"/>
  </g>
  <g fill="#00B3E3">
    <circle cx="48.63" cy="11.57" r="0.85"/>
    <circle cx="50.10" cy="11.52" r="0.85"/>
    <circle cx="42.29" cy="11.96" r="0.85"/>
    <circle cx="53.91" cy="11.72" r="0.85"/>
    <circle cx="56.05" cy="11.91" r="0.85"/>
    <circle cx="35.74" cy="13.71" r="0.85"/>
    <circle cx="55.76" cy="14.65" r="0.85"/>
    <circle cx="66.70" cy="14.75" r="0.85"/>
    <circle cx="64.65" cy="14.84" r="0.85"/>
    <circle cx="35.84" cy="14.84" r="0.85"/>
    <circle cx="27.05" cy="16.46" r="0.85"/>
    <circle cx="28.19" cy="16.34" r="0.85"/>
    <circle cx="47.40" cy="16.99" r="0.85"/>
    <circle cx="56.75" cy="16.82" r="0.85"/>
    <circle cx="26.68" cy="16.58" r="0.85"/>
    <circle cx="49.41" cy="17.32" r="0.85"/>
    <circle cx="52.15" cy="16.99" r="0.85"/>
    <circle cx="35.79" cy="17.84" r="0.85"/>
    <circle cx="34.08" cy="17.38" r="0.85"/>
    <circle cx="73.29" cy="17.58" r="0.85"/>
    <circle cx="38.28" cy="17.77" r="0.85"/>
    <circle cx="56.54" cy="19.63" r="0.85"/>
    <circle cx="78.12" cy="19.92" r="0.85"/>
    <circle cx="73.05" cy="20.70" r="0.85"/>
    <circle cx="19.34" cy="20.51" r="0.85"/>
    <circle cx="72.66" cy="21.44" r="0.85"/>
    <circle cx="63.57" cy="21.68" r="0.85"/>
    <circle cx="64.14" cy="21.70" r="0.85"/>
    <circle cx="40.04" cy="22.59" r="0.85"/>
    <circle cx="20.75" cy="22.72" r="0.85"/>
    <circle cx="79.49" cy="22.27" r="0.85"/>
    <circle cx="72.97" cy="22.44" r="0.85"/>
    <circle cx="40.43" cy="23.05" r="0.85"/>
    <circle cx="25.20" cy="23.83" r="0.85"/>
    <circle cx="56.20" cy="24.35" r="0.85"/>
    <circle cx="27.80" cy="24.46" r="0.85"/>
    <circle cx="26.95" cy="24.37" r="0.85"/>
    <circle cx="14.71" cy="24.87" r="0.85"/>
    <circle cx="14.24" cy="25.22" r="0.85"/>
    <circle cx="83.79" cy="26.07" r="0.85"/>
    <circle cx="47.46" cy="26.64" r="0.85"/>
    <circle cx="33.96" cy="26.98" r="0.85"/>
    <circle cx="47.79" cy="26.79" r="0.85"/>
    <circle cx="80.33" cy="26.98" r="0.85"/>
    <circle cx="21.19" cy="27.25" r="0.85"/>
    <circle cx="69.31" cy="27.62" r="0.85"/>
    <circle cx="34.23" cy="27.12" r="0.85"/>
    <circle cx="48.63" cy="28.91" r="0.85"/>
    <circle cx="21.39" cy="28.76" r="0.85"/>
    <circle cx="86.33" cy="29.10" r="0.85"/>
    <circle cx="14.70" cy="29.93" r="0.85"/>
    <circle cx="41.70" cy="29.39" r="0.85"/>
    <circle cx="62.01" cy="30.52" r="0.85"/>
    <circle cx="49.41" cy="29.59" r="0.85"/>
    <circle cx="40.33" cy="30.27" r="0.85"/>
    <circle cx="56.05" cy="31.18" r="0.85"/>
    <circle cx="14.30" cy="30.51" r="0.85"/>
    <circle cx="87.43" cy="30.79" r="0.85"/>
    <circle cx="33.11" cy="31.05" r="0.85"/>
    <circle cx="42.13" cy="31.31" r="0.85"/>
    <circle cx="48.34" cy="31.15" r="0.85"/>
    <circle cx="61.61" cy="31.63" r="0.85"/>
    <circle cx="74.79" cy="31.72" r="0.85"/>
    <circle cx="42.95" cy="31.72" r="0.85"/>
    <circle cx="51.17" cy="32.32" r="0.85"/>
    <circle cx="53.52" cy="31.93" r="0.85"/>
    <circle cx="55.99" cy="31.93" r="0.85"/>
    <circle cx="9.34" cy="32.52" r="0.85"/>
    <circle cx="45.12" cy="31.93" r="0.85"/>
    <circle cx="48.42" cy="32.78" r="0.85"/>
    <circle cx="88.28" cy="32.94" r="0.85"/>
    <circle cx="25.54" cy="33.34" r="0.85"/>
    <circle cx="61.46" cy="31.93" r="0.85"/>
    <circle cx="77.93" cy="33.01" r="0.85"/>
    <circle cx="83.59" cy="32.81" r="0.85"/>
    <circle cx="28.81" cy="33.89" r="0.85"/>
    <circle cx="32.35" cy="34.30" r="0.85"/>
    <circle cx="43.03" cy="33.46" r="0.85"/>
    <circle cx="56.25" cy="33.79" r="0.85"/>
    <circle cx="68.59" cy="34.83" r="0.85"/>
    <circle cx="9.45" cy="33.52" r="0.85"/>
    <circle cx="83.95" cy="35.08" r="0.85"/>
    <circle cx="60.45" cy="34.67" r="0.85"/>
    <circle cx="88.87" cy="34.52" r="0.85"/>
    <circle cx="48.24" cy="33.76" r="0.85"/>
    <circle cx="83.48" cy="35.45" r="0.85"/>
    <circle cx="54.10" cy="35.62" r="0.85"/>
    <circle cx="68.46" cy="35.18" r="0.85"/>
    <circle cx="19.34" cy="35.96" r="0.85"/>
    <circle cx="32.44" cy="34.74" r="0.85"/>
    <circle cx="56.05" cy="36.72" r="0.85"/>
    <circle cx="47.44" cy="36.28" r="0.85"/>
    <circle cx="89.28" cy="36.11" r="0.85"/>
    <circle cx="38.15" cy="37.34" r="0.85"/>
    <circle cx="51.42" cy="37.81" r="0.85"/>
    <circle cx="19.32" cy="36.39" r="0.85"/>
    <circle cx="43.65" cy="37.27" r="0.85"/>
    <circle cx="33.01" cy="36.65" r="0.85"/>
    <circle cx="42.63" cy="37.40" r="0.85"/>
    <circle cx="55.97" cy="37.52" r="0.85"/>
    <circle cx="38.48" cy="37.50" r="0.85"/>
    <circle cx="63.28" cy="38.06" r="0.85"/>
    <circle cx="11.40" cy="38.49" r="0.85"/>
    <circle cx="54.62" cy="38.02" r="0.85"/>
    <circle cx="51.54" cy="38.41" r="0.85"/>
    <circle cx="7.67" cy="39.26" r="0.85"/>
    <circle cx="59.10" cy="39.45" r="0.85"/>
    <circle cx="73.83" cy="39.06" r="0.85"/>
    <circle cx="38.48" cy="39.45" r="0.85"/>
    <circle cx="58.72" cy="39.67" r="0.85"/>
    <circle cx="75.17" cy="40.36" r="0.85"/>
    <circle cx="46.74" cy="40.76" r="0.85"/>
    <circle cx="91.50" cy="40.62" r="0.85"/>
    <circle cx="86.72" cy="40.82" r="0.85"/>
    <circle cx="19.79" cy="41.80" r="0.85"/>
    <circle cx="28.71" cy="41.19" r="0.85"/>
    <circle cx="55.86" cy="41.46" r="0.85"/>
    <circle cx="29.88" cy="41.26" r="0.85"/>
    <circle cx="34.46" cy="41.54" r="0.85"/>
    <circle cx="41.92" cy="41.81" r="0.85"/>
    <circle cx="11.82" cy="41.89" r="0.85"/>
    <circle cx="19.22" cy="41.95" r="0.85"/>
    <circle cx="38.48" cy="41.80" r="0.85"/>
    <circle cx="55.18" cy="41.86" r="0.85"/>
    <circle cx="61.91" cy="42.38" r="0.85"/>
    <circle cx="87.38" cy="42.21" r="0.85"/>
    <circle cx="92.16" cy="42.09" r="0.85"/>
    <circle cx="19.60" cy="42.09" r="0.85"/>
    <circle cx="66.86" cy="42.79" r="0.85"/>
    <circle cx="67.87" cy="42.68" r="0.85"/>
    <circle cx="89.65" cy="42.38" r="0.85"/>
    <circle cx="62.83" cy="42.45" r="0.85"/>
    <circle cx="82.53" cy="43.16" r="0.85"/>
    <circle cx="50.10" cy="43.55" r="0.85"/>
    <circle cx="58.06" cy="43.41" r="0.85"/>
    <circle cx="58.59" cy="43.36" r="0.85"/>
    <circle cx="8.46" cy="43.75" r="0.85"/>
    <circle cx="38.80" cy="43.10" r="0.85"/>
    <circle cx="46.88" cy="43.95" r="0.85"/>
    <circle cx="51.00" cy="44.04" r="0.85"/>
    <circle cx="92.04" cy="42.77" r="0.85"/>
    <circle cx="43.99" cy="44.53" r="0.85"/>
    <circle cx="69.04" cy="44.34" r="0.85"/>
    <circle cx="61.23" cy="44.73" r="0.85"/>
    <circle cx="82.81" cy="44.79" r="0.85"/>
    <circle cx="89.06" cy="45.12" r="0.85"/>
    <circle cx="47.95" cy="45.80" r="0.85"/>
    <circle cx="9.08" cy="45.36" r="0.85"/>
    <circle cx="46.84" cy="45.55" r="0.85"/>
    <circle cx="39.45" cy="46.35" r="0.85"/>
    <circle cx="92.19" cy="46.16" r="0.85"/>
    <circle cx="71.73" cy="46.92" r="0.85"/>
    <circle cx="11.65" cy="46.48" r="0.85"/>
    <circle cx="90.12" cy="46.48" r="0.85"/>
    <circle cx="55.47" cy="46.90" r="0.85"/>
    <circle cx="60.76" cy="46.93" r="0.85"/>
    <circle cx="38.81" cy="46.68" r="0.85"/>
    <circle cx="44.25" cy="47.71" r="0.85"/>
    <circle cx="12.61" cy="46.85" r="0.85"/>
    <circle cx="72.35" cy="47.16" r="0.85"/>
    <circle cx="83.33" cy="46.88" r="0.85"/>
    <circle cx="26.56" cy="47.43" r="0.85"/>
    <circle cx="33.22" cy="47.38" r="0.85"/>
    <circle cx="35.16" cy="47.17" r="0.85"/>
    <circle cx="40.95" cy="46.94" r="0.85"/>
    <circle cx="78.49" cy="47.27" r="0.85"/>
    <circle cx="73.83" cy="47.17" r="0.85"/>
    <circle cx="63.28" cy="47.56" r="0.85"/>
    <circle cx="90.51" cy="47.64" r="0.85"/>
    <circle cx="19.73" cy="48.05" r="0.85"/>
    <circle cx="65.33" cy="47.95" r="0.85"/>
    <circle cx="66.80" cy="48.24" r="0.85"/>
    <circle cx="56.01" cy="47.61" r="0.85"/>
    <circle cx="40.14" cy="48.44" r="0.85"/>
    <circle cx="44.55" cy="48.15" r="0.85"/>
    <circle cx="83.79" cy="49.14" r="0.85"/>
    <circle cx="46.88" cy="48.73" r="0.85"/>
    <circle cx="49.96" cy="49.16" r="0.85"/>
    <circle cx="92.97" cy="48.83" r="0.85"/>
    <circle cx="27.08" cy="49.15" r="0.85"/>
    <circle cx="34.28" cy="49.61" r="0.85"/>
    <circle cx="57.50" cy="49.61" r="0.85"/>
    <circle cx="40.43" cy="49.54" r="0.85"/>
    <circle cx="44.99" cy="48.99" r="0.85"/>
    <circle cx="84.08" cy="49.97" r="0.85"/>
    <circle cx="19.70" cy="50.42" r="0.85"/>
    <circle cx="11.72" cy="50.89" r="0.85"/>
    <circle cx="54.06" cy="51.09" r="0.85"/>
    <circle cx="59.57" cy="50.59" r="0.85"/>
    <circle cx="92.60" cy="50.93" r="0.85"/>
    <circle cx="20.04" cy="50.53" r="0.85"/>
    <circle cx="61.24" cy="51.37" r="0.85"/>
    <circle cx="41.19" cy="52.10" r="0.85"/>
    <circle cx="45.87" cy="52.23" r="0.85"/>
    <circle cx="53.73" cy="51.74" r="0.85"/>
    <circle cx="62.23" cy="51.91" r="0.85"/>
    <circle cx="35.45" cy="52.52" r="0.85"/>
    <circle cx="46.04" cy="52.85" r="0.85"/>
    <circle cx="57.40" cy="53.49" r="0.85"/>
    <circle cx="77.15" cy="53.98" r="0.85"/>
    <circle cx="90.51" cy="53.65" r="0.85"/>
    <circle cx="49.58" cy="53.49" r="0.85"/>
    <circle cx="68.12" cy="53.78" r="0.85"/>
    <circle cx="15.43" cy="53.56" r="0.85"/>
    <circle cx="28.53" cy="53.78" r="0.85"/>
    <circle cx="57.68" cy="53.66" r="0.85"/>
    <circle cx="20.12" cy="53.71" r="0.85"/>
    <circle cx="69.73" cy="53.81" r="0.85"/>
    <circle cx="75.20" cy="54.10" r="0.85"/>
    <circle cx="90.28" cy="53.98" r="0.85"/>
    <circle cx="49.36" cy="53.68" r="0.85"/>
    <circle cx="77.12" cy="54.54" r="0.85"/>
    <circle cx="58.53" cy="54.17" r="0.85"/>
    <circle cx="66.99" cy="54.30" r="0.85"/>
    <circle cx="23.63" cy="55.66" r="0.85"/>
    <circle cx="77.37" cy="54.64" r="0.85"/>
    <circle cx="28.71" cy="54.79" r="0.85"/>
    <circle cx="44.47" cy="56.58" r="0.85"/>
    <circle cx="45.05" cy="56.51" r="0.85"/>
    <circle cx="52.47" cy="56.45" r="0.85"/>
    <circle cx="61.78" cy="56.99" r="0.85"/>
    <circle cx="52.10" cy="56.54" r="0.85"/>
    <circle cx="33.43" cy="57.49" r="0.85"/>
    <circle cx="70.51" cy="57.32" r="0.85"/>
    <circle cx="92.15" cy="57.58" r="0.85"/>
    <circle cx="44.59" cy="56.74" r="0.85"/>
    <circle cx="52.47" cy="56.67" r="0.85"/>
    <circle cx="84.18" cy="57.91" r="0.85"/>
    <circle cx="57.35" cy="58.37" r="0.85"/>
    <circle cx="33.68" cy="57.87" r="0.85"/>
    <circle cx="38.28" cy="58.57" r="0.85"/>
    <circle cx="71.22" cy="58.51" r="0.85"/>
    <circle cx="91.99" cy="57.92" r="0.85"/>
    <circle cx="26.53" cy="59.77" r="0.85"/>
    <circle cx="66.00" cy="60.12" r="0.85"/>
    <circle cx="75.90" cy="60.94" r="0.85"/>
    <circle cx="47.98" cy="60.87" r="0.85"/>
    <circle cx="60.77" cy="61.52" r="0.85"/>
    <circle cx="80.47" cy="60.89" r="0.85"/>
    <circle cx="88.61" cy="60.81" r="0.85"/>
    <circle cx="29.93" cy="61.20" r="0.85"/>
    <circle cx="26.72" cy="60.12" r="0.85"/>
    <circle cx="76.15" cy="61.01" r="0.85"/>
    <circle cx="79.30" cy="60.84" r="0.85"/>
    <circle cx="50.00" cy="61.23" r="0.85"/>
    <circle cx="65.89" cy="60.31" r="0.85"/>
    <circle cx="34.67" cy="61.91" r="0.85"/>
    <circle cx="53.01" cy="61.86" r="0.85"/>
    <circle cx="87.62" cy="61.80" r="0.85"/>
    <circle cx="71.61" cy="62.50" r="0.85"/>
    <circle cx="58.45" cy="62.55" r="0.85"/>
    <circle cx="60.21" cy="62.15" r="0.85"/>
    <circle cx="31.90" cy="62.17" r="0.85"/>
    <circle cx="69.53" cy="62.50" r="0.85"/>
    <circle cx="75.83" cy="62.00" r="0.85"/>
    <circle cx="61.57" cy="62.06" r="0.85"/>
    <circle cx="80.47" cy="62.21" r="0.85"/>
    <circle cx="28.19" cy="63.15" r="0.85"/>
    <circle cx="42.30" cy="63.12" r="0.85"/>
    <circle cx="41.52" cy="63.22" r="0.85"/>
    <circle cx="47.56" cy="63.09" r="0.85"/>
    <circle cx="65.36" cy="63.22" r="0.85"/>
    <circle cx="84.03" cy="63.21" r="0.85"/>
    <circle cx="73.83" cy="63.09" r="0.85"/>
    <circle cx="34.77" cy="63.48" r="0.85"/>
    <circle cx="89.18" cy="63.48" r="0.85"/>
    <circle cx="75.78" cy="63.40" r="0.85"/>
    <circle cx="83.79" cy="63.34" r="0.85"/>
    <circle cx="29.10" cy="63.77" r="0.85"/>
    <circle cx="54.61" cy="64.31" r="0.85"/>
    <circle cx="79.84" cy="64.41" r="0.85"/>
    <circle cx="45.21" cy="64.36" r="0.85"/>
    <circle cx="47.24" cy="65.01" r="0.85"/>
    <circle cx="66.17" cy="65.22" r="0.85"/>
    <circle cx="42.24" cy="64.36" r="0.85"/>
    <circle cx="85.06" cy="65.62" r="0.85"/>
    <circle cx="51.86" cy="65.65" r="0.85"/>
    <circle cx="71.79" cy="65.39" r="0.85"/>
    <circle cx="58.30" cy="65.66" r="0.85"/>
    <circle cx="38.35" cy="66.28" r="0.85"/>
    <circle cx="61.89" cy="65.94" r="0.85"/>
    <circle cx="65.49" cy="65.49" r="0.85"/>
    <circle cx="72.46" cy="65.38" r="0.85"/>
    <circle cx="54.84" cy="65.12" r="0.85"/>
    <circle cx="80.04" cy="64.84" r="0.85"/>
    <circle cx="33.33" cy="66.15" r="0.85"/>
    <circle cx="43.36" cy="66.31" r="0.85"/>
    <circle cx="47.75" cy="65.84" r="0.85"/>
    <circle cx="77.15" cy="66.37" r="0.85"/>
    <circle cx="37.07" cy="66.52" r="0.85"/>
    <circle cx="41.70" cy="66.02" r="0.85"/>
    <circle cx="62.87" cy="68.22" r="0.85"/>
    <circle cx="79.95" cy="67.58" r="0.85"/>
    <circle cx="58.98" cy="68.59" r="0.85"/>
    <circle cx="81.07" cy="68.20" r="0.85"/>
    <circle cx="48.93" cy="67.68" r="0.85"/>
    <circle cx="55.55" cy="69.20" r="0.85"/>
    <circle cx="73.51" cy="68.60" r="0.85"/>
    <circle cx="59.34" cy="68.71" r="0.85"/>
    <circle cx="64.45" cy="68.80" r="0.85"/>
    <circle cx="68.25" cy="68.95" r="0.85"/>
    <circle cx="56.15" cy="69.19" r="0.85"/>
    <circle cx="76.89" cy="69.69" r="0.85"/>
    <circle cx="77.54" cy="69.58" r="0.85"/>
    <circle cx="68.82" cy="69.18" r="0.85"/>
    <circle cx="51.61" cy="70.10" r="0.85"/>
    <circle cx="55.76" cy="69.56" r="0.85"/>
    <circle cx="64.52" cy="70.77" r="0.85"/>
    <circle cx="80.47" cy="70.48" r="0.85"/>
    <circle cx="51.27" cy="70.18" r="0.85"/>
    <circle cx="65.26" cy="71.24" r="0.85"/>
    <circle cx="72.58" cy="71.31" r="0.85"/>
    <circle cx="77.15" cy="70.28" r="0.85"/>
    <circle cx="58.30" cy="71.55" r="0.85"/>
    <circle cx="68.67" cy="72.25" r="0.85"/>
    <circle cx="56.54" cy="71.88" r="0.85"/>
    <circle cx="74.35" cy="71.68" r="0.85"/>
    <circle cx="51.37" cy="72.36" r="0.85"/>
    <circle cx="61.46" cy="72.12" r="0.85"/>
    <circle cx="75.49" cy="71.97" r="0.85"/>
    <circle cx="72.38" cy="71.64" r="0.85"/>
    <circle cx="77.85" cy="73.05" r="0.85"/>
    <circle cx="61.94" cy="72.33" r="0.85"/>
    <circle cx="53.29" cy="73.58" r="0.85"/>
    <circle cx="56.84" cy="72.85" r="0.85"/>
    <circle cx="59.07" cy="73.86" r="0.85"/>
    <circle cx="65.00" cy="74.10" r="0.85"/>
    <circle cx="54.17" cy="74.07" r="0.85"/>
    <circle cx="77.84" cy="74.18" r="0.85"/>
    <circle cx="75.51" cy="75.05" r="0.85"/>
    <circle cx="61.52" cy="74.93" r="0.85"/>
    <circle cx="65.49" cy="74.52" r="0.85"/>
    <circle cx="72.11" cy="74.86" r="0.85"/>
    <circle cx="55.83" cy="75.14" r="0.85"/>
    <circle cx="59.10" cy="74.34" r="0.85"/>
    <circle cx="69.02" cy="75.82" r="0.85"/>
    <circle cx="57.73" cy="75.39" r="0.85"/>
    <circle cx="62.27" cy="75.39" r="0.85"/>
    <circle cx="54.00" cy="76.37" r="0.85"/>
    <circle cx="61.13" cy="75.20" r="0.85"/>
    <circle cx="65.16" cy="75.98" r="0.85"/>
    <circle cx="58.18" cy="76.95" r="0.85"/>
    <circle cx="66.99" cy="76.95" r="0.85"/>
    <circle cx="72.07" cy="76.95" r="0.85"/>
    <circle cx="56.40" cy="77.59" r="0.85"/>
    <circle cx="59.23" cy="77.44" r="0.85"/>
    <circle cx="54.24" cy="77.91" r="0.85"/>
    <circle cx="57.88" cy="79.75" r="0.85"/>
    <circle cx="54.47" cy="78.39" r="0.85"/>
    <circle cx="60.00" cy="78.75" r="0.85"/>
    <circle cx="58.19" cy="80.62" r="0.85"/>
    <circle cx="61.29" cy="81.17" r="0.85"/>
    <circle cx="58.53" cy="81.18" r="0.85"/>
    <circle cx="61.54" cy="82.98" r="0.85"/>
    <circle cx="56.93" cy="83.95" r="0.85"/>
    <circle cx="59.77" cy="84.90" r="0.85"/>
    <circle cx="57.26" cy="84.41" r="0.85"/>
    <circle cx="60.13" cy="85.97" r="0.85"/>
    <circle cx="61.87" cy="88.09" r="0.85"/>
    <circle cx="59.30" cy="88.48" r="0.85"/>
  </g>
</svg>