<svg xmlns="http://www.w3.org/2000/svg" viewBox="0 0 100 100" fill="none">
  <g stroke="#00B3E3" stroke-width="0.25" stroke-linecap="round">
    <line x1="49.87" y1="5.80" x2="44.73" y2="9.18"/>
    <line x1="49.87" y1="5.80" x2="61.00" y2="13.16"/>
    <line x1="49.87" y1="5.80" x2="38.81" y2="13.19"/>
    <line x1="47.07" y1="7.62" x2="44.73" y2="9.18"/>
    <line x1="47.07" y1="7.62" x2="43.55" y2="9.96"/>
    <line x1="47.07" y1="7.62" x2="38.81" y2="13.19"/>
    <line x1="46.48" y1="8.01" x2="44.73" y2="9.18"/>
    <line x1="46.48" y1="8.01" x2="38.81" y2="13.19"/>
    <line x1="45.90" y1="8.40" x2="43.55" y2="9.96"/>
    <line x1="45.90" y1="8.40" x2="38.81" y2="13.19"/>
    <line x1="44.73" y1="9.18" x2="38.81" y2="13.19"/>
    <line x1="43.55" y1="9.96" x2="38.81" y2="13.19"/>
    <line x1="61.00" y1="13.16" x2="53.91" y2="14.26"/>
    <line x1="61.00" y1="13.16" x2="70.99" y2="16.47"/>
    <line x1="61.00" y1="13.16" x2="64.30" y2="19.24"/>
    <line x1="38.81" y1="13.19" x2="28.48" y2="16.42"/>
    <line x1="38.81" y1="13.19" x2="32.40" y2="25.89"/>
    <line x1="45.18" y1="13.80" x2="43.25" y2="28.88"/>
    <line x1="54.60" y1="13.80" x2="53.91" y2="14.26"/>
    <line x1="54.60" y1="13.80" x2="55.71" y2="20.30"/>
    <line x1="28.48" y1="16.42" x2="35.45" y2="19.16"/>
    <line x1="28.48" y1="16.42" x2="26.21" y2="29.08"/>
    <line x1="16.34" y1="19.13" x2="27.35" y2="22.10"/>
    <line x1="16.34" y1="19.13" x2="20.86" y2="24.52"/>
    <line x1="16.34" y1="19.13" x2="15.78" y2="29.76"/>
    <line x1="35.45" y1="19.16" x2="44.10" y2="20.33"/>
    <line x1="35.45" y1="19.16" x2="20.86" y2="24.52"/>
    <line x1="83.49" y1="19.18" x2="72.44" y2="22.07"/>
    <line x1="64.30" y1="19.24" x2="55.71" y2="20.30"/>
    <line x1="64.30" y1="19.24" x2="72.44" y2="22.07"/>
    <line x1="64.30" y1="19.24" x2="78.77" y2="24.46"/>
    <line x1="64.30" y1="19.24" x2="61.17" y2="24.72"/>
    <line x1="44.10" y1="20.33" x2="49.90" y2="24.36"/>
    <line x1="44.10" y1="20.33" x2="56.43" y2="28.89"/>
    <line x1="55.71" y1="20.30" x2="61.17" y2="24.72"/>
    <line x1="55.71" y1="20.30" x2="56.43" y2="28.89"/>
    <line x1="27.35" y1="22.10" x2="20.86" y2="24.52"/>
    <line x1="72.44" y1="22.07" x2="78.77" y2="24.46"/>
    <line x1="72.44" y1="22.07" x2="67.36" y2="25.91"/>
    <line x1="49.90" y1="24.36" x2="43.25" y2="28.88"/>
    <line x1="38.63" y1="24.75" x2="43.25" y2="28.88"/>
    <line x1="61.17" y1="24.72" x2="58.79" y2="26.76"/>
    <line x1="61.17" y1="24.72" x2="64.16" y2="31.92"/>
    <line x1="67.36" y1="25.91" x2="67.97" y2="25.39"/>
    <line x1="67.36" y1="25.91" x2="73.54" y2="29.01"/>
    <line x1="67.36" y1="25.91" x2="68.11" y2="30.66"/>
    <line x1="43.25" y1="28.88" x2="49.83" y2="32.38"/>
    <line x1="56.43" y1="28.89" x2="64.16" y2="31.92"/>
    <line x1="56.43" y1="28.89" x2="53.24" y2="36.25"/>
    <line x1="26.21" y1="29.08" x2="35.52" y2="31.97"/>
    <line x1="26.21" y1="29.08" x2="28.71" y2="37.61"/>
    <line x1="26.21" y1="29.08" x2="15.71" y2="40.19"/>
    <line x1="26.21" y1="29.08" x2="16.60" y2="39.26"/>
    <line x1="15.78" y1="29.76" x2="20.75" y2="34.55"/>
    <line x1="15.78" y1="29.76" x2="15.71" y2="40.19"/>
    <line x1="83.89" y1="29.69" x2="78.99" y2="34.55"/>
    <line x1="64.16" y1="31.92" x2="70.86" y2="37.52"/>
    <line x1="49.83" y1="32.38" x2="53.24" y2="36.25"/>
    <line x1="49.83" y1="32.38" x2="49.90" y2="36.33"/>
    <line x1="49.83" y1="32.38" x2="49.86" y2="40.51"/>
    <line x1="49.83" y1="32.38" x2="44.00" y2="40.20"/>
    <line x1="49.83" y1="32.38" x2="49.86" y2="48.45"/>
    <line x1="20.75" y1="34.55" x2="16.60" y2="39.26"/>
    <line x1="57.70" y1="35.25" x2="61.30" y2="40.29"/>
    <line x1="53.24" y1="36.25" x2="49.86" y2="40.51"/>
    <line x1="53.24" y1="36.25" x2="53.50" y2="40.50"/>
    <line x1="46.41" y1="36.28" x2="49.86" y2="40.51"/>
    <line x1="49.90" y1="36.33" x2="49.86" y2="48.45"/>
    <line x1="28.71" y1="37.61" x2="21.95" y2="41.06"/>
    <line x1="28.71" y1="37.61" x2="26.17" y2="46.66"/>
    <line x1="70.86" y1="37.52" x2="61.30" y2="40.29"/>
    <line x1="70.86" y1="37.52" x2="77.71" y2="40.96"/>
    <line x1="38.45" y1="40.32" x2="49.86" y2="40.51"/>
    <line x1="38.45" y1="40.32" x2="44.00" y2="40.20"/>
    <line x1="38.45" y1="40.32" x2="41.08" y2="44.73"/>
    <line x1="38.45" y1="40.32" x2="41.41" y2="45.31"/>
    <line x1="38.45" y1="40.32" x2="35.95" y2="47.93"/>
    <line x1="38.45" y1="40.32" x2="43.25" y2="48.42"/>
    <line x1="61.30" y1="40.29" x2="49.86" y2="40.51"/>
    <line x1="61.30" y1="40.29" x2="53.50" y2="40.50"/>
    <line x1="15.71" y1="40.19" x2="16.60" y2="39.26"/>
    <line x1="15.71" y1="40.19" x2="21.95" y2="41.06"/>
    <line x1="15.71" y1="40.19" x2="19.81" y2="45.80"/>
    <line x1="15.71" y1="40.19" x2="17.57" y2="52.22"/>
    <line x1="49.86" y1="40.51" x2="46.17" y2="40.53"/>
    <line x1="49.86" y1="40.51" x2="53.50" y2="40.50"/>
    <line x1="49.86" y1="40.51" x2="49.86" y2="48.45"/>
    <line x1="49.86" y1="40.51" x2="49.81" y2="55.68"/>
    <line x1="44.00" y1="40.20" x2="46.17" y2="40.53"/>
    <line x1="55.66" y1="40.18" x2="53.50" y2="40.50"/>
    <line x1="46.17" y1="40.53" x2="53.50" y2="40.50"/>
    <line x1="77.71" y1="40.96" x2="73.49" y2="46.54"/>
    <line x1="45.45" y1="43.55" x2="49.86" y2="48.45"/>
    <line x1="45.45" y1="43.55" x2="41.85" y2="52.08"/>
    <line x1="45.45" y1="43.55" x2="54.38" y2="53.01"/>
    <line x1="54.22" y1="43.57" x2="49.86" y2="48.45"/>
    <line x1="54.22" y1="43.57" x2="45.21" y2="53.01"/>
    <line x1="54.22" y1="43.57" x2="46.09" y2="52.15"/>
    <line x1="32.65" y1="44.24" x2="26.17" y2="46.66"/>
    <line x1="32.65" y1="44.24" x2="35.95" y2="47.93"/>
    <line x1="67.07" y1="44.25" x2="73.49" y2="46.54"/>
    <line x1="67.07" y1="44.25" x2="67.70" y2="49.44"/>
    <line x1="41.08" y1="44.73" x2="43.25" y2="48.42"/>
    <line x1="58.54" y1="44.76" x2="60.84" y2="46.09"/>
    <line x1="58.54" y1="44.76" x2="63.72" y2="47.90"/>
    <line x1="58.54" y1="44.76" x2="54.38" y2="53.01"/>
    <line x1="79.85" y1="45.76" x2="73.49" y2="46.54"/>
    <line x1="19.81" y1="45.80" x2="26.17" y2="46.66"/>
    <line x1="19.81" y1="45.80" x2="17.57" y2="52.22"/>
    <line x1="41.41" y1="45.31" x2="43.25" y2="48.42"/>
    <line x1="49.86" y1="48.45" x2="52.34" y2="45.70"/>
    <line x1="49.86" y1="48.45" x2="56.37" y2="48.44"/>
    <line x1="49.86" y1="48.45" x2="54.38" y2="53.01"/>
    <line x1="49.86" y1="48.45" x2="49.81" y2="55.68"/>
    <line x1="49.86" y1="48.45" x2="49.90" y2="60.16"/>
    <line x1="49.86" y1="48.45" x2="49.86" y2="64.30"/>
    <line x1="26.17" y1="46.66" x2="31.81" y2="49.40"/>
    <line x1="26.17" y1="46.66" x2="28.06" y2="54.51"/>
    <line x1="52.34" y1="45.70" x2="46.09" y2="52.15"/>
    <line x1="60.84" y1="46.09" x2="63.72" y2="47.90"/>
    <line x1="35.95" y1="47.93" x2="39.56" y2="49.61"/>
    <line x1="35.95" y1="47.93" x2="39.11" y2="55.66"/>
    <line x1="63.72" y1="47.90" x2="67.70" y2="49.44"/>
    <line x1="63.72" y1="47.90" x2="65.77" y2="53.03"/>
    <line x1="43.25" y1="48.42" x2="56.37" y2="48.44"/>
    <line x1="56.37" y1="48.44" x2="60.12" y2="49.52"/>
    <line x1="39.56" y1="49.61" x2="41.85" y2="52.08"/>
    <line x1="39.56" y1="49.61" x2="39.11" y2="55.66"/>
    <line x1="17.57" y1="52.22" x2="23.30" y2="53.81"/>
    <line x1="17.57" y1="52.22" x2="23.85" y2="59.42"/>
    <line x1="45.21" y1="53.01" x2="46.09" y2="52.15"/>
    <line x1="45.21" y1="53.01" x2="49.81" y2="55.68"/>
    <line x1="45.21" y1="53.01" x2="45.70" y2="55.96"/>
    <line x1="54.38" y1="53.01" x2="53.97" y2="56.02"/>
    <line x1="33.83" y1="52.97" x2="46.38" y2="60.03"/>
    <line x1="65.77" y1="53.03" x2="60.43" y2="55.70"/>
    <line x1="65.77" y1="53.03" x2="53.26" y2="60.04"/>
    <line x1="23.30" y1="53.81" x2="28.06" y2="54.51"/>
    <line x1="23.30" y1="53.81" x2="23.85" y2="59.42"/>
    <line x1="28.52" y1="53.71" x2="28.06" y2="54.51"/>
    <line x1="28.06" y1="54.51" x2="23.85" y2="59.42"/>
    <line x1="28.06" y1="54.51" x2="31.76" y2="61.08"/>
    <line x1="39.11" y1="55.66" x2="46.38" y2="60.03"/>
    <line x1="39.11" y1="55.66" x2="42.50" y2="62.57"/>
    <line x1="60.43" y1="55.70" x2="67.64" y2="60.97"/>
    <line x1="60.43" y1="55.70" x2="61.97" y2="63.25"/>
    <line x1="49.81" y1="55.68" x2="53.26" y2="60.04"/>
    <line x1="49.81" y1="55.68" x2="49.90" y2="60.16"/>
    <line x1="49.81" y1="55.68" x2="49.83" y2="72.18"/>
    <line x1="45.70" y1="55.96" x2="53.97" y2="56.02"/>
    <line x1="23.85" y1="59.42" x2="31.76" y2="61.08"/>
    <line x1="23.85" y1="59.42" x2="21.58" y2="63.79"/>
    <line x1="23.85" y1="59.42" x2="27.91" y2="65.62"/>
    <line x1="23.85" y1="59.42" x2="31.98" y2="72.41"/>
    <line x1="46.38" y1="60.03" x2="49.86" y2="64.30"/>
    <line x1="53.26" y1="60.04" x2="49.90" y2="60.16"/>
    <line x1="49.90" y1="60.16" x2="49.83" y2="72.18"/>
    <line x1="67.64" y1="60.97" x2="71.68" y2="65.64"/>
    <line x1="31.76" y1="61.08" x2="37.38" y2="63.22"/>
    <line x1="31.76" y1="61.08" x2="39.33" y2="75.33"/>
    <line x1="37.38" y1="63.22" x2="42.88" y2="68.91"/>
    <line x1="49.86" y1="64.30" x2="56.63" y2="68.68"/>
    <line x1="49.86" y1="64.30" x2="49.83" y2="72.18"/>
    <line x1="49.86" y1="64.30" x2="49.88" y2="80.23"/>
    <line x1="27.91" y1="65.62" x2="35.45" y2="68.56"/>
    <line x1="27.91" y1="65.62" x2="31.98" y2="72.41"/>
    <line x1="71.68" y1="65.64" x2="71.95" y2="72.95"/>
    <line x1="56.63" y1="68.68" x2="60.25" y2="75.31"/>
    <line x1="56.63" y1="68.68" x2="54.64" y2="75.59"/>
    <line x1="35.45" y1="68.56" x2="42.91" y2="81.29"/>
    <line x1="64.21" y1="68.55" x2="60.25" y2="75.31"/>
    <line x1="42.88" y1="68.91" x2="49.83" y2="72.18"/>
    <line x1="49.83" y1="72.18" x2="54.64" y2="75.59"/>
    <line x1="31.98" y1="72.41" x2="34.81" y2="80.86"/>
    <line x1="67.67" y1="72.39" x2="71.95" y2="72.95"/>
    <line x1="39.33" y1="75.33" x2="44.97" y2="75.59"/>
    <line x1="39.33" y1="75.33" x2="42.91" y2="81.29"/>
    <line x1="60.25" y1="75.31" x2="64.93" y2="80.83"/>
    <line x1="44.97" y1="75.59" x2="49.88" y2="80.23"/>
    <line x1="54.64" y1="75.59" x2="56.79" y2="81.29"/>
    <line x1="49.88" y1="80.23" x2="42.91" y2="81.29"/>
    <line x1="49.88" y1="80.23" x2="56.79" y2="81.29"/>
    <line x1="42.91" y1="81.29" x2="46.59" y2="85.99"/>
    <line x1="56.79" y1="81.29" x2="57.00" y2="87.23"/>
    <line x1="46.59" y1="85.99" x2="49.88" y2="92.22"/>
  </g>
  <g fill="#00B3E3">
    <circle cx="49.87" cy="5.80" r="0.85"/>
    <circle cx="47.07" cy="7.62" r="0.85"/>
    <circle cx="46.48" cy="8.01" r="0.85"/>
    <circle cx="45.90" cy="8.40" r="0.85"/>
    <circle cx="44.73" cy="9.18" r="0.85"/>
    <circle cx="43.55" cy="9.96" r="0.85"/>
    <circle cx="61.00" cy="13.16" r="0.85"/>
    <circle cx="38.81" cy="13.19" r="0.85"/>
    <circle cx="45.18" cy="13.80" r="0.85"/>
    <circle cx="54.60" cy="13.80" r="0.85"/>
    <circle cx="53.91" cy="14.26" r="0.85"/>
    <circle cx="49.88" cy="16.78" r="0.85"/>
    <circle cx="70.99" cy="16.47" r="0.85"/>
    <circle cx="28.48" cy="16.42" r="0.85"/>
    <circle cx="16.34" cy="19.13" r="0.85"/>
    <circle cx="35.45" cy="19.16" r="0.85"/>
    <circle cx="83.49" cy="19.18" r="0.85"/>
    <circle cx="64.30" cy="19.24" r="0.85"/>
    <circle cx="44.10" cy="20.33" r="0.85"/>
    <circle cx="55.71" cy="20.30" r="0.85"/>
    <circle cx="27.35" cy="22.10" r="0.85"/>
    <circle cx="72.44" cy="22.07" r="0.85"/>
    <circle cx="49.90" cy="24.36" r="0.85"/>
    <circle cx="20.86" cy="24.52" r="0.85"/>
    <circle cx="78.77" cy="24.46" r="0.85"/>
    <circle cx="38.63" cy="24.75" r="0.85"/>
    <circle cx="61.17" cy="24.72" r="0.85"/>
    <circle cx="32.40" cy="25.89" r="0.85"/>
    <circle cx="67.36" cy="25.91" r="0.85"/>
    <circle cx="67.97" cy="25.39" r="0.85"/>
    <circle cx="58.79" cy="26.76" r="0.85"/>
    <circle cx="43.25" cy="28.88" r="0.85"/>
    <circle cx="56.43" cy="28.89" r="0.85"/>
    <circle cx="73.54" cy="29.01" r="0.85"/>
    <circle cx="26.21" cy="29.08" r="0.85"/>
    <circle cx="15.78" cy="29.76" r="0.85"/>
    <circle cx="83.89" cy="29.69" r="0.85"/>
    <circle cx="31.57" cy="30.74" r="0.85"/>
    <circle cx="68.11" cy="30.66" r="0.85"/>
    <circle cx="64.16" cy="31.92" r="0.85"/>
    <circle cx="35.52" cy="31.97" r="0.85"/>
    <circle cx="49.83" cy="32.38" r="0.85"/>
    <circle cx="34.18" cy="33.01" r="0.85"/>
    <circle cx="20.75" cy="34.55" r="0.85"/>
    <circle cx="78.99" cy="34.55" r="0.85"/>
    <circle cx="41.97" cy="35.23" r="0.85"/>
    <circle cx="57.70" cy="35.25" r="0.85"/>
    <circle cx="53.24" cy="36.25" r="0.85"/>
    <circle cx="46.41" cy="36.28" r="0.85"/>
    <circle cx="49.90" cy="36.33" r="0.85"/>
    <circle cx="28.71" cy="37.61" r="0.85"/>
    <circle cx="70.86" cy="37.52" r="0.85"/>
    <circle cx="38.45" cy="40.32" r="0.85"/>
    <circle cx="61.30" cy="40.29" r="0.85"/>
    <circle cx="15.71" cy="40.19" r="0.85"/>
    <circle cx="16.60" cy="39.26" r="0.85"/>
    <circle cx="83.77" cy="40.14" r="0.85"/>
    <circle cx="49.86" cy="40.51" r="0.85"/>
    <circle cx="44.00" cy="40.20" r="0.85"/>
    <circle cx="55.66" cy="40.18" r="0.85"/>
    <circle cx="46.17" cy="40.53" r="0.85"/>
    <circle cx="53.50" cy="40.50" r="0.85"/>
    <circle cx="21.95" cy="41.06" r="0.85"/>
    <circle cx="77.71" cy="40.96" r="0.85"/>
    <circle cx="45.45" cy="43.55" r="0.85"/>
    <circle cx="54.22" cy="43.57" r="0.85"/>
    <circle cx="32.65" cy="44.24" r="0.85"/>
    <circle cx="67.07" cy="44.25" r="0.85"/>
    <circle cx="41.08" cy="44.73" r="0.85"/>
    <circle cx="58.54" cy="44.76" r="0.85"/>
    <circle cx="79.85" cy="45.76" r="0.85"/>
    <circle cx="19.81" cy="45.80" r="0.85"/>
    <circle cx="41.41" cy="45.31" r="0.85"/>
    <circle cx="49.86" cy="48.45" r="0.85"/>
    <circle cx="73.49" cy="46.54" r="0.85"/>
    <circle cx="26.17" cy="46.66" r="0.85"/>
    <circle cx="38.82" cy="46.04" r="0.85"/>
    <circle cx="52.34" cy="45.70" r="0.85"/>
    <circle cx="60.84" cy="46.09" r="0.85"/>
    <circle cx="35.95" cy="47.93" r="0.85"/>
    <circle cx="63.72" cy="47.90" r="0.85"/>
    <circle cx="43.25" cy="48.42" r="0.85"/>
    <circle cx="56.37" cy="48.44" r="0.85"/>
    <circle cx="60.12" cy="49.52" r="0.85"/>
    <circle cx="31.81" cy="49.40" r="0.85"/>
    <circle cx="39.56" cy="49.61" r="0.85"/>
    <circle cx="67.70" cy="49.44" r="0.85"/>
    <circle cx="17.57" cy="52.22" r="0.85"/>
    <circle cx="82.05" cy="52.22" r="0.85"/>
    <circle cx="41.85" cy="52.08" r="0.85"/>
    <circle cx="57.79" cy="52.09" r="0.85"/>
    <circle cx="58.20" cy="51.76" r="0.85"/>
    <circle cx="45.21" cy="53.01" r="0.85"/>
    <circle cx="46.09" cy="52.15" r="0.85"/>
    <circle cx="54.38" cy="53.01" r="0.85"/>
    <circle cx="33.83" cy="52.97" r="0.85"/>
    <circle cx="65.77" cy="53.03" r="0.85"/>
    <circle cx="23.30" cy="53.81" r="0.85"/>
    <circle cx="76.36" cy="53.82" r="0.85"/>
    <circle cx="28.52" cy="53.71" r="0.85"/>
    <circle cx="71.57" cy="54.42" r="0.85"/>
    <circle cx="28.06" cy="54.51" r="0.85"/>
    <circle cx="39.11" cy="55.66" r="0.85"/>
    <circle cx="60.43" cy="55.70" r="0.85"/>
    <circle cx="49.81" cy="55.68" r="0.85"/>
    <circle cx="45.70" cy="55.96" r="0.85"/>
    <circle cx="53.97" cy="56.02" r="0.85"/>
    <circle cx="75.75" cy="59.43" r="0.85"/>
    <circle cx="23.85" cy="59.42" r="0.85"/>
    <circle cx="46.38" cy="60.03" r="0.85"/>
    <circle cx="53.26" cy="60.04" r="0.85"/>
    <circle cx="49.90" cy="60.16" r="0.85"/>
    <circle cx="67.64" cy="60.97" r="0.85"/>
    <circle cx="31.76" cy="61.08" r="0.85"/>
    <circle cx="42.50" cy="62.57" r="0.85"/>
    <circle cx="57.02" cy="62.56" r="0.85"/>
    <circle cx="37.38" cy="63.22" r="0.85"/>
    <circle cx="61.97" cy="63.25" r="0.85"/>
    <circle cx="78.16" cy="63.77" r="0.85"/>
    <circle cx="21.58" cy="63.79" r="0.85"/>
    <circle cx="49.86" cy="64.30" r="0.85"/>
    <circle cx="27.91" cy="65.62" r="0.85"/>
    <circle cx="71.68" cy="65.64" r="0.85"/>
    <circle cx="56.63" cy="68.68" r="0.85"/>
    <circle cx="35.45" cy="68.56" r="0.85"/>
    <circle cx="64.21" cy="68.55" r="0.85"/>
    <circle cx="42.88" cy="68.91" r="0.85"/>
    <circle cx="49.83" cy="72.18" r="0.85"/>
    <circle cx="31.98" cy="72.41" r="0.85"/>
    <circle cx="67.67" cy="72.39" r="0.85"/>
    <circle cx="27.63" cy="72.95" r="0.85"/>
    <circle cx="71.95" cy="72.95" r="0.85"/>
    <circle cx="35.38" cy="74.30" r="0.85"/>
    <circle cx="64.28" cy="74.28" r="0.85"/>
    <circle cx="39.33" cy="75.33" r="0.85"/>
    <circle cx="60.25" cy="75.31" r="0.85"/>
    <circle cx="44.97" cy="75.59" r="0.85"/>
    <circle cx="54.64" cy="75.59" r="0.85"/>
    <circle cx="69.14" cy="76.56" r="0.85"/>
    <circle cx="68.95" cy="76.76" r="0.85"/>
    <circle cx="36.91" cy="78.32" r="0.85"/>
    <circle cx="49.88" cy="80.23" r="0.85"/>
    <circle cx="64.93" cy="80.83" r="0.85"/>
    <circle cx="34.81" cy="80.86" r="0.85"/>
    <circle cx="42.91" cy="81.29" r="0.85"/>
    <circle cx="56.79" cy="81.29" r="0.85"/>
    <circle cx="46.59" cy="85.99" r="0.85"/>
    <circle cx="53.11" cy="86.02" r="0.85"/>
    <circle cx="57.00" cy="87.23" r="0.85"/>
    <circle cx="42.71" cy="87.25" r="0.85"/>
    <circle cx="49.88" cy="92.22" r="0.85"/>
  </g>
</svg>