<svg xmlns="http://www.w3.org/2000/svg" viewBox="0 0 100 100" fill="none">
  <g stroke="#00B3E3" stroke-width="0.25" stroke-linecap="round">
    <line x1="62.50" y1="26.33" x2="63.48" y2="27.54"/>
    <line x1="54.07" y1="27.08" x2="56.82" y2="33.97"/>
    <line x1="68.55" y1="28.71" x2="71.40" y2="30.75"/>
    <line x1="68.55" y1="28.71" x2="70.31" y2="29.88"/>
    <line x1="49.41" y1="29.10" x2="47.17" y2="31.27"/>
    <line x1="49.41" y1="29.10" x2="45.90" y2="32.23"/>
    <line x1="49.41" y1="29.10" x2="45.70" y2="32.42"/>
    <line x1="71.40" y1="30.75" x2="70.31" y2="29.88"/>
    <line x1="71.40" y1="30.75" x2="73.83" y2="33.40"/>
    <line x1="47.17" y1="31.27" x2="45.90" y2="32.23"/>
    <line x1="47.17" y1="31.27" x2="45.70" y2="32.42"/>
    <line x1="47.17" y1="31.27" x2="50.57" y2="36.52"/>
    <line x1="73.83" y1="33.40" x2="76.09" y2="37.19"/>
    <line x1="61.62" y1="36.11" x2="63.96" y2="39.84"/>
    <line x1="61.62" y1="36.11" x2="66.89" y2="44.07"/>
    <line x1="36.46" y1="36.53" x2="41.21" y2="38.09"/>
    <line x1="50.57" y1="36.52" x2="56.60" y2="43.99"/>
    <line x1="28.53" y1="37.64" x2="27.15" y2="38.48"/>
    <line x1="68.67" y1="37.42" x2="56.60" y2="43.99"/>
    <line x1="42.51" y1="38.76" x2="41.21" y2="38.09"/>
    <line x1="76.35" y1="43.52" x2="77.93" y2="43.95"/>
    <line x1="76.35" y1="43.52" x2="70.53" y2="50.77"/>
    <line x1="56.60" y1="43.99" x2="61.79" y2="58.46"/>
    <line x1="22.71" y1="44.31" x2="21.68" y2="48.05"/>
    <line x1="66.41" y1="43.16" x2="66.89" y2="44.07"/>
    <line x1="66.41" y1="43.16" x2="70.53" y2="50.77"/>
    <line x1="66.89" y1="44.07" x2="70.53" y2="50.77"/>
    <line x1="42.97" y1="44.53" x2="40.27" y2="47.14"/>
    <line x1="82.41" y1="46.05" x2="83.53" y2="58.11"/>
    <line x1="40.27" y1="47.14" x2="47.07" y2="53.12"/>
    <line x1="40.27" y1="47.14" x2="50.44" y2="56.31"/>
    <line x1="40.27" y1="47.14" x2="40.03" y2="58.77"/>
    <line x1="73.05" y1="47.46" x2="70.53" y2="50.77"/>
    <line x1="18.75" y1="48.54" x2="21.68" y2="48.05"/>
    <line x1="18.75" y1="48.54" x2="15.62" y2="50.00"/>
    <line x1="18.75" y1="48.54" x2="15.04" y2="50.39"/>
    <line x1="18.75" y1="48.54" x2="22.22" y2="53.76"/>
    <line x1="18.75" y1="48.54" x2="26.90" y2="59.86"/>
    <line x1="29.62" y1="49.83" x2="40.03" y2="58.77"/>
    <line x1="70.53" y1="50.77" x2="64.84" y2="55.66"/>
    <line x1="70.53" y1="50.77" x2="64.65" y2="55.86"/>
    <line x1="70.53" y1="50.77" x2="61.79" y2="58.46"/>
    <line x1="15.62" y1="50.00" x2="13.85" y2="51.39"/>
    <line x1="15.62" y1="50.00" x2="12.70" y2="52.34"/>
    <line x1="88.75" y1="51.03" x2="83.53" y2="58.11"/>
    <line x1="13.85" y1="51.39" x2="15.04" y2="50.39"/>
    <line x1="13.85" y1="51.39" x2="12.70" y2="52.34"/>
    <line x1="13.85" y1="51.39" x2="16.03" y2="60.93"/>
    <line x1="15.04" y1="50.39" x2="12.70" y2="52.34"/>
    <line x1="22.22" y1="53.76" x2="26.37" y2="59.18"/>
    <line x1="22.22" y1="53.76" x2="26.90" y2="59.86"/>
    <line x1="22.22" y1="53.76" x2="27.34" y2="60.55"/>
    <line x1="22.22" y1="53.76" x2="32.12" y2="66.95"/>
    <line x1="47.07" y1="53.12" x2="50.44" y2="56.31"/>
    <line x1="50.44" y1="56.31" x2="51.45" y2="65.29"/>
    <line x1="61.79" y1="58.46" x2="70.09" y2="62.99"/>
    <line x1="26.37" y1="59.18" x2="26.90" y2="59.86"/>
    <line x1="26.37" y1="59.18" x2="27.34" y2="60.55"/>
    <line x1="26.37" y1="59.18" x2="32.12" y2="66.95"/>
    <line x1="26.90" y1="59.86" x2="27.34" y2="60.55"/>
    <line x1="26.90" y1="59.86" x2="32.12" y2="66.95"/>
    <line x1="16.03" y1="60.93" x2="10.38" y2="65.09"/>
    <line x1="16.03" y1="60.93" x2="25.47" y2="73.52"/>
    <line x1="27.34" y1="60.55" x2="32.12" y2="66.95"/>
    <line x1="70.09" y1="62.99" x2="73.05" y2="69.92"/>
    <line x1="70.09" y1="62.99" x2="62.57" y2="73.69"/>
    <line x1="10.38" y1="65.09" x2="11.13" y2="66.41"/>
    <line x1="10.38" y1="65.09" x2="12.30" y2="67.77"/>
    <line x1="10.38" y1="65.09" x2="12.50" y2="67.97"/>
    <line x1="51.45" y1="65.29" x2="49.89" y2="73.67"/>
    <line x1="77.27" y1="65.47" x2="70.36" y2="73.35"/>
    <line x1="11.13" y1="66.41" x2="12.30" y2="67.77"/>
    <line x1="11.13" y1="66.41" x2="12.50" y2="67.97"/>
    <line x1="11.13" y1="66.41" x2="12.70" y2="68.16"/>
    <line x1="11.13" y1="66.41" x2="12.89" y2="68.36"/>
    <line x1="11.13" y1="66.41" x2="13.48" y2="68.95"/>
    <line x1="11.13" y1="66.41" x2="13.67" y2="69.14"/>
    <line x1="32.12" y1="66.95" x2="34.96" y2="70.31"/>
    <line x1="32.12" y1="66.95" x2="35.16" y2="70.51"/>
    <line x1="32.12" y1="66.95" x2="35.35" y2="70.70"/>
    <line x1="32.12" y1="66.95" x2="38.12" y2="73.77"/>
    <line x1="61.24" y1="67.13" x2="62.57" y2="73.69"/>
    <line x1="21.00" y1="67.64" x2="20.31" y2="68.36"/>
    <line x1="21.00" y1="67.64" x2="25.47" y2="73.52"/>
    <line x1="12.30" y1="67.77" x2="12.89" y2="68.36"/>
    <line x1="12.30" y1="67.77" x2="13.48" y2="68.95"/>
    <line x1="12.30" y1="67.77" x2="13.67" y2="69.14"/>
    <line x1="12.50" y1="67.97" x2="13.48" y2="68.95"/>
    <line x1="12.50" y1="67.97" x2="13.67" y2="69.14"/>
    <line x1="12.70" y1="68.16" x2="13.48" y2="68.95"/>
    <line x1="12.70" y1="68.16" x2="13.67" y2="69.14"/>
    <line x1="12.89" y1="68.36" x2="13.48" y2="68.95"/>
    <line x1="12.89" y1="68.36" x2="13.67" y2="69.14"/>
    <line x1="86.72" y1="69.14" x2="86.03" y2="70.07"/>
    <line x1="73.05" y1="69.92" x2="74.63" y2="73.86"/>
    <line x1="34.96" y1="70.31" x2="38.12" y2="73.77"/>
    <line x1="35.16" y1="70.51" x2="38.12" y2="73.77"/>
    <line x1="17.00" y1="71.73" x2="18.95" y2="72.66"/>
    <line x1="17.00" y1="71.73" x2="19.53" y2="72.85"/>
    <line x1="35.35" y1="70.70" x2="38.12" y2="73.77"/>
    <line x1="18.95" y1="72.66" x2="21.48" y2="73.44"/>
    <line x1="19.53" y1="72.85" x2="21.48" y2="73.44"/>
  </g>
  <g fill="#00B3E3">
    <circle cx="62.50" cy="26.33" r="0.85"/>
    <circle cx="54.07" cy="27.08" r="0.85"/>
    <circle cx="63.48" cy="27.54" r="0.85"/>
    <circle cx="68.55" cy="28.71" r="0.85"/>
    <circle cx="49.41" cy="29.10" r="0.85"/>
    <circle cx="71.40" cy="30.75" r="0.85"/>
    <circle cx="70.31" cy="29.88" r="0.85"/>
    <circle cx="47.17" cy="31.27" r="0.85"/>
    <circle cx="45.90" cy="32.23" r="0.85"/>
    <circle cx="45.70" cy="32.42" r="0.85"/>
    <circle cx="56.82" cy="33.97" r="0.85"/>
    <circle cx="73.83" cy="33.40" r="0.85"/>
    <circle cx="61.62" cy="36.11" r="0.85"/>
    <circle cx="36.46" cy="36.53" r="0.85"/>
    <circle cx="50.57" cy="36.52" r="0.85"/>
    <circle cx="76.09" cy="37.19" r="0.85"/>
    <circle cx="28.53" cy="37.64" r="0.85"/>
    <circle cx="68.67" cy="37.42" r="0.85"/>
    <circle cx="42.51" cy="38.76" r="0.85"/>
    <circle cx="41.21" cy="38.09" r="0.85"/>
    <circle cx="27.15" cy="38.48" r="0.85"/>
    <circle cx="63.96" cy="39.84" r="0.85"/>
    <circle cx="46.68" cy="40.82" r="0.85"/>
    <circle cx="45.51" cy="41.99" r="0.85"/>
    <circle cx="76.35" cy="43.52" r="0.85"/>
    <circle cx="56.60" cy="43.99" r="0.85"/>
    <circle cx="22.71" cy="44.31" r="0.85"/>
    <circle cx="66.41" cy="43.16" r="0.85"/>
    <circle cx="66.89" cy="44.07" r="0.85"/>
    <circle cx="77.93" cy="43.95" r="0.85"/>
    <circle cx="43.16" cy="44.34" r="0.85"/>
    <circle cx="42.97" cy="44.53" r="0.85"/>
    <circle cx="82.41" cy="46.05" r="0.85"/>
    <circle cx="40.27" cy="47.14" r="0.85"/>
    <circle cx="73.05" cy="47.46" r="0.85"/>
    <circle cx="18.75" cy="48.54" r="0.85"/>
    <circle cx="21.68" cy="48.05" r="0.85"/>
    <circle cx="29.62" cy="49.83" r="0.85"/>
    <circle cx="70.53" cy="50.77" r="0.85"/>
    <circle cx="15.62" cy="50.00" r="0.85"/>
    <circle cx="88.75" cy="51.03" r="0.85"/>
    <circle cx="13.85" cy="51.39" r="0.85"/>
    <circle cx="15.04" cy="50.39" r="0.85"/>
    <circle cx="79.17" cy="51.46" r="0.85"/>
    <circle cx="12.70" cy="52.34" r="0.85"/>
    <circle cx="22.22" cy="53.76" r="0.85"/>
    <circle cx="47.07" cy="53.12" r="0.85"/>
    <circle cx="50.44" cy="56.31" r="0.85"/>
    <circle cx="64.84" cy="55.66" r="0.85"/>
    <circle cx="64.65" cy="55.86" r="0.85"/>
    <circle cx="90.71" cy="57.09" r="0.85"/>
    <circle cx="9.50" cy="57.61" r="0.85"/>
    <circle cx="83.53" cy="58.11" r="0.85"/>
    <circle cx="61.79" cy="58.46" r="0.85"/>
    <circle cx="40.03" cy="58.77" r="0.85"/>
    <circle cx="26.37" cy="59.18" r="0.85"/>
    <circle cx="26.90" cy="59.86" r="0.85"/>
    <circle cx="16.03" cy="60.93" r="0.85"/>
    <circle cx="27.34" cy="60.55" r="0.85"/>
    <circle cx="70.09" cy="62.99" r="0.85"/>
    <circle cx="90.13" cy="63.36" r="0.85"/>
    <circle cx="10.38" cy="65.09" r="0.85"/>
    <circle cx="51.45" cy="65.29" r="0.85"/>
    <circle cx="77.27" cy="65.47" r="0.85"/>
    <circle cx="11.13" cy="66.41" r="0.85"/>
    <circle cx="32.12" cy="66.95" r="0.85"/>
    <circle cx="61.24" cy="67.13" r="0.85"/>
    <circle cx="21.00" cy="67.64" r="0.85"/>
    <circle cx="12.30" cy="67.77" r="0.85"/>
    <circle cx="12.50" cy="67.97" r="0.85"/>
    <circle cx="12.70" cy="68.16" r="0.85"/>
    <circle cx="12.89" cy="68.36" r="0.85"/>
    <circle cx="20.31" cy="68.36" r="0.85"/>
    <circle cx="13.48" cy="68.95" r="0.85"/>
    <circle cx="13.67" cy="69.14" r="0.85"/>
    <circle cx="86.72" cy="69.14" r="0.85"/>
    <circle cx="86.03" cy="70.07" r="0.85"/>
    <circle cx="73.05" cy="69.92" r="0.85"/>
    <circle cx="34.96" cy="70.31" r="0.85"/>
    <circle cx="35.16" cy="70.51" r="0.85"/>
    <circle cx="17.00" cy="71.73" r="0.85"/>
    <circle cx="35.35" cy="70.70" r="0.85"/>
    <circle cx="79.83" cy="72.94" r="0.85"/>
    <circle cx="25.47" cy="73.52" r="0.85"/>
    <circle cx="62.57" cy="73.69" r="0.85"/>
    <circle cx="18.95" cy="72.66" r="0.85"/>
    <circle cx="38.12" cy="73.77" r="0.85"/>
    <circle cx="49.89" cy="73.67" r="0.85"/>
    <circle cx="70.36" cy="73.35" r="0.85"/>
    <circle cx="19.53" cy="72.85" r="0.85"/>
    <circle cx="74.63" cy="73.86" r="0.85"/>
    <circle cx="21.48" cy="73.44" r="0.85"/>
  </g>
</svg>