<svg xmlns="http://www.w3.org/2000/svg" viewBox="0 0 100 100" fill="none">
  <g stroke="#00B3E3" stroke-width="0.25" stroke-linecap="round">
    <line x1="42.34" y1="20.19" x2="51.06" y2="23.48"/>
    <line x1="33.72" y1="20.29" x2="40.74" y2="24.06"/>
    <line x1="19.38" y1="20.57" x2="20.81" y2="23.90"/>
    <line x1="27.93" y1="21.13" x2="18.88" y2="31.44"/>
    <line x1="47.06" y1="21.88" x2="46.82" y2="25.53"/>
    <line x1="25.78" y1="23.44" x2="27.37" y2="25.10"/>
    <line x1="33.86" y1="25.47" x2="34.20" y2="29.57"/>
    <line x1="40.81" y1="26.83" x2="43.42" y2="29.26"/>
    <line x1="51.32" y1="27.96" x2="44.55" y2="34.06"/>
    <line x1="51.32" y1="27.96" x2="59.89" y2="35.96"/>
    <line x1="34.20" y1="29.57" x2="30.77" y2="30.59"/>
    <line x1="30.77" y1="30.59" x2="22.22" y2="37.20"/>
    <line x1="40.02" y1="30.09" x2="42.50" y2="31.50"/>
    <line x1="42.50" y1="31.50" x2="44.55" y2="34.06"/>
    <line x1="55.88" y1="32.21" x2="57.11" y2="36.16"/>
    <line x1="26.53" y1="33.63" x2="27.85" y2="34.95"/>
    <line x1="59.89" y1="35.96" x2="57.14" y2="43.06"/>
    <line x1="59.89" y1="35.96" x2="56.14" y2="45.83"/>
    <line x1="13.76" y1="37.74" x2="16.78" y2="39.08"/>
    <line x1="58.02" y1="40.15" x2="55.66" y2="48.54"/>
    <line x1="58.02" y1="40.15" x2="55.08" y2="50.78"/>
    <line x1="21.14" y1="41.04" x2="25.45" y2="44.58"/>
    <line x1="57.14" y1="43.06" x2="55.66" y2="48.54"/>
    <line x1="25.45" y1="44.58" x2="25.56" y2="50.38"/>
    <line x1="29.65" y1="45.52" x2="32.03" y2="47.21"/>
    <line x1="56.14" y1="45.83" x2="57.69" y2="48.16"/>
    <line x1="46.45" y1="46.37" x2="51.53" y2="50.45"/>
    <line x1="21.79" y1="46.50" x2="25.56" y2="50.38"/>
    <line x1="32.03" y1="47.21" x2="32.03" y2="48.10"/>
    <line x1="55.66" y1="48.54" x2="57.45" y2="50.45"/>
    <line x1="51.53" y1="50.45" x2="55.15" y2="54.52"/>
    <line x1="72.67" y1="50.20" x2="77.64" y2="50.00"/>
    <line x1="45.99" y1="51.34" x2="52.02" y2="57.23"/>
    <line x1="45.99" y1="51.34" x2="46.44" y2="63.05"/>
    <line x1="67.62" y1="51.78" x2="63.53" y2="53.70"/>
    <line x1="81.82" y1="51.88" x2="87.13" y2="59.51"/>
    <line x1="60.57" y1="52.08" x2="63.53" y2="53.70"/>
    <line x1="34.65" y1="52.54" x2="38.72" y2="58.44"/>
    <line x1="49.08" y1="54.08" x2="43.20" y2="59.71"/>
    <line x1="60.80" y1="54.88" x2="54.40" y2="62.51"/>
    <line x1="81.05" y1="55.18" x2="87.17" y2="56.86"/>
    <line x1="49.99" y1="55.94" x2="52.02" y2="57.23"/>
    <line x1="46.23" y1="56.29" x2="46.44" y2="63.05"/>
    <line x1="54.36" y1="58.53" x2="54.40" y2="62.51"/>
    <line x1="40.12" y1="61.37" x2="41.63" y2="64.29"/>
    <line x1="61.75" y1="63.94" x2="64.23" y2="66.83"/>
    <line x1="49.71" y1="65.45" x2="50.95" y2="69.28"/>
    <line x1="64.23" y1="66.83" x2="61.21" y2="66.95"/>
    <line x1="70.39" y1="68.20" x2="64.70" y2="75.31"/>
    <line x1="85.33" y1="69.95" x2="86.59" y2="71.38"/>
    <line x1="71.71" y1="71.52" x2="75.21" y2="75.66"/>
    <line x1="78.71" y1="72.99" x2="72.46" y2="77.93"/>
    <line x1="73.50" y1="73.61" x2="75.21" y2="75.66"/>
    <line x1="62.40" y1="74.54" x2="62.92" y2="76.43"/>
    <line x1="68.33" y1="75.95" x2="69.51" y2="78.54"/>
    <line x1="68.33" y1="75.95" x2="70.67" y2="81.22"/>
  </g>
  <g fill="#00B3E3">
    <circle cx="35.43" cy="13.59" r="0.85"/>
    <circle cx="41.15" cy="13.57" r="0.85"/>
    <circle cx="38.74" cy="16.43" r="0.85"/>
    <circle cx="41.74" cy="16.58" r="0.85"/>
    <circle cx="34.59" cy="16.78" r="0.85"/>
    <circle cx="23.63" cy="17.37" r="0.85"/>
    <circle cx="36.43" cy="17.58" r="0.85"/>
    <circle cx="52.14" cy="18.23" r="0.85"/>
    <circle cx="42.34" cy="20.19" r="0.85"/>
    <circle cx="33.72" cy="20.29" r="0.85"/>
    <circle cx="19.38" cy="20.57" r="0.85"/>
    <circle cx="49.41" cy="20.21" r="0.85"/>
    <circle cx="27.93" cy="21.13" r="0.85"/>
    <circle cx="23.81" cy="21.03" r="0.85"/>
    <circle cx="47.06" cy="21.88" r="0.85"/>
    <circle cx="56.55" cy="21.86" r="0.85"/>
    <circle cx="37.27" cy="22.10" r="0.85"/>
    <circle cx="54.20" cy="23.05" r="0.85"/>
    <circle cx="31.02" cy="23.16" r="0.85"/>
    <circle cx="51.06" cy="23.48" r="0.85"/>
    <circle cx="25.78" cy="23.44" r="0.85"/>
    <circle cx="20.81" cy="23.90" r="0.85"/>
    <circle cx="40.74" cy="24.06" r="0.85"/>
    <circle cx="55.10" cy="24.58" r="0.85"/>
    <circle cx="33.86" cy="25.47" r="0.85"/>
    <circle cx="46.82" cy="25.53" r="0.85"/>
    <circle cx="27.37" cy="25.10" r="0.85"/>
    <circle cx="22.39" cy="27.12" r="0.85"/>
    <circle cx="40.81" cy="26.83" r="0.85"/>
    <circle cx="53.72" cy="27.56" r="0.85"/>
    <circle cx="51.32" cy="27.96" r="0.85"/>
    <circle cx="34.20" cy="29.57" r="0.85"/>
    <circle cx="36.79" cy="29.40" r="0.85"/>
    <circle cx="43.42" cy="29.26" r="0.85"/>
    <circle cx="25.81" cy="29.52" r="0.85"/>
    <circle cx="30.77" cy="30.59" r="0.85"/>
    <circle cx="40.02" cy="30.09" r="0.85"/>
    <circle cx="12.02" cy="30.93" r="0.85"/>
    <circle cx="18.88" cy="31.44" r="0.85"/>
    <circle cx="42.50" cy="31.50" r="0.85"/>
    <circle cx="46.46" cy="31.79" r="0.85"/>
    <circle cx="16.67" cy="31.43" r="0.85"/>
    <circle cx="55.88" cy="32.21" r="0.85"/>
    <circle cx="62.68" cy="32.28" r="0.85"/>
    <circle cx="22.19" cy="32.63" r="0.85"/>
    <circle cx="58.96" cy="32.45" r="0.85"/>
    <circle cx="29.24" cy="32.65" r="0.85"/>
    <circle cx="51.51" cy="33.31" r="0.85"/>
    <circle cx="26.53" cy="33.63" r="0.85"/>
    <circle cx="44.55" cy="34.06" r="0.85"/>
    <circle cx="15.01" cy="34.26" r="0.85"/>
    <circle cx="27.85" cy="34.95" r="0.85"/>
    <circle cx="63.40" cy="35.00" r="0.85"/>
    <circle cx="54.24" cy="35.94" r="0.85"/>
    <circle cx="59.89" cy="35.96" r="0.85"/>
    <circle cx="10.88" cy="36.52" r="0.85"/>
    <circle cx="57.11" cy="36.16" r="0.85"/>
    <circle cx="17.77" cy="36.33" r="0.85"/>
    <circle cx="46.07" cy="37.11" r="0.85"/>
    <circle cx="22.22" cy="37.20" r="0.85"/>
    <circle cx="13.76" cy="37.74" r="0.85"/>
    <circle cx="63.96" cy="37.82" r="0.85"/>
    <circle cx="26.74" cy="38.87" r="0.85"/>
    <circle cx="16.78" cy="39.08" r="0.85"/>
    <circle cx="61.15" cy="38.91" r="0.85"/>
    <circle cx="71.06" cy="39.05" r="0.85"/>
    <circle cx="74.67" cy="39.62" r="0.85"/>
    <circle cx="49.89" cy="40.26" r="0.85"/>
    <circle cx="58.02" cy="40.15" r="0.85"/>
    <circle cx="21.14" cy="41.04" r="0.85"/>
    <circle cx="54.42" cy="41.37" r="0.85"/>
    <circle cx="61.13" cy="41.34" r="0.85"/>
    <circle cx="45.54" cy="41.30" r="0.85"/>
    <circle cx="70.06" cy="41.80" r="0.85"/>
    <circle cx="72.07" cy="42.19" r="0.85"/>
    <circle cx="27.62" cy="42.50" r="0.85"/>
    <circle cx="57.14" cy="43.06" r="0.85"/>
    <circle cx="74.84" cy="42.74" r="0.85"/>
    <circle cx="17.87" cy="44.43" r="0.85"/>
    <circle cx="44.19" cy="44.11" r="0.85"/>
    <circle cx="69.02" cy="44.26" r="0.85"/>
    <circle cx="25.45" cy="44.58" r="0.85"/>
    <circle cx="63.97" cy="44.54" r="0.85"/>
    <circle cx="52.51" cy="44.51" r="0.85"/>
    <circle cx="58.23" cy="44.70" r="0.85"/>
    <circle cx="75.16" cy="45.41" r="0.85"/>
    <circle cx="83.65" cy="44.99" r="0.85"/>
    <circle cx="57.81" cy="44.92" r="0.85"/>
    <circle cx="29.65" cy="45.52" r="0.85"/>
    <circle cx="56.14" cy="45.83" r="0.85"/>
    <circle cx="49.73" cy="45.61" r="0.85"/>
    <circle cx="61.48" cy="45.76" r="0.85"/>
    <circle cx="46.45" cy="46.37" r="0.85"/>
    <circle cx="21.79" cy="46.50" r="0.85"/>
    <circle cx="42.04" cy="46.55" r="0.85"/>
    <circle cx="15.43" cy="46.39" r="0.85"/>
    <circle cx="66.31" cy="46.29" r="0.85"/>
    <circle cx="71.00" cy="47.07" r="0.85"/>
    <circle cx="79.72" cy="47.35" r="0.85"/>
    <circle cx="32.03" cy="47.21" r="0.85"/>
    <circle cx="34.42" cy="48.14" r="0.85"/>
    <circle cx="59.30" cy="47.81" r="0.85"/>
    <circle cx="86.34" cy="48.04" r="0.85"/>
    <circle cx="32.03" cy="48.10" r="0.85"/>
    <circle cx="57.69" cy="48.16" r="0.85"/>
    <circle cx="63.33" cy="48.51" r="0.85"/>
    <circle cx="68.67" cy="48.06" r="0.85"/>
    <circle cx="12.55" cy="48.45" r="0.85"/>
    <circle cx="37.84" cy="48.53" r="0.85"/>
    <circle cx="55.66" cy="48.54" r="0.85"/>
    <circle cx="19.80" cy="48.68" r="0.85"/>
    <circle cx="81.93" cy="48.54" r="0.85"/>
    <circle cx="17.24" cy="48.86" r="0.85"/>
    <circle cx="51.53" cy="50.45" r="0.85"/>
    <circle cx="72.67" cy="50.20" r="0.85"/>
    <circle cx="25.56" cy="50.38" r="0.85"/>
    <circle cx="57.45" cy="50.45" r="0.85"/>
    <circle cx="77.64" cy="50.00" r="0.85"/>
    <circle cx="40.99" cy="50.38" r="0.85"/>
    <circle cx="55.08" cy="50.78" r="0.85"/>
    <circle cx="84.16" cy="51.00" r="0.85"/>
    <circle cx="20.99" cy="51.34" r="0.85"/>
    <circle cx="45.99" cy="51.34" r="0.85"/>
    <circle cx="67.62" cy="51.78" r="0.85"/>
    <circle cx="30.37" cy="51.46" r="0.85"/>
    <circle cx="38.67" cy="51.17" r="0.85"/>
    <circle cx="81.82" cy="51.88" r="0.85"/>
    <circle cx="60.57" cy="52.08" r="0.85"/>
    <circle cx="34.65" cy="52.54" r="0.85"/>
    <circle cx="71.25" cy="52.24" r="0.85"/>
    <circle cx="18.12" cy="52.42" r="0.85"/>
    <circle cx="15.14" cy="53.52" r="0.85"/>
    <circle cx="63.53" cy="53.70" r="0.85"/>
    <circle cx="73.77" cy="53.48" r="0.85"/>
    <circle cx="50.94" cy="53.55" r="0.85"/>
    <circle cx="49.08" cy="54.08" r="0.85"/>
    <circle cx="77.42" cy="54.33" r="0.85"/>
    <circle cx="25.22" cy="54.72" r="0.85"/>
    <circle cx="39.28" cy="54.12" r="0.85"/>
    <circle cx="55.15" cy="54.52" r="0.85"/>
    <circle cx="42.74" cy="54.72" r="0.85"/>
    <circle cx="58.40" cy="54.83" r="0.85"/>
    <circle cx="60.80" cy="54.88" r="0.85"/>
    <circle cx="29.46" cy="55.37" r="0.85"/>
    <circle cx="81.05" cy="55.18" r="0.85"/>
    <circle cx="49.99" cy="55.94" r="0.85"/>
    <circle cx="84.37" cy="55.84" r="0.85"/>
    <circle cx="46.23" cy="56.29" r="0.85"/>
    <circle cx="75.91" cy="55.98" r="0.85"/>
    <circle cx="32.84" cy="56.47" r="0.85"/>
    <circle cx="61.66" cy="56.54" r="0.85"/>
    <circle cx="87.17" cy="56.86" r="0.85"/>
    <circle cx="43.19" cy="57.14" r="0.85"/>
    <circle cx="24.76" cy="57.37" r="0.85"/>
    <circle cx="52.02" cy="57.23" r="0.85"/>
    <circle cx="90.23" cy="57.45" r="0.85"/>
    <circle cx="38.72" cy="58.44" r="0.85"/>
    <circle cx="57.97" cy="58.11" r="0.85"/>
    <circle cx="80.62" cy="58.30" r="0.85"/>
    <circle cx="54.36" cy="58.53" r="0.85"/>
    <circle cx="32.12" cy="58.84" r="0.85"/>
    <circle cx="77.17" cy="59.52" r="0.85"/>
    <circle cx="27.12" cy="59.01" r="0.85"/>
    <circle cx="46.17" cy="59.52" r="0.85"/>
    <circle cx="87.13" cy="59.51" r="0.85"/>
    <circle cx="43.20" cy="59.71" r="0.85"/>
    <circle cx="60.84" cy="59.89" r="0.85"/>
    <circle cx="84.35" cy="59.83" r="0.85"/>
    <circle cx="23.76" cy="61.27" r="0.85"/>
    <circle cx="30.49" cy="61.16" r="0.85"/>
    <circle cx="40.12" cy="61.37" r="0.85"/>
    <circle cx="90.26" cy="61.62" r="0.85"/>
    <circle cx="54.40" cy="62.51" r="0.85"/>
    <circle cx="58.15" cy="62.43" r="0.85"/>
    <circle cx="87.60" cy="62.50" r="0.85"/>
    <circle cx="46.44" cy="63.05" r="0.85"/>
    <circle cx="76.60" cy="62.86" r="0.85"/>
    <circle cx="81.46" cy="63.17" r="0.85"/>
    <circle cx="85.05" cy="63.44" r="0.85"/>
    <circle cx="28.89" cy="63.49" r="0.85"/>
    <circle cx="61.75" cy="63.94" r="0.85"/>
    <circle cx="41.63" cy="64.29" r="0.85"/>
    <circle cx="51.98" cy="64.04" r="0.85"/>
    <circle cx="49.71" cy="65.45" r="0.85"/>
    <circle cx="77.17" cy="66.27" r="0.85"/>
    <circle cx="52.65" cy="66.25" r="0.85"/>
    <circle cx="57.73" cy="66.33" r="0.85"/>
    <circle cx="64.23" cy="66.83" r="0.85"/>
    <circle cx="74.16" cy="66.62" r="0.85"/>
    <circle cx="61.21" cy="66.95" r="0.85"/>
    <circle cx="81.35" cy="66.89" r="0.85"/>
    <circle cx="83.38" cy="67.74" r="0.85"/>
    <circle cx="67.06" cy="67.95" r="0.85"/>
    <circle cx="70.39" cy="68.20" r="0.85"/>
    <circle cx="55.71" cy="68.52" r="0.85"/>
    <circle cx="53.22" cy="68.95" r="0.85"/>
    <circle cx="50.95" cy="69.28" r="0.85"/>
    <circle cx="79.67" cy="69.38" r="0.85"/>
    <circle cx="85.33" cy="69.95" r="0.85"/>
    <circle cx="60.55" cy="70.59" r="0.85"/>
    <circle cx="74.60" cy="70.47" r="0.85"/>
    <circle cx="81.35" cy="70.21" r="0.85"/>
    <circle cx="82.77" cy="71.31" r="0.85"/>
    <circle cx="86.59" cy="71.38" r="0.85"/>
    <circle cx="71.71" cy="71.52" r="0.85"/>
    <circle cx="67.11" cy="72.02" r="0.85"/>
    <circle cx="58.61" cy="72.38" r="0.85"/>
    <circle cx="78.71" cy="72.99" r="0.85"/>
    <circle cx="73.50" cy="73.61" r="0.85"/>
    <circle cx="81.51" cy="73.67" r="0.85"/>
    <circle cx="57.79" cy="74.51" r="0.85"/>
    <circle cx="62.40" cy="74.54" r="0.85"/>
    <circle cx="84.06" cy="74.75" r="0.85"/>
    <circle cx="71.44" cy="74.88" r="0.85"/>
    <circle cx="64.70" cy="75.31" r="0.85"/>
    <circle cx="75.21" cy="75.66" r="0.85"/>
    <circle cx="68.33" cy="75.95" r="0.85"/>
    <circle cx="59.77" cy="75.73" r="0.85"/>
    <circle cx="62.92" cy="76.43" r="0.85"/>
    <circle cx="56.94" cy="77.02" r="0.85"/>
    <circle cx="72.46" cy="77.93" r="0.85"/>
    <circle cx="75.06" cy="77.93" r="0.85"/>
    <circle cx="69.51" cy="78.54" r="0.85"/>
    <circle cx="60.54" cy="79.06" r="0.85"/>
    <circle cx="74.88" cy="80.66" r="0.85"/>
    <circle cx="70.67" cy="81.22" r="0.85"/>
  </g>
</svg>