<svg xmlns="http://www.w3.org/2000/svg" viewBox="0 0 100 100" fill="none">
  <g stroke="#00B3E3" stroke-width="0.25" stroke-linecap="round">
    <line x1="44.13" y1="8.91" x2="36.34" y2="10.08"/>
    <line x1="44.13" y1="8.91" x2="30.99" y2="11.26"/>
    <line x1="49.64" y1="8.70" x2="36.34" y2="10.08"/>
    <line x1="49.64" y1="8.70" x2="48.61" y2="11.14"/>
    <line x1="56.65" y1="9.03" x2="64.66" y2="10.37"/>
    <line x1="64.66" y1="10.37" x2="72.09" y2="12.35"/>
    <line x1="30.99" y1="11.26" x2="25.02" y2="13.29"/>
    <line x1="30.99" y1="11.26" x2="34.68" y2="13.30"/>
    <line x1="30.99" y1="11.26" x2="24.22" y2="13.87"/>
    <line x1="61.13" y1="11.72" x2="64.01" y2="15.72"/>
    <line x1="72.09" y1="12.35" x2="76.75" y2="14.73"/>
    <line x1="25.02" y1="13.29" x2="24.22" y2="13.87"/>
    <line x1="25.02" y1="13.29" x2="23.24" y2="14.65"/>
    <line x1="25.02" y1="13.29" x2="20.73" y2="17.16"/>
    <line x1="34.68" y1="13.30" x2="40.33" y2="17.12"/>
    <line x1="24.22" y1="13.87" x2="20.73" y2="17.16"/>
    <line x1="28.61" y1="14.62" x2="20.73" y2="17.16"/>
    <line x1="76.75" y1="14.73" x2="79.26" y2="17.60"/>
    <line x1="23.24" y1="14.65" x2="20.73" y2="17.16"/>
    <line x1="64.01" y1="15.72" x2="46.87" y2="21.04"/>
    <line x1="40.33" y1="17.12" x2="46.87" y2="21.04"/>
    <line x1="20.73" y1="17.16" x2="20.66" y2="21.51"/>
    <line x1="56.16" y1="17.86" x2="52.64" y2="22.87"/>
    <line x1="33.52" y1="17.75" x2="36.41" y2="21.65"/>
    <line x1="70.73" y1="19.08" x2="75.09" y2="31.08"/>
    <line x1="20.70" y1="18.55" x2="20.66" y2="21.51"/>
    <line x1="26.91" y1="19.23" x2="31.66" y2="22.75"/>
    <line x1="23.93" y1="20.70" x2="27.86" y2="30.38"/>
    <line x1="66.38" y1="20.87" x2="66.55" y2="24.93"/>
    <line x1="66.38" y1="20.87" x2="66.68" y2="26.73"/>
    <line x1="31.66" y1="22.75" x2="35.77" y2="27.14"/>
    <line x1="25.69" y1="24.88" x2="35.77" y2="27.14"/>
    <line x1="57.25" y1="25.17" x2="61.06" y2="27.42"/>
    <line x1="57.25" y1="25.17" x2="51.45" y2="32.64"/>
    <line x1="47.38" y1="28.02" x2="51.45" y2="32.64"/>
    <line x1="54.65" y1="28.09" x2="58.24" y2="32.09"/>
    <line x1="20.76" y1="30.27" x2="24.67" y2="30.88"/>
    <line x1="79.20" y1="30.36" x2="78.71" y2="31.05"/>
    <line x1="27.86" y1="30.38" x2="24.67" y2="30.88"/>
    <line x1="24.67" y1="30.88" x2="28.79" y2="35.31"/>
    <line x1="75.09" y1="31.08" x2="74.75" y2="34.17"/>
    <line x1="71.00" y1="31.19" x2="74.75" y2="34.17"/>
    <line x1="41.33" y1="31.52" x2="45.70" y2="35.16"/>
    <line x1="32.85" y1="33.22" x2="38.00" y2="37.37"/>
    <line x1="28.79" y1="35.31" x2="28.59" y2="43.96"/>
    <line x1="68.80" y1="36.28" x2="68.85" y2="40.82"/>
    <line x1="68.80" y1="36.28" x2="68.84" y2="44.68"/>
    <line x1="74.92" y1="37.28" x2="74.93" y2="41.15"/>
    <line x1="28.64" y1="39.92" x2="28.59" y2="43.96"/>
    <line x1="24.58" y1="40.89" x2="28.59" y2="43.96"/>
    <line x1="20.78" y1="41.23" x2="20.60" y2="45.37"/>
    <line x1="44.19" y1="42.69" x2="35.75" y2="44.45"/>
    <line x1="44.19" y1="42.69" x2="47.82" y2="45.45"/>
    <line x1="50.96" y1="42.51" x2="54.05" y2="47.27"/>
    <line x1="57.25" y1="43.06" x2="63.55" y2="44.32"/>
    <line x1="68.84" y1="44.68" x2="73.50" y2="44.62"/>
    <line x1="68.84" y1="44.68" x2="68.16" y2="45.31"/>
    <line x1="23.24" y1="44.53" x2="25.39" y2="48.56"/>
    <line x1="79.25" y1="45.31" x2="79.41" y2="50.11"/>
    <line x1="30.08" y1="46.81" x2="35.03" y2="51.47"/>
    <line x1="30.08" y1="46.81" x2="39.36" y2="55.70"/>
    <line x1="54.05" y1="47.27" x2="60.28" y2="51.77"/>
    <line x1="25.39" y1="48.56" x2="29.47" y2="53.33"/>
    <line x1="25.39" y1="48.56" x2="24.61" y2="61.23"/>
    <line x1="67.98" y1="50.54" x2="71.04" y2="54.06"/>
    <line x1="35.03" y1="51.47" x2="42.13" y2="52.22"/>
    <line x1="52.14" y1="52.61" x2="46.88" y2="52.51"/>
    <line x1="29.47" y1="53.33" x2="32.94" y2="56.59"/>
    <line x1="20.68" y1="53.96" x2="24.90" y2="54.66"/>
    <line x1="71.04" y1="54.06" x2="74.91" y2="57.81"/>
    <line x1="74.90" y1="54.32" x2="74.91" y2="57.81"/>
    <line x1="74.90" y1="54.32" x2="74.99" y2="61.01"/>
    <line x1="74.90" y1="54.32" x2="74.93" y2="64.84"/>
    <line x1="24.90" y1="54.66" x2="29.49" y2="59.16"/>
    <line x1="24.90" y1="54.66" x2="24.61" y2="61.23"/>
    <line x1="24.90" y1="54.66" x2="24.68" y2="64.69"/>
    <line x1="56.11" y1="56.69" x2="64.61" y2="60.67"/>
    <line x1="24.69" y1="57.59" x2="24.61" y2="61.23"/>
    <line x1="24.69" y1="57.59" x2="24.68" y2="64.69"/>
    <line x1="74.91" y1="57.81" x2="74.99" y2="61.01"/>
    <line x1="74.91" y1="57.81" x2="74.93" y2="64.84"/>
    <line x1="69.47" y1="59.57" x2="69.41" y2="64.18"/>
    <line x1="69.47" y1="59.57" x2="69.35" y2="68.49"/>
    <line x1="74.99" y1="61.01" x2="74.93" y2="64.84"/>
    <line x1="24.61" y1="61.23" x2="24.68" y2="64.69"/>
    <line x1="51.31" y1="61.94" x2="51.29" y2="66.43"/>
    <line x1="69.41" y1="64.18" x2="69.35" y2="68.49"/>
    <line x1="20.72" y1="65.02" x2="20.60" y2="69.19"/>
    <line x1="74.93" y1="64.84" x2="78.75" y2="64.90"/>
    <line x1="51.29" y1="66.43" x2="44.73" y2="66.74"/>
    <line x1="44.73" y1="66.74" x2="36.27" y2="68.12"/>
    <line x1="44.73" y1="66.74" x2="41.42" y2="71.03"/>
    <line x1="36.27" y1="68.12" x2="23.35" y2="68.43"/>
    <line x1="20.60" y1="69.19" x2="22.46" y2="70.70"/>
    <line x1="48.02" y1="69.52" x2="46.17" y2="80.70"/>
    <line x1="53.52" y1="71.07" x2="59.75" y2="75.90"/>
    <line x1="64.52" y1="71.81" x2="67.97" y2="74.58"/>
    <line x1="35.58" y1="71.91" x2="35.64" y2="75.66"/>
    <line x1="25.59" y1="72.68" x2="29.39" y2="77.54"/>
    <line x1="20.48" y1="73.54" x2="20.70" y2="77.85"/>
    <line x1="77.34" y1="74.61" x2="79.18" y2="78.22"/>
    <line x1="35.64" y1="75.66" x2="42.58" y2="76.56"/>
    <line x1="59.75" y1="75.90" x2="65.37" y2="79.72"/>
    <line x1="42.58" y1="76.56" x2="46.78" y2="76.76"/>
    <line x1="51.61" y1="76.89" x2="46.78" y2="76.76"/>
    <line x1="51.61" y1="76.89" x2="55.84" y2="80.99"/>
    <line x1="79.18" y1="78.22" x2="77.73" y2="79.69"/>
    <line x1="78.32" y1="79.10" x2="77.73" y2="79.69"/>
    <line x1="32.88" y1="80.26" x2="36.47" y2="81.75"/>
    <line x1="76.37" y1="80.86" x2="74.83" y2="81.92"/>
    <line x1="76.37" y1="80.86" x2="75.59" y2="81.45"/>
    <line x1="75.78" y1="81.25" x2="74.83" y2="81.92"/>
    <line x1="36.47" y1="81.75" x2="40.27" y2="85.64"/>
    <line x1="74.83" y1="81.92" x2="75.59" y2="81.45"/>
    <line x1="29.23" y1="83.39" x2="34.53" y2="84.78"/>
    <line x1="40.27" y1="85.64" x2="45.77" y2="86.12"/>
    <line x1="51.49" y1="86.23" x2="45.77" y2="86.12"/>
  </g>
  <g fill="#00B3E3">
    <circle cx="44.13" cy="8.91" r="0.85"/>
    <circle cx="49.64" cy="8.70" r="0.85"/>
    <circle cx="56.65" cy="9.03" r="0.85"/>
    <circle cx="36.34" cy="10.08" r="0.85"/>
    <circle cx="64.66" cy="10.37" r="0.85"/>
    <circle cx="30.99" cy="11.26" r="0.85"/>
    <circle cx="48.61" cy="11.14" r="0.85"/>
    <circle cx="40.74" cy="11.89" r="0.85"/>
    <circle cx="61.13" cy="11.72" r="0.85"/>
    <circle cx="72.09" cy="12.35" r="0.85"/>
    <circle cx="55.39" cy="12.81" r="0.85"/>
    <circle cx="25.02" cy="13.29" r="0.85"/>
    <circle cx="34.68" cy="13.30" r="0.85"/>
    <circle cx="68.75" cy="13.48" r="0.85"/>
    <circle cx="24.22" cy="13.87" r="0.85"/>
    <circle cx="28.61" cy="14.62" r="0.85"/>
    <circle cx="76.75" cy="14.73" r="0.85"/>
    <circle cx="23.24" cy="14.65" r="0.85"/>
    <circle cx="43.75" cy="14.97" r="0.85"/>
    <circle cx="50.04" cy="15.39" r="0.85"/>
    <circle cx="64.01" cy="15.72" r="0.85"/>
    <circle cx="71.55" cy="15.60" r="0.85"/>
    <circle cx="40.33" cy="17.12" r="0.85"/>
    <circle cx="20.73" cy="17.16" r="0.85"/>
    <circle cx="56.16" cy="17.86" r="0.85"/>
    <circle cx="79.26" cy="17.60" r="0.85"/>
    <circle cx="33.52" cy="17.75" r="0.85"/>
    <circle cx="76.46" cy="18.00" r="0.85"/>
    <circle cx="70.73" cy="19.08" r="0.85"/>
    <circle cx="20.70" cy="18.55" r="0.85"/>
    <circle cx="26.91" cy="19.23" r="0.85"/>
    <circle cx="51.15" cy="19.51" r="0.85"/>
    <circle cx="23.93" cy="20.70" r="0.85"/>
    <circle cx="46.87" cy="21.04" r="0.85"/>
    <circle cx="79.20" cy="21.60" r="0.85"/>
    <circle cx="20.66" cy="21.51" r="0.85"/>
    <circle cx="66.38" cy="20.87" r="0.85"/>
    <circle cx="60.89" cy="21.24" r="0.85"/>
    <circle cx="75.49" cy="21.13" r="0.85"/>
    <circle cx="36.41" cy="21.65" r="0.85"/>
    <circle cx="31.66" cy="22.75" r="0.85"/>
    <circle cx="52.64" cy="22.87" r="0.85"/>
    <circle cx="41.55" cy="23.83" r="0.85"/>
    <circle cx="25.69" cy="24.88" r="0.85"/>
    <circle cx="72.87" cy="25.10" r="0.85"/>
    <circle cx="66.55" cy="24.93" r="0.85"/>
    <circle cx="57.25" cy="25.17" r="0.85"/>
    <circle cx="20.58" cy="25.77" r="0.85"/>
    <circle cx="79.37" cy="26.17" r="0.85"/>
    <circle cx="35.77" cy="27.14" r="0.85"/>
    <circle cx="66.68" cy="26.73" r="0.85"/>
    <circle cx="77.34" cy="26.56" r="0.85"/>
    <circle cx="22.07" cy="26.76" r="0.85"/>
    <circle cx="47.38" cy="28.02" r="0.85"/>
    <circle cx="61.06" cy="27.42" r="0.85"/>
    <circle cx="42.28" cy="27.81" r="0.85"/>
    <circle cx="54.65" cy="28.09" r="0.85"/>
    <circle cx="31.45" cy="28.52" r="0.85"/>
    <circle cx="20.76" cy="30.27" r="0.85"/>
    <circle cx="79.20" cy="30.36" r="0.85"/>
    <circle cx="27.86" cy="30.38" r="0.85"/>
    <circle cx="66.03" cy="30.51" r="0.85"/>
    <circle cx="24.67" cy="30.88" r="0.85"/>
    <circle cx="75.09" cy="31.08" r="0.85"/>
    <circle cx="71.00" cy="31.19" r="0.85"/>
    <circle cx="78.71" cy="31.05" r="0.85"/>
    <circle cx="41.33" cy="31.52" r="0.85"/>
    <circle cx="58.24" cy="32.09" r="0.85"/>
    <circle cx="51.45" cy="32.64" r="0.85"/>
    <circle cx="37.01" cy="32.62" r="0.85"/>
    <circle cx="32.85" cy="33.22" r="0.85"/>
    <circle cx="24.62" cy="33.81" r="0.85"/>
    <circle cx="24.02" cy="33.40" r="0.85"/>
    <circle cx="74.75" cy="34.17" r="0.85"/>
    <circle cx="75.39" cy="33.79" r="0.85"/>
    <circle cx="28.79" cy="35.31" r="0.85"/>
    <circle cx="63.56" cy="35.00" r="0.85"/>
    <circle cx="45.70" cy="35.16" r="0.85"/>
    <circle cx="54.79" cy="35.21" r="0.85"/>
    <circle cx="54.30" cy="35.55" r="0.85"/>
    <circle cx="68.80" cy="36.28" r="0.85"/>
    <circle cx="33.76" cy="36.63" r="0.85"/>
    <circle cx="38.00" cy="37.37" r="0.85"/>
    <circle cx="24.56" cy="37.40" r="0.85"/>
    <circle cx="64.48" cy="37.26" r="0.85"/>
    <circle cx="74.92" cy="37.28" r="0.85"/>
    <circle cx="59.29" cy="37.96" r="0.85"/>
    <circle cx="50.88" cy="38.39" r="0.85"/>
    <circle cx="44.69" cy="38.18" r="0.85"/>
    <circle cx="28.64" cy="39.92" r="0.85"/>
    <circle cx="24.58" cy="40.89" r="0.85"/>
    <circle cx="68.85" cy="40.82" r="0.85"/>
    <circle cx="20.78" cy="41.23" r="0.85"/>
    <circle cx="74.93" cy="41.15" r="0.85"/>
    <circle cx="78.72" cy="41.23" r="0.85"/>
    <circle cx="44.19" cy="42.69" r="0.85"/>
    <circle cx="50.96" cy="42.51" r="0.85"/>
    <circle cx="57.25" cy="43.06" r="0.85"/>
    <circle cx="28.59" cy="43.96" r="0.85"/>
    <circle cx="35.75" cy="44.45" r="0.85"/>
    <circle cx="68.84" cy="44.68" r="0.85"/>
    <circle cx="63.55" cy="44.32" r="0.85"/>
    <circle cx="23.24" cy="44.53" r="0.85"/>
    <circle cx="73.50" cy="44.62" r="0.85"/>
    <circle cx="20.60" cy="45.37" r="0.85"/>
    <circle cx="79.25" cy="45.31" r="0.85"/>
    <circle cx="75.95" cy="45.14" r="0.85"/>
    <circle cx="47.82" cy="45.45" r="0.85"/>
    <circle cx="68.16" cy="45.31" r="0.85"/>
    <circle cx="41.22" cy="46.77" r="0.85"/>
    <circle cx="59.83" cy="46.54" r="0.85"/>
    <circle cx="30.08" cy="46.81" r="0.85"/>
    <circle cx="54.05" cy="47.27" r="0.85"/>
    <circle cx="35.13" cy="47.49" r="0.85"/>
    <circle cx="25.39" cy="48.56" r="0.85"/>
    <circle cx="64.37" cy="48.29" r="0.85"/>
    <circle cx="74.30" cy="48.79" r="0.85"/>
    <circle cx="20.51" cy="49.74" r="0.85"/>
    <circle cx="79.41" cy="50.11" r="0.85"/>
    <circle cx="67.98" cy="50.54" r="0.85"/>
    <circle cx="47.27" cy="50.49" r="0.85"/>
    <circle cx="77.31" cy="50.73" r="0.85"/>
    <circle cx="22.07" cy="50.78" r="0.85"/>
    <circle cx="35.03" cy="51.47" r="0.85"/>
    <circle cx="60.28" cy="51.77" r="0.85"/>
    <circle cx="42.13" cy="52.22" r="0.85"/>
    <circle cx="52.14" cy="52.61" r="0.85"/>
    <circle cx="46.88" cy="52.51" r="0.85"/>
    <circle cx="29.47" cy="53.33" r="0.85"/>
    <circle cx="20.68" cy="53.96" r="0.85"/>
    <circle cx="71.04" cy="54.06" r="0.85"/>
    <circle cx="79.18" cy="54.28" r="0.85"/>
    <circle cx="74.90" cy="54.32" r="0.85"/>
    <circle cx="24.90" cy="54.66" r="0.85"/>
    <circle cx="65.35" cy="55.74" r="0.85"/>
    <circle cx="39.36" cy="55.70" r="0.85"/>
    <circle cx="45.59" cy="56.46" r="0.85"/>
    <circle cx="32.94" cy="56.59" r="0.85"/>
    <circle cx="77.15" cy="56.25" r="0.85"/>
    <circle cx="56.11" cy="56.69" r="0.85"/>
    <circle cx="24.69" cy="57.59" r="0.85"/>
    <circle cx="74.91" cy="57.81" r="0.85"/>
    <circle cx="35.96" cy="57.64" r="0.85"/>
    <circle cx="51.32" cy="57.75" r="0.85"/>
    <circle cx="59.59" cy="57.94" r="0.85"/>
    <circle cx="29.49" cy="59.16" r="0.85"/>
    <circle cx="69.47" cy="59.57" r="0.85"/>
    <circle cx="34.54" cy="60.45" r="0.85"/>
    <circle cx="39.97" cy="61.16" r="0.85"/>
    <circle cx="64.61" cy="60.67" r="0.85"/>
    <circle cx="74.99" cy="61.01" r="0.85"/>
    <circle cx="24.61" cy="61.23" r="0.85"/>
    <circle cx="51.31" cy="61.94" r="0.85"/>
    <circle cx="57.10" cy="61.59" r="0.85"/>
    <circle cx="45.61" cy="61.77" r="0.85"/>
    <circle cx="29.49" cy="63.82" r="0.85"/>
    <circle cx="69.41" cy="64.18" r="0.85"/>
    <circle cx="24.68" cy="64.69" r="0.85"/>
    <circle cx="20.72" cy="65.02" r="0.85"/>
    <circle cx="74.93" cy="64.84" r="0.85"/>
    <circle cx="78.75" cy="64.90" r="0.85"/>
    <circle cx="51.29" cy="66.43" r="0.85"/>
    <circle cx="44.73" cy="66.74" r="0.85"/>
    <circle cx="57.26" cy="66.93" r="0.85"/>
    <circle cx="29.35" cy="67.87" r="0.85"/>
    <circle cx="36.27" cy="68.12" r="0.85"/>
    <circle cx="63.84" cy="68.07" r="0.85"/>
    <circle cx="69.35" cy="68.49" r="0.85"/>
    <circle cx="23.35" cy="68.43" r="0.85"/>
    <circle cx="73.57" cy="68.38" r="0.85"/>
    <circle cx="20.60" cy="69.19" r="0.85"/>
    <circle cx="79.24" cy="69.20" r="0.85"/>
    <circle cx="76.06" cy="68.99" r="0.85"/>
    <circle cx="48.02" cy="69.52" r="0.85"/>
    <circle cx="59.67" cy="70.56" r="0.85"/>
    <circle cx="41.42" cy="71.03" r="0.85"/>
    <circle cx="53.52" cy="71.07" r="0.85"/>
    <circle cx="22.46" cy="70.70" r="0.85"/>
    <circle cx="30.60" cy="70.94" r="0.85"/>
    <circle cx="64.52" cy="71.81" r="0.85"/>
    <circle cx="35.58" cy="71.91" r="0.85"/>
    <circle cx="25.59" cy="72.68" r="0.85"/>
    <circle cx="74.27" cy="72.79" r="0.85"/>
    <circle cx="20.48" cy="73.54" r="0.85"/>
    <circle cx="79.39" cy="73.93" r="0.85"/>
    <circle cx="67.97" cy="74.58" r="0.85"/>
    <circle cx="47.14" cy="74.74" r="0.85"/>
    <circle cx="22.17" cy="74.71" r="0.85"/>
    <circle cx="77.34" cy="74.61" r="0.85"/>
    <circle cx="35.64" cy="75.66" r="0.85"/>
    <circle cx="59.75" cy="75.90" r="0.85"/>
    <circle cx="42.58" cy="76.56" r="0.85"/>
    <circle cx="51.61" cy="76.89" r="0.85"/>
    <circle cx="46.78" cy="76.76" r="0.85"/>
    <circle cx="20.70" cy="77.85" r="0.85"/>
    <circle cx="29.39" cy="77.54" r="0.85"/>
    <circle cx="79.18" cy="78.22" r="0.85"/>
    <circle cx="71.01" cy="78.08" r="0.85"/>
    <circle cx="74.85" cy="78.25" r="0.85"/>
    <circle cx="24.90" cy="78.68" r="0.85"/>
    <circle cx="78.32" cy="79.10" r="0.85"/>
    <circle cx="65.37" cy="79.72" r="0.85"/>
    <circle cx="78.12" cy="79.30" r="0.85"/>
    <circle cx="77.93" cy="79.49" r="0.85"/>
    <circle cx="77.73" cy="79.69" r="0.85"/>
    <circle cx="39.93" cy="80.13" r="0.85"/>
    <circle cx="32.88" cy="80.26" r="0.85"/>
    <circle cx="46.17" cy="80.70" r="0.85"/>
    <circle cx="55.84" cy="80.99" r="0.85"/>
    <circle cx="76.37" cy="80.86" r="0.85"/>
    <circle cx="24.49" cy="81.50" r="0.85"/>
    <circle cx="75.78" cy="81.25" r="0.85"/>
    <circle cx="36.47" cy="81.75" r="0.85"/>
    <circle cx="51.54" cy="81.82" r="0.85"/>
    <circle cx="74.83" cy="81.92" r="0.85"/>
    <circle cx="75.59" cy="81.45" r="0.85"/>
    <circle cx="59.66" cy="82.20" r="0.85"/>
    <circle cx="29.23" cy="83.39" r="0.85"/>
    <circle cx="69.54" cy="83.64" r="0.85"/>
    <circle cx="34.53" cy="84.78" r="0.85"/>
    <circle cx="64.69" cy="84.82" r="0.85"/>
    <circle cx="40.27" cy="85.64" r="0.85"/>
    <circle cx="51.49" cy="86.23" r="0.85"/>
    <circle cx="57.38" cy="85.93" r="0.85"/>
    <circle cx="45.77" cy="86.12" r="0.85"/>
  </g>
</svg>