<svg xmlns="http://www.w3.org/2000/svg" viewBox="0 0 100 100" fill="none">
  <g stroke="#00B3E3" stroke-width="0.25" stroke-linecap="round">
    <line x1="49.80" y1="16.80" x2="49.80" y2="24.41"/>
    <line x1="26.17" y1="29.10" x2="35.55" y2="32.03"/>
    <line x1="43.16" y1="48.44" x2="39.45" y2="49.61"/>
    <line x1="49.80" y1="80.27" x2="53.12" y2="85.94"/>
    <line x1="73.44" y1="46.48" x2="71.48" y2="54.49"/>
    <line x1="67.58" y1="72.27" x2="64.84" y2="80.86"/>
    <line x1="54.30" y1="52.93" x2="53.32" y2="59.96"/>
    <line x1="32.03" y1="72.46" x2="27.54" y2="72.85"/>
    <line x1="31.84" y1="49.41" x2="28.12" y2="54.49"/>
    <line x1="49.80" y1="40.43" x2="45.51" y2="43.55"/>
    <line x1="41.02" y1="44.53" x2="39.45" y2="49.61"/>
    <line x1="60.16" y1="75.20" x2="56.84" y2="81.25"/>
    <line x1="54.49" y1="75.59" x2="49.80" y2="80.27"/>
    <line x1="28.12" y1="54.49" x2="31.84" y2="61.13"/>
    <line x1="17.58" y1="52.15" x2="21.48" y2="63.67"/>
    <line x1="49.80" y1="16.80" x2="44.14" y2="20.31"/>
    <line x1="72.46" y1="22.07" x2="73.63" y2="28.91"/>
    <line x1="61.91" y1="63.28" x2="64.26" y2="68.55"/>
    <line x1="54.30" y1="52.93" x2="49.80" y2="55.66"/>
    <line x1="45.31" y1="52.93" x2="46.29" y2="59.96"/>
    <line x1="83.79" y1="40.04" x2="79.88" y2="45.70"/>
    <line x1="75.78" y1="59.38" x2="78.12" y2="63.67"/>
    <line x1="27.93" y1="65.62" x2="27.54" y2="72.85"/>
    <line x1="64.26" y1="19.14" x2="67.38" y2="25.78"/>
    <line x1="46.29" y1="59.96" x2="53.32" y2="59.96"/>
    <line x1="73.63" y1="28.91" x2="64.26" y2="31.84"/>
    <line x1="46.29" y1="59.96" x2="49.80" y2="64.26"/>
    <line x1="41.02" y1="44.53" x2="43.16" y2="48.44"/>
    <line x1="60.16" y1="75.20" x2="54.49" y2="75.59"/>
    <line x1="28.12" y1="54.49" x2="23.83" y2="59.38"/>
    <line x1="54.49" y1="75.59" x2="56.84" y2="81.25"/>
    <line x1="56.64" y1="68.75" x2="60.16" y2="75.20"/>
    <line x1="49.80" y1="80.27" x2="46.48" y2="85.94"/>
    <line x1="45.31" y1="52.93" x2="39.06" y2="55.66"/>
    <line x1="60.94" y1="13.09" x2="55.66" y2="20.31"/>
    <line x1="71.88" y1="73.05" x2="64.84" y2="80.86"/>
    <line x1="73.63" y1="28.91" x2="78.91" y2="34.57"/>
    <line x1="20.70" y1="34.57" x2="15.62" y2="40.23"/>
    <line x1="61.33" y1="40.23" x2="66.99" y2="44.14"/>
    <line x1="46.48" y1="36.33" x2="45.51" y2="43.55"/>
    <line x1="56.64" y1="68.75" x2="49.80" y2="72.07"/>
    <line x1="70.90" y1="16.41" x2="72.46" y2="22.07"/>
    <line x1="67.58" y1="72.27" x2="60.16" y2="75.20"/>
    <line x1="66.99" y1="44.14" x2="63.67" y2="47.85"/>
    <line x1="64.26" y1="31.84" x2="57.81" y2="35.35"/>
    <line x1="63.67" y1="47.85" x2="65.82" y2="52.93"/>
    <line x1="79.88" y1="45.70" x2="73.44" y2="46.48"/>
    <line x1="31.84" y1="49.41" x2="33.79" y2="52.73"/>
    <line x1="35.35" y1="68.55" x2="32.03" y2="72.46"/>
    <line x1="79.88" y1="45.70" x2="76.37" y2="53.91"/>
    <line x1="20.70" y1="34.57" x2="21.88" y2="41.02"/>
    <line x1="31.84" y1="61.13" x2="27.93" y2="65.62"/>
    <line x1="37.30" y1="63.28" x2="42.97" y2="68.95"/>
    <line x1="60.16" y1="49.61" x2="60.35" y2="55.66"/>
    <line x1="33.79" y1="52.73" x2="28.12" y2="54.49"/>
    <line x1="39.06" y1="55.66" x2="37.30" y2="63.28"/>
    <line x1="45.51" y1="43.55" x2="41.02" y2="44.53"/>
    <line x1="70.90" y1="16.41" x2="64.26" y2="19.14"/>
    <line x1="32.42" y1="25.78" x2="26.17" y2="29.10"/>
    <line x1="70.90" y1="37.50" x2="61.33" y2="40.23"/>
    <line x1="75.78" y1="59.38" x2="71.68" y2="65.62"/>
    <line x1="42.97" y1="81.25" x2="46.48" y2="85.94"/>
    <line x1="67.58" y1="60.94" x2="64.26" y2="68.55"/>
    <line x1="35.35" y1="68.55" x2="39.26" y2="75.39"/>
    <line x1="45.31" y1="13.67" x2="54.49" y2="13.67"/>
    <line x1="31.84" y1="61.13" x2="37.30" y2="63.28"/>
    <line x1="20.90" y1="24.41" x2="20.70" y2="34.57"/>
    <line x1="61.33" y1="40.23" x2="63.67" y2="47.85"/>
    <line x1="64.26" y1="68.55" x2="56.64" y2="68.75"/>
    <line x1="49.80" y1="24.41" x2="56.45" y2="28.91"/>
    <line x1="46.48" y1="36.33" x2="53.12" y2="36.33"/>
    <line x1="83.79" y1="29.69" x2="78.91" y2="34.57"/>
    <line x1="78.12" y1="63.67" x2="71.68" y2="65.62"/>
    <line x1="49.80" y1="72.07" x2="54.49" y2="75.59"/>
    <line x1="32.42" y1="25.78" x2="35.55" y2="32.03"/>
    <line x1="78.12" y1="63.67" x2="71.88" y2="73.05"/>
    <line x1="56.45" y1="28.91" x2="49.80" y2="32.42"/>
    <line x1="20.90" y1="24.41" x2="15.82" y2="29.69"/>
    <line x1="39.45" y1="49.61" x2="39.06" y2="55.66"/>
    <line x1="26.17" y1="46.68" x2="23.24" y2="53.71"/>
    <line x1="77.54" y1="41.02" x2="73.44" y2="46.48"/>
    <line x1="35.94" y1="47.85" x2="39.45" y2="49.61"/>
    <line x1="64.84" y1="80.86" x2="56.84" y2="81.25"/>
    <line x1="15.82" y1="29.69" x2="15.62" y2="40.23"/>
    <line x1="63.67" y1="47.85" x2="60.16" y2="49.61"/>
    <line x1="38.48" y1="40.23" x2="35.94" y2="47.85"/>
    <line x1="56.45" y1="48.44" x2="54.30" y2="52.93"/>
    <line x1="61.13" y1="24.61" x2="64.26" y2="31.84"/>
    <line x1="43.16" y1="28.91" x2="41.99" y2="35.35"/>
    <line x1="49.80" y1="64.26" x2="49.80" y2="72.07"/>
    <line x1="55.66" y1="20.31" x2="49.80" y2="24.41"/>
    <line x1="56.45" y1="28.91" x2="57.81" y2="35.35"/>
    <line x1="34.77" y1="80.86" x2="42.77" y2="87.30"/>
    <line x1="49.80" y1="24.41" x2="43.16" y2="28.91"/>
    <line x1="35.35" y1="19.14" x2="38.67" y2="24.61"/>
    <line x1="42.97" y1="68.95" x2="39.26" y2="75.39"/>
    <line x1="35.94" y1="47.85" x2="33.79" y2="52.73"/>
    <line x1="64.84" y1="80.86" x2="57.03" y2="87.30"/>
    <line x1="23.83" y1="59.38" x2="27.93" y2="65.62"/>
    <line x1="49.80" y1="72.07" x2="45.12" y2="75.59"/>
    <line x1="61.13" y1="24.61" x2="56.45" y2="28.91"/>
    <line x1="49.80" y1="48.44" x2="45.31" y2="52.93"/>
    <line x1="70.90" y1="37.50" x2="77.54" y2="41.02"/>
    <line x1="46.48" y1="85.94" x2="49.80" y2="92.19"/>
    <line x1="21.88" y1="41.02" x2="19.73" y2="45.70"/>
    <line x1="19.73" y1="45.70" x2="17.58" y2="52.15"/>
    <line x1="71.68" y1="65.62" x2="71.88" y2="73.05"/>
    <line x1="23.24" y1="53.71" x2="23.83" y2="59.38"/>
    <line x1="20.90" y1="24.41" x2="26.17" y2="29.10"/>
    <line x1="26.17" y1="46.68" x2="31.84" y2="49.41"/>
    <line x1="77.54" y1="41.02" x2="79.88" y2="45.70"/>
    <line x1="35.35" y1="19.14" x2="27.34" y2="22.07"/>
    <line x1="60.35" y1="55.66" x2="57.03" y2="62.50"/>
    <line x1="16.21" y1="19.14" x2="15.82" y2="29.69"/>
    <line x1="65.82" y1="52.93" x2="67.58" y2="60.94"/>
    <line x1="38.48" y1="40.23" x2="45.51" y2="43.55"/>
    <line x1="49.80" y1="32.42" x2="53.12" y2="36.33"/>
    <line x1="57.03" y1="87.30" x2="49.80" y2="92.19"/>
    <line x1="38.87" y1="13.09" x2="28.52" y2="16.41"/>
    <line x1="71.48" y1="54.49" x2="75.78" y2="59.38"/>
    <line x1="53.12" y1="36.33" x2="49.80" y2="40.43"/>
    <line x1="23.24" y1="53.71" x2="28.12" y2="54.49"/>
    <line x1="28.71" y1="37.50" x2="21.88" y2="41.02"/>
    <line x1="82.03" y1="52.15" x2="78.12" y2="63.67"/>
    <line x1="83.40" y1="19.14" x2="78.71" y2="24.41"/>
    <line x1="65.82" y1="52.93" x2="60.35" y2="55.66"/>
    <line x1="44.14" y1="20.31" x2="38.67" y2="24.61"/>
    <line x1="49.80" y1="48.44" x2="49.80" y2="55.66"/>
    <line x1="49.80" y1="40.43" x2="49.80" y2="48.44"/>
    <line x1="38.87" y1="13.09" x2="35.35" y2="19.14"/>
    <line x1="19.73" y1="45.70" x2="26.17" y2="46.68"/>
    <line x1="53.12" y1="36.33" x2="54.10" y2="43.55"/>
    <line x1="42.58" y1="62.50" x2="42.97" y2="68.95"/>
    <line x1="78.71" y1="24.41" x2="73.63" y2="28.91"/>
    <line x1="26.17" y1="29.10" x2="28.71" y2="37.50"/>
    <line x1="28.71" y1="37.50" x2="32.62" y2="44.14"/>
    <line x1="42.97" y1="68.95" x2="49.80" y2="72.07"/>
    <line x1="49.80" y1="5.66" x2="54.49" y2="13.67"/>
    <line x1="83.79" y1="40.04" x2="82.03" y2="52.15"/>
    <line x1="53.32" y1="59.96" x2="49.80" y2="64.26"/>
    <line x1="78.91" y1="34.57" x2="77.54" y2="41.02"/>
    <line x1="44.14" y1="20.31" x2="43.16" y2="28.91"/>
    <line x1="41.99" y1="35.35" x2="45.51" y2="43.55"/>
    <line x1="17.58" y1="52.15" x2="23.83" y2="59.38"/>
    <line x1="21.88" y1="41.02" x2="26.17" y2="46.68"/>
    <line x1="82.03" y1="52.15" x2="75.78" y2="59.38"/>
    <line x1="38.67" y1="24.61" x2="32.42" y2="25.78"/>
    <line x1="38.67" y1="24.61" x2="35.55" y2="32.03"/>
    <line x1="32.03" y1="72.46" x2="39.26" y2="75.39"/>
    <line x1="27.93" y1="65.62" x2="32.03" y2="72.46"/>
    <line x1="56.84" y1="81.25" x2="53.12" y2="85.94"/>
    <line x1="15.62" y1="40.23" x2="21.88" y2="41.02"/>
    <line x1="39.26" y1="75.39" x2="42.97" y2="81.25"/>
    <line x1="41.99" y1="35.35" x2="38.48" y2="40.23"/>
    <line x1="42.58" y1="62.50" x2="37.30" y2="63.28"/>
    <line x1="45.51" y1="43.55" x2="49.80" y2="48.44"/>
    <line x1="73.44" y1="46.48" x2="76.37" y2="53.91"/>
    <line x1="49.80" y1="80.27" x2="56.84" y2="81.25"/>
    <line x1="78.71" y1="24.41" x2="78.91" y2="34.57"/>
    <line x1="49.80" y1="5.66" x2="45.31" y2="13.67"/>
    <line x1="64.26" y1="31.84" x2="70.90" y2="37.50"/>
    <line x1="16.21" y1="19.14" x2="20.90" y2="24.41"/>
    <line x1="54.10" y1="43.55" x2="58.59" y2="44.73"/>
    <line x1="54.10" y1="43.55" x2="56.45" y2="48.44"/>
    <line x1="32.03" y1="72.46" x2="34.77" y2="80.86"/>
    <line x1="46.29" y1="59.96" x2="42.58" y2="62.50"/>
    <line x1="58.59" y1="44.73" x2="63.67" y2="47.85"/>
    <line x1="60.16" y1="75.20" x2="64.84" y2="80.86"/>
    <line x1="42.58" y1="62.50" x2="49.80" y2="64.26"/>
    <line x1="26.17" y1="29.10" x2="20.70" y2="34.57"/>
    <line x1="56.64" y1="68.75" x2="54.49" y2="75.59"/>
    <line x1="78.71" y1="24.41" x2="83.79" y2="29.69"/>
    <line x1="67.58" y1="72.27" x2="71.88" y2="73.05"/>
    <line x1="64.26" y1="31.84" x2="61.33" y2="40.23"/>
    <line x1="64.26" y1="19.14" x2="61.13" y2="24.61"/>
    <line x1="78.91" y1="34.57" x2="83.79" y2="40.04"/>
    <line x1="41.02" y1="44.53" x2="35.94" y2="47.85"/>
    <line x1="27.34" y1="22.07" x2="26.17" y2="29.10"/>
    <line x1="72.46" y1="22.07" x2="78.71" y2="24.41"/>
    <line x1="73.44" y1="46.48" x2="67.77" y2="49.41"/>
    <line x1="45.51" y1="43.55" x2="43.16" y2="48.44"/>
    <line x1="49.80" y1="80.27" x2="42.97" y2="81.25"/>
    <line x1="75.78" y1="59.38" x2="67.58" y2="60.94"/>
    <line x1="27.93" y1="65.62" x2="35.35" y2="68.55"/>
    <line x1="64.26" y1="19.14" x2="72.46" y2="22.07"/>
    <line x1="79.88" y1="45.70" x2="82.03" y2="52.15"/>
    <line x1="76.37" y1="53.91" x2="75.78" y2="59.38"/>
    <line x1="45.31" y1="13.67" x2="44.14" y2="20.31"/>
    <line x1="61.33" y1="40.23" x2="54.10" y2="43.55"/>
    <line x1="67.38" y1="25.78" x2="73.63" y2="28.91"/>
    <line x1="27.34" y1="22.07" x2="32.42" y2="25.78"/>
    <line x1="39.06" y1="55.66" x2="46.29" y2="59.96"/>
    <line x1="49.80" y1="55.66" x2="53.32" y2="59.96"/>
    <line x1="56.45" y1="48.44" x2="60.16" y2="49.61"/>
    <line x1="60.94" y1="13.09" x2="70.90" y2="16.41"/>
    <line x1="70.90" y1="37.50" x2="73.44" y2="46.48"/>
    <line x1="76.37" y1="53.91" x2="71.48" y2="54.49"/>
    <line x1="45.31" y1="13.67" x2="49.80" y2="16.80"/>
    <line x1="27.34" y1="22.07" x2="20.90" y2="24.41"/>
    <line x1="61.33" y1="40.23" x2="58.59" y2="44.73"/>
    <line x1="57.81" y1="35.35" x2="54.10" y2="43.55"/>
    <line x1="64.26" y1="68.55" x2="67.58" y2="72.27"/>
    <line x1="39.06" y1="55.66" x2="42.58" y2="62.50"/>
    <line x1="61.91" y1="63.28" x2="56.64" y2="68.75"/>
    <line x1="53.12" y1="85.94" x2="49.80" y2="92.19"/>
    <line x1="70.90" y1="37.50" x2="66.99" y2="44.14"/>
    <line x1="60.94" y1="13.09" x2="64.26" y2="19.14"/>
    <line x1="49.80" y1="64.26" x2="42.97" y2="68.95"/>
    <line x1="67.58" y1="60.94" x2="71.68" y2="65.62"/>
    <line x1="20.70" y1="34.57" x2="28.71" y2="37.50"/>
    <line x1="57.81" y1="35.35" x2="61.33" y2="40.23"/>
    <line x1="31.84" y1="61.13" x2="35.35" y2="68.55"/>
    <line x1="64.26" y1="68.55" x2="60.16" y2="75.20"/>
    <line x1="60.16" y1="49.61" x2="65.82" y2="52.93"/>
    <line x1="49.80" y1="24.41" x2="49.80" y2="32.42"/>
    <line x1="46.48" y1="36.33" x2="49.80" y2="40.43"/>
    <line x1="83.79" y1="29.69" x2="83.79" y2="40.04"/>
    <line x1="33.79" y1="52.73" x2="39.06" y2="55.66"/>
    <line x1="66.99" y1="44.14" x2="73.44" y2="46.48"/>
    <line x1="38.48" y1="40.23" x2="41.02" y2="44.53"/>
    <line x1="49.80" y1="55.66" x2="46.29" y2="59.96"/>
    <line x1="45.31" y1="52.93" x2="49.80" y2="55.66"/>
    <line x1="67.58" y1="60.94" x2="61.91" y2="63.28"/>
    <line x1="42.97" y1="81.25" x2="42.77" y2="87.30"/>
    <line x1="35.35" y1="68.55" x2="42.97" y2="68.95"/>
    <line x1="55.66" y1="20.31" x2="61.13" y2="24.61"/>
    <line x1="56.45" y1="28.91" x2="64.26" y2="31.84"/>
    <line x1="37.30" y1="63.28" x2="35.35" y2="68.55"/>
    <line x1="35.94" y1="47.85" x2="31.84" y2="49.41"/>
    <line x1="39.06" y1="55.66" x2="31.84" y2="61.13"/>
    <line x1="63.67" y1="47.85" x2="67.77" y2="49.41"/>
    <line x1="53.12" y1="85.94" x2="57.03" y2="87.30"/>
    <line x1="49.80" y1="32.42" x2="46.48" y2="36.33"/>
    <line x1="64.26" y1="19.14" x2="55.66" y2="20.31"/>
    <line x1="49.80" y1="64.26" x2="56.64" y2="68.75"/>
    <line x1="55.66" y1="20.31" x2="56.45" y2="28.91"/>
    <line x1="45.12" y1="75.59" x2="49.80" y2="80.27"/>
    <line x1="39.45" y1="49.61" x2="45.31" y2="52.93"/>
    <line x1="26.17" y1="46.68" x2="28.12" y2="54.49"/>
    <line x1="60.16" y1="49.61" x2="54.30" y2="52.93"/>
    <line x1="32.62" y1="44.14" x2="31.84" y2="49.41"/>
    <line x1="33.79" y1="52.73" x2="31.84" y2="61.13"/>
    <line x1="53.32" y1="59.96" x2="57.03" y2="62.50"/>
    <line x1="66.99" y1="44.14" x2="67.77" y2="49.41"/>
    <line x1="61.13" y1="24.61" x2="67.38" y2="25.78"/>
    <line x1="27.54" y1="72.85" x2="34.77" y2="80.86"/>
    <line x1="46.48" y1="85.94" x2="42.77" y2="87.30"/>
    <line x1="60.94" y1="13.09" x2="54.49" y2="13.67"/>
    <line x1="43.16" y1="28.91" x2="46.48" y2="36.33"/>
    <line x1="71.48" y1="54.49" x2="67.58" y2="60.94"/>
    <line x1="57.81" y1="35.35" x2="53.12" y2="36.33"/>
    <line x1="56.45" y1="28.91" x2="53.12" y2="36.33"/>
    <line x1="28.52" y1="16.41" x2="27.34" y2="22.07"/>
    <line x1="57.03" y1="62.50" x2="61.91" y2="63.28"/>
    <line x1="35.35" y1="19.14" x2="44.14" y2="20.31"/>
    <line x1="35.35" y1="19.14" x2="32.42" y2="25.78"/>
    <line x1="32.62" y1="44.14" x2="35.94" y2="47.85"/>
    <line x1="35.55" y1="32.03" x2="41.99" y2="35.35"/>
    <line x1="49.80" y1="72.07" x2="49.80" y2="80.27"/>
    <line x1="39.26" y1="75.39" x2="45.12" y2="75.59"/>
    <line x1="43.16" y1="28.91" x2="49.80" y2="32.42"/>
    <line x1="38.87" y1="13.09" x2="45.31" y2="13.67"/>
    <line x1="38.87" y1="13.09" x2="44.14" y2="20.31"/>
    <line x1="71.68" y1="65.62" x2="64.26" y2="68.55"/>
    <line x1="39.45" y1="49.61" x2="33.79" y2="52.73"/>
    <line x1="28.52" y1="16.41" x2="35.35" y2="19.14"/>
    <line x1="60.35" y1="55.66" x2="61.91" y2="63.28"/>
    <line x1="35.55" y1="32.03" x2="28.71" y2="37.50"/>
    <line x1="23.83" y1="59.38" x2="21.48" y2="63.67"/>
    <line x1="38.48" y1="40.23" x2="32.62" y2="44.14"/>
    <line x1="15.62" y1="40.23" x2="19.73" y2="45.70"/>
    <line x1="44.14" y1="20.31" x2="49.80" y2="24.41"/>
    <line x1="54.49" y1="13.67" x2="55.66" y2="20.31"/>
    <line x1="46.48" y1="85.94" x2="53.12" y2="85.94"/>
    <line x1="71.68" y1="65.62" x2="67.58" y2="72.27"/>
    <line x1="45.12" y1="75.59" x2="42.97" y2="81.25"/>
    <line x1="19.73" y1="45.70" x2="23.24" y2="53.71"/>
    <line x1="60.35" y1="55.66" x2="67.58" y2="60.94"/>
    <line x1="57.03" y1="62.50" x2="56.64" y2="68.75"/>
    <line x1="21.48" y1="63.67" x2="27.93" y2="65.62"/>
    <line x1="28.71" y1="37.50" x2="26.17" y2="46.68"/>
    <line x1="42.97" y1="68.95" x2="45.12" y2="75.59"/>
    <line x1="32.62" y1="44.14" x2="26.17" y2="46.68"/>
    <line x1="21.48" y1="63.67" x2="27.54" y2="72.85"/>
    <line x1="54.10" y1="43.55" x2="49.80" y2="48.44"/>
    <line x1="23.83" y1="59.38" x2="31.84" y2="61.13"/>
    <line x1="35.55" y1="32.03" x2="38.48" y2="40.23"/>
    <line x1="49.80" y1="48.44" x2="56.45" y2="48.44"/>
    <line x1="49.80" y1="48.44" x2="54.30" y2="52.93"/>
    <line x1="15.62" y1="40.23" x2="17.58" y2="52.15"/>
    <line x1="43.16" y1="28.91" x2="35.55" y2="32.03"/>
    <line x1="41.99" y1="35.35" x2="46.48" y2="36.33"/>
    <line x1="72.46" y1="22.07" x2="67.38" y2="25.78"/>
    <line x1="34.77" y1="80.86" x2="42.97" y2="81.25"/>
    <line x1="28.71" y1="37.50" x2="38.48" y2="40.23"/>
    <line x1="57.03" y1="62.50" x2="49.80" y2="64.26"/>
    <line x1="15.82" y1="29.69" x2="20.70" y2="34.57"/>
    <line x1="83.40" y1="19.14" x2="72.46" y2="22.07"/>
    <line x1="65.82" y1="52.93" x2="71.48" y2="54.49"/>
    <line x1="67.77" y1="49.41" x2="65.82" y2="52.93"/>
    <line x1="78.91" y1="34.57" x2="70.90" y2="37.50"/>
    <line x1="49.80" y1="40.43" x2="54.10" y2="43.55"/>
    <line x1="58.59" y1="44.73" x2="56.45" y2="48.44"/>
    <line x1="39.26" y1="75.39" x2="34.77" y2="80.86"/>
    <line x1="67.38" y1="25.78" x2="64.26" y2="31.84"/>
    <line x1="17.58" y1="52.15" x2="23.24" y2="53.71"/>
    <line x1="49.80" y1="16.80" x2="55.66" y2="20.31"/>
    <line x1="43.16" y1="48.44" x2="49.80" y2="48.44"/>
    <line x1="82.03" y1="52.15" x2="76.37" y2="53.91"/>
    <line x1="43.16" y1="48.44" x2="45.31" y2="52.93"/>
    <line x1="60.35" y1="55.66" x2="53.32" y2="59.96"/>
    <line x1="54.30" y1="52.93" x2="60.35" y2="55.66"/>
    <line x1="16.21" y1="19.14" x2="27.34" y2="22.07"/>
    <line x1="83.79" y1="40.04" x2="77.54" y2="41.02"/>
    <line x1="38.67" y1="24.61" x2="43.16" y2="28.91"/>
    <line x1="83.40" y1="19.14" x2="83.79" y2="29.69"/>
    <line x1="56.84" y1="81.25" x2="57.03" y2="87.30"/>
    <line x1="67.77" y1="49.41" x2="71.48" y2="54.49"/>
    <line x1="54.49" y1="13.67" x2="49.80" y2="16.80"/>
    <line x1="73.63" y1="28.91" x2="70.90" y2="37.50"/>
    <line x1="58.59" y1="44.73" x2="60.16" y2="49.61"/>
    <line x1="42.77" y1="87.30" x2="49.80" y2="92.19"/>
  </g>
  <g fill="#00B3E3">
    <circle cx="49.80" cy="5.66" r="0.7"/>
    <circle cx="38.87" cy="13.09" r="0.7"/>
    <circle cx="60.94" cy="13.09" r="0.7"/>
    <circle cx="45.31" cy="13.67" r="0.7"/>
    <circle cx="54.49" cy="13.67" r="0.7"/>
    <circle cx="28.52" cy="16.41" r="0.7"/>
    <circle cx="70.90" cy="16.41" r="0.7"/>
    <circle cx="49.80" cy="16.80" r="0.7"/>
    <circle cx="16.21" cy="19.14" r="0.7"/>
    <circle cx="35.35" cy="19.14" r="0.7"/>
    <circle cx="64.26" cy="19.14" r="0.7"/>
    <circle cx="83.40" cy="19.14" r="0.7"/>
    <circle cx="44.14" cy="20.31" r="0.7"/>
    <circle cx="55.66" cy="20.31" r="0.7"/>
    <circle cx="27.34" cy="22.07" r="0.7"/>
    <circle cx="72.46" cy="22.07" r="0.7"/>
    <circle cx="20.90" cy="24.41" r="0.7"/>
    <circle cx="49.80" cy="24.41" r="0.7"/>
    <circle cx="78.71" cy="24.41" r="0.7"/>
    <circle cx="38.67" cy="24.61" r="0.7"/>
    <circle cx="61.13" cy="24.61" r="0.7"/>
    <circle cx="32.42" cy="25.78" r="0.7"/>
    <circle cx="67.38" cy="25.78" r="0.7"/>
    <circle cx="43.16" cy="28.91" r="0.7"/>
    <circle cx="56.45" cy="28.91" r="0.7"/>
    <circle cx="73.63" cy="28.91" r="0.7"/>
    <circle cx="26.17" cy="29.10" r="0.7"/>
    <circle cx="15.82" cy="29.69" r="0.7"/>
    <circle cx="83.79" cy="29.69" r="0.7"/>
    <circle cx="64.26" cy="31.84" r="0.7"/>
    <circle cx="35.55" cy="32.03" r="0.7"/>
    <circle cx="49.80" cy="32.42" r="0.7"/>
    <circle cx="20.70" cy="34.57" r="0.7"/>
    <circle cx="78.91" cy="34.57" r="0.7"/>
    <circle cx="41.99" cy="35.35" r="0.7"/>
    <circle cx="57.81" cy="35.35" r="0.7"/>
    <circle cx="46.48" cy="36.33" r="0.7"/>
    <circle cx="53.12" cy="36.33" r="0.7"/>
    <circle cx="28.71" cy="37.50" r="0.7"/>
    <circle cx="70.90" cy="37.50" r="0.7"/>
    <circle cx="83.79" cy="40.04" r="0.7"/>
    <circle cx="15.62" cy="40.23" r="0.7"/>
    <circle cx="38.48" cy="40.23" r="0.7"/>
    <circle cx="61.33" cy="40.23" r="0.7"/>
    <circle cx="49.80" cy="40.43" r="0.7"/>
    <circle cx="21.88" cy="41.02" r="0.7"/>
    <circle cx="77.54" cy="41.02" r="0.7"/>
    <circle cx="45.51" cy="43.55" r="0.7"/>
    <circle cx="54.10" cy="43.55" r="0.7"/>
    <circle cx="32.62" cy="44.14" r="0.7"/>
    <circle cx="66.99" cy="44.14" r="0.7"/>
    <circle cx="41.02" cy="44.53" r="0.7"/>
    <circle cx="58.59" cy="44.73" r="0.7"/>
    <circle cx="19.73" cy="45.70" r="0.7"/>
    <circle cx="79.88" cy="45.70" r="0.7"/>
    <circle cx="73.44" cy="46.48" r="0.7"/>
    <circle cx="26.17" cy="46.68" r="0.7"/>
    <circle cx="35.94" cy="47.85" r="0.7"/>
    <circle cx="63.67" cy="47.85" r="0.7"/>
    <circle cx="43.16" cy="48.44" r="0.7"/>
    <circle cx="49.80" cy="48.44" r="0.7"/>
    <circle cx="56.45" cy="48.44" r="0.7"/>
    <circle cx="31.84" cy="49.41" r="0.7"/>
    <circle cx="67.77" cy="49.41" r="0.7"/>
    <circle cx="39.45" cy="49.61" r="0.7"/>
    <circle cx="60.16" cy="49.61" r="0.7"/>
    <circle cx="17.58" cy="52.15" r="0.7"/>
    <circle cx="82.03" cy="52.15" r="0.7"/>
    <circle cx="33.79" cy="52.73" r="0.7"/>
    <circle cx="45.31" cy="52.93" r="0.7"/>
    <circle cx="54.30" cy="52.93" r="0.7"/>
    <circle cx="65.82" cy="52.93" r="0.7"/>
    <circle cx="23.24" cy="53.71" r="0.7"/>
    <circle cx="76.37" cy="53.91" r="0.7"/>
    <circle cx="28.12" cy="54.49" r="0.7"/>
    <circle cx="71.48" cy="54.49" r="0.7"/>
    <circle cx="39.06" cy="55.66" r="0.7"/>
    <circle cx="49.80" cy="55.66" r="0.7"/>
    <circle cx="60.35" cy="55.66" r="0.7"/>
    <circle cx="23.83" cy="59.38" r="0.7"/>
    <circle cx="75.78" cy="59.38" r="0.7"/>
    <circle cx="46.29" cy="59.96" r="0.7"/>
    <circle cx="53.32" cy="59.96" r="0.7"/>
    <circle cx="67.58" cy="60.94" r="0.7"/>
    <circle cx="31.84" cy="61.13" r="0.7"/>
    <circle cx="42.58" cy="62.50" r="0.7"/>
    <circle cx="57.03" cy="62.50" r="0.7"/>
    <circle cx="37.30" cy="63.28" r="0.7"/>
    <circle cx="61.91" cy="63.28" r="0.7"/>
    <circle cx="21.48" cy="63.67" r="0.7"/>
    <circle cx="78.12" cy="63.67" r="0.7"/>
    <circle cx="49.80" cy="64.26" r="0.7"/>
    <circle cx="27.93" cy="65.62" r="0.7"/>
    <circle cx="71.68" cy="65.62" r="0.7"/>
    <circle cx="35.35" cy="68.55" r="0.7"/>
    <circle cx="64.26" cy="68.55" r="0.7"/>
    <circle cx="56.64" cy="68.75" r="0.7"/>
    <circle cx="42.97" cy="68.95" r="0.7"/>
    <circle cx="49.80" cy="72.07" r="0.7"/>
    <circle cx="67.58" cy="72.27" r="0.7"/>
    <circle cx="32.03" cy="72.46" r="0.7"/>
    <circle cx="27.54" cy="72.85" r="0.7"/>
    <circle cx="71.88" cy="73.05" r="0.7"/>
    <circle cx="60.16" cy="75.20" r="0.7"/>
    <circle cx="39.26" cy="75.39" r="0.7"/>
    <circle cx="45.12" cy="75.59" r="0.7"/>
    <circle cx="54.49" cy="75.59" r="0.7"/>
    <circle cx="49.80" cy="80.27" r="0.7"/>
    <circle cx="34.77" cy="80.86" r="0.7"/>
    <circle cx="64.84" cy="80.86" r="0.7"/>
    <circle cx="42.97" cy="81.25" r="0.7"/>
    <circle cx="56.84" cy="81.25" r="0.7"/>
    <circle cx="46.48" cy="85.94" r="0.7"/>
    <circle cx="53.12" cy="85.94" r="0.7"/>
    <circle cx="42.77" cy="87.30" r="0.7"/>
    <circle cx="57.03" cy="87.30" r="0.7"/>
    <circle cx="49.80" cy="92.19" r="0.7"/>
  </g>
</svg>