<svg xmlns="http://www.w3.org/2000/svg" viewBox="0 0 100 100" fill="none">
  <g stroke="#00B3E3" stroke-width="0.35" stroke-linecap="round">
    <line x1="61.13" y1="11.72" x2="64.06" y2="15.62"/>
    <line x1="25.39" y1="48.63" x2="22.07" y2="50.78"/>
    <line x1="20.70" y1="30.27" x2="24.61" y2="37.30"/>
    <line x1="69.34" y1="64.26" x2="74.80" y2="64.84"/>
    <line x1="73.44" y1="68.36" x2="69.34" y2="68.55"/>
    <line x1="49.61" y1="8.59" x2="48.63" y2="11.13"/>
    <line x1="32.81" y1="80.27" x2="34.57" y2="84.77"/>
    <line x1="25.59" y1="24.80" x2="24.61" y2="30.86"/>
    <line x1="79.30" y1="45.31" x2="79.49" y2="50.00"/>
    <line x1="63.48" y1="44.34" x2="64.45" y2="48.24"/>
    <line x1="35.94" y1="57.62" x2="40.04" y2="61.13"/>
    <line x1="47.27" y1="50.39" x2="52.15" y2="52.54"/>
    <line x1="66.60" y1="25.00" x2="72.85" y2="25.00"/>
    <line x1="20.70" y1="18.55" x2="20.70" y2="21.48"/>
    <line x1="75.39" y1="21.09" x2="77.34" y2="26.56"/>
    <line x1="36.33" y1="10.16" x2="31.05" y2="11.33"/>
    <line x1="51.37" y1="57.62" x2="57.03" y2="61.52"/>
    <line x1="42.58" y1="76.56" x2="46.09" y2="80.66"/>
    <line x1="45.51" y1="61.72" x2="51.17" y2="66.41"/>
    <line x1="76.76" y1="14.65" x2="76.37" y2="17.97"/>
    <line x1="33.40" y1="17.77" x2="31.64" y2="22.66"/>
    <line x1="30.08" y1="46.88" x2="29.49" y2="53.32"/>
    <line x1="29.30" y1="67.77" x2="23.24" y2="68.36"/>
    <line x1="64.45" y1="48.24" x2="60.35" y2="51.76"/>
    <line x1="43.75" y1="14.84" x2="50.00" y2="15.43"/>
    <line x1="67.97" y1="74.61" x2="71.09" y2="77.93"/>
    <line x1="68.75" y1="44.73" x2="74.22" y2="48.83"/>
    <line x1="47.85" y1="45.31" x2="54.10" y2="47.27"/>
    <line x1="50.98" y1="42.58" x2="54.10" y2="47.27"/>
    <line x1="32.81" y1="80.27" x2="36.52" y2="81.84"/>
    <line x1="44.73" y1="38.09" x2="50.98" y2="38.28"/>
    <line x1="33.01" y1="56.64" x2="35.94" y2="57.62"/>
    <line x1="25.59" y1="24.80" x2="31.45" y2="28.52"/>
    <line x1="63.48" y1="44.34" x2="59.77" y2="46.48"/>
    <line x1="75.00" y1="60.94" x2="78.71" y2="64.84"/>
    <line x1="20.70" y1="18.55" x2="23.83" y2="20.70"/>
    <line x1="68.75" y1="36.33" x2="75.00" y2="37.30"/>
    <line x1="75.39" y1="21.09" x2="72.85" y2="25.00"/>
    <line x1="59.57" y1="70.51" x2="64.45" y2="71.88"/>
    <line x1="30.08" y1="46.88" x2="34.96" y2="51.56"/>
    <line x1="77.34" y1="50.78" x2="79.10" y2="54.30"/>
    <line x1="30.66" y1="70.90" x2="25.59" y2="72.66"/>
    <line x1="29.30" y1="67.77" x2="25.59" y2="72.66"/>
    <line x1="42.19" y1="52.15" x2="39.26" y2="55.66"/>
    <line x1="50.98" y1="42.58" x2="57.23" y2="43.16"/>
    <line x1="50.98" y1="42.58" x2="47.85" y2="45.31"/>
    <line x1="68.75" y1="44.73" x2="67.97" y2="50.59"/>
    <line x1="45.51" y1="56.45" x2="45.51" y2="61.72"/>
    <line x1="59.77" y1="75.78" x2="51.56" y2="76.95"/>
    <line x1="69.34" y1="64.26" x2="63.87" y2="67.97"/>
    <line x1="23.83" y1="20.70" x2="25.59" y2="24.80"/>
    <line x1="79.30" y1="17.58" x2="79.10" y2="21.68"/>
    <line x1="33.01" y1="56.64" x2="29.49" y2="59.18"/>
    <line x1="63.48" y1="44.34" x2="68.75" y2="44.73"/>
    <line x1="20.70" y1="53.91" x2="24.61" y2="61.13"/>
    <line x1="74.22" y1="72.85" x2="67.97" y2="74.61"/>
    <line x1="41.41" y1="31.45" x2="36.91" y2="32.62"/>
    <line x1="20.70" y1="77.93" x2="24.80" y2="78.71"/>
    <line x1="74.22" y1="72.85" x2="74.80" y2="78.32"/>
    <line x1="60.74" y1="21.09" x2="66.60" y2="25.00"/>
    <line x1="57.23" y1="66.99" x2="59.57" y2="70.51"/>
    <line x1="60.74" y1="21.09" x2="60.94" y2="27.34"/>
    <line x1="57.23" y1="25.20" x2="60.94" y2="27.34"/>
    <line x1="73.44" y1="44.53" x2="75.98" y2="45.12"/>
    <line x1="29.30" y1="67.77" x2="30.66" y2="70.90"/>
    <line x1="23.24" y1="68.36" x2="20.51" y2="69.14"/>
    <line x1="79.10" y1="21.68" x2="77.34" y2="26.56"/>
    <line x1="23.24" y1="68.36" x2="25.59" y2="72.66"/>
    <line x1="77.34" y1="26.56" x2="79.30" y2="30.27"/>
    <line x1="24.80" y1="78.71" x2="29.30" y2="83.40"/>
    <line x1="60.94" y1="27.34" x2="66.02" y2="30.47"/>
    <line x1="64.65" y1="60.74" x2="63.87" y2="67.97"/>
    <line x1="64.45" y1="37.30" x2="68.75" y2="40.82"/>
    <line x1="25.59" y1="24.80" x2="20.51" y2="25.78"/>
    <line x1="44.73" y1="38.09" x2="44.14" y2="42.77"/>
    <line x1="78.71" y1="64.84" x2="79.30" y2="69.14"/>
    <line x1="75.98" y1="68.95" x2="79.30" y2="69.14"/>
    <line x1="75.98" y1="68.95" x2="74.22" y2="72.85"/>
    <line x1="45.70" y1="86.13" x2="51.56" y2="86.13"/>
    <line x1="68.75" y1="36.33" x2="64.45" y2="37.30"/>
    <line x1="20.51" y1="69.14" x2="20.51" y2="73.44"/>
    <line x1="29.49" y1="63.67" x2="36.33" y2="67.97"/>
    <line x1="76.76" y1="14.65" x2="71.48" y2="15.62"/>
    <line x1="68.75" y1="40.82" x2="63.48" y2="44.34"/>
    <line x1="30.08" y1="46.88" x2="35.16" y2="47.46"/>
    <line x1="78.71" y1="41.21" x2="75.98" y2="45.12"/>
    <line x1="51.56" y1="81.64" x2="51.56" y2="86.13"/>
    <line x1="59.57" y1="82.23" x2="64.65" y2="84.77"/>
    <line x1="51.17" y1="19.53" x2="52.54" y2="22.85"/>
    <line x1="50.98" y1="42.58" x2="44.14" y2="42.77"/>
    <line x1="29.49" y1="59.18" x2="34.38" y2="60.35"/>
    <line x1="20.51" y1="49.61" x2="20.70" y2="53.91"/>
    <line x1="63.87" y1="67.97" x2="64.45" y2="71.88"/>
    <line x1="64.65" y1="60.74" x2="57.03" y2="61.52"/>
    <line x1="60.94" y1="27.34" x2="54.69" y2="28.12"/>
    <line x1="64.45" y1="37.30" x2="59.38" y2="37.89"/>
    <line x1="59.77" y1="46.48" x2="60.35" y2="51.76"/>
    <line x1="39.84" y1="80.08" x2="40.23" y2="85.55"/>
    <line x1="20.70" y1="53.91" x2="24.61" y2="57.42"/>
    <line x1="40.43" y1="17.19" x2="41.60" y2="23.83"/>
    <line x1="55.27" y1="12.89" x2="50.00" y2="15.43"/>
    <line x1="41.60" y1="23.83" x2="47.46" y2="27.93"/>
    <line x1="24.61" y1="40.82" x2="20.70" y2="41.21"/>
    <line x1="74.22" y1="72.85" x2="71.09" y2="77.93"/>
    <line x1="29.49" y1="77.54" x2="32.81" y2="80.27"/>
    <line x1="41.21" y1="46.68" x2="42.19" y2="52.15"/>
    <line x1="76.37" y1="17.97" x2="70.70" y2="19.14"/>
    <line x1="64.65" y1="84.77" x2="57.42" y2="85.94"/>
    <line x1="76.37" y1="17.97" x2="79.10" y2="21.68"/>
    <line x1="60.35" y1="51.76" x2="52.15" y2="52.54"/>
    <line x1="73.44" y1="44.53" x2="68.75" y2="44.73"/>
    <line x1="68.75" y1="40.82" x2="68.75" y2="44.73"/>
    <line x1="57.03" y1="61.52" x2="51.37" y2="61.91"/>
    <line x1="57.03" y1="61.52" x2="57.23" y2="66.99"/>
    <line x1="65.23" y1="55.66" x2="69.53" y2="59.57"/>
    <line x1="79.10" y1="78.32" x2="74.80" y2="81.84"/>
    <line x1="74.80" y1="34.18" x2="75.00" y2="37.30"/>
    <line x1="75.98" y1="45.12" x2="77.34" y2="50.78"/>
    <line x1="63.87" y1="67.97" x2="59.57" y2="70.51"/>
    <line x1="29.49" y1="53.32" x2="24.80" y2="54.69"/>
    <line x1="74.80" y1="64.84" x2="75.98" y2="68.95"/>
    <line x1="69.34" y1="68.55" x2="64.45" y2="71.88"/>
    <line x1="66.02" y1="30.47" x2="70.90" y2="31.25"/>
    <line x1="63.48" y1="34.96" x2="59.38" y2="37.89"/>
    <line x1="56.64" y1="8.98" x2="61.13" y2="11.72"/>
    <line x1="44.73" y1="66.80" x2="41.41" y2="71.09"/>
    <line x1="28.52" y1="43.95" x2="35.74" y2="44.53"/>
    <line x1="46.88" y1="21.09" x2="47.46" y2="27.93"/>
    <line x1="28.52" y1="43.95" x2="30.08" y2="46.88"/>
    <line x1="24.61" y1="37.30" x2="20.70" y2="41.21"/>
    <line x1="28.71" y1="14.65" x2="33.40" y2="17.77"/>
    <line x1="29.49" y1="63.67" x2="29.30" y2="67.77"/>
    <line x1="36.91" y1="32.62" x2="37.89" y2="37.30"/>
    <line x1="57.23" y1="25.20" x2="54.69" y2="28.12"/>
    <line x1="36.33" y1="21.68" x2="35.74" y2="27.15"/>
    <line x1="35.74" y1="27.15" x2="42.19" y2="27.73"/>
    <line x1="47.07" y1="74.61" x2="46.09" y2="80.66"/>
    <line x1="74.80" y1="34.18" x2="68.75" y2="36.33"/>
    <line x1="63.87" y1="67.97" x2="69.34" y2="68.55"/>
    <line x1="34.38" y1="60.35" x2="36.33" y2="67.97"/>
    <line x1="70.70" y1="19.14" x2="66.60" y2="25.00"/>
    <line x1="34.57" y1="84.77" x2="40.23" y2="85.55"/>
    <line x1="29.49" y1="53.32" x2="33.01" y2="56.64"/>
    <line x1="59.77" y1="46.48" x2="64.45" y2="48.24"/>
    <line x1="40.04" y1="61.13" x2="45.51" y2="61.72"/>
    <line x1="74.80" y1="57.81" x2="75.00" y2="60.94"/>
    <line x1="40.04" y1="61.13" x2="44.73" y2="66.80"/>
    <line x1="46.88" y1="21.09" x2="52.54" y2="22.85"/>
    <line x1="41.60" y1="23.83" x2="42.19" y2="27.73"/>
    <line x1="56.05" y1="17.77" x2="57.23" y2="25.20"/>
    <line x1="34.96" y1="51.56" x2="39.26" y2="55.66"/>
    <line x1="44.14" y1="8.79" x2="43.75" y2="14.84"/>
    <line x1="35.74" y1="44.53" x2="30.08" y2="46.88"/>
    <line x1="28.71" y1="14.65" x2="26.95" y2="19.14"/>
    <line x1="28.71" y1="35.35" x2="24.61" y2="37.30"/>
    <line x1="24.41" y1="81.45" x2="29.30" y2="83.40"/>
    <line x1="29.49" y1="77.54" x2="29.30" y2="83.40"/>
    <line x1="50.00" y1="15.43" x2="46.88" y2="21.09"/>
    <line x1="48.05" y1="69.53" x2="41.41" y2="71.09"/>
    <line x1="74.22" y1="48.83" x2="77.34" y2="50.78"/>
    <line x1="60.35" y1="51.76" x2="65.23" y2="55.66"/>
    <line x1="48.05" y1="69.53" x2="47.07" y2="74.61"/>
    <line x1="74.22" y1="48.83" x2="74.80" y2="54.30"/>
    <line x1="66.60" y1="26.56" x2="60.94" y2="27.34"/>
    <line x1="79.10" y1="54.30" x2="75.00" y2="60.94"/>
    <line x1="64.06" y1="15.62" x2="56.05" y2="17.77"/>
    <line x1="35.55" y1="75.59" x2="29.49" y2="77.54"/>
    <line x1="27.93" y1="30.47" x2="24.61" y2="30.86"/>
    <line x1="34.38" y1="60.35" x2="40.04" y2="61.13"/>
    <line x1="35.74" y1="27.15" x2="36.91" y2="32.62"/>
    <line x1="74.80" y1="81.84" x2="69.53" y2="83.59"/>
    <line x1="31.05" y1="11.33" x2="28.71" y2="14.65"/>
    <line x1="66.41" y1="20.90" x2="66.60" y2="25.00"/>
    <line x1="54.69" y1="35.16" x2="59.38" y2="37.89"/>
    <line x1="59.38" y1="37.89" x2="63.48" y2="44.34"/>
    <line x1="57.23" y1="43.16" x2="63.48" y2="44.34"/>
    <line x1="25.59" y1="72.66" x2="22.07" y2="74.61"/>
    <line x1="57.23" y1="43.16" x2="59.77" y2="46.48"/>
    <line x1="72.85" y1="25.00" x2="70.90" y2="31.25"/>
    <line x1="34.57" y1="13.28" x2="40.43" y2="17.19"/>
    <line x1="51.56" y1="76.95" x2="55.86" y2="81.05"/>
    <line x1="28.52" y1="43.95" x2="23.24" y2="44.53"/>
    <line x1="56.05" y1="17.77" x2="52.54" y2="22.85"/>
    <line x1="74.80" y1="54.30" x2="74.80" y2="57.81"/>
    <line x1="36.91" y1="32.62" x2="32.81" y2="33.20"/>
    <line x1="55.86" y1="81.05" x2="59.57" y2="82.23"/>
    <line x1="36.33" y1="67.97" x2="41.41" y2="71.09"/>
    <line x1="48.63" y1="11.13" x2="50.00" y2="15.43"/>
    <line x1="72.07" y1="12.30" x2="76.76" y2="14.65"/>
    <line x1="56.05" y1="56.64" x2="51.37" y2="57.62"/>
    <line x1="75.98" y1="45.12" x2="74.22" y2="48.83"/>
    <line x1="27.93" y1="30.47" x2="28.71" y2="35.35"/>
    <line x1="34.38" y1="60.35" x2="29.49" y2="63.67"/>
    <line x1="65.43" y1="79.69" x2="69.53" y2="83.59"/>
    <line x1="72.85" y1="25.00" x2="77.34" y2="26.56"/>
    <line x1="28.52" y1="39.84" x2="24.61" y2="40.82"/>
    <line x1="58.20" y1="32.03" x2="59.38" y2="37.89"/>
    <line x1="39.84" y1="80.08" x2="46.09" y2="80.66"/>
    <line x1="25.59" y1="72.66" x2="24.80" y2="78.71"/>
    <line x1="54.10" y1="47.27" x2="60.35" y2="51.76"/>
    <line x1="44.14" y1="8.79" x2="48.63" y2="11.13"/>
    <line x1="28.71" y1="35.35" x2="33.79" y2="36.52"/>
    <line x1="69.53" y1="59.57" x2="75.00" y2="60.94"/>
    <line x1="71.09" y1="77.93" x2="65.43" y2="79.69"/>
    <line x1="24.61" y1="33.79" x2="28.71" y2="35.35"/>
    <line x1="74.22" y1="48.83" x2="71.09" y2="53.91"/>
    <line x1="66.60" y1="26.56" x2="66.02" y2="30.47"/>
    <line x1="35.74" y1="27.15" x2="31.45" y2="28.52"/>
    <line x1="44.14" y1="42.77" x2="47.85" y2="45.31"/>
    <line x1="77.34" y1="74.61" x2="74.80" y2="78.32"/>
    <line x1="74.80" y1="64.84" x2="78.71" y2="64.84"/>
    <line x1="74.80" y1="64.84" x2="73.44" y2="68.36"/>
    <line x1="58.20" y1="32.03" x2="51.37" y2="32.62"/>
    <line x1="66.60" y1="25.00" x2="66.60" y2="26.56"/>
    <line x1="25.59" y1="72.66" x2="29.49" y2="77.54"/>
    <line x1="75.00" y1="31.05" x2="74.80" y2="34.18"/>
    <line x1="51.56" y1="76.95" x2="46.09" y2="80.66"/>
    <line x1="56.05" y1="17.77" x2="51.17" y2="19.53"/>
    <line x1="24.61" y1="61.13" x2="20.70" y2="65.04"/>
    <line x1="54.10" y1="47.27" x2="47.27" y2="50.39"/>
    <line x1="74.80" y1="54.30" x2="79.10" y2="54.30"/>
    <line x1="34.96" y1="51.56" x2="29.49" y2="53.32"/>
    <line x1="36.52" y1="81.84" x2="40.23" y2="85.55"/>
    <line x1="34.96" y1="51.56" x2="33.01" y2="56.64"/>
    <line x1="54.69" y1="28.12" x2="51.37" y2="32.62"/>
    <line x1="71.09" y1="53.91" x2="69.53" y2="59.57"/>
    <line x1="74.80" y1="41.02" x2="75.98" y2="45.12"/>
    <line x1="43.75" y1="14.84" x2="40.43" y2="17.19"/>
    <line x1="26.95" y1="19.14" x2="23.83" y2="20.70"/>
    <line x1="67.97" y1="74.61" x2="65.43" y2="79.69"/>
    <line x1="55.86" y1="81.05" x2="51.56" y2="86.13"/>
    <line x1="36.33" y1="67.97" x2="30.66" y2="70.90"/>
    <line x1="75.00" y1="37.30" x2="74.80" y2="41.02"/>
    <line x1="20.70" y1="41.21" x2="20.51" y2="45.31"/>
    <line x1="45.70" y1="35.16" x2="50.98" y2="38.28"/>
    <line x1="41.41" y1="71.09" x2="42.58" y2="76.56"/>
    <line x1="64.45" y1="71.88" x2="67.97" y2="74.61"/>
    <line x1="70.70" y1="19.14" x2="66.41" y2="20.90"/>
    <line x1="25.00" y1="13.28" x2="28.71" y2="14.65"/>
    <line x1="20.70" y1="17.19" x2="26.95" y2="19.14"/>
    <line x1="24.61" y1="64.65" x2="23.24" y2="68.36"/>
    <line x1="58.20" y1="32.03" x2="63.48" y2="34.96"/>
    <line x1="47.27" y1="50.39" x2="46.88" y2="52.54"/>
    <line x1="28.52" y1="39.84" x2="28.52" y2="43.95"/>
    <line x1="66.60" y1="25.00" x2="60.94" y2="27.34"/>
    <line x1="79.30" y1="69.14" x2="79.30" y2="73.83"/>
    <line x1="24.61" y1="61.13" x2="29.49" y2="63.67"/>
    <line x1="20.51" y1="25.78" x2="20.70" y2="30.27"/>
    <line x1="51.17" y1="66.41" x2="48.05" y2="69.53"/>
    <line x1="71.09" y1="53.91" x2="74.80" y2="54.30"/>
    <line x1="79.30" y1="26.17" x2="77.34" y2="26.56"/>
    <line x1="79.30" y1="26.17" x2="79.30" y2="30.27"/>
    <line x1="69.53" y1="59.57" x2="64.65" y2="60.74"/>
    <line x1="51.37" y1="61.91" x2="51.17" y2="66.41"/>
    <line x1="71.09" y1="77.93" x2="74.80" y2="81.84"/>
    <line x1="24.61" y1="30.86" x2="24.61" y2="33.79"/>
    <line x1="20.70" y1="41.21" x2="23.24" y2="44.53"/>
    <line x1="25.39" y1="48.63" x2="24.80" y2="54.69"/>
    <line x1="41.41" y1="71.09" x2="47.07" y2="74.61"/>
    <line x1="40.82" y1="11.91" x2="34.57" y2="13.28"/>
    <line x1="73.44" y1="68.36" x2="74.22" y2="72.85"/>
    <line x1="25.00" y1="13.28" x2="26.95" y2="19.14"/>
    <line x1="75.00" y1="60.94" x2="74.80" y2="64.84"/>
    <line x1="20.70" y1="65.04" x2="23.24" y2="68.36"/>
    <line x1="25.59" y1="72.66" x2="20.51" y2="73.44"/>
    <line x1="46.09" y1="80.66" x2="45.70" y2="86.13"/>
    <line x1="40.23" y1="85.55" x2="45.70" y2="86.13"/>
    <line x1="50.98" y1="38.28" x2="57.23" y2="43.16"/>
    <line x1="57.42" y1="85.94" x2="51.56" y2="86.13"/>
    <line x1="71.09" y1="53.91" x2="65.23" y2="55.66"/>
    <line x1="32.81" y1="33.20" x2="33.79" y2="36.52"/>
    <line x1="74.80" y1="41.02" x2="78.71" y2="41.21"/>
    <line x1="77.34" y1="50.78" x2="74.80" y2="54.30"/>
    <line x1="30.66" y1="70.90" x2="35.55" y2="75.59"/>
    <line x1="71.48" y1="15.62" x2="76.37" y2="17.97"/>
    <line x1="77.34" y1="26.56" x2="75.00" y2="31.05"/>
    <line x1="24.61" y1="33.79" x2="24.61" y2="37.30"/>
    <line x1="26.95" y1="19.14" x2="31.64" y2="22.66"/>
    <line x1="24.80" y1="78.71" x2="24.41" y2="81.45"/>
    <line x1="75.00" y1="37.30" x2="68.75" y2="40.82"/>
    <line x1="25.39" y1="48.63" x2="29.49" y2="53.32"/>
    <line x1="45.70" y1="35.16" x2="44.73" y2="38.09"/>
    <line x1="32.81" y1="80.27" x2="29.30" y2="83.40"/>
    <line x1="25.59" y1="24.80" x2="22.07" y2="26.76"/>
    <line x1="20.70" y1="17.19" x2="20.70" y2="18.55"/>
    <line x1="25.59" y1="24.80" x2="27.93" y2="30.47"/>
    <line x1="47.27" y1="50.39" x2="42.19" y2="52.15"/>
    <line x1="20.70" y1="65.04" x2="20.51" y2="69.14"/>
    <line x1="75.39" y1="21.09" x2="79.10" y2="21.68"/>
    <line x1="64.65" y1="10.35" x2="72.07" y2="12.30"/>
    <line x1="42.58" y1="76.56" x2="39.84" y2="80.08"/>
    <line x1="51.17" y1="66.41" x2="57.23" y2="66.99"/>
    <line x1="42.19" y1="27.73" x2="41.41" y2="31.45"/>
    <line x1="33.40" y1="17.77" x2="26.95" y2="19.14"/>
    <line x1="33.40" y1="17.77" x2="36.33" y2="21.68"/>
    <line x1="33.79" y1="36.52" x2="28.52" y2="39.84"/>
    <line x1="29.30" y1="67.77" x2="36.33" y2="67.97"/>
    <line x1="79.30" y1="73.83" x2="77.34" y2="74.61"/>
    <line x1="79.30" y1="73.83" x2="79.10" y2="78.32"/>
    <line x1="61.13" y1="11.72" x2="55.27" y2="12.89"/>
    <line x1="20.70" y1="30.27" x2="24.61" y2="30.86"/>
    <line x1="30.66" y1="70.90" x2="29.49" y2="77.54"/>
    <line x1="68.75" y1="44.73" x2="64.45" y2="48.24"/>
    <line x1="47.85" y1="45.31" x2="41.21" y2="46.68"/>
    <line x1="39.26" y1="55.66" x2="45.51" y2="56.45"/>
    <line x1="47.85" y1="45.31" x2="47.27" y2="50.39"/>
    <line x1="64.65" y1="60.74" x2="69.34" y2="64.26"/>
    <line x1="69.34" y1="64.26" x2="69.34" y2="68.55"/>
    <line x1="23.83" y1="20.70" x2="20.70" y2="21.48"/>
    <line x1="46.88" y1="52.54" x2="51.37" y2="57.62"/>
    <line x1="64.45" y1="37.30" x2="63.48" y2="44.34"/>
    <line x1="44.73" y1="38.09" x2="50.98" y2="42.58"/>
    <line x1="46.09" y1="80.66" x2="51.56" y2="81.64"/>
    <line x1="41.41" y1="31.45" x2="37.89" y2="37.30"/>
    <line x1="36.33" y1="10.16" x2="40.82" y2="11.91"/>
    <line x1="57.23" y1="66.99" x2="53.52" y2="71.09"/>
    <line x1="59.57" y1="70.51" x2="53.52" y2="71.09"/>
    <line x1="45.51" y1="61.72" x2="51.37" y2="61.91"/>
    <line x1="51.37" y1="57.62" x2="51.37" y2="61.91"/>
    <line x1="30.66" y1="70.90" x2="35.55" y2="71.88"/>
    <line x1="51.56" y1="81.64" x2="45.70" y2="86.13"/>
    <line x1="64.45" y1="48.24" x2="65.23" y2="55.66"/>
    <line x1="61.13" y1="11.72" x2="56.05" y2="17.77"/>
    <line x1="45.51" y1="56.45" x2="51.37" y2="57.62"/>
    <line x1="29.49" y1="59.18" x2="29.49" y2="63.67"/>
    <line x1="45.51" y1="56.45" x2="40.04" y2="61.13"/>
    <line x1="46.88" y1="52.54" x2="52.15" y2="52.54"/>
    <line x1="59.77" y1="75.78" x2="65.43" y2="79.69"/>
    <line x1="49.61" y1="8.59" x2="56.64" y2="8.98"/>
    <line x1="59.77" y1="75.78" x2="59.57" y2="82.23"/>
    <line x1="35.55" y1="71.88" x2="35.55" y2="75.59"/>
    <line x1="28.52" y1="43.95" x2="25.39" y2="48.63"/>
    <line x1="41.41" y1="31.45" x2="44.73" y2="38.09"/>
    <line x1="42.19" y1="27.73" x2="47.46" y2="27.93"/>
    <line x1="36.33" y1="10.16" x2="34.57" y2="13.28"/>
    <line x1="24.80" y1="54.69" x2="29.49" y2="59.18"/>
    <line x1="76.76" y1="14.65" x2="79.30" y2="17.58"/>
    <line x1="68.75" y1="40.82" x2="73.44" y2="44.53"/>
    <line x1="78.71" y1="41.21" x2="79.30" y2="45.31"/>
    <line x1="64.06" y1="15.62" x2="60.74" y2="21.09"/>
    <line x1="79.10" y1="21.68" x2="79.30" y2="26.17"/>
    <line x1="51.37" y1="32.62" x2="50.98" y2="38.28"/>
    <line x1="42.19" y1="52.15" x2="45.51" y2="56.45"/>
    <line x1="20.70" y1="30.27" x2="24.61" y2="33.79"/>
    <line x1="29.49" y1="59.18" x2="24.61" y2="61.13"/>
    <line x1="53.52" y1="71.09" x2="51.56" y2="76.95"/>
    <line x1="69.34" y1="64.26" x2="73.44" y2="68.36"/>
    <line x1="66.02" y1="30.47" x2="63.48" y2="34.96"/>
    <line x1="59.77" y1="75.78" x2="55.86" y2="81.05"/>
    <line x1="20.70" y1="53.91" x2="24.80" y2="54.69"/>
    <line x1="78.71" y1="64.84" x2="75.98" y2="68.95"/>
    <line x1="33.01" y1="56.64" x2="34.38" y2="60.35"/>
    <line x1="22.07" y1="50.78" x2="20.70" y2="53.91"/>
    <line x1="75.00" y1="60.94" x2="69.34" y2="64.26"/>
    <line x1="41.21" y1="46.68" x2="47.27" y2="50.39"/>
    <line x1="79.49" y1="50.00" x2="79.10" y2="54.30"/>
    <line x1="68.75" y1="36.33" x2="68.75" y2="40.82"/>
    <line x1="60.74" y1="21.09" x2="57.23" y2="25.20"/>
    <line x1="24.80" y1="54.69" x2="24.61" y2="57.42"/>
    <line x1="36.33" y1="21.68" x2="41.60" y2="23.83"/>
    <line x1="73.44" y1="44.53" x2="74.22" y2="48.83"/>
    <line x1="47.07" y1="74.61" x2="51.56" y2="76.95"/>
    <line x1="64.06" y1="15.62" x2="71.48" y2="15.62"/>
    <line x1="64.06" y1="15.62" x2="70.70" y2="19.14"/>
    <line x1="35.55" y1="75.59" x2="36.52" y2="81.84"/>
    <line x1="37.89" y1="37.30" x2="35.74" y2="44.53"/>
    <line x1="79.30" y1="17.58" x2="76.37" y2="17.97"/>
    <line x1="66.02" y1="30.47" x2="68.75" y2="36.33"/>
    <line x1="63.48" y1="34.96" x2="68.75" y2="36.33"/>
    <line x1="20.51" y1="45.31" x2="20.51" y2="49.61"/>
    <line x1="22.07" y1="50.78" x2="24.80" y2="54.69"/>
    <line x1="35.94" y1="57.62" x2="34.38" y2="60.35"/>
    <line x1="75.98" y1="68.95" x2="79.30" y2="73.83"/>
    <line x1="56.64" y1="8.98" x2="55.27" y2="12.89"/>
    <line x1="55.27" y1="12.89" x2="56.05" y2="17.77"/>
    <line x1="24.61" y1="40.82" x2="23.24" y2="44.53"/>
    <line x1="31.45" y1="28.52" x2="27.93" y2="30.47"/>
    <line x1="41.41" y1="31.45" x2="45.70" y2="35.16"/>
    <line x1="35.74" y1="44.53" x2="41.21" y2="46.68"/>
    <line x1="31.45" y1="28.52" x2="32.81" y2="33.20"/>
    <line x1="41.21" y1="46.68" x2="34.96" y2="51.56"/>
    <line x1="68.75" y1="40.82" x2="74.80" y2="41.02"/>
    <line x1="30.08" y1="46.88" x2="25.39" y2="48.63"/>
    <line x1="59.57" y1="58.01" x2="64.65" y2="60.74"/>
    <line x1="57.03" y1="61.52" x2="51.17" y2="66.41"/>
    <line x1="60.35" y1="51.76" x2="59.57" y2="58.01"/>
    <line x1="65.23" y1="55.66" x2="59.57" y2="58.01"/>
    <line x1="64.45" y1="48.24" x2="67.97" y2="50.59"/>
    <line x1="51.37" y1="32.62" x2="54.69" y2="35.16"/>
    <line x1="72.07" y1="12.30" x2="71.48" y2="15.62"/>
    <line x1="27.93" y1="30.47" x2="24.61" y2="33.79"/>
    <line x1="35.55" y1="75.59" x2="32.81" y2="80.27"/>
    <line x1="37.89" y1="37.30" x2="44.73" y2="38.09"/>
    <line x1="42.19" y1="52.15" x2="46.88" y2="52.54"/>
    <line x1="59.57" y1="82.23" x2="57.42" y2="85.94"/>
    <line x1="51.17" y1="19.53" x2="46.88" y2="21.09"/>
    <line x1="37.89" y1="37.30" x2="44.14" y2="42.77"/>
    <line x1="31.05" y1="11.33" x2="34.57" y2="13.28"/>
    <line x1="69.34" y1="68.55" x2="67.97" y2="74.61"/>
    <line x1="63.48" y1="34.96" x2="64.45" y2="37.30"/>
    <line x1="72.85" y1="25.00" x2="75.00" y2="31.05"/>
    <line x1="70.90" y1="31.25" x2="68.75" y2="36.33"/>
    <line x1="39.84" y1="80.08" x2="36.52" y2="81.84"/>
    <line x1="44.73" y1="66.80" x2="36.33" y2="67.97"/>
    <line x1="40.04" y1="61.13" x2="36.33" y2="67.97"/>
    <line x1="75.98" y1="68.95" x2="77.34" y2="74.61"/>
    <line x1="74.22" y1="72.85" x2="77.34" y2="74.61"/>
    <line x1="79.49" y1="50.00" x2="77.34" y2="50.78"/>
    <line x1="57.23" y1="66.99" x2="63.87" y2="67.97"/>
    <line x1="36.91" y1="32.62" x2="33.79" y2="36.52"/>
    <line x1="79.10" y1="54.30" x2="74.80" y2="57.81"/>
    <line x1="60.35" y1="51.76" x2="56.05" y2="56.64"/>
    <line x1="47.07" y1="74.61" x2="42.58" y2="76.56"/>
    <line x1="59.57" y1="58.01" x2="57.03" y2="61.52"/>
    <line x1="48.63" y1="11.13" x2="43.75" y2="14.84"/>
    <line x1="65.23" y1="55.66" x2="64.65" y2="60.74"/>
    <line x1="53.52" y1="71.09" x2="47.07" y2="74.61"/>
    <line x1="29.49" y1="53.32" x2="29.49" y2="59.18"/>
    <line x1="66.02" y1="30.47" x2="58.20" y2="32.03"/>
    <line x1="72.85" y1="25.00" x2="66.60" y2="26.56"/>
    <line x1="69.34" y1="68.55" x2="74.22" y2="72.85"/>
    <line x1="70.90" y1="31.25" x2="74.80" y2="34.18"/>
    <line x1="59.77" y1="46.48" x2="54.10" y2="47.27"/>
    <line x1="57.23" y1="43.16" x2="54.10" y2="47.27"/>
    <line x1="41.60" y1="23.83" x2="35.74" y2="27.15"/>
    <line x1="56.05" y1="17.77" x2="60.74" y2="21.09"/>
    <line x1="41.21" y1="46.68" x2="35.16" y2="47.46"/>
    <line x1="24.61" y1="57.42" x2="24.61" y2="61.13"/>
    <line x1="29.49" y1="77.54" x2="24.80" y2="78.71"/>
    <line x1="22.07" y1="74.61" x2="20.70" y2="77.93"/>
    <line x1="29.49" y1="63.67" x2="24.61" y2="64.65"/>
    <line x1="76.37" y1="17.97" x2="75.39" y2="21.09"/>
    <line x1="28.71" y1="35.35" x2="28.52" y2="39.84"/>
    <line x1="74.22" y1="48.83" x2="67.97" y2="50.59"/>
    <line x1="48.63" y1="11.13" x2="55.27" y2="12.89"/>
    <line x1="35.55" y1="75.59" x2="42.58" y2="76.56"/>
    <line x1="51.37" y1="32.62" x2="45.70" y2="35.16"/>
    <line x1="52.54" y1="22.85" x2="54.69" y2="28.12"/>
    <line x1="64.06" y1="15.62" x2="66.41" y2="20.90"/>
    <line x1="35.55" y1="75.59" x2="39.84" y2="80.08"/>
    <line x1="27.93" y1="30.47" x2="32.81" y2="33.20"/>
    <line x1="35.74" y1="27.15" x2="41.41" y2="31.45"/>
    <line x1="20.51" y1="49.61" x2="22.07" y2="50.78"/>
    <line x1="31.05" y1="11.33" x2="25.00" y2="13.28"/>
    <line x1="53.52" y1="71.09" x2="59.77" y2="75.78"/>
    <line x1="59.38" y1="37.89" x2="57.23" y2="43.16"/>
    <line x1="60.94" y1="27.34" x2="58.20" y2="32.03"/>
    <line x1="40.43" y1="17.19" x2="33.40" y2="17.77"/>
    <line x1="40.43" y1="17.19" x2="46.88" y2="21.09"/>
    <line x1="56.64" y1="8.98" x2="64.65" y2="10.35"/>
    <line x1="44.73" y1="66.80" x2="48.05" y2="69.53"/>
    <line x1="24.61" y1="57.42" x2="29.49" y2="59.18"/>
    <line x1="54.10" y1="47.27" x2="52.15" y2="52.54"/>
    <line x1="44.14" y1="8.79" x2="40.82" y2="11.91"/>
    <line x1="24.61" y1="37.30" x2="24.61" y2="40.82"/>
    <line x1="51.17" y1="66.41" x2="53.52" y2="71.09"/>
    <line x1="35.74" y1="44.53" x2="35.16" y2="47.46"/>
    <line x1="22.07" y1="74.61" x2="24.80" y2="78.71"/>
    <line x1="79.30" y1="30.27" x2="75.00" y2="31.05"/>
    <line x1="23.24" y1="44.53" x2="20.51" y2="49.61"/>
    <line x1="36.33" y1="21.68" x2="31.64" y2="22.66"/>
    <line x1="79.30" y1="30.27" x2="75.00" y2="37.30"/>
    <line x1="66.60" y1="26.56" x2="70.90" y2="31.25"/>
    <line x1="39.26" y1="55.66" x2="40.04" y2="61.13"/>
    <line x1="35.74" y1="27.15" x2="32.81" y2="33.20"/>
    <line x1="44.14" y1="42.77" x2="41.21" y2="46.68"/>
    <line x1="65.43" y1="79.69" x2="59.57" y2="82.23"/>
    <line x1="54.69" y1="35.16" x2="50.98" y2="38.28"/>
    <line x1="52.15" y1="52.54" x2="56.05" y2="56.64"/>
    <line x1="54.69" y1="35.16" x2="57.23" y2="43.16"/>
    <line x1="34.57" y1="13.28" x2="28.71" y2="14.65"/>
    <line x1="74.80" y1="57.81" x2="69.53" y2="59.57"/>
    <line x1="34.57" y1="13.28" x2="33.40" y2="17.77"/>
    <line x1="40.43" y1="17.19" x2="36.33" y2="21.68"/>
    <line x1="51.56" y1="76.95" x2="51.56" y2="81.64"/>
    <line x1="44.14" y1="8.79" x2="36.33" y2="10.16"/>
    <line x1="24.61" y1="40.82" x2="28.52" y2="43.95"/>
    <line x1="67.97" y1="50.59" x2="65.23" y2="55.66"/>
    <line x1="34.96" y1="51.56" x2="35.94" y2="57.62"/>
    <line x1="50.00" y1="15.43" x2="51.17" y2="19.53"/>
    <line x1="35.16" y1="47.46" x2="34.96" y2="51.56"/>
    <line x1="69.53" y1="59.57" x2="69.34" y2="64.26"/>
    <line x1="36.33" y1="67.97" x2="35.55" y2="71.88"/>
    <line x1="52.54" y1="22.85" x2="57.23" y2="25.20"/>
    <line x1="52.54" y1="22.85" x2="47.46" y2="27.93"/>
    <line x1="56.05" y1="56.64" x2="59.57" y2="58.01"/>
    <line x1="75.98" y1="45.12" x2="79.49" y2="50.00"/>
    <line x1="40.82" y1="11.91" x2="40.43" y2="17.19"/>
    <line x1="74.80" y1="78.32" x2="74.80" y2="81.84"/>
    <line x1="70.70" y1="19.14" x2="75.39" y2="21.09"/>
    <line x1="64.45" y1="71.88" x2="59.77" y2="75.78"/>
    <line x1="20.70" y1="17.19" x2="23.83" y2="20.70"/>
    <line x1="64.45" y1="71.88" x2="65.43" y2="79.69"/>
    <line x1="70.70" y1="19.14" x2="72.85" y2="25.00"/>
    <line x1="65.43" y1="79.69" x2="64.65" y2="84.77"/>
    <line x1="47.46" y1="27.93" x2="54.69" y2="28.12"/>
    <line x1="47.46" y1="27.93" x2="41.41" y2="31.45"/>
    <line x1="46.88" y1="21.09" x2="41.60" y2="23.83"/>
    <line x1="67.97" y1="50.59" x2="71.09" y2="53.91"/>
    <line x1="24.61" y1="37.30" x2="28.52" y2="39.84"/>
    <line x1="36.52" y1="81.84" x2="34.57" y2="84.77"/>
    <line x1="54.69" y1="28.12" x2="58.20" y2="32.03"/>
    <line x1="74.80" y1="41.02" x2="73.44" y2="44.53"/>
    <line x1="50.00" y1="15.43" x2="56.05" y2="17.77"/>
    <line x1="55.86" y1="81.05" x2="51.56" y2="81.64"/>
    <line x1="79.30" y1="30.27" x2="74.80" y2="34.18"/>
    <line x1="55.86" y1="81.05" x2="57.42" y2="85.94"/>
    <line x1="48.05" y1="69.53" x2="53.52" y2="71.09"/>
    <line x1="71.09" y1="77.93" x2="69.53" y2="83.59"/>
    <line x1="39.26" y1="55.66" x2="35.94" y2="57.62"/>
    <line x1="46.88" y1="52.54" x2="45.51" y2="56.45"/>
    <line x1="41.41" y1="71.09" x2="35.55" y2="75.59"/>
    <line x1="40.82" y1="11.91" x2="43.75" y2="14.84"/>
    <line x1="75.00" y1="31.05" x2="70.90" y2="31.25"/>
    <line x1="64.65" y1="10.35" x2="64.06" y2="15.62"/>
    <line x1="51.17" y1="66.41" x2="44.73" y2="66.80"/>
    <line x1="71.09" y1="77.93" x2="74.80" y2="78.32"/>
    <line x1="43.75" y1="14.84" x2="46.88" y2="21.09"/>
    <line x1="71.48" y1="15.62" x2="70.70" y2="19.14"/>
    <line x1="26.95" y1="19.14" x2="25.59" y2="24.80"/>
    <line x1="75.00" y1="37.30" x2="78.71" y2="41.21"/>
    <line x1="73.44" y1="68.36" x2="75.98" y2="68.95"/>
    <line x1="75.98" y1="45.12" x2="79.30" y2="45.31"/>
    <line x1="74.80" y1="78.32" x2="79.10" y2="78.32"/>
    <line x1="22.07" y1="26.76" x2="20.70" y2="30.27"/>
    <line x1="56.05" y1="56.64" x2="57.03" y2="61.52"/>
    <line x1="24.61" y1="64.65" x2="20.70" y2="65.04"/>
    <line x1="58.20" y1="32.03" x2="54.69" y2="35.16"/>
    <line x1="52.15" y1="52.54" x2="51.37" y2="57.62"/>
    <line x1="46.09" y1="80.66" x2="40.23" y2="85.55"/>
    <line x1="50.98" y1="38.28" x2="50.98" y2="42.58"/>
    <line x1="20.51" y1="25.78" x2="22.07" y2="26.76"/>
    <line x1="20.70" y1="18.55" x2="20.51" y2="25.78"/>
    <line x1="24.61" y1="61.13" x2="24.61" y2="64.65"/>
    <line x1="47.46" y1="27.93" x2="45.70" y2="35.16"/>
    <line x1="51.37" y1="57.62" x2="45.51" y2="61.72"/>
    <line x1="34.96" y1="51.56" x2="42.19" y2="52.15"/>
    <line x1="45.51" y1="61.72" x2="44.73" y2="66.80"/>
    <line x1="20.70" y1="21.48" x2="25.59" y2="24.80"/>
    <line x1="33.79" y1="36.52" x2="37.89" y2="37.30"/>
    <line x1="32.81" y1="33.20" x2="28.71" y2="35.35"/>
    <line x1="23.24" y1="44.53" x2="20.51" y2="45.31"/>
    <line x1="71.09" y1="53.91" x2="74.80" y2="57.81"/>
    <line x1="33.79" y1="36.52" x2="35.74" y2="44.53"/>
    <line x1="23.24" y1="44.53" x2="25.39" y2="48.63"/>
    <line x1="31.64" y1="22.66" x2="31.45" y2="28.52"/>
    <line x1="23.24" y1="68.36" x2="20.51" y2="73.44"/>
    <line x1="25.39" y1="48.63" x2="20.51" y2="49.61"/>
    <line x1="41.41" y1="71.09" x2="35.55" y2="71.88"/>
    <line x1="29.30" y1="83.40" x2="34.57" y2="84.77"/>
    <line x1="49.61" y1="8.59" x2="44.14" y2="8.79"/>
    <line x1="49.61" y1="8.59" x2="55.27" y2="12.89"/>
    <line x1="77.34" y1="74.61" x2="79.10" y2="78.32"/>
    <line x1="22.07" y1="26.76" x2="24.61" y2="30.86"/>
    <line x1="25.00" y1="13.28" x2="20.70" y2="17.19"/>
    <line x1="66.41" y1="20.90" x2="60.74" y2="21.09"/>
    <line x1="24.61" y1="64.65" x2="29.30" y2="67.77"/>
    <line x1="69.53" y1="83.59" x2="64.65" y2="84.77"/>
    <line x1="20.70" y1="77.93" x2="24.41" y2="81.45"/>
    <line x1="64.65" y1="10.35" x2="61.13" y2="11.72"/>
    <line x1="20.51" y1="73.44" x2="22.07" y2="74.61"/>
    <line x1="47.46" y1="27.93" x2="51.37" y2="32.62"/>
    <line x1="20.51" y1="73.44" x2="20.70" y2="77.93"/>
    <line x1="59.57" y1="70.51" x2="59.77" y2="75.78"/>
    <line x1="20.70" y1="21.48" x2="20.51" y2="25.78"/>
    <line x1="31.64" y1="22.66" x2="25.59" y2="24.80"/>
    <line x1="31.64" y1="22.66" x2="35.74" y2="27.15"/>
  </g>
  <g fill="#00B3E3">
    <circle cx="49.61" cy="8.59" r="0.9"/>
    <circle cx="44.14" cy="8.79" r="0.9"/>
    <circle cx="56.64" cy="8.98" r="0.9"/>
    <circle cx="36.33" cy="10.16" r="0.9"/>
    <circle cx="64.65" cy="10.35" r="0.9"/>
    <circle cx="48.63" cy="11.13" r="0.9"/>
    <circle cx="31.05" cy="11.33" r="0.9"/>
    <circle cx="61.13" cy="11.72" r="0.9"/>
    <circle cx="40.82" cy="11.91" r="0.9"/>
    <circle cx="72.07" cy="12.30" r="0.9"/>
    <circle cx="55.27" cy="12.89" r="0.9"/>
    <circle cx="25.00" cy="13.28" r="0.9"/>
    <circle cx="34.57" cy="13.28" r="0.9"/>
    <circle cx="28.71" cy="14.65" r="0.9"/>
    <circle cx="76.76" cy="14.65" r="0.9"/>
    <circle cx="43.75" cy="14.84" r="0.9"/>
    <circle cx="50.00" cy="15.43" r="0.9"/>
    <circle cx="64.06" cy="15.62" r="0.9"/>
    <circle cx="71.48" cy="15.62" r="0.9"/>
    <circle cx="20.70" cy="17.19" r="0.9"/>
    <circle cx="40.43" cy="17.19" r="0.9"/>
    <circle cx="79.30" cy="17.58" r="0.9"/>
    <circle cx="33.40" cy="17.77" r="0.9"/>
    <circle cx="56.05" cy="17.77" r="0.9"/>
    <circle cx="76.37" cy="17.97" r="0.9"/>
    <circle cx="20.70" cy="18.55" r="0.9"/>
    <circle cx="26.95" cy="19.14" r="0.9"/>
    <circle cx="70.70" cy="19.14" r="0.9"/>
    <circle cx="51.17" cy="19.53" r="0.9"/>
    <circle cx="23.83" cy="20.70" r="0.9"/>
    <circle cx="66.41" cy="20.90" r="0.9"/>
    <circle cx="46.88" cy="21.09" r="0.9"/>
    <circle cx="60.74" cy="21.09" r="0.9"/>
    <circle cx="75.39" cy="21.09" r="0.9"/>
    <circle cx="20.70" cy="21.48" r="0.9"/>
    <circle cx="36.33" cy="21.68" r="0.9"/>
    <circle cx="79.10" cy="21.68" r="0.9"/>
    <circle cx="31.64" cy="22.66" r="0.9"/>
    <circle cx="52.54" cy="22.85" r="0.9"/>
    <circle cx="41.60" cy="23.83" r="0.9"/>
    <circle cx="25.59" cy="24.80" r="0.9"/>
    <circle cx="66.60" cy="25.00" r="0.9"/>
    <circle cx="72.85" cy="25.00" r="0.9"/>
    <circle cx="57.23" cy="25.20" r="0.9"/>
    <circle cx="20.51" cy="25.78" r="0.9"/>
    <circle cx="79.30" cy="26.17" r="0.9"/>
    <circle cx="66.60" cy="26.56" r="0.9"/>
    <circle cx="77.34" cy="26.56" r="0.9"/>
    <circle cx="22.07" cy="26.76" r="0.9"/>
    <circle cx="35.74" cy="27.15" r="0.9"/>
    <circle cx="60.94" cy="27.34" r="0.9"/>
    <circle cx="42.19" cy="27.73" r="0.9"/>
    <circle cx="47.46" cy="27.93" r="0.9"/>
    <circle cx="54.69" cy="28.12" r="0.9"/>
    <circle cx="31.45" cy="28.52" r="0.9"/>
    <circle cx="20.70" cy="30.27" r="0.9"/>
    <circle cx="79.30" cy="30.27" r="0.9"/>
    <circle cx="27.93" cy="30.47" r="0.9"/>
    <circle cx="66.02" cy="30.47" r="0.9"/>
    <circle cx="24.61" cy="30.86" r="0.9"/>
    <circle cx="75.00" cy="31.05" r="0.9"/>
    <circle cx="70.90" cy="31.25" r="0.9"/>
    <circle cx="41.41" cy="31.45" r="0.9"/>
    <circle cx="58.20" cy="32.03" r="0.9"/>
    <circle cx="36.91" cy="32.62" r="0.9"/>
    <circle cx="51.37" cy="32.62" r="0.9"/>
    <circle cx="32.81" cy="33.20" r="0.9"/>
    <circle cx="24.61" cy="33.79" r="0.9"/>
    <circle cx="74.80" cy="34.18" r="0.9"/>
    <circle cx="63.48" cy="34.96" r="0.9"/>
    <circle cx="45.70" cy="35.16" r="0.9"/>
    <circle cx="54.69" cy="35.16" r="0.9"/>
    <circle cx="28.71" cy="35.35" r="0.9"/>
    <circle cx="68.75" cy="36.33" r="0.9"/>
    <circle cx="33.79" cy="36.52" r="0.9"/>
    <circle cx="24.61" cy="37.30" r="0.9"/>
    <circle cx="37.89" cy="37.30" r="0.9"/>
    <circle cx="64.45" cy="37.30" r="0.9"/>
    <circle cx="75.00" cy="37.30" r="0.9"/>
    <circle cx="59.38" cy="37.89" r="0.9"/>
    <circle cx="44.73" cy="38.09" r="0.9"/>
    <circle cx="50.98" cy="38.28" r="0.9"/>
    <circle cx="28.52" cy="39.84" r="0.9"/>
    <circle cx="24.61" cy="40.82" r="0.9"/>
    <circle cx="68.75" cy="40.82" r="0.9"/>
    <circle cx="74.80" cy="41.02" r="0.9"/>
    <circle cx="20.70" cy="41.21" r="0.9"/>
    <circle cx="78.71" cy="41.21" r="0.9"/>
    <circle cx="50.98" cy="42.58" r="0.9"/>
    <circle cx="44.14" cy="42.77" r="0.9"/>
    <circle cx="57.23" cy="43.16" r="0.9"/>
    <circle cx="28.52" cy="43.95" r="0.9"/>
    <circle cx="63.48" cy="44.34" r="0.9"/>
    <circle cx="23.24" cy="44.53" r="0.9"/>
    <circle cx="35.74" cy="44.53" r="0.9"/>
    <circle cx="73.44" cy="44.53" r="0.9"/>
    <circle cx="68.75" cy="44.73" r="0.9"/>
    <circle cx="75.98" cy="45.12" r="0.9"/>
    <circle cx="20.51" cy="45.31" r="0.9"/>
    <circle cx="47.85" cy="45.31" r="0.9"/>
    <circle cx="79.30" cy="45.31" r="0.9"/>
    <circle cx="59.77" cy="46.48" r="0.9"/>
    <circle cx="41.21" cy="46.68" r="0.9"/>
    <circle cx="30.08" cy="46.88" r="0.9"/>
    <circle cx="54.10" cy="47.27" r="0.9"/>
    <circle cx="35.16" cy="47.46" r="0.9"/>
    <circle cx="64.45" cy="48.24" r="0.9"/>
    <circle cx="25.39" cy="48.63" r="0.9"/>
    <circle cx="74.22" cy="48.83" r="0.9"/>
    <circle cx="20.51" cy="49.61" r="0.9"/>
    <circle cx="79.49" cy="50.00" r="0.9"/>
    <circle cx="47.27" cy="50.39" r="0.9"/>
    <circle cx="67.97" cy="50.59" r="0.9"/>
    <circle cx="22.07" cy="50.78" r="0.9"/>
    <circle cx="77.34" cy="50.78" r="0.9"/>
    <circle cx="34.96" cy="51.56" r="0.9"/>
    <circle cx="60.35" cy="51.76" r="0.9"/>
    <circle cx="42.19" cy="52.15" r="0.9"/>
    <circle cx="46.88" cy="52.54" r="0.9"/>
    <circle cx="52.15" cy="52.54" r="0.9"/>
    <circle cx="29.49" cy="53.32" r="0.9"/>
    <circle cx="20.70" cy="53.91" r="0.9"/>
    <circle cx="71.09" cy="53.91" r="0.9"/>
    <circle cx="74.80" cy="54.30" r="0.9"/>
    <circle cx="79.10" cy="54.30" r="0.9"/>
    <circle cx="24.80" cy="54.69" r="0.9"/>
    <circle cx="39.26" cy="55.66" r="0.9"/>
    <circle cx="65.23" cy="55.66" r="0.9"/>
    <circle cx="45.51" cy="56.45" r="0.9"/>
    <circle cx="33.01" cy="56.64" r="0.9"/>
    <circle cx="56.05" cy="56.64" r="0.9"/>
    <circle cx="24.61" cy="57.42" r="0.9"/>
    <circle cx="35.94" cy="57.62" r="0.9"/>
    <circle cx="51.37" cy="57.62" r="0.9"/>
    <circle cx="74.80" cy="57.81" r="0.9"/>
    <circle cx="59.57" cy="58.01" r="0.9"/>
    <circle cx="29.49" cy="59.18" r="0.9"/>
    <circle cx="69.53" cy="59.57" r="0.9"/>
    <circle cx="34.38" cy="60.35" r="0.9"/>
    <circle cx="64.65" cy="60.74" r="0.9"/>
    <circle cx="75.00" cy="60.94" r="0.9"/>
    <circle cx="24.61" cy="61.13" r="0.9"/>
    <circle cx="40.04" cy="61.13" r="0.9"/>
    <circle cx="57.03" cy="61.52" r="0.9"/>
    <circle cx="45.51" cy="61.72" r="0.9"/>
    <circle cx="51.37" cy="61.91" r="0.9"/>
    <circle cx="29.49" cy="63.67" r="0.9"/>
    <circle cx="69.34" cy="64.26" r="0.9"/>
    <circle cx="24.61" cy="64.65" r="0.9"/>
    <circle cx="74.80" cy="64.84" r="0.9"/>
    <circle cx="78.71" cy="64.84" r="0.9"/>
    <circle cx="20.70" cy="65.04" r="0.9"/>
    <circle cx="51.17" cy="66.41" r="0.9"/>
    <circle cx="44.73" cy="66.80" r="0.9"/>
    <circle cx="57.23" cy="66.99" r="0.9"/>
    <circle cx="29.30" cy="67.77" r="0.9"/>
    <circle cx="36.33" cy="67.97" r="0.9"/>
    <circle cx="63.87" cy="67.97" r="0.9"/>
    <circle cx="23.24" cy="68.36" r="0.9"/>
    <circle cx="73.44" cy="68.36" r="0.9"/>
    <circle cx="69.34" cy="68.55" r="0.9"/>
    <circle cx="75.98" cy="68.95" r="0.9"/>
    <circle cx="20.51" cy="69.14" r="0.9"/>
    <circle cx="79.30" cy="69.14" r="0.9"/>
    <circle cx="48.05" cy="69.53" r="0.9"/>
    <circle cx="59.57" cy="70.51" r="0.9"/>
    <circle cx="30.66" cy="70.90" r="0.9"/>
    <circle cx="41.41" cy="71.09" r="0.9"/>
    <circle cx="53.52" cy="71.09" r="0.9"/>
    <circle cx="35.55" cy="71.88" r="0.9"/>
    <circle cx="64.45" cy="71.88" r="0.9"/>
    <circle cx="25.59" cy="72.66" r="0.9"/>
    <circle cx="74.22" cy="72.85" r="0.9"/>
    <circle cx="20.51" cy="73.44" r="0.9"/>
    <circle cx="79.30" cy="73.83" r="0.9"/>
    <circle cx="22.07" cy="74.61" r="0.9"/>
    <circle cx="47.07" cy="74.61" r="0.9"/>
    <circle cx="67.97" cy="74.61" r="0.9"/>
    <circle cx="77.34" cy="74.61" r="0.9"/>
    <circle cx="35.55" cy="75.59" r="0.9"/>
    <circle cx="59.77" cy="75.78" r="0.9"/>
    <circle cx="42.58" cy="76.56" r="0.9"/>
    <circle cx="51.56" cy="76.95" r="0.9"/>
    <circle cx="29.49" cy="77.54" r="0.9"/>
    <circle cx="20.70" cy="77.93" r="0.9"/>
    <circle cx="71.09" cy="77.93" r="0.9"/>
    <circle cx="74.80" cy="78.32" r="0.9"/>
    <circle cx="79.10" cy="78.32" r="0.9"/>
    <circle cx="24.80" cy="78.71" r="0.9"/>
    <circle cx="65.43" cy="79.69" r="0.9"/>
    <circle cx="39.84" cy="80.08" r="0.9"/>
    <circle cx="32.81" cy="80.27" r="0.9"/>
    <circle cx="46.09" cy="80.66" r="0.9"/>
    <circle cx="55.86" cy="81.05" r="0.9"/>
    <circle cx="24.41" cy="81.45" r="0.9"/>
    <circle cx="51.56" cy="81.64" r="0.9"/>
    <circle cx="36.52" cy="81.84" r="0.9"/>
    <circle cx="74.80" cy="81.84" r="0.9"/>
    <circle cx="59.57" cy="82.23" r="0.9"/>
    <circle cx="29.30" cy="83.40" r="0.9"/>
    <circle cx="69.53" cy="83.59" r="0.9"/>
    <circle cx="34.57" cy="84.77" r="0.9"/>
    <circle cx="64.65" cy="84.77" r="0.9"/>
    <circle cx="40.23" cy="85.55" r="0.9"/>
    <circle cx="57.42" cy="85.94" r="0.9"/>
    <circle cx="45.70" cy="86.13" r="0.9"/>
    <circle cx="51.56" cy="86.13" r="0.9"/>
  </g>
</svg>