<svg xmlns="http://www.w3.org/2000/svg" viewBox="0 0 100 100" fill="none">
  <g stroke="#00B3E3" stroke-width="0.35" stroke-linecap="round">
    <line x1="10.35" y1="65.04" x2="16.99" y2="71.68"/>
    <line x1="70.51" y1="50.78" x2="61.72" y2="58.40"/>
    <line x1="49.80" y1="73.63" x2="38.09" y2="73.83"/>
    <line x1="61.72" y1="36.13" x2="68.55" y2="37.50"/>
    <line x1="62.50" y1="26.37" x2="61.72" y2="36.13"/>
    <line x1="26.76" y1="59.77" x2="32.03" y2="66.99"/>
    <line x1="40.23" y1="47.07" x2="40.04" y2="58.79"/>
    <line x1="36.52" y1="36.52" x2="42.58" y2="38.67"/>
    <line x1="51.37" y1="65.23" x2="49.80" y2="73.63"/>
    <line x1="70.31" y1="73.24" x2="62.50" y2="73.63"/>
    <line x1="47.07" y1="31.25" x2="36.52" y2="36.52"/>
    <line x1="61.13" y1="67.19" x2="70.31" y2="73.24"/>
    <line x1="26.76" y1="59.77" x2="20.90" y2="67.58"/>
    <line x1="28.52" y1="37.50" x2="29.69" y2="49.80"/>
    <line x1="50.39" y1="56.25" x2="51.37" y2="65.23"/>
    <line x1="70.31" y1="73.24" x2="74.61" y2="73.83"/>
    <line x1="76.37" y1="43.55" x2="70.51" y2="50.78"/>
    <line x1="61.72" y1="58.40" x2="51.37" y2="65.23"/>
    <line x1="70.51" y1="50.78" x2="70.12" y2="63.09"/>
    <line x1="61.72" y1="36.13" x2="66.80" y2="44.14"/>
    <line x1="61.13" y1="67.19" x2="49.80" y2="73.63"/>
    <line x1="32.03" y1="66.99" x2="38.09" y2="73.83"/>
    <line x1="20.90" y1="67.58" x2="25.39" y2="73.44"/>
    <line x1="22.66" y1="44.34" x2="18.75" y2="48.44"/>
    <line x1="50.39" y1="56.25" x2="61.72" y2="58.40"/>
    <line x1="16.99" y1="71.68" x2="25.39" y2="73.44"/>
    <line x1="62.50" y1="26.37" x2="71.48" y2="30.66"/>
    <line x1="13.87" y1="51.37" x2="16.02" y2="60.94"/>
    <line x1="54.10" y1="27.15" x2="47.07" y2="31.25"/>
    <line x1="56.64" y1="43.95" x2="66.80" y2="44.14"/>
    <line x1="40.04" y1="58.79" x2="51.37" y2="65.23"/>
    <line x1="70.12" y1="63.09" x2="70.31" y2="73.24"/>
    <line x1="49.80" y1="73.63" x2="62.50" y2="73.63"/>
    <line x1="79.10" y1="51.37" x2="70.12" y2="63.09"/>
    <line x1="25.39" y1="73.44" x2="38.09" y2="73.83"/>
    <line x1="77.34" y1="65.43" x2="70.31" y2="73.24"/>
    <line x1="83.40" y1="58.20" x2="86.13" y2="69.92"/>
    <line x1="82.42" y1="46.09" x2="88.67" y2="50.98"/>
    <line x1="70.12" y1="63.09" x2="77.34" y2="65.43"/>
    <line x1="40.04" y1="58.79" x2="32.03" y2="66.99"/>
    <line x1="90.82" y1="57.03" x2="90.04" y2="63.28"/>
    <line x1="61.72" y1="58.40" x2="70.12" y2="63.09"/>
    <line x1="56.84" y1="33.98" x2="56.64" y2="43.95"/>
    <line x1="13.87" y1="51.37" x2="9.38" y2="57.62"/>
    <line x1="32.03" y1="66.99" x2="25.39" y2="73.44"/>
    <line x1="20.90" y1="67.58" x2="16.99" y2="71.68"/>
    <line x1="54.10" y1="27.15" x2="50.59" y2="36.52"/>
    <line x1="40.23" y1="47.07" x2="50.39" y2="56.25"/>
    <line x1="90.04" y1="63.28" x2="86.13" y2="69.92"/>
    <line x1="9.38" y1="57.62" x2="10.35" y2="65.04"/>
    <line x1="83.40" y1="58.20" x2="90.04" y2="63.28"/>
    <line x1="29.69" y1="49.80" x2="26.76" y2="59.77"/>
    <line x1="50.59" y1="36.52" x2="42.58" y2="38.67"/>
    <line x1="40.04" y1="58.79" x2="26.76" y2="59.77"/>
    <line x1="82.42" y1="46.09" x2="79.10" y2="51.37"/>
    <line x1="47.07" y1="31.25" x2="50.59" y2="36.52"/>
    <line x1="70.51" y1="50.78" x2="79.10" y2="51.37"/>
    <line x1="26.76" y1="59.77" x2="16.02" y2="60.94"/>
    <line x1="61.72" y1="36.13" x2="56.64" y2="43.95"/>
    <line x1="79.10" y1="51.37" x2="83.40" y2="58.20"/>
    <line x1="79.10" y1="51.37" x2="77.34" y2="65.43"/>
    <line x1="68.55" y1="37.50" x2="76.37" y2="43.55"/>
    <line x1="71.48" y1="30.66" x2="76.17" y2="37.11"/>
    <line x1="29.69" y1="49.80" x2="22.27" y2="53.71"/>
    <line x1="62.50" y1="73.63" x2="74.61" y2="73.83"/>
    <line x1="36.52" y1="36.52" x2="40.23" y2="47.07"/>
    <line x1="22.27" y1="53.71" x2="16.02" y2="60.94"/>
    <line x1="32.03" y1="66.99" x2="20.90" y2="67.58"/>
    <line x1="62.50" y1="26.37" x2="56.84" y2="33.98"/>
    <line x1="68.55" y1="37.50" x2="66.80" y2="44.14"/>
    <line x1="42.58" y1="38.67" x2="56.64" y2="43.95"/>
    <line x1="71.48" y1="30.66" x2="68.55" y2="37.50"/>
    <line x1="77.34" y1="65.43" x2="86.13" y2="69.92"/>
    <line x1="56.64" y1="43.95" x2="50.39" y2="56.25"/>
    <line x1="22.66" y1="44.34" x2="13.87" y2="51.37"/>
    <line x1="36.52" y1="36.52" x2="29.69" y2="49.80"/>
    <line x1="76.37" y1="43.55" x2="66.80" y2="44.14"/>
    <line x1="47.07" y1="31.25" x2="42.58" y2="38.67"/>
    <line x1="88.67" y1="50.98" x2="90.82" y2="57.03"/>
    <line x1="76.37" y1="43.55" x2="79.10" y2="51.37"/>
    <line x1="76.17" y1="37.11" x2="68.55" y2="37.50"/>
    <line x1="54.10" y1="27.15" x2="56.84" y2="33.98"/>
    <line x1="9.38" y1="57.62" x2="16.02" y2="60.94"/>
    <line x1="77.34" y1="65.43" x2="79.88" y2="72.85"/>
    <line x1="86.13" y1="69.92" x2="79.88" y2="72.85"/>
    <line x1="16.02" y1="60.94" x2="20.90" y2="67.58"/>
    <line x1="22.66" y1="44.34" x2="22.27" y2="53.71"/>
    <line x1="70.12" y1="63.09" x2="61.13" y2="67.19"/>
    <line x1="76.37" y1="43.55" x2="82.42" y2="46.09"/>
    <line x1="79.88" y1="72.85" x2="74.61" y2="73.83"/>
    <line x1="88.67" y1="50.98" x2="83.40" y2="58.20"/>
    <line x1="76.17" y1="37.11" x2="76.37" y2="43.55"/>
    <line x1="71.48" y1="30.66" x2="61.72" y2="36.13"/>
    <line x1="42.58" y1="38.67" x2="40.23" y2="47.07"/>
    <line x1="29.69" y1="49.80" x2="40.04" y2="58.79"/>
    <line x1="50.59" y1="36.52" x2="56.64" y2="43.95"/>
    <line x1="56.84" y1="33.98" x2="61.72" y2="36.13"/>
    <line x1="18.75" y1="48.44" x2="13.87" y2="51.37"/>
    <line x1="62.50" y1="26.37" x2="54.10" y2="27.15"/>
    <line x1="61.13" y1="67.19" x2="62.50" y2="73.63"/>
    <line x1="51.37" y1="65.23" x2="61.13" y2="67.19"/>
    <line x1="22.66" y1="44.34" x2="29.69" y2="49.80"/>
    <line x1="16.02" y1="60.94" x2="10.35" y2="65.04"/>
    <line x1="22.27" y1="53.71" x2="26.76" y2="59.77"/>
    <line x1="90.82" y1="57.03" x2="83.40" y2="58.20"/>
    <line x1="50.39" y1="56.25" x2="40.04" y2="58.79"/>
    <line x1="56.84" y1="33.98" x2="50.59" y2="36.52"/>
    <line x1="10.35" y1="65.04" x2="20.90" y2="67.58"/>
    <line x1="18.75" y1="48.44" x2="22.27" y2="53.71"/>
    <line x1="88.67" y1="50.98" x2="79.10" y2="51.37"/>
    <line x1="13.87" y1="51.37" x2="22.27" y2="53.71"/>
    <line x1="66.80" y1="44.14" x2="70.51" y2="50.78"/>
    <line x1="40.23" y1="47.07" x2="29.69" y2="49.80"/>
    <line x1="76.17" y1="37.11" x2="82.42" y2="46.09"/>
    <line x1="61.72" y1="58.40" x2="61.13" y2="67.19"/>
    <line x1="28.52" y1="37.50" x2="22.66" y2="44.34"/>
    <line x1="83.40" y1="58.20" x2="77.34" y2="65.43"/>
    <line x1="77.34" y1="65.43" x2="74.61" y2="73.83"/>
    <line x1="36.52" y1="36.52" x2="28.52" y2="37.50"/>
  </g>
  <g fill="#00B3E3">
    <circle cx="62.50" cy="26.37" r="0.9"/>
    <circle cx="54.10" cy="27.15" r="0.9"/>
    <circle cx="71.48" cy="30.66" r="0.9"/>
    <circle cx="47.07" cy="31.25" r="0.9"/>
    <circle cx="56.84" cy="33.98" r="0.9"/>
    <circle cx="61.72" cy="36.13" r="0.9"/>
    <circle cx="36.52" cy="36.52" r="0.9"/>
    <circle cx="50.59" cy="36.52" r="0.9"/>
    <circle cx="76.17" cy="37.11" r="0.9"/>
    <circle cx="28.52" cy="37.50" r="0.9"/>
    <circle cx="68.55" cy="37.50" r="0.9"/>
    <circle cx="42.58" cy="38.67" r="0.9"/>
    <circle cx="76.37" cy="43.55" r="0.9"/>
    <circle cx="56.64" cy="43.95" r="0.9"/>
    <circle cx="66.80" cy="44.14" r="0.9"/>
    <circle cx="22.66" cy="44.34" r="0.9"/>
    <circle cx="82.42" cy="46.09" r="0.9"/>
    <circle cx="40.23" cy="47.07" r="0.9"/>
    <circle cx="18.75" cy="48.44" r="0.9"/>
    <circle cx="29.69" cy="49.80" r="0.9"/>
    <circle cx="70.51" cy="50.78" r="0.9"/>
    <circle cx="88.67" cy="50.98" r="0.9"/>
    <circle cx="13.87" cy="51.37" r="0.9"/>
    <circle cx="79.10" cy="51.37" r="0.9"/>
    <circle cx="22.27" cy="53.71" r="0.9"/>
    <circle cx="50.39" cy="56.25" r="0.9"/>
    <circle cx="90.82" cy="57.03" r="0.9"/>
    <circle cx="9.38" cy="57.62" r="0.9"/>
    <circle cx="83.40" cy="58.20" r="0.9"/>
    <circle cx="61.72" cy="58.40" r="0.9"/>
    <circle cx="40.04" cy="58.79" r="0.9"/>
    <circle cx="26.76" cy="59.77" r="0.9"/>
    <circle cx="16.02" cy="60.94" r="0.9"/>
    <circle cx="70.12" cy="63.09" r="0.9"/>
    <circle cx="90.04" cy="63.28" r="0.9"/>
    <circle cx="10.35" cy="65.04" r="0.9"/>
    <circle cx="51.37" cy="65.23" r="0.9"/>
    <circle cx="77.34" cy="65.43" r="0.9"/>
    <circle cx="32.03" cy="66.99" r="0.9"/>
    <circle cx="61.13" cy="67.19" r="0.9"/>
    <circle cx="20.90" cy="67.58" r="0.9"/>
    <circle cx="86.13" cy="69.92" r="0.9"/>
    <circle cx="16.99" cy="71.68" r="0.9"/>
    <circle cx="79.88" cy="72.85" r="0.9"/>
    <circle cx="70.31" cy="73.24" r="0.9"/>
    <circle cx="25.39" cy="73.44" r="0.9"/>
    <circle cx="49.80" cy="73.63" r="0.9"/>
    <circle cx="62.50" cy="73.63" r="0.9"/>
    <circle cx="38.09" cy="73.83" r="0.9"/>
    <circle cx="74.61" cy="73.83" r="0.9"/>
  </g>
</svg>