<svg xmlns="http://www.w3.org/2000/svg" viewBox="0 0 100 100" fill="none">
  <g stroke="#00B3E3" stroke-width="0.35" stroke-linecap="round">
    <line x1="57.15" y1="66.94" x2="53.49" y2="71.13"/>
    <line x1="70.77" y1="19.19" x2="75.51" y2="21.12"/>
    <line x1="35.61" y1="44.54" x2="35.15" y2="47.31"/>
    <line x1="61.15" y1="11.70" x2="50.25" y2="15.42"/>
    <line x1="40.15" y1="17.14" x2="41.48" y2="23.82"/>
    <line x1="59.69" y1="70.55" x2="53.49" y2="71.13"/>
    <line x1="74.98" y1="61.00" x2="76.04" y2="68.95"/>
    <line x1="22.09" y1="26.85" x2="20.77" y2="30.27"/>
    <line x1="41.44" y1="71.00" x2="30.50" y2="70.99"/>
    <line x1="63.77" y1="35.03" x2="57.31" y2="43.11"/>
    <line x1="73.69" y1="68.38" x2="76.04" y2="68.95"/>
    <line x1="41.44" y1="71.00" x2="32.90" y2="80.15"/>
    <line x1="34.66" y1="13.33" x2="31.65" y2="22.75"/>
    <line x1="63.92" y1="68.12" x2="59.69" y2="70.55"/>
    <line x1="63.77" y1="35.03" x2="63.55" y2="44.33"/>
    <line x1="28.61" y1="14.64" x2="31.65" y2="22.75"/>
    <line x1="61.15" y1="11.70" x2="68.82" y2="13.41"/>
    <line x1="34.66" y1="13.33" x2="28.61" y2="14.64"/>
    <line x1="65.31" y1="55.64" x2="63.92" y2="68.12"/>
    <line x1="41.34" y1="46.80" x2="45.39" y2="56.54"/>
    <line x1="25.73" y1="24.95" x2="20.77" y2="30.27"/>
    <line x1="28.61" y1="14.64" x2="25.73" y2="24.95"/>
    <line x1="43.70" y1="14.96" x2="41.48" y2="23.82"/>
    <line x1="35.61" y1="44.54" x2="41.34" y2="46.80"/>
    <line x1="63.55" y1="44.33" x2="75.86" y2="45.16"/>
    <line x1="75.51" y1="21.12" x2="71.01" y2="31.28"/>
    <line x1="45.70" y1="35.26" x2="54.80" y2="35.26"/>
    <line x1="31.65" y1="22.75" x2="32.88" y2="33.25"/>
    <line x1="77.34" y1="26.53" x2="71.01" y2="31.28"/>
    <line x1="76.37" y1="17.98" x2="75.51" y2="21.12"/>
    <line x1="23.44" y1="68.45" x2="20.49" y2="73.54"/>
    <line x1="29.51" y1="63.82" x2="23.44" y2="68.45"/>
    <line x1="54.80" y1="35.26" x2="57.31" y2="43.11"/>
    <line x1="25.73" y1="24.95" x2="32.88" y2="33.25"/>
    <line x1="29.35" y1="53.35" x2="29.51" y2="63.82"/>
    <line x1="50.25" y1="15.42" x2="41.48" y2="23.82"/>
    <line x1="41.44" y1="71.00" x2="53.49" y2="71.13"/>
    <line x1="63.92" y1="68.12" x2="73.69" y2="68.38"/>
    <line x1="41.34" y1="46.80" x2="35.15" y2="47.31"/>
    <line x1="59.69" y1="70.55" x2="55.90" y2="80.93"/>
    <line x1="43.70" y1="14.96" x2="40.15" y2="17.14"/>
    <line x1="31.65" y1="22.75" x2="25.73" y2="24.95"/>
    <line x1="20.51" y1="49.73" x2="21.97" y2="51.07"/>
    <line x1="68.82" y1="13.41" x2="70.77" y2="19.19"/>
    <line x1="74.98" y1="61.00" x2="63.92" y2="68.12"/>
    <line x1="35.15" y1="47.31" x2="29.35" y2="53.35"/>
    <line x1="30.50" y1="70.99" x2="32.90" y2="80.15"/>
    <line x1="57.15" y1="66.94" x2="59.69" y2="70.55"/>
    <line x1="63.55" y1="44.33" x2="65.31" y2="55.64"/>
    <line x1="21.97" y1="51.07" x2="29.35" y2="53.35"/>
    <line x1="40.15" y1="17.14" x2="31.65" y2="22.75"/>
    <line x1="74.98" y1="61.00" x2="73.69" y2="68.38"/>
    <line x1="25.73" y1="24.95" x2="22.09" y2="26.85"/>
    <line x1="34.66" y1="13.33" x2="43.70" y2="14.96"/>
    <line x1="32.88" y1="33.25" x2="35.61" y2="44.54"/>
    <line x1="23.44" y1="68.45" x2="30.50" y2="70.99"/>
    <line x1="63.77" y1="35.03" x2="54.80" y2="35.26"/>
    <line x1="57.15" y1="66.94" x2="63.92" y2="68.12"/>
    <line x1="34.66" y1="13.33" x2="40.15" y2="17.14"/>
    <line x1="61.15" y1="11.70" x2="70.77" y2="19.19"/>
    <line x1="44.73" y1="66.73" x2="41.44" y2="71.00"/>
    <line x1="41.48" y1="23.82" x2="32.88" y2="33.25"/>
    <line x1="20.77" y1="30.27" x2="32.88" y2="33.25"/>
    <line x1="76.37" y1="17.98" x2="77.34" y2="26.53"/>
    <line x1="43.70" y1="14.96" x2="50.25" y2="15.42"/>
    <line x1="45.39" y1="56.54" x2="44.73" y2="66.73"/>
    <line x1="31.65" y1="22.75" x2="41.48" y2="23.82"/>
    <line x1="75.51" y1="21.12" x2="77.34" y2="26.53"/>
    <line x1="68.82" y1="13.41" x2="76.37" y2="17.98"/>
    <line x1="44.73" y1="66.73" x2="53.49" y2="71.13"/>
    <line x1="41.48" y1="23.82" x2="45.70" y2="35.26"/>
    <line x1="65.31" y1="55.64" x2="74.98" y2="61.00"/>
    <line x1="71.01" y1="31.28" x2="63.77" y2="35.03"/>
    <line x1="30.50" y1="70.99" x2="20.49" y2="73.54"/>
    <line x1="53.49" y1="71.13" x2="55.90" y2="80.93"/>
    <line x1="57.31" y1="43.11" x2="63.55" y2="44.33"/>
    <line x1="29.51" y1="63.82" x2="30.50" y2="70.99"/>
    <line x1="32.88" y1="33.25" x2="45.70" y2="35.26"/>
    <line x1="44.73" y1="66.73" x2="57.15" y2="66.94"/>
    <line x1="70.77" y1="19.19" x2="71.01" y2="31.28"/>
    <line x1="45.70" y1="35.26" x2="41.34" y2="46.80"/>
    <line x1="76.37" y1="17.98" x2="70.77" y2="19.19"/>
  </g>
  <g fill="#00B3E3">
    <circle cx="61.15" cy="11.70" r="0.9"/>
    <circle cx="34.66" cy="13.33" r="0.9"/>
    <circle cx="68.82" cy="13.41" r="0.9"/>
    <circle cx="28.61" cy="14.64" r="0.9"/>
    <circle cx="43.70" cy="14.96" r="0.9"/>
    <circle cx="50.25" cy="15.42" r="0.9"/>
    <circle cx="40.15" cy="17.14" r="0.9"/>
    <circle cx="76.37" cy="17.98" r="0.9"/>
    <circle cx="70.77" cy="19.19" r="0.9"/>
    <circle cx="75.51" cy="21.12" r="0.9"/>
    <circle cx="31.65" cy="22.75" r="0.9"/>
    <circle cx="41.48" cy="23.82" r="0.9"/>
    <circle cx="25.73" cy="24.95" r="0.9"/>
    <circle cx="77.34" cy="26.53" r="0.9"/>
    <circle cx="22.09" cy="26.85" r="0.9"/>
    <circle cx="20.77" cy="30.27" r="0.9"/>
    <circle cx="71.01" cy="31.28" r="0.9"/>
    <circle cx="32.88" cy="33.25" r="0.9"/>
    <circle cx="63.77" cy="35.03" r="0.9"/>
    <circle cx="45.70" cy="35.26" r="0.9"/>
    <circle cx="54.80" cy="35.26" r="0.9"/>
    <circle cx="57.31" cy="43.11" r="0.9"/>
    <circle cx="35.61" cy="44.54" r="0.9"/>
    <circle cx="63.55" cy="44.33" r="0.9"/>
    <circle cx="75.86" cy="45.16" r="0.9"/>
    <circle cx="41.34" cy="46.80" r="0.9"/>
    <circle cx="35.15" cy="47.31" r="0.9"/>
    <circle cx="20.51" cy="49.73" r="0.9"/>
    <circle cx="21.97" cy="51.07" r="0.9"/>
    <circle cx="29.35" cy="53.35" r="0.9"/>
    <circle cx="65.31" cy="55.64" r="0.9"/>
    <circle cx="45.39" cy="56.54" r="0.9"/>
    <circle cx="74.98" cy="61.00" r="0.9"/>
    <circle cx="29.51" cy="63.82" r="0.9"/>
    <circle cx="44.73" cy="66.73" r="0.9"/>
    <circle cx="57.15" cy="66.94" r="0.9"/>
    <circle cx="63.92" cy="68.12" r="0.9"/>
    <circle cx="23.44" cy="68.45" r="0.9"/>
    <circle cx="73.69" cy="68.38" r="0.9"/>
    <circle cx="76.04" cy="68.95" r="0.9"/>
    <circle cx="41.44" cy="71.00" r="0.9"/>
    <circle cx="59.69" cy="70.55" r="0.9"/>
    <circle cx="53.49" cy="71.13" r="0.9"/>
    <circle cx="30.50" cy="70.99" r="0.9"/>
    <circle cx="20.49" cy="73.54" r="0.9"/>
    <circle cx="32.90" cy="80.15" r="0.9"/>
    <circle cx="55.90" cy="80.93" r="0.9"/>
  </g>
</svg>