<svg xmlns="http://www.w3.org/2000/svg" viewBox="0 0 100 100" fill="none">
  <g stroke="#00B3E3" stroke-width="0.25" stroke-linecap="round">
    <line x1="54.41" y1="11.65" x2="66.30" y2="14.36"/>
    <line x1="48.27" y1="11.46" x2="42.47" y2="11.83"/>
    <line x1="42.47" y1="11.83" x2="35.81" y2="13.53"/>
    <line x1="42.47" y1="11.83" x2="27.75" y2="16.00"/>
    <line x1="42.47" y1="11.83" x2="47.60" y2="16.99"/>
    <line x1="42.47" y1="11.83" x2="46.88" y2="16.21"/>
    <line x1="42.47" y1="11.83" x2="35.89" y2="17.84"/>
    <line x1="35.81" y1="13.53" x2="27.75" y2="16.00"/>
    <line x1="66.30" y1="14.36" x2="56.68" y2="16.92"/>
    <line x1="27.75" y1="16.00" x2="35.89" y2="17.84"/>
    <line x1="27.75" y1="16.00" x2="19.46" y2="20.39"/>
    <line x1="27.75" y1="16.00" x2="18.95" y2="20.70"/>
    <line x1="27.75" y1="16.00" x2="27.91" y2="24.58"/>
    <line x1="47.60" y1="16.99" x2="46.88" y2="16.21"/>
    <line x1="47.60" y1="16.99" x2="56.30" y2="24.14"/>
    <line x1="47.60" y1="16.99" x2="47.81" y2="26.92"/>
    <line x1="46.88" y1="16.21" x2="56.30" y2="24.14"/>
    <line x1="56.68" y1="16.92" x2="63.56" y2="21.60"/>
    <line x1="56.68" y1="16.92" x2="56.26" y2="31.50"/>
    <line x1="73.29" y1="17.44" x2="79.03" y2="20.58"/>
    <line x1="19.46" y1="20.39" x2="20.89" y2="22.63"/>
    <line x1="79.03" y1="20.58" x2="72.91" y2="22.52"/>
    <line x1="63.56" y1="21.60" x2="69.41" y2="27.63"/>
    <line x1="72.91" y1="22.52" x2="80.40" y2="27.05"/>
    <line x1="20.89" y1="22.63" x2="27.91" y2="24.58"/>
    <line x1="20.89" y1="22.63" x2="14.32" y2="30.44"/>
    <line x1="40.26" y1="22.90" x2="47.81" y2="26.92"/>
    <line x1="40.26" y1="22.90" x2="43.74" y2="37.29"/>
    <line x1="56.30" y1="24.14" x2="56.26" y2="31.50"/>
    <line x1="27.91" y1="24.58" x2="34.09" y2="27.22"/>
    <line x1="13.90" y1="25.38" x2="9.31" y2="32.47"/>
    <line x1="80.40" y1="27.05" x2="83.59" y2="35.35"/>
    <line x1="69.41" y1="27.63" x2="61.67" y2="31.71"/>
    <line x1="21.40" y1="28.89" x2="25.44" y2="33.42"/>
    <line x1="61.67" y1="31.71" x2="68.59" y2="34.97"/>
    <line x1="56.26" y1="31.50" x2="48.52" y2="32.74"/>
    <line x1="74.87" y1="31.84" x2="83.59" y2="35.35"/>
    <line x1="74.87" y1="31.84" x2="63.38" y2="37.99"/>
    <line x1="9.31" y1="32.47" x2="11.32" y2="38.55"/>
    <line x1="9.31" y1="32.47" x2="7.55" y2="39.23"/>
    <line x1="51.09" y1="32.31" x2="48.52" y2="32.74"/>
    <line x1="48.52" y1="32.74" x2="46.84" y2="40.72"/>
    <line x1="25.44" y1="33.42" x2="28.79" y2="41.15"/>
    <line x1="32.29" y1="34.28" x2="38.61" y2="37.56"/>
    <line x1="32.29" y1="34.28" x2="34.39" y2="41.68"/>
    <line x1="83.59" y1="35.35" x2="89.54" y2="36.60"/>
    <line x1="83.59" y1="35.35" x2="82.55" y2="43.08"/>
    <line x1="54.13" y1="35.57" x2="55.97" y2="37.68"/>
    <line x1="19.29" y1="36.08" x2="19.81" y2="50.28"/>
    <line x1="47.48" y1="36.52" x2="51.50" y2="38.68"/>
    <line x1="47.48" y1="36.52" x2="46.76" y2="45.58"/>
    <line x1="43.74" y1="37.29" x2="46.84" y2="40.72"/>
    <line x1="38.61" y1="37.56" x2="34.39" y2="41.68"/>
    <line x1="38.61" y1="37.56" x2="38.48" y2="41.87"/>
    <line x1="38.61" y1="37.56" x2="43.55" y2="43.95"/>
    <line x1="38.61" y1="37.56" x2="43.90" y2="44.55"/>
    <line x1="55.97" y1="37.68" x2="58.65" y2="39.72"/>
    <line x1="55.97" y1="37.68" x2="58.01" y2="39.26"/>
    <line x1="55.97" y1="37.68" x2="61.86" y2="42.34"/>
    <line x1="63.38" y1="37.99" x2="67.08" y2="42.85"/>
    <line x1="11.32" y1="38.55" x2="19.51" y2="42.17"/>
    <line x1="51.50" y1="38.68" x2="55.06" y2="42.09"/>
    <line x1="51.50" y1="38.68" x2="49.78" y2="53.61"/>
    <line x1="7.55" y1="39.23" x2="8.20" y2="44.95"/>
    <line x1="58.65" y1="39.72" x2="58.01" y2="39.26"/>
    <line x1="58.65" y1="39.72" x2="61.86" y2="42.34"/>
    <line x1="58.65" y1="39.72" x2="58.32" y2="43.53"/>
    <line x1="58.01" y1="39.26" x2="61.86" y2="42.34"/>
    <line x1="75.21" y1="40.27" x2="82.55" y2="43.08"/>
    <line x1="46.84" y1="40.72" x2="51.02" y2="44.04"/>
    <line x1="28.79" y1="41.15" x2="33.31" y2="47.44"/>
    <line x1="34.39" y1="41.68" x2="39.60" y2="46.48"/>
    <line x1="19.51" y1="42.17" x2="19.81" y2="50.28"/>
    <line x1="19.51" y1="42.17" x2="20.24" y2="55.52"/>
    <line x1="38.48" y1="41.87" x2="41.84" y2="41.89"/>
    <line x1="41.84" y1="41.89" x2="43.55" y2="43.95"/>
    <line x1="67.08" y1="42.85" x2="66.99" y2="48.27"/>
    <line x1="67.08" y1="42.85" x2="57.48" y2="49.60"/>
    <line x1="51.02" y1="44.04" x2="55.54" y2="46.81"/>
    <line x1="51.02" y1="44.04" x2="49.78" y2="53.61"/>
    <line x1="43.90" y1="44.55" x2="46.76" y2="45.58"/>
    <line x1="43.90" y1="44.55" x2="45.94" y2="52.94"/>
    <line x1="8.20" y1="44.95" x2="19.81" y2="50.28"/>
    <line x1="8.20" y1="44.95" x2="11.62" y2="51.29"/>
    <line x1="39.60" y1="46.48" x2="44.79" y2="48.41"/>
    <line x1="55.54" y1="46.81" x2="60.74" y2="47.06"/>
    <line x1="55.54" y1="46.81" x2="52.46" y2="56.55"/>
    <line x1="12.73" y1="47.06" x2="19.81" y2="50.28"/>
    <line x1="26.52" y1="47.33" x2="33.31" y2="47.44"/>
    <line x1="33.31" y1="47.44" x2="38.38" y2="58.67"/>
    <line x1="78.49" y1="47.39" x2="75.61" y2="63.41"/>
    <line x1="44.79" y1="48.41" x2="50.11" y2="49.26"/>
    <line x1="50.11" y1="49.26" x2="53.77" y2="51.90"/>
    <line x1="57.48" y1="49.60" x2="53.77" y2="51.90"/>
    <line x1="57.48" y1="49.60" x2="57.76" y2="53.59"/>
    <line x1="19.81" y1="50.28" x2="28.56" y2="53.85"/>
    <line x1="19.81" y1="50.28" x2="23.83" y2="55.87"/>
    <line x1="84.06" y1="50.21" x2="90.33" y2="54.02"/>
    <line x1="84.06" y1="50.21" x2="84.30" y2="57.87"/>
    <line x1="84.06" y1="50.21" x2="84.43" y2="66.16"/>
    <line x1="11.62" y1="51.29" x2="15.47" y2="53.73"/>
    <line x1="53.77" y1="51.90" x2="44.64" y2="56.76"/>
    <line x1="35.47" y1="52.54" x2="45.94" y2="52.94"/>
    <line x1="41.14" y1="52.47" x2="45.94" y2="52.94"/>
    <line x1="41.14" y1="52.47" x2="49.78" y2="53.61"/>
    <line x1="41.14" y1="52.47" x2="44.64" y2="56.76"/>
    <line x1="41.14" y1="52.47" x2="48.05" y2="60.96"/>
    <line x1="45.94" y1="52.94" x2="44.64" y2="56.76"/>
    <line x1="57.76" y1="53.59" x2="61.94" y2="57.10"/>
    <line x1="57.76" y1="53.59" x2="57.34" y2="58.37"/>
    <line x1="57.76" y1="53.59" x2="65.93" y2="60.19"/>
    <line x1="49.78" y1="53.61" x2="52.46" y2="56.55"/>
    <line x1="68.18" y1="53.71" x2="65.40" y2="62.87"/>
    <line x1="28.56" y1="53.85" x2="33.59" y2="57.50"/>
    <line x1="90.33" y1="54.02" x2="92.23" y2="57.83"/>
    <line x1="90.33" y1="54.02" x2="80.67" y2="60.82"/>
    <line x1="77.04" y1="54.33" x2="84.30" y2="57.87"/>
    <line x1="20.24" y1="55.52" x2="23.83" y2="55.87"/>
    <line x1="44.64" y1="56.76" x2="48.05" y2="60.96"/>
    <line x1="61.94" y1="57.10" x2="65.93" y2="60.19"/>
    <line x1="33.59" y1="57.50" x2="38.38" y2="58.67"/>
    <line x1="84.30" y1="57.87" x2="84.14" y2="63.24"/>
    <line x1="84.30" y1="57.87" x2="84.43" y2="66.16"/>
    <line x1="57.34" y1="58.37" x2="59.99" y2="62.18"/>
    <line x1="38.38" y1="58.67" x2="41.75" y2="63.27"/>
    <line x1="71.41" y1="58.67" x2="65.93" y2="60.19"/>
    <line x1="71.41" y1="58.67" x2="76.04" y2="60.97"/>
    <line x1="71.41" y1="58.67" x2="59.99" y2="62.18"/>
    <line x1="26.27" y1="59.78" x2="34.97" y2="63.63"/>
    <line x1="65.93" y1="60.19" x2="69.66" y2="62.53"/>
    <line x1="80.67" y1="60.82" x2="84.14" y2="63.24"/>
    <line x1="48.05" y1="60.96" x2="53.05" y2="61.75"/>
    <line x1="53.05" y1="61.75" x2="54.49" y2="64.23"/>
    <line x1="87.62" y1="61.89" x2="89.31" y2="63.61"/>
    <line x1="59.99" y1="62.18" x2="61.88" y2="65.96"/>
    <line x1="69.66" y1="62.53" x2="71.97" y2="65.34"/>
    <line x1="65.40" y1="62.87" x2="59.09" y2="68.70"/>
    <line x1="41.75" y1="63.27" x2="34.97" y2="63.63"/>
    <line x1="41.75" y1="63.27" x2="28.67" y2="64.03"/>
    <line x1="41.75" y1="63.27" x2="47.12" y2="65.05"/>
    <line x1="75.61" y1="63.41" x2="84.43" y2="66.16"/>
    <line x1="75.61" y1="63.41" x2="77.33" y2="66.47"/>
    <line x1="84.14" y1="63.24" x2="84.43" y2="66.16"/>
    <line x1="34.97" y1="63.63" x2="28.67" y2="64.03"/>
    <line x1="54.49" y1="64.23" x2="58.31" y2="65.59"/>
    <line x1="80.01" y1="64.62" x2="84.43" y2="66.16"/>
    <line x1="47.12" y1="65.05" x2="51.67" y2="65.75"/>
    <line x1="47.12" y1="65.05" x2="47.66" y2="65.82"/>
    <line x1="47.12" y1="65.05" x2="47.85" y2="66.11"/>
    <line x1="47.12" y1="65.05" x2="51.66" y2="70.26"/>
    <line x1="66.33" y1="65.31" x2="71.97" y2="65.34"/>
    <line x1="66.33" y1="65.31" x2="68.27" y2="69.04"/>
    <line x1="58.31" y1="65.59" x2="61.88" y2="65.96"/>
    <line x1="51.67" y1="65.75" x2="55.82" y2="69.35"/>
    <line x1="51.67" y1="65.75" x2="51.66" y2="70.26"/>
    <line x1="51.67" y1="65.75" x2="58.21" y2="71.53"/>
    <line x1="47.66" y1="65.82" x2="50.70" y2="71.53"/>
    <line x1="47.66" y1="65.82" x2="54.06" y2="77.73"/>
    <line x1="47.85" y1="66.11" x2="50.70" y2="71.53"/>
    <line x1="47.85" y1="66.11" x2="54.06" y2="77.73"/>
    <line x1="77.33" y1="66.47" x2="81.43" y2="68.33"/>
    <line x1="77.33" y1="66.47" x2="77.40" y2="72.52"/>
    <line x1="62.92" y1="68.44" x2="55.82" y2="69.35"/>
    <line x1="73.56" y1="68.67" x2="68.27" y2="69.04"/>
    <line x1="55.82" y1="69.35" x2="58.21" y2="71.53"/>
    <line x1="77.28" y1="69.87" x2="68.80" y2="72.47"/>
    <line x1="77.28" y1="69.87" x2="64.94" y2="74.02"/>
    <line x1="51.66" y1="70.26" x2="50.70" y2="71.53"/>
    <line x1="64.77" y1="71.11" x2="59.04" y2="73.46"/>
    <line x1="64.77" y1="71.11" x2="65.44" y2="76.87"/>
    <line x1="72.46" y1="71.24" x2="64.94" y2="74.02"/>
    <line x1="72.46" y1="71.24" x2="75.54" y2="74.68"/>
    <line x1="61.51" y1="72.26" x2="61.42" y2="75.03"/>
    <line x1="61.51" y1="72.26" x2="61.72" y2="83.06"/>
    <line x1="61.51" y1="72.26" x2="61.87" y2="88.41"/>
    <line x1="68.80" y1="72.47" x2="71.89" y2="75.04"/>
    <line x1="59.04" y1="73.46" x2="61.42" y2="75.03"/>
    <line x1="54.79" y1="74.62" x2="58.44" y2="81.12"/>
    <line x1="75.54" y1="74.68" x2="75.47" y2="75.90"/>
    <line x1="54.06" y1="77.73" x2="58.44" y2="81.12"/>
    <line x1="54.06" y1="77.73" x2="56.80" y2="83.85"/>
    <line x1="61.72" y1="83.06" x2="61.87" y2="88.41"/>
    <line x1="56.80" y1="83.85" x2="59.17" y2="88.56"/>
    <line x1="60.34" y1="86.27" x2="61.87" y2="88.41"/>
  </g>
  <g fill="#00B3E3">
    <circle cx="54.41" cy="11.65" r="0.85"/>
    <circle cx="48.27" cy="11.46" r="0.85"/>
    <circle cx="42.47" cy="11.83" r="0.85"/>
    <circle cx="35.81" cy="13.53" r="0.85"/>
    <circle cx="66.30" cy="14.36" r="0.85"/>
    <circle cx="27.75" cy="16.00" r="0.85"/>
    <circle cx="47.60" cy="16.99" r="0.85"/>
    <circle cx="46.88" cy="16.21" r="0.85"/>
    <circle cx="56.68" cy="16.92" r="0.85"/>
    <circle cx="35.89" cy="17.84" r="0.85"/>
    <circle cx="73.29" cy="17.44" r="0.85"/>
    <circle cx="19.46" cy="20.39" r="0.85"/>
    <circle cx="79.03" cy="20.58" r="0.85"/>
    <circle cx="18.95" cy="20.70" r="0.85"/>
    <circle cx="63.56" cy="21.60" r="0.85"/>
    <circle cx="72.91" cy="22.52" r="0.85"/>
    <circle cx="20.89" cy="22.63" r="0.85"/>
    <circle cx="40.26" cy="22.90" r="0.85"/>
    <circle cx="56.30" cy="24.14" r="0.85"/>
    <circle cx="27.91" cy="24.58" r="0.85"/>
    <circle cx="13.90" cy="25.38" r="0.85"/>
    <circle cx="83.84" cy="25.90" r="0.85"/>
    <circle cx="47.81" cy="26.92" r="0.85"/>
    <circle cx="34.09" cy="27.22" r="0.85"/>
    <circle cx="80.40" cy="27.05" r="0.85"/>
    <circle cx="69.41" cy="27.63" r="0.85"/>
    <circle cx="21.40" cy="28.89" r="0.85"/>
    <circle cx="22.07" cy="28.52" r="0.85"/>
    <circle cx="14.32" cy="30.44" r="0.85"/>
    <circle cx="42.06" cy="31.23" r="0.85"/>
    <circle cx="87.59" cy="30.71" r="0.85"/>
    <circle cx="61.67" cy="31.71" r="0.85"/>
    <circle cx="56.26" cy="31.50" r="0.85"/>
    <circle cx="74.87" cy="31.84" r="0.85"/>
    <circle cx="9.31" cy="32.47" r="0.85"/>
    <circle cx="51.09" cy="32.31" r="0.85"/>
    <circle cx="48.52" cy="32.74" r="0.85"/>
    <circle cx="25.44" cy="33.42" r="0.85"/>
    <circle cx="32.29" cy="34.28" r="0.85"/>
    <circle cx="68.59" cy="34.97" r="0.85"/>
    <circle cx="83.59" cy="35.35" r="0.85"/>
    <circle cx="54.13" cy="35.57" r="0.85"/>
    <circle cx="19.29" cy="36.08" r="0.85"/>
    <circle cx="47.48" cy="36.52" r="0.85"/>
    <circle cx="89.54" cy="36.60" r="0.85"/>
    <circle cx="43.74" cy="37.29" r="0.85"/>
    <circle cx="38.61" cy="37.56" r="0.85"/>
    <circle cx="55.97" cy="37.68" r="0.85"/>
    <circle cx="63.38" cy="37.99" r="0.85"/>
    <circle cx="11.32" cy="38.55" r="0.85"/>
    <circle cx="51.50" cy="38.68" r="0.85"/>
    <circle cx="7.55" cy="39.23" r="0.85"/>
    <circle cx="58.65" cy="39.72" r="0.85"/>
    <circle cx="58.01" cy="39.26" r="0.85"/>
    <circle cx="75.21" cy="40.27" r="0.85"/>
    <circle cx="46.84" cy="40.72" r="0.85"/>
    <circle cx="28.79" cy="41.15" r="0.85"/>
    <circle cx="34.39" cy="41.68" r="0.85"/>
    <circle cx="19.51" cy="42.17" r="0.85"/>
    <circle cx="38.48" cy="41.87" r="0.85"/>
    <circle cx="41.84" cy="41.89" r="0.85"/>
    <circle cx="55.06" cy="42.09" r="0.85"/>
    <circle cx="61.86" cy="42.34" r="0.85"/>
    <circle cx="67.08" cy="42.85" r="0.85"/>
    <circle cx="87.63" cy="42.49" r="0.85"/>
    <circle cx="92.16" cy="42.48" r="0.85"/>
    <circle cx="82.55" cy="43.08" r="0.85"/>
    <circle cx="58.32" cy="43.53" r="0.85"/>
    <circle cx="51.02" cy="44.04" r="0.85"/>
    <circle cx="43.55" cy="43.95" r="0.85"/>
    <circle cx="43.90" cy="44.55" r="0.85"/>
    <circle cx="8.20" cy="44.95" r="0.85"/>
    <circle cx="46.76" cy="45.58" r="0.85"/>
    <circle cx="39.60" cy="46.48" r="0.85"/>
    <circle cx="55.54" cy="46.81" r="0.85"/>
    <circle cx="12.73" cy="47.06" r="0.85"/>
    <circle cx="60.74" cy="47.06" r="0.85"/>
    <circle cx="72.30" cy="47.08" r="0.85"/>
    <circle cx="26.52" cy="47.33" r="0.85"/>
    <circle cx="33.31" cy="47.44" r="0.85"/>
    <circle cx="78.49" cy="47.39" r="0.85"/>
    <circle cx="90.55" cy="48.01" r="0.85"/>
    <circle cx="66.99" cy="48.27" r="0.85"/>
    <circle cx="44.79" cy="48.41" r="0.85"/>
    <circle cx="50.11" cy="49.26" r="0.85"/>
    <circle cx="57.48" cy="49.60" r="0.85"/>
    <circle cx="19.81" cy="50.28" r="0.85"/>
    <circle cx="84.06" cy="50.21" r="0.85"/>
    <circle cx="93.04" cy="50.08" r="0.85"/>
    <circle cx="11.62" cy="51.29" r="0.85"/>
    <circle cx="53.77" cy="51.90" r="0.85"/>
    <circle cx="62.36" cy="51.98" r="0.85"/>
    <circle cx="35.47" cy="52.54" r="0.85"/>
    <circle cx="41.14" cy="52.47" r="0.85"/>
    <circle cx="45.94" cy="52.94" r="0.85"/>
    <circle cx="57.76" cy="53.59" r="0.85"/>
    <circle cx="49.78" cy="53.61" r="0.85"/>
    <circle cx="68.18" cy="53.71" r="0.85"/>
    <circle cx="28.56" cy="53.85" r="0.85"/>
    <circle cx="90.33" cy="54.02" r="0.85"/>
    <circle cx="15.47" cy="53.73" r="0.85"/>
    <circle cx="77.04" cy="54.33" r="0.85"/>
    <circle cx="20.24" cy="55.52" r="0.85"/>
    <circle cx="23.83" cy="55.87" r="0.85"/>
    <circle cx="52.46" cy="56.55" r="0.85"/>
    <circle cx="44.64" cy="56.76" r="0.85"/>
    <circle cx="61.94" cy="57.10" r="0.85"/>
    <circle cx="33.59" cy="57.50" r="0.85"/>
    <circle cx="92.23" cy="57.83" r="0.85"/>
    <circle cx="84.30" cy="57.87" r="0.85"/>
    <circle cx="57.34" cy="58.37" r="0.85"/>
    <circle cx="38.38" cy="58.67" r="0.85"/>
    <circle cx="71.41" cy="58.67" r="0.85"/>
    <circle cx="50.39" cy="58.59" r="0.85"/>
    <circle cx="26.27" cy="59.78" r="0.85"/>
    <circle cx="65.93" cy="60.19" r="0.85"/>
    <circle cx="80.67" cy="60.82" r="0.85"/>
    <circle cx="48.05" cy="60.96" r="0.85"/>
    <circle cx="76.04" cy="60.97" r="0.85"/>
    <circle cx="29.80" cy="61.16" r="0.85"/>
    <circle cx="53.05" cy="61.75" r="0.85"/>
    <circle cx="87.62" cy="61.89" r="0.85"/>
    <circle cx="59.99" cy="62.18" r="0.85"/>
    <circle cx="69.66" cy="62.53" r="0.85"/>
    <circle cx="65.40" cy="62.87" r="0.85"/>
    <circle cx="41.75" cy="63.27" r="0.85"/>
    <circle cx="75.61" cy="63.41" r="0.85"/>
    <circle cx="84.14" cy="63.24" r="0.85"/>
    <circle cx="34.97" cy="63.63" r="0.85"/>
    <circle cx="64.84" cy="63.28" r="0.85"/>
    <circle cx="89.31" cy="63.61" r="0.85"/>
    <circle cx="28.67" cy="64.03" r="0.85"/>
    <circle cx="54.49" cy="64.23" r="0.85"/>
    <circle cx="80.01" cy="64.62" r="0.85"/>
    <circle cx="47.12" cy="65.05" r="0.85"/>
    <circle cx="66.33" cy="65.31" r="0.85"/>
    <circle cx="71.97" cy="65.34" r="0.85"/>
    <circle cx="58.31" cy="65.59" r="0.85"/>
    <circle cx="51.67" cy="65.75" r="0.85"/>
    <circle cx="84.43" cy="66.16" r="0.85"/>
    <circle cx="61.88" cy="65.96" r="0.85"/>
    <circle cx="47.66" cy="65.82" r="0.85"/>
    <circle cx="33.28" cy="66.33" r="0.85"/>
    <circle cx="47.85" cy="66.11" r="0.85"/>
    <circle cx="77.33" cy="66.47" r="0.85"/>
    <circle cx="42.22" cy="66.67" r="0.85"/>
    <circle cx="37.11" cy="66.70" r="0.85"/>
    <circle cx="62.92" cy="68.44" r="0.85"/>
    <circle cx="81.43" cy="68.33" r="0.85"/>
    <circle cx="73.56" cy="68.67" r="0.85"/>
    <circle cx="59.09" cy="68.70" r="0.85"/>
    <circle cx="68.27" cy="69.04" r="0.85"/>
    <circle cx="55.82" cy="69.35" r="0.85"/>
    <circle cx="77.28" cy="69.87" r="0.85"/>
    <circle cx="80.88" cy="70.35" r="0.85"/>
    <circle cx="51.66" cy="70.26" r="0.85"/>
    <circle cx="64.77" cy="71.11" r="0.85"/>
    <circle cx="72.46" cy="71.24" r="0.85"/>
    <circle cx="50.70" cy="71.53" r="0.85"/>
    <circle cx="58.21" cy="71.53" r="0.85"/>
    <circle cx="61.51" cy="72.26" r="0.85"/>
    <circle cx="68.80" cy="72.47" r="0.85"/>
    <circle cx="77.40" cy="72.52" r="0.85"/>
    <circle cx="59.04" cy="73.46" r="0.85"/>
    <circle cx="64.94" cy="74.02" r="0.85"/>
    <circle cx="78.91" cy="73.93" r="0.85"/>
    <circle cx="54.79" cy="74.62" r="0.85"/>
    <circle cx="78.32" cy="74.22" r="0.85"/>
    <circle cx="75.54" cy="74.68" r="0.85"/>
    <circle cx="61.42" cy="75.03" r="0.85"/>
    <circle cx="71.89" cy="75.04" r="0.85"/>
    <circle cx="67.94" cy="75.36" r="0.85"/>
    <circle cx="57.58" cy="75.59" r="0.85"/>
    <circle cx="75.47" cy="75.90" r="0.85"/>
    <circle cx="65.44" cy="76.87" r="0.85"/>
    <circle cx="66.02" cy="76.56" r="0.85"/>
    <circle cx="70.91" cy="77.09" r="0.85"/>
    <circle cx="54.06" cy="77.73" r="0.85"/>
    <circle cx="59.79" cy="78.29" r="0.85"/>
    <circle cx="58.44" cy="81.12" r="0.85"/>
    <circle cx="61.72" cy="83.06" r="0.85"/>
    <circle cx="56.80" cy="83.85" r="0.85"/>
    <circle cx="60.34" cy="86.27" r="0.85"/>
    <circle cx="59.17" cy="88.56" r="0.85"/>
    <circle cx="61.87" cy="88.41" r="0.85"/>
  </g>
</svg>