<svg xmlns="http://www.w3.org/2000/svg" viewBox="0 0 100 100" fill="none">
  <g stroke="#00B3E3" stroke-width="0.3" stroke-linecap="round">
    <line x1="49.02" y1="11.56" x2="42.29" y2="11.96"/>
    <line x1="49.02" y1="11.56" x2="54.98" y2="11.82"/>
    <line x1="49.02" y1="11.56" x2="47.78" y2="17.05"/>
    <line x1="42.29" y1="11.96" x2="35.77" y2="13.96"/>
    <line x1="42.29" y1="11.96" x2="47.78" y2="17.05"/>
    <line x1="42.29" y1="11.96" x2="35.74" y2="17.43"/>
    <line x1="54.98" y1="11.82" x2="56.48" y2="15.90"/>
    <line x1="54.98" y1="11.82" x2="66.47" y2="14.76"/>
    <line x1="54.98" y1="11.82" x2="47.78" y2="17.05"/>
    <line x1="35.77" y1="13.96" x2="27.13" y2="16.49"/>
    <line x1="35.77" y1="13.96" x2="35.74" y2="17.43"/>
    <line x1="56.48" y1="15.90" x2="66.47" y2="14.76"/>
    <line x1="56.48" y1="15.90" x2="50.52" y2="16.99"/>
    <line x1="56.48" y1="15.90" x2="56.71" y2="17.45"/>
    <line x1="56.48" y1="15.90" x2="63.85" y2="21.70"/>
    <line x1="66.47" y1="14.76" x2="73.24" y2="18.09"/>
    <line x1="66.47" y1="14.76" x2="72.89" y2="21.98"/>
    <line x1="66.47" y1="14.76" x2="63.85" y2="21.70"/>
    <line x1="27.13" y1="16.49" x2="35.74" y2="17.43"/>
    <line x1="27.13" y1="16.49" x2="20.65" y2="22.56"/>
    <line x1="27.13" y1="16.49" x2="27.29" y2="24.35"/>
    <line x1="47.78" y1="17.05" x2="35.74" y2="17.43"/>
    <line x1="47.78" y1="17.05" x2="40.23" y2="22.81"/>
    <line x1="47.78" y1="17.05" x2="56.20" y2="24.35"/>
    <line x1="47.78" y1="17.05" x2="47.66" y2="26.93"/>
    <line x1="35.74" y1="17.43" x2="40.23" y2="22.81"/>
    <line x1="35.74" y1="17.43" x2="27.29" y2="24.35"/>
    <line x1="35.74" y1="17.43" x2="34.09" y2="27.06"/>
    <line x1="73.24" y1="18.09" x2="78.81" y2="21.09"/>
    <line x1="56.71" y1="17.45" x2="56.20" y2="24.35"/>
    <line x1="78.81" y1="21.09" x2="80.33" y2="26.98"/>
    <line x1="20.65" y1="22.56" x2="26.14" y2="24.15"/>
    <line x1="20.65" y1="22.56" x2="14.36" y2="25.16"/>
    <line x1="20.65" y1="22.56" x2="21.35" y2="28.56"/>
    <line x1="20.65" y1="22.56" x2="14.39" y2="30.37"/>
    <line x1="72.89" y1="21.98" x2="63.85" y2="21.70"/>
    <line x1="72.89" y1="21.98" x2="83.79" y2="26.07"/>
    <line x1="72.89" y1="21.98" x2="80.33" y2="26.98"/>
    <line x1="72.89" y1="21.98" x2="69.31" y2="27.62"/>
    <line x1="72.89" y1="21.98" x2="74.79" y2="31.72"/>
    <line x1="63.85" y1="21.70" x2="56.20" y2="24.35"/>
    <line x1="63.85" y1="21.70" x2="69.31" y2="27.62"/>
    <line x1="63.85" y1="21.70" x2="61.61" y2="31.58"/>
    <line x1="40.23" y1="22.81" x2="47.66" y2="26.93"/>
    <line x1="40.23" y1="22.81" x2="34.09" y2="27.06"/>
    <line x1="40.23" y1="22.81" x2="41.96" y2="31.11"/>
    <line x1="26.14" y1="24.15" x2="27.29" y2="24.35"/>
    <line x1="26.14" y1="24.15" x2="21.35" y2="28.56"/>
    <line x1="56.20" y1="24.35" x2="47.66" y2="26.93"/>
    <line x1="56.20" y1="24.35" x2="61.61" y2="31.58"/>
    <line x1="56.20" y1="24.35" x2="55.74" y2="31.71"/>
    <line x1="56.20" y1="24.35" x2="50.12" y2="32.25"/>
    <line x1="27.29" y1="24.35" x2="34.09" y2="27.06"/>
    <line x1="27.29" y1="24.35" x2="25.74" y2="33.37"/>
    <line x1="14.36" y1="25.16" x2="14.39" y2="30.37"/>
    <line x1="14.36" y1="25.16" x2="9.42" y2="32.85"/>
    <line x1="83.79" y1="26.07" x2="80.33" y2="26.98"/>
    <line x1="83.79" y1="26.07" x2="86.99" y2="30.12"/>
    <line x1="83.79" y1="26.07" x2="83.58" y2="35.11"/>
    <line x1="47.66" y1="26.93" x2="41.96" y2="31.11"/>
    <line x1="47.66" y1="26.93" x2="48.26" y2="28.42"/>
    <line x1="34.09" y1="27.06" x2="41.96" y2="31.11"/>
    <line x1="34.09" y1="27.06" x2="32.88" y2="31.97"/>
    <line x1="34.09" y1="27.06" x2="25.74" y2="33.37"/>
    <line x1="80.33" y1="26.98" x2="74.79" y2="31.72"/>
    <line x1="80.33" y1="26.98" x2="83.58" y2="35.11"/>
    <line x1="21.35" y1="28.56" x2="14.39" y2="30.37"/>
    <line x1="21.35" y1="28.56" x2="25.74" y2="33.37"/>
    <line x1="21.35" y1="28.56" x2="19.34" y2="36.07"/>
    <line x1="69.31" y1="27.62" x2="61.61" y2="31.58"/>
    <line x1="69.31" y1="27.62" x2="74.79" y2="31.72"/>
    <line x1="69.31" y1="27.62" x2="68.49" y2="35.03"/>
    <line x1="86.99" y1="30.12" x2="88.11" y2="32.54"/>
    <line x1="86.99" y1="30.12" x2="83.58" y2="35.11"/>
    <line x1="14.39" y1="30.37" x2="9.42" y2="32.85"/>
    <line x1="14.39" y1="30.37" x2="19.34" y2="36.07"/>
    <line x1="14.39" y1="30.37" x2="11.40" y2="38.49"/>
    <line x1="41.96" y1="31.11" x2="42.60" y2="31.66"/>
    <line x1="41.96" y1="31.11" x2="32.47" y2="34.43"/>
    <line x1="41.96" y1="31.11" x2="38.36" y2="37.62"/>
    <line x1="48.26" y1="28.42" x2="50.12" y2="32.25"/>
    <line x1="61.61" y1="31.58" x2="55.74" y2="31.71"/>
    <line x1="61.61" y1="31.58" x2="68.49" y2="35.03"/>
    <line x1="61.61" y1="31.58" x2="61.25" y2="32.42"/>
    <line x1="61.61" y1="31.58" x2="55.20" y2="36.94"/>
    <line x1="61.61" y1="31.58" x2="63.28" y2="38.06"/>
    <line x1="55.74" y1="31.71" x2="55.29" y2="33.79"/>
    <line x1="32.88" y1="31.97" x2="32.47" y2="34.43"/>
    <line x1="74.79" y1="31.72" x2="75.71" y2="32.15"/>
    <line x1="74.79" y1="31.72" x2="68.49" y2="35.03"/>
    <line x1="74.79" y1="31.72" x2="75.02" y2="40.21"/>
    <line x1="42.60" y1="31.66" x2="50.12" y2="32.25"/>
    <line x1="42.60" y1="31.66" x2="47.57" y2="35.87"/>
    <line x1="42.60" y1="31.66" x2="42.88" y2="37.06"/>
    <line x1="50.12" y1="32.25" x2="49.09" y2="32.93"/>
    <line x1="50.12" y1="32.25" x2="55.29" y2="33.79"/>
    <line x1="50.12" y1="32.25" x2="51.96" y2="37.88"/>
    <line x1="9.42" y1="32.85" x2="11.40" y2="38.49"/>
    <line x1="9.42" y1="32.85" x2="7.67" y2="39.26"/>
    <line x1="25.74" y1="33.37" x2="19.34" y2="36.07"/>
    <line x1="25.74" y1="33.37" x2="19.41" y2="36.79"/>
    <line x1="25.74" y1="33.37" x2="29.08" y2="41.21"/>
    <line x1="75.71" y1="32.15" x2="83.58" y2="35.11"/>
    <line x1="83.58" y1="35.11" x2="89.08" y2="35.42"/>
    <line x1="83.58" y1="35.11" x2="83.56" y2="35.35"/>
    <line x1="83.58" y1="35.11" x2="75.02" y2="40.21"/>
    <line x1="83.58" y1="35.11" x2="87.28" y2="42.04"/>
    <line x1="49.09" y1="32.93" x2="47.57" y2="35.87"/>
    <line x1="55.29" y1="33.79" x2="51.96" y2="37.88"/>
    <line x1="55.29" y1="33.79" x2="55.20" y2="36.94"/>
    <line x1="68.49" y1="35.03" x2="63.28" y2="38.06"/>
    <line x1="68.49" y1="35.03" x2="75.02" y2="40.21"/>
    <line x1="68.49" y1="35.03" x2="67.15" y2="42.87"/>
    <line x1="30.42" y1="34.13" x2="32.47" y2="34.43"/>
    <line x1="30.42" y1="34.13" x2="29.08" y2="41.21"/>
    <line x1="32.47" y1="34.43" x2="38.36" y2="37.62"/>
    <line x1="61.25" y1="32.42" x2="59.13" y2="39.51"/>
    <line x1="89.08" y1="35.42" x2="91.84" y2="41.95"/>
    <line x1="89.08" y1="35.42" x2="87.28" y2="42.04"/>
    <line x1="19.34" y1="36.07" x2="11.40" y2="38.49"/>
    <line x1="83.56" y1="35.35" x2="82.57" y2="43.38"/>
    <line x1="47.57" y1="35.87" x2="51.96" y2="37.88"/>
    <line x1="47.57" y1="35.87" x2="42.88" y2="37.06"/>
    <line x1="47.57" y1="35.87" x2="46.74" y2="40.76"/>
    <line x1="38.36" y1="37.62" x2="42.88" y2="37.06"/>
    <line x1="38.36" y1="37.62" x2="34.46" y2="41.54"/>
    <line x1="38.36" y1="37.62" x2="41.92" y2="41.81"/>
    <line x1="38.36" y1="37.62" x2="38.26" y2="41.95"/>
    <line x1="51.96" y1="37.88" x2="46.74" y2="40.76"/>
    <line x1="51.96" y1="37.88" x2="57.28" y2="41.55"/>
    <line x1="51.96" y1="37.88" x2="49.97" y2="44.03"/>
    <line x1="42.88" y1="37.06" x2="46.74" y2="40.76"/>
    <line x1="42.88" y1="37.06" x2="41.92" y2="41.81"/>
    <line x1="55.20" y1="36.94" x2="59.13" y2="39.51"/>
    <line x1="55.20" y1="36.94" x2="57.28" y2="41.55"/>
    <line x1="32.55" y1="35.19" x2="34.46" y2="41.54"/>
    <line x1="63.28" y1="38.06" x2="59.13" y2="39.51"/>
    <line x1="63.28" y1="38.06" x2="61.76" y2="42.77"/>
    <line x1="63.28" y1="38.06" x2="67.15" y2="42.87"/>
    <line x1="11.40" y1="38.49" x2="7.67" y2="39.26"/>
    <line x1="11.40" y1="38.49" x2="11.41" y2="39.73"/>
    <line x1="11.40" y1="38.49" x2="19.53" y2="41.91"/>
    <line x1="11.40" y1="38.49" x2="8.89" y2="44.73"/>
    <line x1="19.41" y1="36.79" x2="19.53" y2="41.91"/>
    <line x1="7.67" y1="39.26" x2="8.89" y2="44.73"/>
    <line x1="59.13" y1="39.51" x2="57.28" y2="41.55"/>
    <line x1="59.13" y1="39.51" x2="61.76" y2="42.77"/>
    <line x1="75.02" y1="40.21" x2="67.15" y2="42.87"/>
    <line x1="75.02" y1="40.21" x2="82.57" y2="43.38"/>
    <line x1="75.02" y1="40.21" x2="72.41" y2="47.07"/>
    <line x1="75.02" y1="40.21" x2="78.49" y2="47.27"/>
    <line x1="46.74" y1="40.76" x2="41.92" y2="41.81"/>
    <line x1="46.74" y1="40.76" x2="49.97" y2="44.03"/>
    <line x1="46.74" y1="40.76" x2="43.34" y2="43.76"/>
    <line x1="91.84" y1="41.95" x2="91.71" y2="43.55"/>
    <line x1="87.28" y1="42.04" x2="82.57" y2="43.38"/>
    <line x1="87.28" y1="42.04" x2="89.02" y2="44.50"/>
    <line x1="87.28" y1="42.04" x2="83.97" y2="49.52"/>
    <line x1="29.08" y1="41.21" x2="34.46" y2="41.54"/>
    <line x1="29.08" y1="41.21" x2="19.53" y2="41.91"/>
    <line x1="29.08" y1="41.21" x2="26.71" y2="47.95"/>
    <line x1="29.08" y1="41.21" x2="33.59" y2="47.63"/>
    <line x1="57.28" y1="41.55" x2="49.97" y2="44.03"/>
    <line x1="57.28" y1="41.55" x2="58.32" y2="43.38"/>
    <line x1="57.28" y1="41.55" x2="55.68" y2="47.16"/>
    <line x1="34.46" y1="41.54" x2="38.26" y2="41.95"/>
    <line x1="34.46" y1="41.54" x2="39.49" y2="46.41"/>
    <line x1="34.46" y1="41.54" x2="33.59" y2="47.63"/>
    <line x1="41.92" y1="41.81" x2="38.26" y2="41.95"/>
    <line x1="41.92" y1="41.81" x2="43.34" y2="43.76"/>
    <line x1="41.92" y1="41.81" x2="39.49" y2="46.41"/>
    <line x1="11.41" y1="39.73" x2="11.73" y2="46.54"/>
    <line x1="19.53" y1="41.91" x2="11.73" y2="46.54"/>
    <line x1="19.53" y1="41.91" x2="26.71" y2="47.95"/>
    <line x1="19.53" y1="41.91" x2="19.69" y2="50.07"/>
    <line x1="38.26" y1="41.95" x2="39.49" y2="46.41"/>
    <line x1="61.76" y1="42.77" x2="67.15" y2="42.87"/>
    <line x1="61.76" y1="42.77" x2="61.09" y2="46.76"/>
    <line x1="67.15" y1="42.87" x2="61.09" y2="46.76"/>
    <line x1="67.15" y1="42.87" x2="66.12" y2="48.11"/>
    <line x1="82.57" y1="43.38" x2="82.87" y2="44.85"/>
    <line x1="82.57" y1="43.38" x2="78.49" y2="47.27"/>
    <line x1="49.97" y1="44.03" x2="45.27" y2="45.93"/>
    <line x1="49.97" y1="44.03" x2="55.68" y2="47.16"/>
    <line x1="49.97" y1="44.03" x2="47.13" y2="48.71"/>
    <line x1="8.89" y1="44.73" x2="11.73" y2="46.54"/>
    <line x1="8.89" y1="44.73" x2="11.72" y2="50.89"/>
    <line x1="58.32" y1="43.38" x2="61.09" y2="46.76"/>
    <line x1="91.71" y1="43.55" x2="89.02" y2="44.50"/>
    <line x1="91.71" y1="43.55" x2="90.84" y2="47.20"/>
    <line x1="43.34" y1="43.76" x2="39.49" y2="46.41"/>
    <line x1="43.34" y1="43.76" x2="45.27" y2="45.93"/>
    <line x1="89.02" y1="44.50" x2="90.84" y2="47.20"/>
    <line x1="39.49" y1="46.41" x2="33.59" y2="47.63"/>
    <line x1="39.49" y1="46.41" x2="44.25" y2="48.00"/>
    <line x1="39.49" y1="46.41" x2="41.00" y2="50.60"/>
    <line x1="39.49" y1="46.41" x2="35.25" y2="52.03"/>
    <line x1="45.27" y1="45.93" x2="44.25" y2="48.00"/>
    <line x1="45.27" y1="45.93" x2="47.13" y2="48.71"/>
    <line x1="82.87" y1="44.85" x2="83.97" y2="49.52"/>
    <line x1="11.73" y1="46.54" x2="19.69" y2="50.07"/>
    <line x1="11.73" y1="46.54" x2="11.72" y2="50.89"/>
    <line x1="55.68" y1="47.16" x2="61.09" y2="46.76"/>
    <line x1="55.68" y1="47.16" x2="49.96" y2="49.16"/>
    <line x1="55.68" y1="47.16" x2="56.65" y2="48.58"/>
    <line x1="61.09" y1="46.76" x2="66.12" y2="48.11"/>
    <line x1="61.09" y1="46.76" x2="56.65" y2="48.58"/>
    <line x1="61.09" y1="46.76" x2="60.39" y2="51.05"/>
    <line x1="72.41" y1="47.07" x2="78.49" y2="47.27"/>
    <line x1="72.41" y1="47.07" x2="66.12" y2="48.11"/>
    <line x1="72.41" y1="47.07" x2="77.18" y2="54.47"/>
    <line x1="72.41" y1="47.07" x2="68.14" y2="53.85"/>
    <line x1="26.71" y1="47.95" x2="33.59" y2="47.63"/>
    <line x1="26.71" y1="47.95" x2="19.69" y2="50.07"/>
    <line x1="26.71" y1="47.95" x2="28.56" y2="53.92"/>
    <line x1="33.59" y1="47.63" x2="35.25" y2="52.03"/>
    <line x1="33.59" y1="47.63" x2="28.56" y2="53.92"/>
    <line x1="78.49" y1="47.27" x2="83.97" y2="49.52"/>
    <line x1="78.49" y1="47.27" x2="77.18" y2="54.47"/>
    <line x1="90.84" y1="47.20" x2="83.97" y2="49.52"/>
    <line x1="90.84" y1="47.20" x2="92.50" y2="50.92"/>
    <line x1="90.84" y1="47.20" x2="90.68" y2="53.48"/>
    <line x1="19.69" y1="50.07" x2="11.72" y2="50.89"/>
    <line x1="19.69" y1="50.07" x2="19.81" y2="50.51"/>
    <line x1="19.69" y1="50.07" x2="15.43" y2="53.56"/>
    <line x1="19.69" y1="50.07" x2="23.63" y2="55.66"/>
    <line x1="44.25" y1="48.00" x2="41.00" y2="50.60"/>
    <line x1="44.25" y1="48.00" x2="45.74" y2="51.83"/>
    <line x1="66.12" y1="48.11" x2="60.39" y2="51.05"/>
    <line x1="66.12" y1="48.11" x2="68.14" y2="53.85"/>
    <line x1="47.13" y1="48.71" x2="49.96" y2="49.16"/>
    <line x1="47.13" y1="48.71" x2="45.74" y2="51.83"/>
    <line x1="47.13" y1="48.71" x2="49.48" y2="53.58"/>
    <line x1="49.96" y1="49.16" x2="53.78" y2="51.61"/>
    <line x1="56.65" y1="48.58" x2="53.78" y2="51.61"/>
    <line x1="56.65" y1="48.58" x2="56.19" y2="52.79"/>
    <line x1="83.97" y1="49.52" x2="77.18" y2="54.47"/>
    <line x1="83.97" y1="49.52" x2="90.68" y2="53.48"/>
    <line x1="83.97" y1="49.52" x2="84.18" y2="57.91"/>
    <line x1="41.00" y1="50.60" x2="45.74" y2="51.83"/>
    <line x1="41.00" y1="50.60" x2="35.25" y2="52.03"/>
    <line x1="41.00" y1="50.60" x2="44.63" y2="56.58"/>
    <line x1="41.00" y1="50.60" x2="38.28" y2="58.57"/>
    <line x1="11.72" y1="50.89" x2="15.43" y2="53.56"/>
    <line x1="92.50" y1="50.92" x2="92.04" y2="57.81"/>
    <line x1="19.81" y1="50.51" x2="28.56" y2="53.92"/>
    <line x1="53.78" y1="51.61" x2="56.19" y2="52.79"/>
    <line x1="53.78" y1="51.61" x2="49.48" y2="53.58"/>
    <line x1="53.78" y1="51.61" x2="52.31" y2="56.61"/>
    <line x1="60.39" y1="51.05" x2="56.19" y2="52.79"/>
    <line x1="60.39" y1="51.05" x2="68.14" y2="53.85"/>
    <line x1="60.39" y1="51.05" x2="61.78" y2="56.99"/>
    <line x1="45.74" y1="51.83" x2="49.48" y2="53.58"/>
    <line x1="45.74" y1="51.83" x2="44.63" y2="56.58"/>
    <line x1="35.25" y1="52.03" x2="28.56" y2="53.92"/>
    <line x1="35.25" y1="52.03" x2="33.54" y2="57.74"/>
    <line x1="35.25" y1="52.03" x2="38.28" y2="58.57"/>
    <line x1="56.19" y1="52.79" x2="52.31" y2="56.61"/>
    <line x1="56.19" y1="52.79" x2="57.35" y2="58.37"/>
    <line x1="77.18" y1="54.47" x2="68.14" y2="53.85"/>
    <line x1="77.18" y1="54.47" x2="71.13" y2="58.36"/>
    <line x1="77.18" y1="54.47" x2="84.18" y2="57.91"/>
    <line x1="77.18" y1="54.47" x2="75.78" y2="61.55"/>
    <line x1="77.18" y1="54.47" x2="80.29" y2="61.05"/>
    <line x1="49.48" y1="53.58" x2="44.63" y2="56.58"/>
    <line x1="49.48" y1="53.58" x2="52.31" y2="56.61"/>
    <line x1="68.14" y1="53.85" x2="61.78" y2="56.99"/>
    <line x1="68.14" y1="53.85" x2="71.13" y2="58.36"/>
    <line x1="68.14" y1="53.85" x2="65.96" y2="60.23"/>
    <line x1="90.68" y1="53.48" x2="92.04" y2="57.81"/>
    <line x1="90.68" y1="53.48" x2="84.18" y2="57.91"/>
    <line x1="90.68" y1="53.48" x2="88.12" y2="62.15"/>
    <line x1="15.43" y1="53.56" x2="23.63" y2="55.66"/>
    <line x1="28.56" y1="53.92" x2="23.63" y2="55.66"/>
    <line x1="28.56" y1="53.92" x2="33.54" y2="57.74"/>
    <line x1="28.56" y1="53.92" x2="26.59" y2="59.93"/>
    <line x1="28.56" y1="53.92" x2="29.44" y2="61.59"/>
    <line x1="23.63" y1="55.66" x2="26.59" y2="59.93"/>
    <line x1="44.63" y1="56.58" x2="52.31" y2="56.61"/>
    <line x1="44.63" y1="56.58" x2="38.28" y2="58.57"/>
    <line x1="44.63" y1="56.58" x2="48.23" y2="61.27"/>
    <line x1="44.63" y1="56.58" x2="42.25" y2="63.60"/>
    <line x1="52.31" y1="56.61" x2="57.35" y2="58.37"/>
    <line x1="52.31" y1="56.61" x2="48.23" y2="61.27"/>
    <line x1="52.31" y1="56.61" x2="53.22" y2="62.43"/>
    <line x1="61.78" y1="56.99" x2="57.35" y2="58.37"/>
    <line x1="61.78" y1="56.99" x2="65.96" y2="60.23"/>
    <line x1="61.78" y1="56.99" x2="60.21" y2="62.08"/>
    <line x1="33.54" y1="57.74" x2="38.28" y2="58.57"/>
    <line x1="33.54" y1="57.74" x2="29.44" y2="61.59"/>
    <line x1="33.54" y1="57.74" x2="34.41" y2="62.93"/>
    <line x1="71.13" y1="58.36" x2="65.96" y2="60.23"/>
    <line x1="71.13" y1="58.36" x2="75.78" y2="61.55"/>
    <line x1="71.13" y1="58.36" x2="70.40" y2="62.29"/>
    <line x1="92.04" y1="57.81" x2="88.12" y2="62.15"/>
    <line x1="84.18" y1="57.91" x2="80.29" y2="61.05"/>
    <line x1="84.18" y1="57.91" x2="88.12" y2="62.15"/>
    <line x1="84.18" y1="57.91" x2="84.77" y2="63.52"/>
    <line x1="57.35" y1="58.37" x2="60.21" y2="62.08"/>
    <line x1="57.35" y1="58.37" x2="53.22" y2="62.43"/>
    <line x1="38.28" y1="58.57" x2="34.41" y2="62.93"/>
    <line x1="38.28" y1="58.57" x2="42.25" y2="63.60"/>
    <line x1="26.59" y1="59.93" x2="29.44" y2="61.59"/>
    <line x1="65.96" y1="60.23" x2="60.21" y2="62.08"/>
    <line x1="65.96" y1="60.23" x2="70.40" y2="62.29"/>
    <line x1="75.78" y1="61.55" x2="80.29" y2="61.05"/>
    <line x1="75.78" y1="61.55" x2="70.40" y2="62.29"/>
    <line x1="75.78" y1="61.55" x2="75.74" y2="62.49"/>
    <line x1="75.78" y1="61.55" x2="80.21" y2="64.12"/>
    <line x1="48.23" y1="61.27" x2="53.22" y2="62.43"/>
    <line x1="48.23" y1="61.27" x2="42.25" y2="63.60"/>
    <line x1="48.23" y1="61.27" x2="47.40" y2="65.38"/>
    <line x1="60.21" y1="62.08" x2="53.22" y2="62.43"/>
    <line x1="60.21" y1="62.08" x2="59.28" y2="63.22"/>
    <line x1="60.21" y1="62.08" x2="65.76" y2="63.30"/>
    <line x1="60.21" y1="62.08" x2="62.21" y2="66.76"/>
    <line x1="80.29" y1="61.05" x2="84.77" y2="63.52"/>
    <line x1="80.29" y1="61.05" x2="80.21" y2="64.12"/>
    <line x1="88.12" y1="62.15" x2="84.77" y2="63.52"/>
    <line x1="88.12" y1="62.15" x2="88.14" y2="62.47"/>
    <line x1="88.12" y1="62.15" x2="84.86" y2="64.37"/>
    <line x1="29.44" y1="61.59" x2="34.41" y2="62.93"/>
    <line x1="29.44" y1="61.59" x2="29.49" y2="61.95"/>
    <line x1="34.41" y1="62.93" x2="42.25" y2="63.60"/>
    <line x1="34.41" y1="62.93" x2="37.99" y2="66.46"/>
    <line x1="34.41" y1="62.93" x2="34.33" y2="64.18"/>
    <line x1="53.22" y1="62.43" x2="59.28" y2="63.22"/>
    <line x1="53.22" y1="62.43" x2="53.63" y2="63.62"/>
    <line x1="53.22" y1="62.43" x2="47.40" y2="65.38"/>
    <line x1="70.40" y1="62.29" x2="65.76" y2="63.30"/>
    <line x1="70.40" y1="62.29" x2="72.04" y2="64.83"/>
    <line x1="42.25" y1="63.60" x2="47.40" y2="65.38"/>
    <line x1="42.25" y1="63.60" x2="37.99" y2="66.46"/>
    <line x1="42.25" y1="63.60" x2="43.55" y2="65.23"/>
    <line x1="59.28" y1="63.22" x2="53.63" y2="63.62"/>
    <line x1="59.28" y1="63.22" x2="62.21" y2="66.76"/>
    <line x1="59.28" y1="63.22" x2="58.66" y2="67.37"/>
    <line x1="59.28" y1="63.22" x2="55.66" y2="68.83"/>
    <line x1="65.76" y1="63.30" x2="72.04" y2="64.83"/>
    <line x1="65.76" y1="63.30" x2="62.21" y2="66.76"/>
    <line x1="65.76" y1="63.30" x2="68.27" y2="69.42"/>
    <line x1="84.77" y1="63.52" x2="80.21" y2="64.12"/>
    <line x1="84.77" y1="63.52" x2="84.86" y2="64.37"/>
    <line x1="75.74" y1="62.49" x2="80.21" y2="64.12"/>
    <line x1="75.74" y1="62.49" x2="72.04" y2="64.83"/>
    <line x1="75.74" y1="62.49" x2="78.08" y2="65.85"/>
    <line x1="29.49" y1="61.95" x2="34.33" y2="64.18"/>
    <line x1="80.21" y1="64.12" x2="84.86" y2="64.37"/>
    <line x1="80.21" y1="64.12" x2="78.08" y2="65.85"/>
    <line x1="80.21" y1="64.12" x2="80.65" y2="68.66"/>
    <line x1="53.63" y1="63.62" x2="51.80" y2="65.64"/>
    <line x1="53.63" y1="63.62" x2="55.66" y2="68.83"/>
    <line x1="47.40" y1="65.38" x2="51.80" y2="65.64"/>
    <line x1="47.40" y1="65.38" x2="43.55" y2="65.23"/>
    <line x1="47.40" y1="65.38" x2="49.38" y2="67.96"/>
    <line x1="72.04" y1="64.83" x2="73.39" y2="69.30"/>
    <line x1="72.04" y1="64.83" x2="68.27" y2="69.42"/>
    <line x1="37.99" y1="66.46" x2="34.33" y2="64.18"/>
    <line x1="51.80" y1="65.64" x2="49.38" y2="67.96"/>
    <line x1="51.80" y1="65.64" x2="55.66" y2="68.83"/>
    <line x1="62.21" y1="66.76" x2="58.66" y2="67.37"/>
    <line x1="62.21" y1="66.76" x2="62.94" y2="67.76"/>
    <line x1="78.08" y1="65.85" x2="80.65" y2="68.66"/>
    <line x1="78.08" y1="65.85" x2="73.39" y2="69.30"/>
    <line x1="78.08" y1="65.85" x2="77.30" y2="69.62"/>
    <line x1="58.66" y1="67.37" x2="57.83" y2="71.13"/>
    <line x1="58.66" y1="67.37" x2="60.79" y2="72.91"/>
    <line x1="80.65" y1="68.66" x2="77.30" y2="69.62"/>
    <line x1="80.65" y1="68.66" x2="79.67" y2="70.45"/>
    <line x1="49.38" y1="67.96" x2="51.42" y2="71.13"/>
    <line x1="55.66" y1="68.83" x2="51.42" y2="71.13"/>
    <line x1="55.66" y1="68.83" x2="57.83" y2="71.13"/>
    <line x1="55.66" y1="68.83" x2="52.88" y2="72.98"/>
    <line x1="62.94" y1="67.76" x2="68.27" y2="69.42"/>
    <line x1="62.94" y1="67.76" x2="64.60" y2="71.76"/>
    <line x1="62.94" y1="67.76" x2="60.79" y2="72.91"/>
    <line x1="73.39" y1="69.30" x2="68.27" y2="69.42"/>
    <line x1="73.39" y1="69.30" x2="77.30" y2="69.62"/>
    <line x1="73.39" y1="69.30" x2="72.67" y2="70.74"/>
    <line x1="73.39" y1="69.30" x2="76.70" y2="74.10"/>
    <line x1="68.27" y1="69.42" x2="72.67" y2="70.74"/>
    <line x1="68.27" y1="69.42" x2="68.06" y2="71.58"/>
    <line x1="77.30" y1="69.62" x2="72.67" y2="70.74"/>
    <line x1="51.42" y1="71.13" x2="52.88" y2="72.98"/>
    <line x1="51.42" y1="71.13" x2="55.43" y2="75.26"/>
    <line x1="64.60" y1="71.76" x2="60.79" y2="72.91"/>
    <line x1="64.60" y1="71.76" x2="68.06" y2="71.58"/>
    <line x1="64.60" y1="71.76" x2="64.80" y2="73.96"/>
    <line x1="57.83" y1="71.13" x2="60.79" y2="72.91"/>
    <line x1="57.83" y1="71.13" x2="59.01" y2="75.01"/>
    <line x1="72.67" y1="70.74" x2="68.06" y2="71.58"/>
    <line x1="72.67" y1="70.74" x2="71.80" y2="75.04"/>
    <line x1="79.67" y1="70.45" x2="76.70" y2="74.10"/>
    <line x1="60.79" y1="72.91" x2="61.27" y2="82.24"/>
    <line x1="68.06" y1="71.58" x2="71.80" y2="75.04"/>
    <line x1="68.06" y1="71.58" x2="67.38" y2="74.76"/>
    <line x1="52.88" y1="72.98" x2="55.43" y2="75.26"/>
    <line x1="76.70" y1="74.10" x2="71.80" y2="75.04"/>
    <line x1="76.70" y1="74.10" x2="75.67" y2="74.91"/>
    <line x1="64.80" y1="73.96" x2="67.38" y2="74.76"/>
    <line x1="59.01" y1="75.01" x2="55.43" y2="75.26"/>
    <line x1="59.01" y1="75.01" x2="58.62" y2="78.61"/>
    <line x1="71.80" y1="75.04" x2="67.38" y2="74.76"/>
    <line x1="71.80" y1="75.04" x2="75.67" y2="74.91"/>
    <line x1="55.43" y1="75.26" x2="54.70" y2="77.70"/>
    <line x1="54.70" y1="77.70" x2="58.62" y2="78.61"/>
    <line x1="54.70" y1="77.70" x2="58.31" y2="80.31"/>
    <line x1="54.70" y1="77.70" x2="57.71" y2="83.41"/>
    <line x1="58.62" y1="78.61" x2="58.31" y2="80.31"/>
    <line x1="58.31" y1="80.31" x2="61.27" y2="82.24"/>
    <line x1="58.31" y1="80.31" x2="57.71" y2="83.41"/>
    <line x1="61.27" y1="82.24" x2="60.90" y2="83.81"/>
    <line x1="61.27" y1="82.24" x2="60.37" y2="87.58"/>
    <line x1="57.71" y1="83.41" x2="60.90" y2="83.81"/>
    <line x1="57.71" y1="83.41" x2="60.37" y2="87.58"/>
    <line x1="60.90" y1="83.81" x2="60.37" y2="87.58"/>
  </g>
  <g fill="#00B3E3">
    <circle cx="49.02" cy="11.56" r="0.85"/>
    <circle cx="42.29" cy="11.96" r="0.85"/>
    <circle cx="54.98" cy="11.82" r="0.85"/>
    <circle cx="35.77" cy="13.96" r="0.85"/>
    <circle cx="56.48" cy="15.90" r="0.85"/>
    <circle cx="66.47" cy="14.76" r="0.85"/>
    <circle cx="27.13" cy="16.49" r="0.85"/>
    <circle cx="47.78" cy="17.05" r="0.85"/>
    <circle cx="50.52" cy="16.99" r="0.85"/>
    <circle cx="35.74" cy="17.43" r="0.85"/>
    <circle cx="73.24" cy="18.09" r="0.85"/>
    <circle cx="56.71" cy="17.45" r="0.85"/>
    <circle cx="78.81" cy="21.09" r="0.85"/>
    <circle cx="20.65" cy="22.56" r="0.85"/>
    <circle cx="72.89" cy="21.98" r="0.85"/>
    <circle cx="63.85" cy="21.70" r="0.85"/>
    <circle cx="40.23" cy="22.81" r="0.85"/>
    <circle cx="26.14" cy="24.15" r="0.85"/>
    <circle cx="56.20" cy="24.35" r="0.85"/>
    <circle cx="27.29" cy="24.35" r="0.85"/>
    <circle cx="14.36" cy="25.16" r="0.85"/>
    <circle cx="83.79" cy="26.07" r="0.85"/>
    <circle cx="47.66" cy="26.93" r="0.85"/>
    <circle cx="34.09" cy="27.06" r="0.85"/>
    <circle cx="80.33" cy="26.98" r="0.85"/>
    <circle cx="21.35" cy="28.56" r="0.85"/>
    <circle cx="69.31" cy="27.62" r="0.85"/>
    <circle cx="86.99" cy="30.12" r="0.85"/>
    <circle cx="14.39" cy="30.37" r="0.85"/>
    <circle cx="41.96" cy="31.11" r="0.85"/>
    <circle cx="48.26" cy="28.42" r="0.85"/>
    <circle cx="61.61" cy="31.58" r="0.85"/>
    <circle cx="55.74" cy="31.71" r="0.85"/>
    <circle cx="32.88" cy="31.97" r="0.85"/>
    <circle cx="74.79" cy="31.72" r="0.85"/>
    <circle cx="42.60" cy="31.66" r="0.85"/>
    <circle cx="50.12" cy="32.25" r="0.85"/>
    <circle cx="9.42" cy="32.85" r="0.85"/>
    <circle cx="88.11" cy="32.54" r="0.85"/>
    <circle cx="25.74" cy="33.37" r="0.85"/>
    <circle cx="75.71" cy="32.15" r="0.85"/>
    <circle cx="83.58" cy="35.11" r="0.85"/>
    <circle cx="49.09" cy="32.93" r="0.85"/>
    <circle cx="55.29" cy="33.79" r="0.85"/>
    <circle cx="68.49" cy="35.03" r="0.85"/>
    <circle cx="30.42" cy="34.13" r="0.85"/>
    <circle cx="32.47" cy="34.43" r="0.85"/>
    <circle cx="61.25" cy="32.42" r="0.85"/>
    <circle cx="89.08" cy="35.42" r="0.85"/>
    <circle cx="19.34" cy="36.07" r="0.85"/>
    <circle cx="83.56" cy="35.35" r="0.85"/>
    <circle cx="47.57" cy="35.87" r="0.85"/>
    <circle cx="38.36" cy="37.62" r="0.85"/>
    <circle cx="51.96" cy="37.88" r="0.85"/>
    <circle cx="42.88" cy="37.06" r="0.85"/>
    <circle cx="55.20" cy="36.94" r="0.85"/>
    <circle cx="32.55" cy="35.19" r="0.85"/>
    <circle cx="63.28" cy="38.06" r="0.85"/>
    <circle cx="11.40" cy="38.49" r="0.85"/>
    <circle cx="19.41" cy="36.79" r="0.85"/>
    <circle cx="7.67" cy="39.26" r="0.85"/>
    <circle cx="59.13" cy="39.51" r="0.85"/>
    <circle cx="75.02" cy="40.21" r="0.85"/>
    <circle cx="46.74" cy="40.76" r="0.85"/>
    <circle cx="91.84" cy="41.95" r="0.85"/>
    <circle cx="87.28" cy="42.04" r="0.85"/>
    <circle cx="29.08" cy="41.21" r="0.85"/>
    <circle cx="57.28" cy="41.55" r="0.85"/>
    <circle cx="34.46" cy="41.54" r="0.85"/>
    <circle cx="41.92" cy="41.81" r="0.85"/>
    <circle cx="11.41" cy="39.73" r="0.85"/>
    <circle cx="19.53" cy="41.91" r="0.85"/>
    <circle cx="38.26" cy="41.95" r="0.85"/>
    <circle cx="61.76" cy="42.77" r="0.85"/>
    <circle cx="67.15" cy="42.87" r="0.85"/>
    <circle cx="82.57" cy="43.38" r="0.85"/>
    <circle cx="49.97" cy="44.03" r="0.85"/>
    <circle cx="8.89" cy="44.73" r="0.85"/>
    <circle cx="58.32" cy="43.38" r="0.85"/>
    <circle cx="91.71" cy="43.55" r="0.85"/>
    <circle cx="43.34" cy="43.76" r="0.85"/>
    <circle cx="67.95" cy="43.46" r="0.85"/>
    <circle cx="89.02" cy="44.50" r="0.85"/>
    <circle cx="39.49" cy="46.41" r="0.85"/>
    <circle cx="45.27" cy="45.93" r="0.85"/>
    <circle cx="82.87" cy="44.85" r="0.85"/>
    <circle cx="11.73" cy="46.54" r="0.85"/>
    <circle cx="55.68" cy="47.16" r="0.85"/>
    <circle cx="61.09" cy="46.76" r="0.85"/>
    <circle cx="72.41" cy="47.07" r="0.85"/>
    <circle cx="26.71" cy="47.95" r="0.85"/>
    <circle cx="33.59" cy="47.63" r="0.85"/>
    <circle cx="78.49" cy="47.27" r="0.85"/>
    <circle cx="90.84" cy="47.20" r="0.85"/>
    <circle cx="19.69" cy="50.07" r="0.85"/>
    <circle cx="44.25" cy="48.00" r="0.85"/>
    <circle cx="66.12" cy="48.11" r="0.85"/>
    <circle cx="47.13" cy="48.71" r="0.85"/>
    <circle cx="49.96" cy="49.16" r="0.85"/>
    <circle cx="56.65" cy="48.58" r="0.85"/>
    <circle cx="83.97" cy="49.52" r="0.85"/>
    <circle cx="41.00" cy="50.60" r="0.85"/>
    <circle cx="11.72" cy="50.89" r="0.85"/>
    <circle cx="92.50" cy="50.92" r="0.85"/>
    <circle cx="19.81" cy="50.51" r="0.85"/>
    <circle cx="53.78" cy="51.61" r="0.85"/>
    <circle cx="60.39" cy="51.05" r="0.85"/>
    <circle cx="45.74" cy="51.83" r="0.85"/>
    <circle cx="35.25" cy="52.03" r="0.85"/>
    <circle cx="56.19" cy="52.79" r="0.85"/>
    <circle cx="77.18" cy="54.47" r="0.85"/>
    <circle cx="49.48" cy="53.58" r="0.85"/>
    <circle cx="68.14" cy="53.85" r="0.85"/>
    <circle cx="90.68" cy="53.48" r="0.85"/>
    <circle cx="15.43" cy="53.56" r="0.85"/>
    <circle cx="28.56" cy="53.92" r="0.85"/>
    <circle cx="58.02" cy="53.92" r="0.85"/>
    <circle cx="23.63" cy="55.66" r="0.85"/>
    <circle cx="44.63" cy="56.58" r="0.85"/>
    <circle cx="52.31" cy="56.61" r="0.85"/>
    <circle cx="61.78" cy="56.99" r="0.85"/>
    <circle cx="33.54" cy="57.74" r="0.85"/>
    <circle cx="71.13" cy="58.36" r="0.85"/>
    <circle cx="92.04" cy="57.81" r="0.85"/>
    <circle cx="84.18" cy="57.91" r="0.85"/>
    <circle cx="57.35" cy="58.37" r="0.85"/>
    <circle cx="38.28" cy="58.57" r="0.85"/>
    <circle cx="26.59" cy="59.93" r="0.85"/>
    <circle cx="65.96" cy="60.23" r="0.85"/>
    <circle cx="75.78" cy="61.55" r="0.85"/>
    <circle cx="48.23" cy="61.27" r="0.85"/>
    <circle cx="60.21" cy="62.08" r="0.85"/>
    <circle cx="80.29" cy="61.05" r="0.85"/>
    <circle cx="88.12" cy="62.15" r="0.85"/>
    <circle cx="29.44" cy="61.59" r="0.85"/>
    <circle cx="34.41" cy="62.93" r="0.85"/>
    <circle cx="53.22" cy="62.43" r="0.85"/>
    <circle cx="70.40" cy="62.29" r="0.85"/>
    <circle cx="42.25" cy="63.60" r="0.85"/>
    <circle cx="59.28" cy="63.22" r="0.85"/>
    <circle cx="65.76" cy="63.30" r="0.85"/>
    <circle cx="84.77" cy="63.52" r="0.85"/>
    <circle cx="75.74" cy="62.49" r="0.85"/>
    <circle cx="29.49" cy="61.95" r="0.85"/>
    <circle cx="88.14" cy="62.47" r="0.85"/>
    <circle cx="80.21" cy="64.12" r="0.85"/>
    <circle cx="53.63" cy="63.62" r="0.85"/>
    <circle cx="47.40" cy="65.38" r="0.85"/>
    <circle cx="72.04" cy="64.83" r="0.85"/>
    <circle cx="84.86" cy="64.37" r="0.85"/>
    <circle cx="37.99" cy="66.46" r="0.85"/>
    <circle cx="51.80" cy="65.64" r="0.85"/>
    <circle cx="62.21" cy="66.76" r="0.85"/>
    <circle cx="34.33" cy="64.18" r="0.85"/>
    <circle cx="43.55" cy="65.23" r="0.85"/>
    <circle cx="78.08" cy="65.85" r="0.85"/>
    <circle cx="58.66" cy="67.37" r="0.85"/>
    <circle cx="80.65" cy="68.66" r="0.85"/>
    <circle cx="49.38" cy="67.96" r="0.85"/>
    <circle cx="55.66" cy="68.83" r="0.85"/>
    <circle cx="62.94" cy="67.76" r="0.85"/>
    <circle cx="73.39" cy="69.30" r="0.85"/>
    <circle cx="68.27" cy="69.42" r="0.85"/>
    <circle cx="77.30" cy="69.62" r="0.85"/>
    <circle cx="51.42" cy="71.13" r="0.85"/>
    <circle cx="64.60" cy="71.76" r="0.85"/>
    <circle cx="57.83" cy="71.13" r="0.85"/>
    <circle cx="72.67" cy="70.74" r="0.85"/>
    <circle cx="79.67" cy="70.45" r="0.85"/>
    <circle cx="60.79" cy="72.91" r="0.85"/>
    <circle cx="68.06" cy="71.58" r="0.85"/>
    <circle cx="52.88" cy="72.98" r="0.85"/>
    <circle cx="76.70" cy="74.10" r="0.85"/>
    <circle cx="64.80" cy="73.96" r="0.85"/>
    <circle cx="59.01" cy="75.01" r="0.85"/>
    <circle cx="71.80" cy="75.04" r="0.85"/>
    <circle cx="55.43" cy="75.26" r="0.85"/>
    <circle cx="67.38" cy="74.76" r="0.85"/>
    <circle cx="75.67" cy="74.91" r="0.85"/>
    <circle cx="54.70" cy="77.70" r="0.85"/>
    <circle cx="58.62" cy="78.61" r="0.85"/>
    <circle cx="58.31" cy="80.31" r="0.85"/>
    <circle cx="61.27" cy="82.24" r="0.85"/>
    <circle cx="57.71" cy="83.41" r="0.85"/>
    <circle cx="60.90" cy="83.81" r="0.85"/>
    <circle cx="60.37" cy="87.58" r="0.85"/>
  </g>
</svg>