<svg xmlns="http://www.w3.org/2000/svg" viewBox="0 0 100 100" fill="none">
  <g stroke="#00B3E3" stroke-width="0.35" stroke-linecap="round">
    <line x1="37.22" y1="51.69" x2="29.96" y2="59.29"/>
    <line x1="52.01" y1="61.22" x2="56.99" y2="52.10"/>
    <line x1="76.17" y1="56.58" x2="67.56" y2="60.00"/>
    <line x1="29.85" y1="11.66" x2="34.67" y2="13.31"/>
    <line x1="76.17" y1="56.58" x2="69.12" y2="68.31"/>
    <line x1="37.22" y1="51.69" x2="45.50" y2="56.44"/>
    <line x1="62.57" y1="36.54" x2="58.12" y2="32.06"/>
    <line x1="47.63" y1="76.29" x2="45.92" y2="80.66"/>
    <line x1="33.74" y1="83.17" x2="36.17" y2="68.29"/>
    <line x1="20.72" y1="17.50" x2="20.91" y2="21.68"/>
    <line x1="23.36" y1="46.16" x2="22.53" y2="55.69"/>
    <line x1="47.16" y1="52.52" x2="47.26" y2="50.35"/>
    <line x1="26.94" y1="73.12" x2="29.84" y2="67.94"/>
    <line x1="56.99" y1="52.10" x2="67.56" y2="60.00"/>
    <line x1="62.57" y1="36.54" x2="69.72" y2="44.69"/>
    <line x1="69.72" y1="44.69" x2="54.40" y2="47.26"/>
    <line x1="68.17" y1="50.45" x2="67.56" y2="60.00"/>
    <line x1="24.59" y1="13.65" x2="20.72" y2="17.50"/>
    <line x1="29.96" y1="59.29" x2="36.17" y2="68.29"/>
    <line x1="29.85" y1="11.66" x2="26.86" y2="19.39"/>
    <line x1="37.22" y1="51.69" x2="41.41" y2="46.75"/>
    <line x1="79.20" y1="46.17" x2="76.17" y2="56.58"/>
    <line x1="77.15" y1="21.99" x2="64.52" y2="10.36"/>
    <line x1="47.63" y1="76.29" x2="47.08" y2="74.71"/>
    <line x1="70.77" y1="19.19" x2="66.54" y2="24.55"/>
    <line x1="48.54" y1="27.95" x2="51.92" y2="32.51"/>
    <line x1="67.77" y1="74.56" x2="53.54" y2="71.05"/>
    <line x1="29.84" y1="67.94" x2="36.17" y2="68.29"/>
    <line x1="61.42" y1="21.22" x2="66.54" y2="24.55"/>
    <line x1="52.01" y1="61.22" x2="47.08" y2="74.71"/>
    <line x1="33.52" y1="36.40" x2="28.27" y2="44.01"/>
    <line x1="22.53" y1="55.69" x2="28.27" y2="44.01"/>
    <line x1="64.00" y1="15.73" x2="61.42" y2="21.22"/>
    <line x1="76.17" y1="56.58" x2="75.07" y2="48.31"/>
    <line x1="43.09" y1="9.10" x2="34.67" y2="13.31"/>
    <line x1="26.94" y1="73.12" x2="21.06" y2="68.12"/>
    <line x1="47.16" y1="52.52" x2="45.50" y2="56.44"/>
    <line x1="45.92" y1="80.66" x2="36.17" y2="68.29"/>
    <line x1="40.34" y1="17.10" x2="34.67" y2="13.31"/>
    <line x1="52.01" y1="61.22" x2="45.50" y2="56.44"/>
    <line x1="22.53" y1="55.69" x2="29.96" y2="59.29"/>
    <line x1="25.72" y1="24.95" x2="26.86" y2="19.39"/>
    <line x1="68.17" y1="50.45" x2="75.07" y2="48.31"/>
    <line x1="43.09" y1="9.10" x2="40.34" y2="17.10"/>
    <line x1="64.00" y1="15.73" x2="66.54" y2="24.55"/>
    <line x1="67.77" y1="74.56" x2="69.12" y2="68.31"/>
    <line x1="53.54" y1="71.05" x2="47.08" y2="74.71"/>
    <line x1="33.52" y1="36.40" x2="25.72" y2="24.95"/>
    <line x1="41.41" y1="46.75" x2="47.16" y2="52.52"/>
    <line x1="66.54" y1="24.55" x2="67.95" y2="26.48"/>
    <line x1="51.92" y1="32.51" x2="58.12" y2="32.06"/>
    <line x1="33.52" y1="36.40" x2="41.41" y2="46.75"/>
    <line x1="20.91" y1="21.68" x2="26.86" y2="19.39"/>
    <line x1="26.94" y1="73.12" x2="36.17" y2="68.29"/>
    <line x1="43.09" y1="9.10" x2="55.46" y2="8.97"/>
    <line x1="62.57" y1="36.54" x2="51.92" y2="32.51"/>
    <line x1="48.54" y1="27.95" x2="40.34" y2="17.10"/>
    <line x1="36.34" y1="27.20" x2="25.72" y2="24.95"/>
    <line x1="69.72" y1="44.69" x2="68.17" y2="50.45"/>
    <line x1="54.40" y1="47.26" x2="47.26" y2="50.35"/>
    <line x1="38.05" y1="60.87" x2="36.17" y2="68.29"/>
    <line x1="36.34" y1="27.20" x2="34.67" y2="13.31"/>
    <line x1="33.74" y1="83.17" x2="26.94" y2="73.12"/>
    <line x1="25.72" y1="24.95" x2="20.91" y2="21.68"/>
    <line x1="50.25" y1="15.43" x2="56.33" y2="17.60"/>
    <line x1="41.41" y1="46.75" x2="47.26" y2="50.35"/>
    <line x1="26.86" y1="19.39" x2="34.67" y2="13.31"/>
    <line x1="43.09" y1="9.10" x2="29.85" y2="11.66"/>
    <line x1="56.99" y1="52.10" x2="47.16" y2="52.52"/>
    <line x1="62.57" y1="36.54" x2="54.40" y2="47.26"/>
    <line x1="47.63" y1="76.29" x2="53.54" y2="71.05"/>
    <line x1="54.40" y1="47.26" x2="51.92" y2="32.51"/>
    <line x1="24.50" y1="34.96" x2="25.72" y2="24.95"/>
    <line x1="36.34" y1="27.20" x2="40.34" y2="17.10"/>
    <line x1="57.94" y1="85.64" x2="45.92" y2="80.66"/>
    <line x1="36.34" y1="27.20" x2="26.86" y2="19.39"/>
    <line x1="33.52" y1="36.40" x2="24.50" y2="34.96"/>
    <line x1="29.96" y1="59.29" x2="28.27" y2="44.01"/>
    <line x1="79.19" y1="69.88" x2="76.17" y2="56.58"/>
    <line x1="21.06" y1="68.12" x2="29.96" y2="59.29"/>
    <line x1="41.41" y1="46.75" x2="51.92" y2="32.51"/>
    <line x1="23.36" y1="46.16" x2="28.27" y2="44.01"/>
    <line x1="79.19" y1="69.88" x2="74.23" y2="72.88"/>
    <line x1="56.99" y1="52.10" x2="47.26" y2="50.35"/>
    <line x1="58.12" y1="32.06" x2="67.95" y2="26.48"/>
    <line x1="55.46" y1="8.97" x2="56.33" y2="17.60"/>
    <line x1="70.77" y1="19.19" x2="67.95" y2="26.48"/>
    <line x1="48.54" y1="27.95" x2="58.12" y2="32.06"/>
    <line x1="24.50" y1="34.96" x2="28.27" y2="44.01"/>
    <line x1="48.54" y1="27.95" x2="33.52" y2="36.40"/>
    <line x1="54.40" y1="47.26" x2="41.41" y2="46.75"/>
    <line x1="64.52" y1="10.36" x2="70.77" y2="19.19"/>
    <line x1="40.34" y1="17.10" x2="50.25" y2="15.43"/>
    <line x1="56.33" y1="17.60" x2="61.42" y2="21.22"/>
    <line x1="33.74" y1="83.17" x2="45.92" y2="80.66"/>
    <line x1="79.20" y1="46.17" x2="75.07" y2="48.31"/>
    <line x1="48.54" y1="27.95" x2="56.33" y2="17.60"/>
    <line x1="69.72" y1="44.69" x2="75.07" y2="48.31"/>
    <line x1="52.01" y1="61.22" x2="67.56" y2="60.00"/>
    <line x1="79.19" y1="69.88" x2="73.03" y2="82.32"/>
    <line x1="64.00" y1="15.73" x2="70.77" y2="19.19"/>
    <line x1="56.99" y1="52.10" x2="54.40" y2="47.26"/>
    <line x1="24.59" y1="13.65" x2="26.86" y2="19.39"/>
    <line x1="68.17" y1="50.45" x2="54.40" y2="47.26"/>
    <line x1="64.52" y1="10.36" x2="55.46" y2="8.97"/>
    <line x1="48.54" y1="27.95" x2="50.25" y2="15.43"/>
    <line x1="79.20" y1="46.17" x2="69.72" y2="44.69"/>
    <line x1="67.56" y1="60.00" x2="53.54" y2="71.05"/>
    <line x1="37.22" y1="51.69" x2="38.05" y2="60.87"/>
    <line x1="21.06" y1="68.12" x2="29.84" y2="67.94"/>
    <line x1="64.00" y1="15.73" x2="55.46" y2="8.97"/>
    <line x1="52.01" y1="61.22" x2="53.54" y2="71.05"/>
    <line x1="48.54" y1="27.95" x2="36.34" y2="27.20"/>
    <line x1="36.17" y1="68.29" x2="47.08" y2="74.71"/>
    <line x1="57.94" y1="85.64" x2="67.77" y2="74.56"/>
    <line x1="69.12" y1="68.31" x2="74.23" y2="72.88"/>
    <line x1="73.03" y1="82.32" x2="74.23" y2="72.88"/>
    <line x1="58.12" y1="32.06" x2="61.42" y2="21.22"/>
    <line x1="37.22" y1="51.69" x2="47.16" y2="52.52"/>
    <line x1="38.05" y1="60.87" x2="47.08" y2="74.71"/>
    <line x1="23.36" y1="46.16" x2="24.50" y2="34.96"/>
    <line x1="33.52" y1="36.40" x2="36.34" y2="27.20"/>
    <line x1="73.03" y1="82.32" x2="67.77" y2="74.56"/>
    <line x1="79.19" y1="69.88" x2="69.12" y2="68.31"/>
    <line x1="24.59" y1="13.65" x2="29.85" y2="11.66"/>
    <line x1="57.94" y1="85.64" x2="73.03" y2="82.32"/>
    <line x1="28.27" y1="44.01" x2="41.41" y2="46.75"/>
    <line x1="58.12" y1="32.06" x2="66.54" y2="24.55"/>
    <line x1="67.56" y1="60.00" x2="69.12" y2="68.31"/>
    <line x1="43.09" y1="9.10" x2="50.25" y2="15.43"/>
    <line x1="38.05" y1="60.87" x2="29.96" y2="59.29"/>
    <line x1="62.57" y1="36.54" x2="67.95" y2="26.48"/>
    <line x1="38.05" y1="60.87" x2="45.50" y2="56.44"/>
    <line x1="57.94" y1="85.64" x2="53.54" y2="71.05"/>
    <line x1="29.84" y1="67.94" x2="29.96" y2="59.29"/>
    <line x1="20.72" y1="17.50" x2="26.86" y2="19.39"/>
    <line x1="47.63" y1="76.29" x2="57.94" y2="85.64"/>
    <line x1="45.92" y1="80.66" x2="47.08" y2="74.71"/>
    <line x1="48.54" y1="27.95" x2="61.42" y2="21.22"/>
    <line x1="64.00" y1="15.73" x2="56.33" y2="17.60"/>
    <line x1="64.52" y1="10.36" x2="64.00" y2="15.73"/>
    <line x1="37.22" y1="51.69" x2="28.27" y2="44.01"/>
    <line x1="76.17" y1="56.58" x2="68.17" y2="50.45"/>
    <line x1="52.01" y1="61.22" x2="38.05" y2="60.87"/>
    <line x1="69.12" y1="68.31" x2="53.54" y2="71.05"/>
    <line x1="21.06" y1="68.12" x2="22.53" y2="55.69"/>
    <line x1="67.77" y1="74.56" x2="74.23" y2="72.88"/>
    <line x1="24.50" y1="34.96" x2="20.91" y2="21.68"/>
    <line x1="56.99" y1="52.10" x2="68.17" y2="50.45"/>
    <line x1="77.15" y1="21.99" x2="70.77" y2="19.19"/>
    <line x1="50.25" y1="15.43" x2="55.46" y2="8.97"/>
    <line x1="52.01" y1="61.22" x2="47.16" y2="52.52"/>
    <line x1="77.15" y1="21.99" x2="67.95" y2="26.48"/>
  </g>
  <g fill="#00B3E3">
    <circle cx="62.57" cy="36.54" r="0.9"/>
    <circle cx="33.74" cy="83.17" r="0.9"/>
    <circle cx="47.63" cy="76.29" r="0.9"/>
    <circle cx="77.15" cy="21.99" r="0.9"/>
    <circle cx="52.01" cy="61.22" r="0.9"/>
    <circle cx="23.36" cy="46.16" r="0.9"/>
    <circle cx="48.54" cy="27.95" r="0.9"/>
    <circle cx="57.94" cy="85.64" r="0.9"/>
    <circle cx="33.52" cy="36.40" r="0.9"/>
    <circle cx="56.99" cy="52.10" r="0.9"/>
    <circle cx="37.22" cy="51.69" r="0.9"/>
    <circle cx="79.19" cy="69.88" r="0.9"/>
    <circle cx="79.20" cy="46.17" r="0.9"/>
    <circle cx="73.03" cy="82.32" r="0.9"/>
    <circle cx="26.94" cy="73.12" r="0.9"/>
    <circle cx="64.52" cy="10.36" r="0.9"/>
    <circle cx="38.05" cy="60.87" r="0.9"/>
    <circle cx="21.06" cy="68.12" r="0.9"/>
    <circle cx="76.17" cy="56.58" r="0.9"/>
    <circle cx="22.53" cy="55.69" r="0.9"/>
    <circle cx="67.77" cy="74.56" r="0.9"/>
    <circle cx="36.34" cy="27.20" r="0.9"/>
    <circle cx="24.50" cy="34.96" r="0.9"/>
    <circle cx="69.72" cy="44.69" r="0.9"/>
    <circle cx="68.17" cy="50.45" r="0.9"/>
    <circle cx="43.09" cy="9.10" r="0.9"/>
    <circle cx="67.56" cy="60.00" r="0.9"/>
    <circle cx="25.72" cy="24.95" r="0.9"/>
    <circle cx="64.00" cy="15.73" r="0.9"/>
    <circle cx="40.34" cy="17.10" r="0.9"/>
    <circle cx="75.07" cy="48.31" r="0.9"/>
    <circle cx="29.84" cy="67.94" r="0.9"/>
    <circle cx="24.59" cy="13.65" r="0.9"/>
    <circle cx="29.85" cy="11.66" r="0.9"/>
    <circle cx="29.96" cy="59.29" r="0.9"/>
    <circle cx="69.12" cy="68.31" r="0.9"/>
    <circle cx="74.23" cy="72.88" r="0.9"/>
    <circle cx="50.25" cy="15.43" r="0.9"/>
    <circle cx="70.77" cy="19.19" r="0.9"/>
    <circle cx="20.72" cy="17.50" r="0.9"/>
    <circle cx="55.46" cy="8.97" r="0.9"/>
    <circle cx="28.27" cy="44.01" r="0.9"/>
    <circle cx="20.91" cy="21.68" r="0.9"/>
    <circle cx="54.40" cy="47.26" r="0.9"/>
    <circle cx="56.33" cy="17.60" r="0.9"/>
    <circle cx="41.41" cy="46.75" r="0.9"/>
    <circle cx="47.16" cy="52.52" r="0.9"/>
    <circle cx="26.86" cy="19.39" r="0.9"/>
    <circle cx="45.92" cy="80.66" r="0.9"/>
    <circle cx="53.54" cy="71.05" r="0.9"/>
    <circle cx="51.92" cy="32.51" r="0.9"/>
    <circle cx="58.12" cy="32.06" r="0.9"/>
    <circle cx="45.50" cy="56.44" r="0.9"/>
    <circle cx="61.42" cy="21.22" r="0.9"/>
    <circle cx="34.67" cy="13.31" r="0.9"/>
    <circle cx="66.54" cy="24.55" r="0.9"/>
    <circle cx="67.95" cy="26.48" r="0.9"/>
    <circle cx="47.26" cy="50.35" r="0.9"/>
    <circle cx="36.17" cy="68.29" r="0.9"/>
    <circle cx="47.08" cy="74.71" r="0.9"/>
  </g>
</svg>