<svg xmlns="http://www.w3.org/2000/svg" viewBox="0 0 100 100" fill="none">
  <g stroke="#00B3E3" stroke-width="0.35" stroke-linecap="round">
    <line x1="46.88" y1="25.59" x2="51.37" y2="27.93"/>
    <line x1="81.45" y1="63.09" x2="81.25" y2="66.99"/>
    <line x1="12.50" y1="48.44" x2="17.19" y2="48.83"/>
    <line x1="74.61" y1="39.65" x2="74.80" y2="42.77"/>
    <line x1="78.71" y1="73.05" x2="81.45" y2="73.63"/>
    <line x1="49.80" y1="45.51" x2="51.56" y2="50.39"/>
    <line x1="12.50" y1="48.44" x2="15.04" y2="53.52"/>
    <line x1="60.74" y1="59.96" x2="58.20" y2="62.50"/>
    <line x1="42.58" y1="31.45" x2="46.48" y2="31.84"/>
    <line x1="21.09" y1="41.02" x2="25.39" y2="44.53"/>
    <line x1="51.56" y1="33.40" x2="54.30" y2="35.94"/>
    <line x1="25.20" y1="54.69" x2="24.80" y2="57.42"/>
    <line x1="42.58" y1="31.45" x2="44.53" y2="33.98"/>
    <line x1="64.26" y1="66.80" x2="67.19" y2="71.88"/>
    <line x1="66.99" y1="67.97" x2="70.31" y2="68.16"/>
    <line x1="87.11" y1="56.84" x2="90.23" y2="57.42"/>
    <line x1="60.55" y1="70.51" x2="58.59" y2="72.46"/>
    <line x1="33.79" y1="25.39" x2="34.18" y2="29.49"/>
    <line x1="29.30" y1="32.42" x2="29.10" y2="32.81"/>
    <line x1="51.95" y1="64.06" x2="49.61" y2="65.43"/>
    <line x1="75.00" y1="80.86" x2="70.70" y2="81.25"/>
    <line x1="68.36" y1="75.98" x2="69.53" y2="78.52"/>
    <line x1="70.12" y1="41.80" x2="72.07" y2="42.19"/>
    <line x1="21.68" y1="46.48" x2="25.59" y2="50.39"/>
    <line x1="81.45" y1="63.09" x2="77.15" y2="66.21"/>
    <line x1="41.99" y1="46.48" x2="37.89" y2="48.44"/>
    <line x1="41.02" y1="50.39" x2="42.77" y2="54.69"/>
    <line x1="41.99" y1="46.48" x2="41.02" y2="50.39"/>
    <line x1="64.26" y1="66.80" x2="60.55" y2="70.51"/>
    <line x1="81.25" y1="70.12" x2="81.45" y2="73.63"/>
    <line x1="75.00" y1="77.93" x2="74.80" y2="80.47"/>
    <line x1="84.18" y1="50.98" x2="84.38" y2="55.86"/>
    <line x1="71.48" y1="74.80" x2="72.46" y2="77.93"/>
    <line x1="61.13" y1="41.41" x2="57.23" y2="42.97"/>
    <line x1="24.80" y1="57.42" x2="27.15" y2="58.98"/>
    <line x1="32.03" y1="48.05" x2="30.27" y2="51.37"/>
    <line x1="87.11" y1="59.38" x2="87.50" y2="62.50"/>
    <line x1="43.16" y1="59.77" x2="40.04" y2="61.33"/>
    <line x1="67.58" y1="51.76" x2="63.48" y2="53.71"/>
    <line x1="84.38" y1="55.86" x2="84.38" y2="59.77"/>
    <line x1="62.70" y1="32.23" x2="59.96" y2="35.94"/>
    <line x1="77.54" y1="50.00" x2="72.66" y2="50.20"/>
    <line x1="29.69" y1="45.51" x2="32.03" y2="47.27"/>
    <line x1="71.09" y1="39.06" x2="72.07" y2="42.19"/>
    <line x1="86.33" y1="48.05" x2="81.84" y2="48.44"/>
    <line x1="90.23" y1="57.42" x2="87.11" y2="59.38"/>
    <line x1="90.23" y1="57.42" x2="90.23" y2="61.52"/>
    <line x1="77.54" y1="50.00" x2="73.83" y2="53.52"/>
    <line x1="85.35" y1="69.92" x2="86.52" y2="71.29"/>
    <line x1="59.96" y1="35.94" x2="57.03" y2="36.13"/>
    <line x1="58.59" y1="72.46" x2="59.77" y2="75.78"/>
    <line x1="22.46" y1="27.15" x2="18.75" y2="31.45"/>
    <line x1="29.10" y1="32.81" x2="27.93" y2="34.96"/>
    <line x1="41.02" y1="50.39" x2="39.26" y2="54.10"/>
    <line x1="22.27" y1="37.11" x2="26.76" y2="38.87"/>
    <line x1="49.02" y1="54.10" x2="46.29" y2="56.25"/>
    <line x1="25.20" y1="54.69" x2="29.49" y2="55.27"/>
    <line x1="75.78" y1="56.05" x2="80.66" y2="58.20"/>
    <line x1="78.71" y1="73.05" x2="73.44" y2="73.63"/>
    <line x1="74.80" y1="42.77" x2="75.20" y2="45.51"/>
    <line x1="27.15" y1="58.98" x2="30.47" y2="61.13"/>
    <line x1="68.95" y1="44.14" x2="66.21" y2="46.29"/>
    <line x1="59.38" y1="47.66" x2="60.55" y2="51.95"/>
    <line x1="33.59" y1="20.31" x2="30.86" y2="23.05"/>
    <line x1="71.48" y1="74.80" x2="75.20" y2="75.59"/>
    <line x1="67.19" y1="71.88" x2="62.50" y2="74.61"/>
    <line x1="64.06" y1="37.89" x2="61.13" y2="38.87"/>
    <line x1="54.30" y1="62.50" x2="57.62" y2="66.41"/>
    <line x1="64.06" y1="37.89" x2="61.13" y2="41.41"/>
    <line x1="56.25" y1="45.90" x2="55.66" y2="48.44"/>
    <line x1="40.62" y1="24.02" x2="40.82" y2="26.76"/>
    <line x1="81.05" y1="55.08" x2="84.38" y2="55.86"/>
    <line x1="29.69" y1="45.51" x2="32.03" y2="48.05"/>
    <line x1="30.86" y1="23.05" x2="33.79" y2="25.39"/>
    <line x1="58.59" y1="72.46" x2="62.50" y2="74.61"/>
    <line x1="49.80" y1="40.23" x2="49.80" y2="45.51"/>
    <line x1="61.72" y1="63.87" x2="57.62" y2="66.41"/>
    <line x1="72.46" y1="77.93" x2="69.53" y2="78.52"/>
    <line x1="18.16" y1="52.34" x2="15.04" y2="53.52"/>
    <line x1="84.18" y1="50.98" x2="81.84" y2="51.95"/>
    <line x1="51.95" y1="57.23" x2="54.30" y2="58.40"/>
    <line x1="50.98" y1="53.52" x2="49.02" y2="54.10"/>
    <line x1="38.67" y1="16.41" x2="42.19" y2="20.12"/>
    <line x1="18.75" y1="31.45" x2="17.77" y2="36.33"/>
    <line x1="50.98" y1="53.52" x2="50.00" y2="55.86"/>
    <line x1="54.30" y1="62.50" x2="51.95" y2="64.06"/>
    <line x1="56.25" y1="45.90" x2="57.62" y2="48.05"/>
    <line x1="63.28" y1="48.44" x2="60.55" y2="51.95"/>
    <line x1="52.54" y1="44.53" x2="55.66" y2="48.44"/>
    <line x1="49.61" y1="65.43" x2="50.98" y2="69.34"/>
    <line x1="82.81" y1="71.29" x2="81.45" y2="73.63"/>
    <line x1="62.70" y1="32.23" x2="58.98" y2="32.42"/>
    <line x1="15.04" y1="34.18" x2="10.94" y2="36.52"/>
    <line x1="24.80" y1="57.42" x2="23.63" y2="61.33"/>
    <line x1="52.54" y1="44.53" x2="51.56" y2="50.39"/>
    <line x1="40.04" y1="30.08" x2="44.53" y2="33.98"/>
    <line x1="63.87" y1="44.53" x2="63.28" y2="48.44"/>
    <line x1="74.22" y1="66.60" x2="70.31" y2="68.16"/>
    <line x1="85.35" y1="69.92" x2="82.81" y2="71.29"/>
    <line x1="27.54" y1="42.58" x2="29.69" y2="45.51"/>
    <line x1="49.80" y1="40.23" x2="52.54" y2="44.53"/>
    <line x1="36.33" y1="17.58" x2="33.59" y2="20.31"/>
    <line x1="30.47" y1="61.13" x2="28.91" y2="63.48"/>
    <line x1="53.71" y1="27.54" x2="51.37" y2="27.93"/>
    <line x1="72.46" y1="77.93" x2="70.70" y2="81.25"/>
    <line x1="32.03" y1="47.27" x2="32.03" y2="48.05"/>
    <line x1="68.95" y1="44.14" x2="63.87" y2="44.53"/>
    <line x1="61.72" y1="56.45" x2="60.74" y2="59.96"/>
    <line x1="63.48" y1="53.71" x2="61.72" y2="56.45"/>
    <line x1="38.67" y1="16.41" x2="41.80" y2="16.41"/>
    <line x1="33.59" y1="20.31" x2="37.30" y2="22.07"/>
    <line x1="51.95" y1="57.23" x2="54.30" y2="62.50"/>
    <line x1="33.59" y1="20.31" x2="33.79" y2="25.39"/>
    <line x1="76.56" y1="62.89" x2="74.22" y2="66.60"/>
    <line x1="30.27" y1="51.37" x2="32.81" y2="56.45"/>
    <line x1="55.66" y1="68.55" x2="60.55" y2="70.51"/>
    <line x1="84.38" y1="55.86" x2="87.11" y2="56.84"/>
    <line x1="68.75" y1="48.05" x2="71.29" y2="52.15"/>
    <line x1="77.15" y1="59.57" x2="81.45" y2="63.09"/>
    <line x1="81.84" y1="51.95" x2="77.34" y2="54.30"/>
    <line x1="30.86" y1="23.05" x2="27.34" y2="25.00"/>
    <line x1="81.84" y1="51.95" x2="84.38" y2="55.86"/>
    <line x1="49.41" y1="20.12" x2="50.98" y2="23.44"/>
    <line x1="22.46" y1="27.15" x2="25.78" y2="29.49"/>
    <line x1="27.54" y1="42.58" x2="25.39" y2="44.53"/>
    <line x1="32.03" y1="58.79" x2="27.15" y2="58.98"/>
    <line x1="81.45" y1="73.63" x2="84.18" y2="74.61"/>
    <line x1="10.94" y1="36.52" x2="13.67" y2="37.70"/>
    <line x1="74.61" y1="70.51" x2="73.44" y2="73.63"/>
    <line x1="72.46" y1="77.93" x2="75.00" y2="77.93"/>
    <line x1="44.14" y1="44.14" x2="46.48" y2="46.29"/>
    <line x1="25.39" y1="44.53" x2="25.59" y2="50.39"/>
    <line x1="38.67" y1="16.41" x2="37.30" y2="22.07"/>
    <line x1="67.19" y1="71.88" x2="64.65" y2="75.20"/>
    <line x1="32.03" y1="48.05" x2="34.38" y2="48.05"/>
    <line x1="30.27" y1="51.37" x2="29.49" y2="55.27"/>
    <line x1="36.72" y1="29.30" x2="40.04" y2="30.08"/>
    <line x1="55.66" y1="68.55" x2="53.12" y2="68.95"/>
    <line x1="37.30" y1="22.07" x2="40.82" y2="26.76"/>
    <line x1="40.04" y1="30.08" x2="42.58" y2="31.45"/>
    <line x1="62.70" y1="32.23" x2="63.48" y2="34.96"/>
    <line x1="57.03" y1="36.13" x2="54.49" y2="41.41"/>
    <line x1="25.59" y1="50.39" x2="30.27" y2="51.37"/>
    <line x1="45.90" y1="51.37" x2="49.02" y2="54.10"/>
    <line x1="59.77" y1="75.78" x2="57.03" y2="77.15"/>
    <line x1="46.48" y1="63.09" x2="49.61" y2="65.43"/>
    <line x1="73.44" y1="73.63" x2="75.20" y2="75.59"/>
    <line x1="16.60" y1="31.45" x2="15.04" y2="34.18"/>
    <line x1="83.59" y1="44.92" x2="79.69" y2="47.27"/>
    <line x1="41.02" y1="50.39" x2="45.90" y2="51.37"/>
    <line x1="55.66" y1="48.44" x2="55.08" y2="50.78"/>
    <line x1="55.08" y1="54.49" x2="58.01" y2="58.01"/>
    <line x1="75.20" y1="45.51" x2="77.54" y2="50.00"/>
    <line x1="55.86" y1="32.03" x2="51.56" y2="33.40"/>
    <line x1="45.51" y1="41.21" x2="46.48" y2="46.29"/>
    <line x1="50.98" y1="23.44" x2="53.71" y2="27.54"/>
    <line x1="30.27" y1="51.37" x2="34.57" y2="52.54"/>
    <line x1="27.93" y1="21.09" x2="30.86" y2="23.05"/>
    <line x1="30.27" y1="51.37" x2="25.20" y2="54.69"/>
    <line x1="76.56" y1="62.89" x2="81.45" y2="63.09"/>
    <line x1="63.48" y1="34.96" x2="64.06" y2="37.89"/>
    <line x1="37.30" y1="22.07" x2="40.62" y2="24.02"/>
    <line x1="50.00" y1="55.86" x2="46.09" y2="59.57"/>
    <line x1="39.26" y1="54.10" x2="42.77" y2="54.69"/>
    <line x1="45.90" y1="51.37" x2="42.77" y2="54.69"/>
    <line x1="23.63" y1="17.38" x2="23.83" y2="20.90"/>
    <line x1="59.77" y1="75.78" x2="60.55" y2="79.10"/>
    <line x1="22.07" y1="32.62" x2="22.27" y2="37.11"/>
    <line x1="17.77" y1="36.33" x2="22.27" y2="37.11"/>
    <line x1="75.20" y1="45.51" x2="79.69" y2="47.27"/>
    <line x1="80.66" y1="58.20" x2="77.15" y2="59.57"/>
    <line x1="57.62" y1="66.41" x2="60.55" y2="70.51"/>
    <line x1="32.81" y1="56.45" x2="32.03" y2="58.79"/>
    <line x1="74.61" y1="70.51" x2="78.71" y2="73.05"/>
    <line x1="45.51" y1="41.21" x2="44.14" y2="44.14"/>
    <line x1="45.51" y1="41.21" x2="49.80" y2="45.51"/>
    <line x1="61.33" y1="45.70" x2="59.38" y2="47.66"/>
    <line x1="59.38" y1="47.66" x2="63.28" y2="48.44"/>
    <line x1="61.33" y1="45.70" x2="63.28" y2="48.44"/>
    <line x1="81.25" y1="66.99" x2="79.69" y2="69.34"/>
    <line x1="59.38" y1="47.66" x2="57.42" y2="50.39"/>
    <line x1="18.75" y1="31.45" x2="22.07" y2="32.62"/>
    <line x1="55.08" y1="24.61" x2="53.71" y2="27.54"/>
    <line x1="71.68" y1="71.48" x2="73.44" y2="73.63"/>
    <line x1="11.91" y1="30.86" x2="10.94" y2="36.52"/>
    <line x1="25.59" y1="50.39" x2="20.90" y2="51.37"/>
    <line x1="58.01" y1="58.01" x2="60.74" y2="59.96"/>
    <line x1="59.77" y1="75.78" x2="62.89" y2="76.37"/>
    <line x1="49.41" y1="20.12" x2="47.07" y2="21.88"/>
    <line x1="70.90" y1="46.88" x2="71.09" y2="47.27"/>
    <line x1="26.56" y1="33.59" x2="22.27" y2="37.11"/>
    <line x1="49.80" y1="40.23" x2="54.49" y2="41.41"/>
    <line x1="40.82" y1="26.76" x2="43.36" y2="29.10"/>
    <line x1="84.96" y1="63.28" x2="83.40" y2="67.58"/>
    <line x1="61.13" y1="66.99" x2="60.55" y2="70.51"/>
    <line x1="26.76" y1="38.87" x2="21.09" y2="41.02"/>
    <line x1="44.14" y1="44.14" x2="41.99" y2="46.48"/>
    <line x1="55.86" y1="32.03" x2="57.03" y2="36.13"/>
    <line x1="57.42" y1="50.39" x2="58.40" y2="54.88"/>
    <line x1="46.48" y1="31.84" x2="46.09" y2="37.11"/>
    <line x1="58.40" y1="54.88" x2="58.01" y2="58.01"/>
    <line x1="72.07" y1="42.19" x2="68.95" y2="44.14"/>
    <line x1="43.16" y1="57.23" x2="43.16" y2="59.77"/>
    <line x1="19.73" y1="48.63" x2="18.16" y2="52.34"/>
    <line x1="72.07" y1="42.19" x2="75.20" y2="45.51"/>
    <line x1="29.49" y1="55.27" x2="27.15" y2="58.98"/>
    <line x1="75.20" y1="75.59" x2="75.00" y2="77.93"/>
    <line x1="76.56" y1="62.89" x2="77.15" y2="66.21"/>
    <line x1="50.00" y1="55.86" x2="51.95" y2="57.23"/>
    <line x1="46.48" y1="46.29" x2="45.90" y2="51.37"/>
    <line x1="77.15" y1="59.57" x2="76.56" y2="62.89"/>
    <line x1="23.63" y1="17.38" x2="19.34" y2="20.51"/>
    <line x1="22.07" y1="32.62" x2="26.56" y2="33.59"/>
    <line x1="55.08" y1="54.49" x2="58.40" y2="54.88"/>
    <line x1="75.20" y1="45.51" x2="71.09" y2="47.27"/>
    <line x1="26.56" y1="33.59" x2="26.76" y2="38.87"/>
    <line x1="54.30" y1="58.40" x2="58.20" y2="62.50"/>
    <line x1="21.09" y1="41.02" x2="21.68" y2="46.48"/>
    <line x1="79.69" y1="69.34" x2="81.25" y2="70.12"/>
    <line x1="40.04" y1="61.33" x2="41.60" y2="64.26"/>
    <line x1="42.19" y1="20.12" x2="40.62" y2="24.02"/>
    <line x1="40.82" y1="26.76" x2="40.04" y2="30.08"/>
    <line x1="79.69" y1="47.27" x2="77.54" y2="50.00"/>
    <line x1="81.84" y1="48.44" x2="77.54" y2="50.00"/>
    <line x1="46.29" y1="56.25" x2="46.09" y2="59.57"/>
    <line x1="25.39" y1="44.53" x2="29.69" y2="45.51"/>
    <line x1="90.23" y1="61.52" x2="87.50" y2="62.50"/>
    <line x1="57.03" y1="77.15" x2="60.55" y2="79.10"/>
    <line x1="50.98" y1="23.44" x2="55.08" y2="24.61"/>
    <line x1="34.57" y1="16.80" x2="36.33" y2="17.58"/>
    <line x1="23.83" y1="20.90" x2="25.78" y2="23.44"/>
    <line x1="46.09" y1="37.11" x2="49.80" y2="40.23"/>
    <line x1="58.40" y1="54.88" x2="60.74" y2="54.88"/>
    <line x1="73.83" y1="53.52" x2="75.78" y2="56.05"/>
    <line x1="50.00" y1="55.86" x2="46.29" y2="56.25"/>
    <line x1="37.89" y1="48.44" x2="41.02" y2="50.39"/>
    <line x1="57.23" y1="42.97" x2="58.20" y2="44.73"/>
    <line x1="60.55" y1="51.95" x2="63.48" y2="53.71"/>
    <line x1="21.09" y1="41.02" x2="17.77" y2="44.34"/>
    <line x1="57.62" y1="66.41" x2="55.66" y2="68.55"/>
    <line x1="46.09" y1="59.57" x2="43.16" y2="59.77"/>
    <line x1="81.84" y1="48.44" x2="81.84" y2="51.95"/>
    <line x1="62.50" y1="74.61" x2="64.65" y2="75.20"/>
    <line x1="46.48" y1="31.84" x2="44.53" y2="33.98"/>
    <line x1="25.78" y1="29.49" x2="22.07" y2="32.62"/>
    <line x1="34.57" y1="16.80" x2="33.59" y2="20.31"/>
    <line x1="17.77" y1="44.34" x2="21.68" y2="46.48"/>
    <line x1="17.77" y1="44.34" x2="17.19" y2="48.83"/>
    <line x1="35.35" y1="13.67" x2="34.57" y2="16.80"/>
    <line x1="29.49" y1="55.27" x2="32.03" y2="58.79"/>
    <line x1="34.18" y1="29.49" x2="29.10" y2="32.81"/>
    <line x1="46.48" y1="46.29" x2="41.99" y2="46.48"/>
    <line x1="75.20" y1="75.59" x2="72.46" y2="77.93"/>
    <line x1="58.98" y1="32.42" x2="57.03" y2="36.13"/>
    <line x1="77.54" y1="50.00" x2="77.34" y2="54.30"/>
    <line x1="58.20" y1="44.73" x2="59.38" y2="47.66"/>
    <line x1="70.31" y1="68.16" x2="74.61" y2="70.51"/>
    <line x1="54.30" y1="23.05" x2="50.98" y2="23.44"/>
    <line x1="52.15" y1="18.16" x2="50.98" y2="23.44"/>
    <line x1="59.96" y1="35.94" x2="58.01" y2="40.23"/>
    <line x1="77.34" y1="54.30" x2="80.66" y2="58.20"/>
    <line x1="77.15" y1="66.21" x2="79.69" y2="69.34"/>
    <line x1="54.30" y1="58.40" x2="54.30" y2="62.50"/>
    <line x1="78.71" y1="73.05" x2="75.00" y2="77.93"/>
    <line x1="25.78" y1="23.44" x2="20.70" y2="23.83"/>
    <line x1="57.42" y1="50.39" x2="60.55" y2="51.95"/>
    <line x1="66.99" y1="67.97" x2="67.19" y2="71.88"/>
    <line x1="62.50" y1="74.61" x2="62.89" y2="76.37"/>
    <line x1="73.83" y1="53.52" x2="77.34" y2="54.30"/>
    <line x1="27.93" y1="34.96" x2="26.76" y2="38.87"/>
    <line x1="11.91" y1="30.86" x2="16.60" y2="31.45"/>
    <line x1="71.09" y1="39.06" x2="70.12" y2="41.80"/>
    <line x1="77.34" y1="54.30" x2="81.05" y2="55.08"/>
    <line x1="52.15" y1="18.16" x2="56.64" y2="21.88"/>
    <line x1="59.96" y1="35.94" x2="61.13" y2="38.87"/>
    <line x1="77.15" y1="66.21" x2="74.61" y2="70.51"/>
    <line x1="74.61" y1="39.65" x2="72.07" y2="42.19"/>
    <line x1="51.56" y1="50.39" x2="55.08" y2="50.78"/>
    <line x1="41.21" y1="13.48" x2="41.80" y2="16.41"/>
    <line x1="83.40" y1="67.58" x2="81.25" y2="70.12"/>
    <line x1="60.74" y1="59.96" x2="61.72" y2="63.87"/>
    <line x1="42.19" y1="20.12" x2="37.30" y2="22.07"/>
    <line x1="19.34" y1="20.51" x2="23.83" y2="20.90"/>
    <line x1="19.34" y1="20.51" x2="20.70" y2="23.83"/>
    <line x1="15.23" y1="46.29" x2="17.19" y2="48.83"/>
    <line x1="87.11" y1="56.84" x2="87.11" y2="59.38"/>
    <line x1="25.78" y1="29.49" x2="30.66" y2="30.66"/>
    <line x1="52.54" y1="66.21" x2="50.98" y2="69.34"/>
    <line x1="33.79" y1="25.39" x2="36.72" y2="29.30"/>
    <line x1="67.58" y1="51.76" x2="71.29" y2="52.15"/>
    <line x1="61.13" y1="41.41" x2="61.33" y2="45.70"/>
    <line x1="58.20" y1="62.50" x2="57.62" y2="66.41"/>
    <line x1="17.77" y1="44.34" x2="19.73" y2="48.63"/>
    <line x1="43.16" y1="59.77" x2="41.60" y2="64.26"/>
    <line x1="77.54" y1="50.00" x2="81.84" y2="51.95"/>
    <line x1="58.20" y1="44.73" x2="56.25" y2="45.90"/>
    <line x1="87.50" y1="62.50" x2="84.96" y2="63.28"/>
    <line x1="58.59" y1="72.46" x2="57.81" y2="74.41"/>
    <line x1="84.38" y1="59.77" x2="87.50" y2="62.50"/>
    <line x1="38.67" y1="58.40" x2="40.04" y2="61.33"/>
    <line x1="56.64" y1="21.88" x2="55.08" y2="24.61"/>
    <line x1="77.15" y1="66.21" x2="74.22" y2="66.60"/>
    <line x1="49.80" y1="45.51" x2="46.48" y2="46.29"/>
    <line x1="64.26" y1="66.80" x2="61.13" y2="66.99"/>
    <line x1="71.29" y1="52.15" x2="75.78" y2="56.05"/>
    <line x1="51.56" y1="50.39" x2="45.90" y2="51.37"/>
    <line x1="81.25" y1="70.12" x2="78.71" y2="73.05"/>
    <line x1="57.81" y1="74.41" x2="59.77" y2="75.78"/>
    <line x1="46.29" y1="56.25" x2="43.16" y2="57.23"/>
    <line x1="68.95" y1="44.14" x2="70.90" y2="46.88"/>
    <line x1="42.77" y1="54.69" x2="46.29" y2="56.25"/>
    <line x1="17.19" y1="48.83" x2="15.04" y2="53.52"/>
    <line x1="50.98" y1="53.52" x2="51.95" y2="57.23"/>
    <line x1="87.11" y1="56.84" x2="84.38" y2="59.77"/>
    <line x1="63.28" y1="48.44" x2="67.58" y2="51.76"/>
    <line x1="33.79" y1="25.39" x2="30.66" y2="30.66"/>
    <line x1="54.30" y1="35.94" x2="54.49" y2="41.41"/>
    <line x1="61.13" y1="41.41" x2="58.20" y2="44.73"/>
    <line x1="29.30" y1="32.42" x2="26.56" y2="33.59"/>
    <line x1="25.78" y1="29.49" x2="26.56" y2="33.59"/>
    <line x1="63.28" y1="48.44" x2="63.48" y2="53.71"/>
    <line x1="41.80" y1="16.41" x2="42.19" y2="20.12"/>
    <line x1="32.03" y1="48.05" x2="34.57" y2="52.54"/>
    <line x1="15.04" y1="34.18" x2="17.77" y2="36.33"/>
    <line x1="47.07" y1="21.88" x2="46.88" y2="25.59"/>
    <line x1="53.12" y1="68.95" x2="50.98" y2="69.34"/>
    <line x1="64.65" y1="75.20" x2="62.89" y2="76.37"/>
    <line x1="38.67" y1="58.40" x2="43.16" y2="59.77"/>
    <line x1="56.64" y1="21.88" x2="54.30" y2="23.05"/>
    <line x1="74.22" y1="66.60" x2="74.61" y2="70.51"/>
    <line x1="29.69" y1="45.51" x2="30.27" y2="51.37"/>
    <line x1="81.45" y1="63.09" x2="84.96" y2="63.28"/>
    <line x1="84.38" y1="59.77" x2="84.96" y2="63.28"/>
    <line x1="22.46" y1="27.15" x2="22.07" y2="32.62"/>
    <line x1="54.30" y1="23.05" x2="55.08" y2="24.61"/>
    <line x1="71.29" y1="52.15" x2="73.83" y2="53.52"/>
    <line x1="22.27" y1="37.11" x2="21.09" y2="41.02"/>
    <line x1="55.08" y1="50.78" x2="55.08" y2="54.49"/>
    <line x1="61.72" y1="63.87" x2="61.13" y2="66.99"/>
    <line x1="71.09" y1="47.27" x2="72.66" y2="50.20"/>
    <line x1="75.78" y1="56.05" x2="77.15" y2="59.57"/>
    <line x1="81.25" y1="70.12" x2="82.81" y2="71.29"/>
    <line x1="78.71" y1="73.05" x2="75.20" y2="75.59"/>
    <line x1="83.40" y1="67.58" x2="85.35" y2="69.92"/>
    <line x1="41.21" y1="13.48" x2="38.67" y2="16.41"/>
    <line x1="23.63" y1="61.33" x2="28.91" y2="63.48"/>
    <line x1="42.77" y1="54.69" x2="43.16" y2="57.23"/>
    <line x1="54.30" y1="62.50" x2="52.54" y2="66.21"/>
    <line x1="52.54" y1="66.21" x2="57.62" y2="66.41"/>
    <line x1="71.48" y1="74.80" x2="69.53" y2="78.52"/>
    <line x1="52.54" y1="66.21" x2="53.12" y2="68.95"/>
    <line x1="25.78" y1="29.49" x2="29.30" y2="32.42"/>
    <line x1="82.81" y1="71.29" x2="86.52" y2="71.29"/>
    <line x1="82.81" y1="71.29" x2="84.18" y2="74.61"/>
    <line x1="15.04" y1="34.18" x2="13.67" y2="37.70"/>
    <line x1="34.38" y1="48.05" x2="37.89" y2="48.44"/>
    <line x1="39.26" y1="54.10" x2="38.67" y2="58.40"/>
    <line x1="21.68" y1="46.48" x2="20.90" y2="51.37"/>
    <line x1="52.15" y1="18.16" x2="49.41" y2="20.12"/>
    <line x1="16.80" y1="39.06" x2="17.77" y2="44.34"/>
    <line x1="64.65" y1="75.20" x2="69.53" y2="78.52"/>
    <line x1="13.67" y1="37.70" x2="16.80" y2="39.06"/>
    <line x1="53.71" y1="27.54" x2="55.86" y2="32.03"/>
    <line x1="83.40" y1="67.58" x2="82.81" y2="71.29"/>
    <line x1="58.01" y1="40.23" x2="57.23" y2="42.97"/>
    <line x1="38.67" y1="16.41" x2="36.33" y2="17.58"/>
    <line x1="27.15" y1="58.98" x2="28.91" y2="63.48"/>
    <line x1="68.95" y1="44.14" x2="68.75" y2="48.05"/>
    <line x1="71.48" y1="74.80" x2="68.36" y2="75.98"/>
    <line x1="67.19" y1="71.88" x2="71.48" y2="74.80"/>
    <line x1="74.80" y1="80.47" x2="70.70" y2="81.25"/>
    <line x1="36.72" y1="29.30" x2="34.18" y2="29.49"/>
    <line x1="61.13" y1="41.41" x2="63.87" y2="44.53"/>
    <line x1="87.11" y1="59.38" x2="90.23" y2="61.52"/>
    <line x1="58.20" y1="62.50" x2="61.72" y2="63.87"/>
    <line x1="43.16" y1="59.77" x2="46.48" y2="63.09"/>
    <line x1="63.87" y1="44.53" x2="61.33" y2="45.70"/>
    <line x1="46.48" y1="63.09" x2="41.60" y2="64.26"/>
    <line x1="81.05" y1="55.08" x2="80.66" y2="58.20"/>
    <line x1="29.10" y1="32.81" x2="26.56" y2="33.59"/>
    <line x1="55.66" y1="48.44" x2="57.42" y2="50.39"/>
    <line x1="49.02" y1="54.10" x2="50.00" y2="55.86"/>
    <line x1="80.66" y1="58.20" x2="81.45" y2="63.09"/>
    <line x1="71.09" y1="47.27" x2="68.75" y2="48.05"/>
    <line x1="64.26" y1="66.80" x2="66.99" y2="67.97"/>
    <line x1="72.46" y1="77.93" x2="74.80" y2="80.47"/>
    <line x1="61.72" y1="63.87" x2="64.26" y2="66.80"/>
    <line x1="44.53" y1="33.98" x2="46.09" y2="37.11"/>
    <line x1="58.01" y1="40.23" x2="61.13" y2="41.41"/>
    <line x1="61.72" y1="56.45" x2="58.01" y2="58.01"/>
    <line x1="50.98" y1="53.52" x2="55.08" y2="54.49"/>
    <line x1="75.00" y1="77.93" x2="75.00" y2="80.86"/>
    <line x1="67.19" y1="71.88" x2="68.36" y2="75.98"/>
    <line x1="87.11" y1="59.38" x2="84.38" y2="59.77"/>
    <line x1="54.49" y1="41.41" x2="52.54" y2="44.53"/>
    <line x1="63.87" y1="44.53" x2="66.21" y2="46.29"/>
    <line x1="45.90" y1="51.37" x2="46.29" y2="56.25"/>
    <line x1="21.68" y1="46.48" x2="19.73" y2="48.63"/>
    <line x1="30.66" y1="30.66" x2="29.30" y2="32.42"/>
    <line x1="55.08" y1="54.49" x2="54.30" y2="58.40"/>
    <line x1="32.03" y1="58.79" x2="30.47" y2="61.13"/>
    <line x1="55.08" y1="50.78" x2="50.98" y2="53.52"/>
    <line x1="20.70" y1="23.83" x2="22.46" y2="27.15"/>
    <line x1="60.74" y1="54.88" x2="58.01" y2="58.01"/>
    <line x1="27.15" y1="58.98" x2="23.63" y2="61.33"/>
    <line x1="43.36" y1="29.10" x2="46.48" y2="31.84"/>
    <line x1="17.19" y1="48.83" x2="18.16" y2="52.34"/>
    <line x1="52.54" y1="44.53" x2="49.80" y2="45.51"/>
    <line x1="74.80" y1="80.47" x2="75.00" y2="80.86"/>
    <line x1="49.61" y1="65.43" x2="52.54" y2="66.21"/>
    <line x1="54.49" y1="41.41" x2="57.23" y2="42.97"/>
    <line x1="37.30" y1="22.07" x2="33.79" y2="25.39"/>
    <line x1="46.48" y1="63.09" x2="51.95" y2="64.06"/>
    <line x1="25.59" y1="50.39" x2="25.20" y2="54.69"/>
    <line x1="29.69" y1="45.51" x2="34.38" y2="48.05"/>
    <line x1="39.26" y1="54.10" x2="43.16" y2="57.23"/>
    <line x1="37.89" y1="48.44" x2="39.26" y2="54.10"/>
    <line x1="73.44" y1="73.63" x2="71.48" y2="74.80"/>
    <line x1="49.80" y1="40.23" x2="45.51" y2="41.21"/>
    <line x1="55.66" y1="48.44" x2="51.56" y2="50.39"/>
    <line x1="36.33" y1="17.58" x2="37.30" y2="22.07"/>
    <line x1="58.01" y1="40.23" x2="54.49" y2="41.41"/>
    <line x1="59.38" y1="47.66" x2="57.62" y2="48.05"/>
    <line x1="81.25" y1="66.99" x2="83.40" y2="67.58"/>
    <line x1="33.59" y1="20.31" x2="27.93" y2="21.09"/>
    <line x1="54.30" y1="62.50" x2="58.20" y2="62.50"/>
    <line x1="54.30" y1="35.94" x2="57.03" y2="36.13"/>
    <line x1="72.66" y1="50.20" x2="73.83" y2="53.52"/>
    <line x1="27.93" y1="21.09" x2="27.34" y2="25.00"/>
    <line x1="72.07" y1="42.19" x2="70.90" y2="46.88"/>
    <line x1="66.21" y1="46.29" x2="63.28" y2="48.44"/>
    <line x1="27.34" y1="25.00" x2="25.78" y2="29.49"/>
    <line x1="84.38" y1="55.86" x2="80.66" y2="58.20"/>
    <line x1="55.66" y1="68.55" x2="58.59" y2="72.46"/>
    <line x1="61.13" y1="38.87" x2="58.01" y2="40.23"/>
    <line x1="54.49" y1="41.41" x2="56.25" y2="45.90"/>
    <line x1="68.75" y1="48.05" x2="67.58" y2="51.76"/>
    <line x1="37.89" y1="48.44" x2="34.57" y2="52.54"/>
    <line x1="22.07" y1="32.62" x2="17.77" y2="36.33"/>
    <line x1="81.84" y1="51.95" x2="81.05" y2="55.08"/>
    <line x1="16.80" y1="39.06" x2="21.09" y2="41.02"/>
    <line x1="57.62" y1="66.41" x2="61.13" y2="66.99"/>
    <line x1="83.59" y1="44.92" x2="81.84" y2="48.44"/>
    <line x1="32.81" y1="56.45" x2="38.67" y2="58.40"/>
    <line x1="79.69" y1="69.34" x2="78.71" y2="73.05"/>
    <line x1="32.03" y1="47.27" x2="34.38" y2="48.05"/>
    <line x1="51.37" y1="27.93" x2="51.56" y2="33.40"/>
    <line x1="25.39" y1="44.53" x2="21.68" y2="46.48"/>
    <line x1="63.48" y1="53.71" x2="60.74" y2="54.88"/>
    <line x1="43.36" y1="29.10" x2="42.58" y2="31.45"/>
    <line x1="57.62" y1="48.05" x2="57.42" y2="50.39"/>
    <line x1="72.66" y1="50.20" x2="71.29" y2="52.15"/>
    <line x1="27.93" y1="21.09" x2="25.78" y2="23.44"/>
    <line x1="63.48" y1="34.96" x2="59.96" y2="35.94"/>
    <line x1="66.21" y1="46.29" x2="68.75" y2="48.05"/>
    <line x1="27.34" y1="25.00" x2="22.46" y2="27.15"/>
    <line x1="61.13" y1="38.87" x2="61.13" y2="41.41"/>
    <line x1="57.03" y1="36.13" x2="58.01" y2="40.23"/>
    <line x1="70.31" y1="68.16" x2="67.19" y2="71.88"/>
    <line x1="16.60" y1="31.45" x2="18.75" y2="31.45"/>
    <line x1="17.77" y1="36.33" x2="13.67" y2="37.70"/>
    <line x1="16.60" y1="31.45" x2="17.77" y2="36.33"/>
    <line x1="83.59" y1="44.92" x2="86.33" y2="48.05"/>
    <line x1="17.77" y1="36.33" x2="21.09" y2="41.02"/>
    <line x1="60.55" y1="51.95" x2="60.74" y2="54.88"/>
    <line x1="55.08" y1="54.49" x2="51.95" y2="57.23"/>
    <line x1="80.66" y1="58.20" x2="84.38" y2="59.77"/>
    <line x1="34.57" y1="52.54" x2="32.81" y2="56.45"/>
    <line x1="55.86" y1="32.03" x2="58.98" y2="32.42"/>
    <line x1="55.86" y1="32.03" x2="54.30" y2="35.94"/>
    <line x1="23.83" y1="20.90" x2="27.93" y2="21.09"/>
    <line x1="50.98" y1="23.44" x2="46.88" y2="25.59"/>
    <line x1="60.74" y1="54.88" x2="61.72" y2="56.45"/>
    <line x1="81.25" y1="66.99" x2="81.25" y2="70.12"/>
    <line x1="46.09" y1="37.11" x2="45.51" y2="41.21"/>
    <line x1="43.36" y1="29.10" x2="40.04" y2="30.08"/>
    <line x1="43.16" y1="57.23" x2="46.09" y2="59.57"/>
    <line x1="52.54" y1="44.53" x2="56.25" y2="45.90"/>
    <line x1="58.98" y1="32.42" x2="59.96" y2="35.94"/>
    <line x1="11.91" y1="30.86" x2="15.04" y2="34.18"/>
    <line x1="68.75" y1="48.05" x2="72.66" y2="50.20"/>
    <line x1="77.34" y1="54.30" x2="75.78" y2="56.05"/>
    <line x1="26.56" y1="33.59" x2="27.93" y2="34.96"/>
    <line x1="17.77" y1="36.33" x2="16.80" y2="39.06"/>
    <line x1="34.57" y1="52.54" x2="39.26" y2="54.10"/>
    <line x1="75.20" y1="45.51" x2="70.90" y2="46.88"/>
    <line x1="75.20" y1="45.51" x2="72.66" y2="50.20"/>
    <line x1="74.61" y1="70.51" x2="71.68" y2="71.48"/>
    <line x1="81.84" y1="48.44" x2="84.18" y2="50.98"/>
    <line x1="50.98" y1="23.44" x2="51.37" y2="27.93"/>
    <line x1="69.53" y1="78.52" x2="70.70" y2="81.25"/>
    <line x1="19.73" y1="48.63" x2="17.19" y2="48.83"/>
    <line x1="57.62" y1="48.05" x2="55.66" y2="48.44"/>
    <line x1="43.16" y1="57.23" x2="38.67" y2="58.40"/>
    <line x1="19.73" y1="48.63" x2="20.90" y2="51.37"/>
    <line x1="29.49" y1="55.27" x2="24.80" y2="57.42"/>
    <line x1="71.68" y1="71.48" x2="67.19" y2="71.88"/>
    <line x1="68.75" y1="48.05" x2="63.28" y2="48.44"/>
    <line x1="58.20" y1="44.73" x2="57.62" y2="48.05"/>
    <line x1="70.31" y1="68.16" x2="71.68" y2="71.48"/>
    <line x1="46.88" y1="25.59" x2="40.82" y2="26.76"/>
    <line x1="23.63" y1="17.38" x2="27.93" y2="21.09"/>
    <line x1="58.01" y1="58.01" x2="58.20" y2="62.50"/>
    <line x1="70.90" y1="46.88" x2="68.75" y2="48.05"/>
    <line x1="60.55" y1="51.95" x2="58.40" y2="54.88"/>
    <line x1="25.78" y1="23.44" x2="27.34" y2="25.00"/>
    <line x1="79.69" y1="69.34" x2="74.61" y2="70.51"/>
    <line x1="57.42" y1="50.39" x2="55.08" y2="50.78"/>
    <line x1="26.76" y1="38.87" x2="27.54" y2="42.58"/>
    <line x1="57.42" y1="50.39" x2="55.08" y2="54.49"/>
    <line x1="46.48" y1="31.84" x2="51.56" y2="33.40"/>
    <line x1="23.83" y1="20.90" x2="20.70" y2="23.83"/>
    <line x1="29.49" y1="55.27" x2="32.81" y2="56.45"/>
    <line x1="72.07" y1="42.19" x2="74.80" y2="42.77"/>
    <line x1="35.35" y1="13.67" x2="38.67" y2="16.41"/>
    <line x1="34.18" y1="29.49" x2="30.66" y2="30.66"/>
    <line x1="58.20" y1="44.73" x2="61.33" y2="45.70"/>
    <line x1="20.90" y1="51.37" x2="25.20" y2="54.69"/>
    <line x1="52.15" y1="18.16" x2="54.30" y2="23.05"/>
    <line x1="58.01" y1="58.01" x2="54.30" y2="58.40"/>
    <line x1="46.88" y1="25.59" x2="43.36" y2="29.10"/>
    <line x1="81.45" y1="63.09" x2="83.40" y2="67.58"/>
    <line x1="51.56" y1="50.39" x2="50.98" y2="53.52"/>
    <line x1="40.82" y1="26.76" x2="36.72" y2="29.30"/>
    <line x1="25.78" y1="23.44" x2="22.46" y2="27.15"/>
    <line x1="79.69" y1="47.27" x2="81.84" y2="48.44"/>
    <line x1="15.23" y1="46.29" x2="12.50" y2="48.44"/>
    <line x1="62.50" y1="74.61" x2="59.77" y2="75.78"/>
    <line x1="86.52" y1="71.29" x2="84.18" y2="74.61"/>
    <line x1="46.09" y1="59.57" x2="46.48" y2="63.09"/>
    <line x1="51.95" y1="64.06" x2="52.54" y2="66.21"/>
    <line x1="35.35" y1="13.67" x2="36.33" y2="17.58"/>
    <line x1="71.68" y1="71.48" x2="71.48" y2="74.80"/>
    <line x1="34.38" y1="48.05" x2="34.57" y2="52.54"/>
    <line x1="64.65" y1="75.20" x2="68.36" y2="75.98"/>
    <line x1="84.38" y1="59.77" x2="81.45" y2="63.09"/>
    <line x1="77.15" y1="66.21" x2="81.25" y2="66.99"/>
    <line x1="59.96" y1="35.94" x2="64.06" y2="37.89"/>
    <line x1="57.23" y1="42.97" x2="56.25" y2="45.90"/>
    <line x1="41.21" y1="13.48" x2="35.35" y2="13.67"/>
    <line x1="42.19" y1="20.12" x2="47.07" y2="21.88"/>
    <line x1="51.56" y1="50.39" x2="49.02" y2="54.10"/>
    <line x1="62.89" y1="76.37" x2="60.55" y2="79.10"/>
    <line x1="57.81" y1="74.41" x2="57.03" y2="77.15"/>
    <line x1="60.55" y1="70.51" x2="62.50" y2="74.61"/>
    <line x1="52.54" y1="66.21" x2="55.66" y2="68.55"/>
    <line x1="17.77" y1="44.34" x2="15.23" y2="46.29"/>
    <line x1="47.07" y1="21.88" x2="50.98" y2="23.44"/>
    <line x1="71.09" y1="39.06" x2="74.61" y2="39.65"/>
    <line x1="34.18" y1="29.49" x2="29.30" y2="32.42"/>
    <line x1="70.12" y1="41.80" x2="68.95" y2="44.14"/>
    <line x1="20.90" y1="51.37" x2="18.16" y2="52.34"/>
    <line x1="86.33" y1="48.05" x2="84.18" y2="50.98"/>
  </g>
  <g fill="#00B3E3">
    <circle cx="41.21" cy="13.48" r="0.9"/>
    <circle cx="35.35" cy="13.67" r="0.9"/>
    <circle cx="38.67" cy="16.41" r="0.9"/>
    <circle cx="41.80" cy="16.41" r="0.9"/>
    <circle cx="34.57" cy="16.80" r="0.9"/>
    <circle cx="23.63" cy="17.38" r="0.9"/>
    <circle cx="36.33" cy="17.58" r="0.9"/>
    <circle cx="52.15" cy="18.16" r="0.9"/>
    <circle cx="42.19" cy="20.12" r="0.9"/>
    <circle cx="49.41" cy="20.12" r="0.9"/>
    <circle cx="33.59" cy="20.31" r="0.9"/>
    <circle cx="19.34" cy="20.51" r="0.9"/>
    <circle cx="23.83" cy="20.90" r="0.9"/>
    <circle cx="27.93" cy="21.09" r="0.9"/>
    <circle cx="47.07" cy="21.88" r="0.9"/>
    <circle cx="56.64" cy="21.88" r="0.9"/>
    <circle cx="37.30" cy="22.07" r="0.9"/>
    <circle cx="30.86" cy="23.05" r="0.9"/>
    <circle cx="54.30" cy="23.05" r="0.9"/>
    <circle cx="25.78" cy="23.44" r="0.9"/>
    <circle cx="50.98" cy="23.44" r="0.9"/>
    <circle cx="20.70" cy="23.83" r="0.9"/>
    <circle cx="40.62" cy="24.02" r="0.9"/>
    <circle cx="55.08" cy="24.61" r="0.9"/>
    <circle cx="27.34" cy="25.00" r="0.9"/>
    <circle cx="33.79" cy="25.39" r="0.9"/>
    <circle cx="46.88" cy="25.59" r="0.9"/>
    <circle cx="40.82" cy="26.76" r="0.9"/>
    <circle cx="22.46" cy="27.15" r="0.9"/>
    <circle cx="53.71" cy="27.54" r="0.9"/>
    <circle cx="51.37" cy="27.93" r="0.9"/>
    <circle cx="43.36" cy="29.10" r="0.9"/>
    <circle cx="36.72" cy="29.30" r="0.9"/>
    <circle cx="25.78" cy="29.49" r="0.9"/>
    <circle cx="34.18" cy="29.49" r="0.9"/>
    <circle cx="40.04" cy="30.08" r="0.9"/>
    <circle cx="30.66" cy="30.66" r="0.9"/>
    <circle cx="11.91" cy="30.86" r="0.9"/>
    <circle cx="16.60" cy="31.45" r="0.9"/>
    <circle cx="18.75" cy="31.45" r="0.9"/>
    <circle cx="42.58" cy="31.45" r="0.9"/>
    <circle cx="46.48" cy="31.84" r="0.9"/>
    <circle cx="55.86" cy="32.03" r="0.9"/>
    <circle cx="62.70" cy="32.23" r="0.9"/>
    <circle cx="29.30" cy="32.42" r="0.9"/>
    <circle cx="58.98" cy="32.42" r="0.9"/>
    <circle cx="22.07" cy="32.62" r="0.9"/>
    <circle cx="29.10" cy="32.81" r="0.9"/>
    <circle cx="51.56" cy="33.40" r="0.9"/>
    <circle cx="26.56" cy="33.59" r="0.9"/>
    <circle cx="44.53" cy="33.98" r="0.9"/>
    <circle cx="15.04" cy="34.18" r="0.9"/>
    <circle cx="27.93" cy="34.96" r="0.9"/>
    <circle cx="63.48" cy="34.96" r="0.9"/>
    <circle cx="54.30" cy="35.94" r="0.9"/>
    <circle cx="59.96" cy="35.94" r="0.9"/>
    <circle cx="57.03" cy="36.13" r="0.9"/>
    <circle cx="17.77" cy="36.33" r="0.9"/>
    <circle cx="10.94" cy="36.52" r="0.9"/>
    <circle cx="22.27" cy="37.11" r="0.9"/>
    <circle cx="46.09" cy="37.11" r="0.9"/>
    <circle cx="13.67" cy="37.70" r="0.9"/>
    <circle cx="64.06" cy="37.89" r="0.9"/>
    <circle cx="26.76" cy="38.87" r="0.9"/>
    <circle cx="61.13" cy="38.87" r="0.9"/>
    <circle cx="16.80" cy="39.06" r="0.9"/>
    <circle cx="71.09" cy="39.06" r="0.9"/>
    <circle cx="74.61" cy="39.65" r="0.9"/>
    <circle cx="49.80" cy="40.23" r="0.9"/>
    <circle cx="58.01" cy="40.23" r="0.9"/>
    <circle cx="21.09" cy="41.02" r="0.9"/>
    <circle cx="45.51" cy="41.21" r="0.9"/>
    <circle cx="54.49" cy="41.41" r="0.9"/>
    <circle cx="61.13" cy="41.41" r="0.9"/>
    <circle cx="70.12" cy="41.80" r="0.9"/>
    <circle cx="72.07" cy="42.19" r="0.9"/>
    <circle cx="27.54" cy="42.58" r="0.9"/>
    <circle cx="74.80" cy="42.77" r="0.9"/>
    <circle cx="57.23" cy="42.97" r="0.9"/>
    <circle cx="44.14" cy="44.14" r="0.9"/>
    <circle cx="68.95" cy="44.14" r="0.9"/>
    <circle cx="17.77" cy="44.34" r="0.9"/>
    <circle cx="25.39" cy="44.53" r="0.9"/>
    <circle cx="52.54" cy="44.53" r="0.9"/>
    <circle cx="63.87" cy="44.53" r="0.9"/>
    <circle cx="58.20" cy="44.73" r="0.9"/>
    <circle cx="83.59" cy="44.92" r="0.9"/>
    <circle cx="29.69" cy="45.51" r="0.9"/>
    <circle cx="49.80" cy="45.51" r="0.9"/>
    <circle cx="75.20" cy="45.51" r="0.9"/>
    <circle cx="61.33" cy="45.70" r="0.9"/>
    <circle cx="56.25" cy="45.90" r="0.9"/>
    <circle cx="15.23" cy="46.29" r="0.9"/>
    <circle cx="46.48" cy="46.29" r="0.9"/>
    <circle cx="66.21" cy="46.29" r="0.9"/>
    <circle cx="21.68" cy="46.48" r="0.9"/>
    <circle cx="41.99" cy="46.48" r="0.9"/>
    <circle cx="70.90" cy="46.88" r="0.9"/>
    <circle cx="32.03" cy="47.27" r="0.9"/>
    <circle cx="71.09" cy="47.27" r="0.9"/>
    <circle cx="79.69" cy="47.27" r="0.9"/>
    <circle cx="59.38" cy="47.66" r="0.9"/>
    <circle cx="32.03" cy="48.05" r="0.9"/>
    <circle cx="34.38" cy="48.05" r="0.9"/>
    <circle cx="57.62" cy="48.05" r="0.9"/>
    <circle cx="68.75" cy="48.05" r="0.9"/>
    <circle cx="86.33" cy="48.05" r="0.9"/>
    <circle cx="12.50" cy="48.44" r="0.9"/>
    <circle cx="37.89" cy="48.44" r="0.9"/>
    <circle cx="55.66" cy="48.44" r="0.9"/>
    <circle cx="63.28" cy="48.44" r="0.9"/>
    <circle cx="81.84" cy="48.44" r="0.9"/>
    <circle cx="19.73" cy="48.63" r="0.9"/>
    <circle cx="17.19" cy="48.83" r="0.9"/>
    <circle cx="77.54" cy="50.00" r="0.9"/>
    <circle cx="72.66" cy="50.20" r="0.9"/>
    <circle cx="25.59" cy="50.39" r="0.9"/>
    <circle cx="41.02" cy="50.39" r="0.9"/>
    <circle cx="51.56" cy="50.39" r="0.9"/>
    <circle cx="57.42" cy="50.39" r="0.9"/>
    <circle cx="55.08" cy="50.78" r="0.9"/>
    <circle cx="84.18" cy="50.98" r="0.9"/>
    <circle cx="20.90" cy="51.37" r="0.9"/>
    <circle cx="30.27" cy="51.37" r="0.9"/>
    <circle cx="45.90" cy="51.37" r="0.9"/>
    <circle cx="67.58" cy="51.76" r="0.9"/>
    <circle cx="60.55" cy="51.95" r="0.9"/>
    <circle cx="81.84" cy="51.95" r="0.9"/>
    <circle cx="71.29" cy="52.15" r="0.9"/>
    <circle cx="18.16" cy="52.34" r="0.9"/>
    <circle cx="34.57" cy="52.54" r="0.9"/>
    <circle cx="15.04" cy="53.52" r="0.9"/>
    <circle cx="50.98" cy="53.52" r="0.9"/>
    <circle cx="73.83" cy="53.52" r="0.9"/>
    <circle cx="63.48" cy="53.71" r="0.9"/>
    <circle cx="39.26" cy="54.10" r="0.9"/>
    <circle cx="49.02" cy="54.10" r="0.9"/>
    <circle cx="77.34" cy="54.30" r="0.9"/>
    <circle cx="55.08" cy="54.49" r="0.9"/>
    <circle cx="25.20" cy="54.69" r="0.9"/>
    <circle cx="42.77" cy="54.69" r="0.9"/>
    <circle cx="58.40" cy="54.88" r="0.9"/>
    <circle cx="60.74" cy="54.88" r="0.9"/>
    <circle cx="81.05" cy="55.08" r="0.9"/>
    <circle cx="29.49" cy="55.27" r="0.9"/>
    <circle cx="50.00" cy="55.86" r="0.9"/>
    <circle cx="84.38" cy="55.86" r="0.9"/>
    <circle cx="75.78" cy="56.05" r="0.9"/>
    <circle cx="46.29" cy="56.25" r="0.9"/>
    <circle cx="32.81" cy="56.45" r="0.9"/>
    <circle cx="61.72" cy="56.45" r="0.9"/>
    <circle cx="87.11" cy="56.84" r="0.9"/>
    <circle cx="43.16" cy="57.23" r="0.9"/>
    <circle cx="51.95" cy="57.23" r="0.9"/>
    <circle cx="24.80" cy="57.42" r="0.9"/>
    <circle cx="90.23" cy="57.42" r="0.9"/>
    <circle cx="58.01" cy="58.01" r="0.9"/>
    <circle cx="80.66" cy="58.20" r="0.9"/>
    <circle cx="38.67" cy="58.40" r="0.9"/>
    <circle cx="54.30" cy="58.40" r="0.9"/>
    <circle cx="32.03" cy="58.79" r="0.9"/>
    <circle cx="27.15" cy="58.98" r="0.9"/>
    <circle cx="87.11" cy="59.38" r="0.9"/>
    <circle cx="46.09" cy="59.57" r="0.9"/>
    <circle cx="77.15" cy="59.57" r="0.9"/>
    <circle cx="43.16" cy="59.77" r="0.9"/>
    <circle cx="84.38" cy="59.77" r="0.9"/>
    <circle cx="60.74" cy="59.96" r="0.9"/>
    <circle cx="30.47" cy="61.13" r="0.9"/>
    <circle cx="23.63" cy="61.33" r="0.9"/>
    <circle cx="40.04" cy="61.33" r="0.9"/>
    <circle cx="90.23" cy="61.52" r="0.9"/>
    <circle cx="54.30" cy="62.50" r="0.9"/>
    <circle cx="58.20" cy="62.50" r="0.9"/>
    <circle cx="87.50" cy="62.50" r="0.9"/>
    <circle cx="76.56" cy="62.89" r="0.9"/>
    <circle cx="46.48" cy="63.09" r="0.9"/>
    <circle cx="81.45" cy="63.09" r="0.9"/>
    <circle cx="84.96" cy="63.28" r="0.9"/>
    <circle cx="28.91" cy="63.48" r="0.9"/>
    <circle cx="61.72" cy="63.87" r="0.9"/>
    <circle cx="51.95" cy="64.06" r="0.9"/>
    <circle cx="41.60" cy="64.26" r="0.9"/>
    <circle cx="49.61" cy="65.43" r="0.9"/>
    <circle cx="52.54" cy="66.21" r="0.9"/>
    <circle cx="77.15" cy="66.21" r="0.9"/>
    <circle cx="57.62" cy="66.41" r="0.9"/>
    <circle cx="74.22" cy="66.60" r="0.9"/>
    <circle cx="64.26" cy="66.80" r="0.9"/>
    <circle cx="61.13" cy="66.99" r="0.9"/>
    <circle cx="81.25" cy="66.99" r="0.9"/>
    <circle cx="83.40" cy="67.58" r="0.9"/>
    <circle cx="66.99" cy="67.97" r="0.9"/>
    <circle cx="70.31" cy="68.16" r="0.9"/>
    <circle cx="55.66" cy="68.55" r="0.9"/>
    <circle cx="53.12" cy="68.95" r="0.9"/>
    <circle cx="50.98" cy="69.34" r="0.9"/>
    <circle cx="79.69" cy="69.34" r="0.9"/>
    <circle cx="85.35" cy="69.92" r="0.9"/>
    <circle cx="81.25" cy="70.12" r="0.9"/>
    <circle cx="60.55" cy="70.51" r="0.9"/>
    <circle cx="74.61" cy="70.51" r="0.9"/>
    <circle cx="82.81" cy="71.29" r="0.9"/>
    <circle cx="86.52" cy="71.29" r="0.9"/>
    <circle cx="71.68" cy="71.48" r="0.9"/>
    <circle cx="67.19" cy="71.88" r="0.9"/>
    <circle cx="58.59" cy="72.46" r="0.9"/>
    <circle cx="78.71" cy="73.05" r="0.9"/>
    <circle cx="73.44" cy="73.63" r="0.9"/>
    <circle cx="81.45" cy="73.63" r="0.9"/>
    <circle cx="57.81" cy="74.41" r="0.9"/>
    <circle cx="62.50" cy="74.61" r="0.9"/>
    <circle cx="84.18" cy="74.61" r="0.9"/>
    <circle cx="71.48" cy="74.80" r="0.9"/>
    <circle cx="64.65" cy="75.20" r="0.9"/>
    <circle cx="75.20" cy="75.59" r="0.9"/>
    <circle cx="59.77" cy="75.78" r="0.9"/>
    <circle cx="68.36" cy="75.98" r="0.9"/>
    <circle cx="62.89" cy="76.37" r="0.9"/>
    <circle cx="57.03" cy="77.15" r="0.9"/>
    <circle cx="72.46" cy="77.93" r="0.9"/>
    <circle cx="75.00" cy="77.93" r="0.9"/>
    <circle cx="69.53" cy="78.52" r="0.9"/>
    <circle cx="60.55" cy="79.10" r="0.9"/>
    <circle cx="74.80" cy="80.47" r="0.9"/>
    <circle cx="75.00" cy="80.86" r="0.9"/>
    <circle cx="70.70" cy="81.25" r="0.9"/>
  </g>
</svg>