<svg xmlns="http://www.w3.org/2000/svg" viewBox="0 0 100 100" fill="none">
  <g stroke="#00B3E3" stroke-width="0.35" stroke-linecap="round">
    <line x1="57.38" y1="36.08" x2="49.78" y2="40.24"/>
    <line x1="33.88" y1="26.57" x2="33.68" y2="20.41"/>
    <line x1="32.72" y1="58.80" x2="34.67" y2="52.55"/>
    <line x1="37.78" y1="48.54" x2="34.67" y2="52.55"/>
    <line x1="38.71" y1="58.41" x2="37.78" y2="48.54"/>
    <line x1="26.76" y1="38.88" x2="16.74" y2="38.96"/>
    <line x1="22.37" y1="29.32" x2="16.74" y2="38.96"/>
    <line x1="25.19" y1="54.76" x2="32.72" y2="58.80"/>
    <line x1="63.31" y1="66.91" x2="67.10" y2="71.99"/>
    <line x1="75.14" y1="45.43" x2="84.21" y2="55.81"/>
    <line x1="42.28" y1="20.19" x2="46.81" y2="25.55"/>
    <line x1="25.46" y1="47.95" x2="29.58" y2="45.62"/>
    <line x1="34.67" y1="52.55" x2="29.58" y2="45.62"/>
    <line x1="75.14" y1="45.43" x2="74.71" y2="40.71"/>
    <line x1="25.46" y1="47.95" x2="26.76" y2="38.88"/>
    <line x1="54.38" y1="61.12" x2="57.67" y2="58.30"/>
    <line x1="63.33" y1="48.98" x2="63.51" y2="53.66"/>
    <line x1="41.40" y1="14.88" x2="52.24" y2="18.28"/>
    <line x1="52.24" y1="18.28" x2="47.00" y2="22.04"/>
    <line x1="30.79" y1="30.53" x2="27.87" y2="21.22"/>
    <line x1="46.81" y1="25.55" x2="51.31" y2="27.82"/>
    <line x1="57.38" y1="36.08" x2="61.13" y2="41.36"/>
    <line x1="22.37" y1="29.32" x2="30.79" y2="30.53"/>
    <line x1="57.53" y1="49.58" x2="63.33" y2="48.98"/>
    <line x1="84.21" y1="55.81" x2="77.47" y2="62.96"/>
    <line x1="63.33" y1="48.98" x2="69.02" y2="44.54"/>
    <line x1="57.67" y1="58.30" x2="63.51" y2="53.66"/>
    <line x1="33.88" y1="26.57" x2="42.28" y2="20.19"/>
    <line x1="55.87" y1="32.21" x2="57.38" y2="36.08"/>
    <line x1="73.23" y1="50.21" x2="67.59" y2="51.78"/>
    <line x1="55.87" y1="32.21" x2="46.51" y2="31.24"/>
    <line x1="63.31" y1="66.91" x2="69.05" y2="68.12"/>
    <line x1="46.81" y1="25.55" x2="47.00" y2="22.04"/>
    <line x1="77.22" y1="59.53" x2="84.21" y2="55.81"/>
    <line x1="42.46" y1="31.48" x2="45.72" y2="41.14"/>
    <line x1="25.19" y1="54.76" x2="17.86" y2="44.43"/>
    <line x1="46.21" y1="57.24" x2="37.78" y2="48.54"/>
    <line x1="33.88" y1="26.57" x2="27.87" y2="21.22"/>
    <line x1="83.35" y1="67.68" x2="78.70" y2="72.99"/>
    <line x1="46.51" y1="31.24" x2="42.46" y2="31.48"/>
    <line x1="57.38" y1="36.08" x2="74.71" y2="40.71"/>
    <line x1="26.76" y1="38.88" x2="29.58" y2="45.62"/>
    <line x1="77.43" y1="53.08" x2="73.23" y2="50.21"/>
    <line x1="54.38" y1="61.12" x2="38.71" y2="58.41"/>
    <line x1="77.43" y1="53.08" x2="75.14" y2="45.43"/>
    <line x1="25.46" y1="47.95" x2="17.86" y2="44.43"/>
    <line x1="61.13" y1="41.36" x2="57.16" y2="43.11"/>
    <line x1="51.50" y1="50.51" x2="46.43" y2="46.34"/>
    <line x1="46.13" y1="36.89" x2="46.51" y2="31.24"/>
    <line x1="77.22" y1="59.53" x2="67.59" y2="51.78"/>
    <line x1="57.67" y1="58.30" x2="55.14" y2="54.53"/>
    <line x1="54.38" y1="61.12" x2="50.08" y2="55.89"/>
    <line x1="69.05" y1="68.12" x2="63.51" y2="53.66"/>
    <line x1="41.40" y1="14.88" x2="33.68" y2="20.41"/>
    <line x1="73.23" y1="50.21" x2="77.22" y2="59.53"/>
    <line x1="46.21" y1="57.24" x2="46.43" y2="46.34"/>
    <line x1="42.28" y1="20.19" x2="41.40" y2="14.88"/>
    <line x1="55.14" y1="54.53" x2="63.51" y2="53.66"/>
    <line x1="25.46" y1="47.95" x2="25.19" y2="54.76"/>
    <line x1="41.40" y1="14.88" x2="47.00" y2="22.04"/>
    <line x1="37.78" y1="48.54" x2="29.58" y2="45.62"/>
    <line x1="63.33" y1="48.98" x2="56.16" y2="45.96"/>
    <line x1="77.22" y1="59.53" x2="69.05" y2="68.12"/>
    <line x1="37.78" y1="48.54" x2="45.72" y2="41.14"/>
    <line x1="51.50" y1="50.51" x2="55.14" y2="54.53"/>
    <line x1="55.87" y1="32.21" x2="53.63" y2="27.57"/>
    <line x1="63.31" y1="66.91" x2="60.60" y2="70.55"/>
    <line x1="42.28" y1="20.19" x2="42.46" y2="31.48"/>
    <line x1="46.43" y1="46.34" x2="45.72" y2="41.14"/>
    <line x1="46.13" y1="36.89" x2="45.72" y2="41.14"/>
    <line x1="16.74" y1="38.96" x2="17.86" y2="44.43"/>
    <line x1="77.43" y1="53.08" x2="84.21" y2="55.81"/>
    <line x1="33.88" y1="26.57" x2="30.79" y2="30.53"/>
    <line x1="27.87" y1="21.22" x2="33.68" y2="20.41"/>
    <line x1="42.28" y1="20.19" x2="33.68" y2="20.41"/>
    <line x1="30.79" y1="30.53" x2="26.76" y2="38.88"/>
    <line x1="35.43" y1="13.59" x2="33.68" y2="20.41"/>
    <line x1="51.31" y1="27.82" x2="53.63" y2="27.57"/>
    <line x1="52.24" y1="18.28" x2="53.63" y2="27.57"/>
    <line x1="77.22" y1="59.53" x2="77.47" y2="62.96"/>
    <line x1="57.53" y1="49.58" x2="63.51" y2="53.66"/>
    <line x1="67.59" y1="51.78" x2="63.51" y2="53.66"/>
    <line x1="51.50" y1="50.51" x2="56.16" y2="45.96"/>
    <line x1="46.21" y1="57.24" x2="51.50" y2="50.51"/>
    <line x1="26.76" y1="38.88" x2="17.86" y2="44.43"/>
    <line x1="56.16" y1="45.96" x2="64.03" y2="44.68"/>
    <line x1="63.33" y1="48.98" x2="67.59" y2="51.78"/>
    <line x1="46.51" y1="31.24" x2="51.31" y2="27.82"/>
    <line x1="22.37" y1="29.32" x2="26.76" y2="38.88"/>
    <line x1="67.59" y1="51.78" x2="69.02" y2="44.54"/>
    <line x1="69.02" y1="44.54" x2="61.13" y2="41.36"/>
    <line x1="54.38" y1="61.12" x2="60.60" y2="70.55"/>
    <line x1="55.87" y1="32.21" x2="49.78" y2="40.24"/>
    <line x1="51.50" y1="50.51" x2="57.53" y2="49.58"/>
    <line x1="26.76" y1="38.88" x2="42.46" y2="31.48"/>
    <line x1="37.78" y1="48.54" x2="46.43" y2="46.34"/>
    <line x1="56.16" y1="45.96" x2="54.36" y2="41.32"/>
    <line x1="54.38" y1="61.12" x2="63.31" y2="66.91"/>
    <line x1="83.35" y1="67.68" x2="77.47" y2="62.96"/>
    <line x1="56.16" y1="45.96" x2="57.16" y2="43.11"/>
    <line x1="55.87" y1="32.21" x2="51.31" y2="27.82"/>
    <line x1="69.05" y1="68.12" x2="78.70" y2="72.99"/>
    <line x1="63.31" y1="66.91" x2="63.51" y2="53.66"/>
    <line x1="64.03" y1="44.68" x2="57.16" y2="43.11"/>
    <line x1="41.40" y1="14.88" x2="35.43" y2="13.59"/>
    <line x1="46.81" y1="25.55" x2="46.51" y2="31.24"/>
    <line x1="38.71" y1="58.41" x2="32.72" y2="58.80"/>
    <line x1="57.53" y1="49.58" x2="55.14" y2="54.53"/>
    <line x1="77.43" y1="53.08" x2="77.22" y2="59.53"/>
    <line x1="54.36" y1="41.32" x2="57.16" y2="43.11"/>
    <line x1="46.21" y1="57.24" x2="38.71" y2="58.41"/>
    <line x1="51.50" y1="50.51" x2="50.08" y2="55.89"/>
    <line x1="67.10" y1="71.99" x2="60.60" y2="70.55"/>
    <line x1="46.13" y1="36.89" x2="49.78" y2="40.24"/>
    <line x1="75.14" y1="45.43" x2="69.02" y2="44.54"/>
    <line x1="46.13" y1="36.89" x2="42.46" y2="31.48"/>
    <line x1="52.24" y1="18.28" x2="51.31" y2="27.82"/>
    <line x1="49.78" y1="40.24" x2="45.72" y2="41.14"/>
    <line x1="54.38" y1="61.12" x2="46.21" y2="57.24"/>
    <line x1="74.71" y1="40.71" x2="69.02" y2="44.54"/>
    <line x1="84.21" y1="55.81" x2="83.35" y2="67.68"/>
    <line x1="73.23" y1="50.21" x2="69.02" y2="44.54"/>
    <line x1="38.71" y1="58.41" x2="34.67" y2="52.55"/>
    <line x1="56.16" y1="45.96" x2="46.43" y2="46.34"/>
    <line x1="69.05" y1="68.12" x2="67.59" y2="51.78"/>
    <line x1="57.38" y1="36.08" x2="54.36" y2="41.32"/>
    <line x1="30.79" y1="30.53" x2="42.46" y2="31.48"/>
    <line x1="42.28" y1="20.19" x2="47.00" y2="22.04"/>
    <line x1="57.38" y1="36.08" x2="57.16" y2="43.11"/>
    <line x1="57.53" y1="49.58" x2="56.16" y2="45.96"/>
    <line x1="49.78" y1="40.24" x2="54.36" y2="41.32"/>
    <line x1="29.58" y1="45.62" x2="45.72" y2="41.14"/>
    <line x1="27.87" y1="21.22" x2="35.43" y2="13.59"/>
    <line x1="51.31" y1="27.82" x2="47.00" y2="22.04"/>
    <line x1="46.81" y1="25.55" x2="42.46" y2="31.48"/>
    <line x1="54.36" y1="41.32" x2="46.43" y2="46.34"/>
    <line x1="78.70" y1="72.99" x2="67.10" y2="71.99"/>
    <line x1="84.21" y1="55.81" x2="74.71" y2="40.71"/>
    <line x1="78.70" y1="72.99" x2="77.47" y2="62.96"/>
    <line x1="63.31" y1="66.91" x2="57.67" y2="58.30"/>
    <line x1="46.13" y1="36.89" x2="55.87" y2="32.21"/>
    <line x1="25.19" y1="54.76" x2="34.67" y2="52.55"/>
    <line x1="69.02" y1="44.54" x2="64.03" y2="44.68"/>
    <line x1="63.33" y1="48.98" x2="64.03" y2="44.68"/>
    <line x1="22.37" y1="29.32" x2="27.87" y2="21.22"/>
    <line x1="50.08" y1="55.89" x2="55.14" y2="54.53"/>
    <line x1="73.23" y1="50.21" x2="75.14" y2="45.43"/>
    <line x1="33.88" y1="26.57" x2="42.46" y2="31.48"/>
    <line x1="74.71" y1="40.71" x2="61.13" y2="41.36"/>
    <line x1="25.46" y1="47.95" x2="34.67" y2="52.55"/>
    <line x1="64.03" y1="44.68" x2="61.13" y2="41.36"/>
    <line x1="49.78" y1="40.24" x2="46.43" y2="46.34"/>
    <line x1="69.05" y1="68.12" x2="67.10" y2="71.99"/>
    <line x1="46.21" y1="57.24" x2="50.08" y2="55.89"/>
    <line x1="69.05" y1="68.12" x2="77.47" y2="62.96"/>
    <line x1="54.38" y1="61.12" x2="55.14" y2="54.53"/>
  </g>
  <g fill="#00B3E3">
    <circle cx="22.37" cy="29.32" r="0.9"/>
    <circle cx="33.88" cy="26.57" r="0.9"/>
    <circle cx="25.46" cy="47.95" r="0.9"/>
    <circle cx="54.38" cy="61.12" r="0.9"/>
    <circle cx="46.21" cy="57.24" r="0.9"/>
    <circle cx="46.13" cy="36.89" r="0.9"/>
    <circle cx="51.50" cy="50.51" r="0.9"/>
    <circle cx="30.79" cy="30.53" r="0.9"/>
    <circle cx="42.28" cy="20.19" r="0.9"/>
    <circle cx="46.81" cy="25.55" r="0.9"/>
    <circle cx="38.71" cy="58.41" r="0.9"/>
    <circle cx="26.76" cy="38.88" r="0.9"/>
    <circle cx="77.43" cy="53.08" r="0.9"/>
    <circle cx="73.23" cy="50.21" r="0.9"/>
    <circle cx="77.22" cy="59.53" r="0.9"/>
    <circle cx="55.87" cy="32.21" r="0.9"/>
    <circle cx="57.38" cy="36.08" r="0.9"/>
    <circle cx="57.53" cy="49.58" r="0.9"/>
    <circle cx="63.31" cy="66.91" r="0.9"/>
    <circle cx="27.87" cy="21.22" r="0.9"/>
    <circle cx="49.78" cy="40.24" r="0.9"/>
    <circle cx="69.05" cy="68.12" r="0.9"/>
    <circle cx="75.14" cy="45.43" r="0.9"/>
    <circle cx="63.33" cy="48.98" r="0.9"/>
    <circle cx="56.16" cy="45.96" r="0.9"/>
    <circle cx="46.51" cy="31.24" r="0.9"/>
    <circle cx="84.21" cy="55.81" r="0.9"/>
    <circle cx="41.40" cy="14.88" r="0.9"/>
    <circle cx="67.59" cy="51.78" r="0.9"/>
    <circle cx="25.19" cy="54.76" r="0.9"/>
    <circle cx="35.43" cy="13.59" r="0.9"/>
    <circle cx="33.68" cy="20.41" r="0.9"/>
    <circle cx="32.72" cy="58.80" r="0.9"/>
    <circle cx="83.35" cy="67.68" r="0.9"/>
    <circle cx="52.24" cy="18.28" r="0.9"/>
    <circle cx="74.71" cy="40.71" r="0.9"/>
    <circle cx="69.02" cy="44.54" r="0.9"/>
    <circle cx="50.08" cy="55.89" r="0.9"/>
    <circle cx="42.46" cy="31.48" r="0.9"/>
    <circle cx="64.03" cy="44.68" r="0.9"/>
    <circle cx="57.67" cy="58.30" r="0.9"/>
    <circle cx="54.36" cy="41.32" r="0.9"/>
    <circle cx="78.70" cy="72.99" r="0.9"/>
    <circle cx="37.78" cy="48.54" r="0.9"/>
    <circle cx="67.10" cy="71.99" r="0.9"/>
    <circle cx="46.43" cy="46.34" r="0.9"/>
    <circle cx="34.67" cy="52.55" r="0.9"/>
    <circle cx="55.14" cy="54.53" r="0.9"/>
    <circle cx="29.58" cy="45.62" r="0.9"/>
    <circle cx="61.13" cy="41.36" r="0.9"/>
    <circle cx="57.16" cy="43.11" r="0.9"/>
    <circle cx="16.74" cy="38.96" r="0.9"/>
    <circle cx="63.51" cy="53.66" r="0.9"/>
    <circle cx="77.47" cy="62.96" r="0.9"/>
    <circle cx="17.86" cy="44.43" r="0.9"/>
    <circle cx="60.60" cy="70.55" r="0.9"/>
    <circle cx="51.31" cy="27.82" r="0.9"/>
    <circle cx="45.72" cy="41.14" r="0.9"/>
    <circle cx="47.00" cy="22.04" r="0.9"/>
    <circle cx="53.63" cy="27.57" r="0.9"/>
  </g>
</svg>