<svg xmlns="http://www.w3.org/2000/svg" viewBox="0 0 100 100" fill="none">
  <g stroke="#00B3E3" stroke-width="0.3" stroke-linecap="round">
    <line x1="49.58" y1="9.22" x2="43.14" y2="9.94"/>
    <line x1="49.58" y1="9.22" x2="56.72" y2="9.26"/>
    <line x1="49.58" y1="9.22" x2="48.32" y2="10.29"/>
    <line x1="43.14" y1="9.94" x2="36.89" y2="10.99"/>
    <line x1="43.14" y1="9.94" x2="48.32" y2="10.29"/>
    <line x1="43.14" y1="9.94" x2="39.77" y2="11.72"/>
    <line x1="56.72" y1="9.26" x2="64.04" y2="10.99"/>
    <line x1="56.72" y1="9.26" x2="59.75" y2="10.73"/>
    <line x1="56.72" y1="9.26" x2="57.42" y2="12.49"/>
    <line x1="36.89" y1="10.99" x2="31.64" y2="12.48"/>
    <line x1="36.89" y1="10.99" x2="39.77" y2="11.72"/>
    <line x1="36.89" y1="10.99" x2="34.66" y2="13.17"/>
    <line x1="64.04" y1="10.99" x2="71.26" y2="13.25"/>
    <line x1="64.04" y1="10.99" x2="68.39" y2="13.57"/>
    <line x1="64.04" y1="10.99" x2="64.30" y2="15.52"/>
    <line x1="48.32" y1="10.29" x2="57.42" y2="12.49"/>
    <line x1="48.32" y1="10.29" x2="43.09" y2="15.48"/>
    <line x1="48.32" y1="10.29" x2="49.76" y2="15.87"/>
    <line x1="59.75" y1="10.73" x2="57.42" y2="12.49"/>
    <line x1="31.64" y1="12.48" x2="26.07" y2="14.16"/>
    <line x1="31.64" y1="12.48" x2="28.28" y2="14.59"/>
    <line x1="39.77" y1="11.72" x2="43.09" y2="15.48"/>
    <line x1="57.42" y1="12.49" x2="49.76" y2="15.87"/>
    <line x1="57.42" y1="12.49" x2="56.08" y2="17.86"/>
    <line x1="71.26" y1="13.25" x2="68.39" y2="13.57"/>
    <line x1="71.26" y1="13.25" x2="76.00" y2="16.17"/>
    <line x1="34.66" y1="13.17" x2="40.47" y2="14.97"/>
    <line x1="26.07" y1="14.16" x2="28.28" y2="14.59"/>
    <line x1="26.07" y1="14.16" x2="21.92" y2="17.74"/>
    <line x1="26.07" y1="14.16" x2="26.42" y2="18.00"/>
    <line x1="28.28" y1="14.59" x2="33.37" y2="16.54"/>
    <line x1="28.28" y1="14.59" x2="26.42" y2="18.00"/>
    <line x1="40.47" y1="14.97" x2="43.09" y2="15.48"/>
    <line x1="40.47" y1="14.97" x2="39.31" y2="17.24"/>
    <line x1="40.47" y1="14.97" x2="36.33" y2="22.07"/>
    <line x1="59.36" y1="13.93" x2="64.30" y2="15.52"/>
    <line x1="59.36" y1="13.93" x2="56.08" y2="17.86"/>
    <line x1="43.09" y1="15.48" x2="49.76" y2="15.87"/>
    <line x1="43.09" y1="15.48" x2="45.92" y2="15.82"/>
    <line x1="64.30" y1="15.52" x2="72.87" y2="15.94"/>
    <line x1="64.30" y1="15.52" x2="64.34" y2="16.23"/>
    <line x1="64.30" y1="15.52" x2="70.23" y2="19.29"/>
    <line x1="64.30" y1="15.52" x2="60.81" y2="21.78"/>
    <line x1="76.00" y1="16.17" x2="72.87" y2="15.94"/>
    <line x1="76.00" y1="16.17" x2="75.56" y2="17.99"/>
    <line x1="76.00" y1="16.17" x2="77.04" y2="21.34"/>
    <line x1="49.76" y1="15.87" x2="56.08" y2="17.86"/>
    <line x1="49.76" y1="15.87" x2="46.96" y2="20.83"/>
    <line x1="49.76" y1="15.87" x2="51.10" y2="19.57"/>
    <line x1="72.87" y1="15.94" x2="75.56" y2="17.99"/>
    <line x1="21.92" y1="17.74" x2="26.42" y2="18.00"/>
    <line x1="21.92" y1="17.74" x2="21.60" y2="19.33"/>
    <line x1="33.37" y1="16.54" x2="39.31" y2="17.24"/>
    <line x1="33.37" y1="16.54" x2="30.92" y2="18.36"/>
    <line x1="33.37" y1="16.54" x2="36.33" y2="22.07"/>
    <line x1="33.37" y1="16.54" x2="35.05" y2="27.01"/>
    <line x1="26.42" y1="18.00" x2="30.92" y2="18.36"/>
    <line x1="26.42" y1="18.00" x2="24.86" y2="20.45"/>
    <line x1="26.42" y1="18.00" x2="31.02" y2="22.77"/>
    <line x1="56.08" y1="17.86" x2="51.10" y2="19.57"/>
    <line x1="56.08" y1="17.86" x2="60.81" y2="21.78"/>
    <line x1="56.08" y1="17.86" x2="52.54" y2="22.75"/>
    <line x1="41.21" y1="17.36" x2="46.96" y2="20.83"/>
    <line x1="41.21" y1="17.36" x2="41.41" y2="22.73"/>
    <line x1="64.34" y1="16.23" x2="70.23" y2="19.29"/>
    <line x1="64.34" y1="16.23" x2="60.81" y2="21.78"/>
    <line x1="75.56" y1="17.99" x2="70.23" y2="19.29"/>
    <line x1="75.56" y1="17.99" x2="73.42" y2="20.02"/>
    <line x1="70.23" y1="19.29" x2="73.42" y2="20.02"/>
    <line x1="70.23" y1="19.29" x2="66.83" y2="21.94"/>
    <line x1="46.96" y1="20.83" x2="51.10" y2="19.57"/>
    <line x1="46.96" y1="20.83" x2="41.41" y2="22.73"/>
    <line x1="46.96" y1="20.83" x2="46.95" y2="21.73"/>
    <line x1="51.10" y1="19.57" x2="52.54" y2="22.75"/>
    <line x1="21.60" y1="19.33" x2="24.86" y2="20.45"/>
    <line x1="21.60" y1="19.33" x2="25.80" y2="24.11"/>
    <line x1="73.42" y1="20.02" x2="77.04" y2="21.34"/>
    <line x1="73.42" y1="20.02" x2="72.76" y2="24.06"/>
    <line x1="24.86" y1="20.45" x2="25.80" y2="24.11"/>
    <line x1="60.81" y1="21.78" x2="66.83" y2="21.94"/>
    <line x1="60.81" y1="21.78" x2="52.54" y2="22.75"/>
    <line x1="60.81" y1="21.78" x2="55.30" y2="24.47"/>
    <line x1="60.81" y1="21.78" x2="62.55" y2="27.00"/>
    <line x1="77.04" y1="21.34" x2="78.72" y2="22.07"/>
    <line x1="77.04" y1="21.34" x2="72.76" y2="24.06"/>
    <line x1="36.33" y1="22.07" x2="41.41" y2="22.73"/>
    <line x1="36.33" y1="22.07" x2="31.02" y2="22.77"/>
    <line x1="36.33" y1="22.07" x2="35.05" y2="27.01"/>
    <line x1="41.41" y1="22.73" x2="35.05" y2="27.01"/>
    <line x1="41.41" y1="22.73" x2="47.25" y2="27.91"/>
    <line x1="31.02" y1="22.77" x2="25.80" y2="24.11"/>
    <line x1="66.83" y1="21.94" x2="66.72" y2="25.49"/>
    <line x1="52.54" y1="22.75" x2="55.30" y2="24.47"/>
    <line x1="52.54" y1="22.75" x2="47.25" y2="27.91"/>
    <line x1="78.72" y1="22.07" x2="78.39" y2="26.39"/>
    <line x1="78.72" y1="22.07" x2="78.26" y2="30.34"/>
    <line x1="20.96" y1="23.23" x2="24.65" y2="25.26"/>
    <line x1="20.96" y1="23.23" x2="21.14" y2="25.93"/>
    <line x1="25.80" y1="24.11" x2="24.65" y2="25.26"/>
    <line x1="25.80" y1="24.11" x2="35.05" y2="27.01"/>
    <line x1="25.80" y1="24.11" x2="26.95" y2="30.10"/>
    <line x1="72.76" y1="24.06" x2="66.72" y2="25.49"/>
    <line x1="72.76" y1="24.06" x2="74.28" y2="25.67"/>
    <line x1="46.95" y1="21.73" x2="47.25" y2="27.91"/>
    <line x1="55.30" y1="24.47" x2="60.17" y2="26.85"/>
    <line x1="55.30" y1="24.47" x2="54.55" y2="27.54"/>
    <line x1="41.81" y1="25.21" x2="35.05" y2="27.01"/>
    <line x1="41.81" y1="25.21" x2="47.25" y2="27.91"/>
    <line x1="41.81" y1="25.21" x2="41.55" y2="30.26"/>
    <line x1="66.72" y1="25.49" x2="62.55" y2="27.00"/>
    <line x1="66.72" y1="25.49" x2="65.92" y2="29.43"/>
    <line x1="24.65" y1="25.26" x2="26.95" y2="30.10"/>
    <line x1="35.05" y1="27.01" x2="31.21" y2="28.44"/>
    <line x1="35.05" y1="27.01" x2="32.45" y2="31.77"/>
    <line x1="74.28" y1="25.67" x2="72.25" y2="25.57"/>
    <line x1="74.28" y1="25.67" x2="78.39" y2="26.39"/>
    <line x1="74.28" y1="25.67" x2="74.17" y2="29.61"/>
    <line x1="21.14" y1="25.93" x2="24.20" y2="30.03"/>
    <line x1="26.14" y1="25.54" x2="31.21" y2="28.44"/>
    <line x1="62.55" y1="27.00" x2="60.17" y2="26.85"/>
    <line x1="72.25" y1="25.57" x2="65.92" y2="29.43"/>
    <line x1="72.25" y1="25.57" x2="74.17" y2="29.61"/>
    <line x1="60.17" y1="26.85" x2="54.55" y2="27.54"/>
    <line x1="60.17" y1="26.85" x2="57.42" y2="31.56"/>
    <line x1="47.25" y1="27.91" x2="54.55" y2="27.54"/>
    <line x1="47.25" y1="27.91" x2="41.55" y2="30.26"/>
    <line x1="47.25" y1="27.91" x2="46.97" y2="29.19"/>
    <line x1="47.25" y1="27.91" x2="51.05" y2="32.70"/>
    <line x1="31.21" y1="28.44" x2="32.45" y2="31.77"/>
    <line x1="54.55" y1="27.54" x2="57.42" y2="31.56"/>
    <line x1="54.55" y1="27.54" x2="51.05" y2="32.70"/>
    <line x1="65.92" y1="29.43" x2="71.29" y2="29.88"/>
    <line x1="65.92" y1="29.43" x2="65.79" y2="30.44"/>
    <line x1="65.92" y1="29.43" x2="67.13" y2="33.04"/>
    <line x1="36.19" y1="28.20" x2="41.55" y2="30.26"/>
    <line x1="36.19" y1="28.20" x2="36.90" y2="32.09"/>
    <line x1="74.17" y1="29.61" x2="74.83" y2="33.65"/>
    <line x1="26.95" y1="30.10" x2="24.20" y2="30.03"/>
    <line x1="26.95" y1="30.10" x2="32.45" y2="31.77"/>
    <line x1="26.95" y1="30.10" x2="28.18" y2="33.20"/>
    <line x1="24.20" y1="30.03" x2="28.18" y2="33.20"/>
    <line x1="41.55" y1="30.26" x2="36.90" y2="32.09"/>
    <line x1="41.55" y1="30.26" x2="46.67" y2="34.19"/>
    <line x1="41.55" y1="30.26" x2="37.53" y2="34.08"/>
    <line x1="21.76" y1="29.73" x2="25.44" y2="33.08"/>
    <line x1="71.29" y1="29.88" x2="67.13" y2="33.04"/>
    <line x1="71.29" y1="29.88" x2="74.83" y2="33.65"/>
    <line x1="46.97" y1="29.19" x2="46.67" y2="34.19"/>
    <line x1="57.42" y1="31.56" x2="59.91" y2="32.09"/>
    <line x1="57.42" y1="31.56" x2="51.05" y2="32.70"/>
    <line x1="57.42" y1="31.56" x2="55.47" y2="35.00"/>
    <line x1="57.42" y1="31.56" x2="58.61" y2="35.92"/>
    <line x1="78.26" y1="30.34" x2="74.83" y2="33.65"/>
    <line x1="32.45" y1="31.77" x2="28.18" y2="33.20"/>
    <line x1="32.45" y1="31.77" x2="37.53" y2="34.08"/>
    <line x1="65.79" y1="30.44" x2="59.91" y2="32.09"/>
    <line x1="65.79" y1="30.44" x2="63.22" y2="34.94"/>
    <line x1="51.05" y1="32.70" x2="55.47" y2="35.00"/>
    <line x1="51.05" y1="32.70" x2="51.08" y2="34.97"/>
    <line x1="28.18" y1="33.20" x2="25.44" y2="33.08"/>
    <line x1="28.18" y1="33.20" x2="28.52" y2="34.78"/>
    <line x1="67.13" y1="33.04" x2="63.22" y2="34.94"/>
    <line x1="67.13" y1="33.04" x2="68.67" y2="35.47"/>
    <line x1="67.13" y1="33.04" x2="64.30" y2="35.51"/>
    <line x1="46.67" y1="34.19" x2="42.84" y2="36.55"/>
    <line x1="46.67" y1="34.19" x2="47.22" y2="35.50"/>
    <line x1="74.83" y1="33.65" x2="68.67" y2="35.47"/>
    <line x1="74.83" y1="33.65" x2="74.79" y2="36.40"/>
    <line x1="25.44" y1="33.08" x2="24.28" y2="40.56"/>
    <line x1="63.22" y1="34.94" x2="58.61" y2="35.92"/>
    <line x1="63.22" y1="34.94" x2="64.30" y2="35.51"/>
    <line x1="37.53" y1="34.08" x2="42.84" y2="36.55"/>
    <line x1="55.47" y1="35.00" x2="58.61" y2="35.92"/>
    <line x1="55.47" y1="35.00" x2="51.08" y2="34.97"/>
    <line x1="58.61" y1="35.92" x2="51.08" y2="34.97"/>
    <line x1="58.61" y1="35.92" x2="64.30" y2="35.51"/>
    <line x1="28.52" y1="34.78" x2="42.84" y2="36.55"/>
    <line x1="28.52" y1="34.78" x2="28.58" y2="38.41"/>
    <line x1="51.08" y1="34.97" x2="42.84" y2="36.55"/>
    <line x1="51.08" y1="34.97" x2="47.22" y2="35.50"/>
    <line x1="68.67" y1="35.47" x2="68.82" y2="41.93"/>
    <line x1="74.79" y1="36.40" x2="77.42" y2="40.98"/>
    <line x1="24.28" y1="40.56" x2="21.58" y2="41.31"/>
    <line x1="24.28" y1="40.56" x2="28.99" y2="43.80"/>
    <line x1="24.28" y1="40.56" x2="22.27" y2="45.01"/>
    <line x1="28.58" y1="38.41" x2="28.99" y2="43.80"/>
    <line x1="50.93" y1="40.32" x2="57.28" y2="43.07"/>
    <line x1="50.93" y1="40.32" x2="43.67" y2="43.32"/>
    <line x1="50.93" y1="40.32" x2="50.73" y2="42.99"/>
    <line x1="77.42" y1="40.98" x2="75.12" y2="41.97"/>
    <line x1="77.42" y1="40.98" x2="76.93" y2="45.18"/>
    <line x1="21.58" y1="41.31" x2="22.27" y2="45.01"/>
    <line x1="28.99" y1="43.80" x2="22.27" y2="45.01"/>
    <line x1="28.99" y1="43.80" x2="33.85" y2="45.55"/>
    <line x1="28.99" y1="43.80" x2="30.67" y2="45.97"/>
    <line x1="28.99" y1="43.80" x2="27.01" y2="47.87"/>
    <line x1="57.28" y1="43.07" x2="59.95" y2="44.69"/>
    <line x1="57.28" y1="43.07" x2="53.16" y2="47.09"/>
    <line x1="43.67" y1="43.32" x2="38.42" y2="44.78"/>
    <line x1="43.67" y1="43.32" x2="48.22" y2="46.18"/>
    <line x1="50.73" y1="42.99" x2="48.22" y2="46.18"/>
    <line x1="50.73" y1="42.99" x2="53.16" y2="47.09"/>
    <line x1="59.95" y1="44.69" x2="63.09" y2="44.42"/>
    <line x1="59.95" y1="44.69" x2="59.07" y2="47.07"/>
    <line x1="63.09" y1="44.42" x2="68.75" y2="44.76"/>
    <line x1="63.09" y1="44.42" x2="61.50" y2="46.96"/>
    <line x1="22.27" y1="45.01" x2="20.90" y2="46.90"/>
    <line x1="22.27" y1="45.01" x2="27.01" y2="47.87"/>
    <line x1="76.93" y1="45.18" x2="74.43" y2="45.26"/>
    <line x1="76.93" y1="45.18" x2="79.07" y2="46.19"/>
    <line x1="76.93" y1="45.18" x2="74.51" y2="47.44"/>
    <line x1="33.85" y1="45.55" x2="30.67" y2="45.97"/>
    <line x1="33.85" y1="45.55" x2="34.78" y2="46.82"/>
    <line x1="68.75" y1="44.76" x2="74.43" y2="45.26"/>
    <line x1="68.75" y1="44.76" x2="64.28" y2="48.12"/>
    <line x1="68.75" y1="44.76" x2="67.80" y2="49.64"/>
    <line x1="74.43" y1="45.26" x2="74.51" y2="47.44"/>
    <line x1="48.22" y1="46.18" x2="41.03" y2="46.50"/>
    <line x1="48.22" y1="46.18" x2="53.16" y2="47.09"/>
    <line x1="48.22" y1="46.18" x2="45.41" y2="49.97"/>
    <line x1="41.03" y1="46.50" x2="39.53" y2="46.59"/>
    <line x1="41.03" y1="46.50" x2="45.41" y2="49.97"/>
    <line x1="41.03" y1="46.50" x2="34.48" y2="51.57"/>
    <line x1="53.16" y1="47.09" x2="59.07" y2="47.07"/>
    <line x1="53.16" y1="47.09" x2="47.07" y2="50.79"/>
    <line x1="53.16" y1="47.09" x2="51.50" y2="52.58"/>
    <line x1="30.67" y1="45.97" x2="34.78" y2="46.82"/>
    <line x1="79.07" y1="46.19" x2="77.20" y2="50.80"/>
    <line x1="20.90" y1="46.90" x2="21.30" y2="50.11"/>
    <line x1="59.07" y1="47.07" x2="61.50" y2="46.96"/>
    <line x1="59.07" y1="47.07" x2="59.10" y2="50.71"/>
    <line x1="61.50" y1="46.96" x2="64.28" y2="48.12"/>
    <line x1="61.50" y1="46.96" x2="60.17" y2="52.02"/>
    <line x1="27.01" y1="47.87" x2="21.30" y2="50.11"/>
    <line x1="27.01" y1="47.87" x2="34.48" y2="51.57"/>
    <line x1="27.01" y1="47.87" x2="30.02" y2="53.37"/>
    <line x1="74.51" y1="47.44" x2="67.80" y2="49.64"/>
    <line x1="74.51" y1="47.44" x2="77.20" y2="50.80"/>
    <line x1="74.51" y1="47.44" x2="70.72" y2="54.32"/>
    <line x1="64.28" y1="48.12" x2="67.80" y2="49.64"/>
    <line x1="67.80" y1="49.64" x2="60.17" y2="52.02"/>
    <line x1="67.80" y1="49.64" x2="70.72" y2="54.32"/>
    <line x1="67.80" y1="49.64" x2="64.05" y2="55.05"/>
    <line x1="45.41" y1="49.97" x2="47.07" y2="50.79"/>
    <line x1="45.41" y1="49.97" x2="42.91" y2="51.62"/>
    <line x1="21.30" y1="50.11" x2="24.94" y2="49.37"/>
    <line x1="21.30" y1="50.11" x2="21.26" y2="53.42"/>
    <line x1="59.10" y1="50.71" x2="51.50" y2="52.58"/>
    <line x1="59.10" y1="50.71" x2="60.17" y2="52.02"/>
    <line x1="59.10" y1="50.71" x2="56.04" y2="57.20"/>
    <line x1="47.07" y1="50.79" x2="42.91" y2="51.62"/>
    <line x1="47.07" y1="50.79" x2="51.50" y2="52.58"/>
    <line x1="47.07" y1="50.79" x2="46.02" y2="54.06"/>
    <line x1="77.20" y1="50.80" x2="75.48" y2="51.71"/>
    <line x1="34.48" y1="51.57" x2="42.91" y2="51.62"/>
    <line x1="34.48" y1="51.57" x2="30.02" y2="53.37"/>
    <line x1="34.48" y1="51.57" x2="35.28" y2="52.39"/>
    <line x1="34.48" y1="51.57" x2="34.51" y2="57.00"/>
    <line x1="24.94" y1="49.37" x2="24.41" y2="54.98"/>
    <line x1="42.91" y1="51.62" x2="46.02" y2="54.06"/>
    <line x1="42.91" y1="51.62" x2="39.18" y2="55.74"/>
    <line x1="51.50" y1="52.58" x2="46.02" y2="54.06"/>
    <line x1="51.50" y1="52.58" x2="56.04" y2="57.20"/>
    <line x1="60.17" y1="52.02" x2="61.84" y2="57.54"/>
    <line x1="75.48" y1="51.71" x2="78.25" y2="53.42"/>
    <line x1="75.48" y1="51.71" x2="70.72" y2="54.32"/>
    <line x1="75.48" y1="51.71" x2="74.82" y2="56.74"/>
    <line x1="30.02" y1="53.37" x2="24.41" y2="54.98"/>
    <line x1="30.02" y1="53.37" x2="29.51" y2="56.38"/>
    <line x1="35.28" y1="52.39" x2="39.18" y2="55.74"/>
    <line x1="78.25" y1="53.42" x2="74.82" y2="56.74"/>
    <line x1="21.26" y1="53.42" x2="24.41" y2="54.98"/>
    <line x1="21.26" y1="53.42" x2="24.70" y2="56.62"/>
    <line x1="46.02" y1="54.06" x2="44.10" y2="55.86"/>
    <line x1="46.02" y1="54.06" x2="47.41" y2="57.26"/>
    <line x1="46.02" y1="54.06" x2="39.73" y2="60.55"/>
    <line x1="70.72" y1="54.32" x2="74.82" y2="56.74"/>
    <line x1="64.05" y1="55.05" x2="67.55" y2="55.73"/>
    <line x1="24.41" y1="54.98" x2="29.51" y2="56.38"/>
    <line x1="24.41" y1="54.98" x2="24.70" y2="56.62"/>
    <line x1="51.81" y1="54.04" x2="56.04" y2="57.20"/>
    <line x1="67.55" y1="55.73" x2="68.97" y2="58.61"/>
    <line x1="39.18" y1="55.74" x2="44.10" y2="55.86"/>
    <line x1="39.18" y1="55.74" x2="35.39" y2="57.84"/>
    <line x1="74.82" y1="56.74" x2="68.97" y2="58.61"/>
    <line x1="74.82" y1="56.74" x2="74.87" y2="58.34"/>
    <line x1="29.51" y1="56.38" x2="34.51" y2="57.00"/>
    <line x1="29.51" y1="56.38" x2="24.70" y2="56.62"/>
    <line x1="29.51" y1="56.38" x2="35.13" y2="58.84"/>
    <line x1="34.51" y1="57.00" x2="35.39" y2="57.84"/>
    <line x1="56.04" y1="57.20" x2="57.09" y2="60.55"/>
    <line x1="56.04" y1="57.20" x2="51.07" y2="61.59"/>
    <line x1="47.41" y1="57.26" x2="46.21" y2="58.75"/>
    <line x1="47.41" y1="57.26" x2="51.07" y2="61.59"/>
    <line x1="61.84" y1="57.54" x2="64.73" y2="58.93"/>
    <line x1="61.84" y1="57.54" x2="57.09" y2="60.55"/>
    <line x1="24.70" y1="56.62" x2="24.51" y2="64.06"/>
    <line x1="35.39" y1="57.84" x2="39.73" y2="60.55"/>
    <line x1="35.39" y1="57.84" x2="35.13" y2="58.84"/>
    <line x1="68.97" y1="58.61" x2="64.73" y2="58.93"/>
    <line x1="68.97" y1="58.61" x2="69.34" y2="64.65"/>
    <line x1="39.73" y1="60.55" x2="51.07" y2="61.59"/>
    <line x1="64.73" y1="58.93" x2="57.09" y2="60.55"/>
    <line x1="74.87" y1="58.34" x2="75.23" y2="64.65"/>
    <line x1="74.87" y1="58.34" x2="76.87" y2="69.24"/>
    <line x1="57.09" y1="60.55" x2="51.07" y2="61.59"/>
    <line x1="51.07" y1="61.59" x2="51.29" y2="66.95"/>
    <line x1="24.51" y1="64.06" x2="21.19" y2="65.69"/>
    <line x1="24.51" y1="64.06" x2="23.75" y2="65.94"/>
    <line x1="24.51" y1="64.06" x2="28.93" y2="67.46"/>
    <line x1="75.23" y1="64.65" x2="74.77" y2="67.68"/>
    <line x1="69.34" y1="64.65" x2="69.34" y2="68.59"/>
    <line x1="21.19" y1="65.69" x2="23.32" y2="68.42"/>
    <line x1="21.19" y1="65.69" x2="21.54" y2="69.24"/>
    <line x1="23.75" y1="65.94" x2="23.32" y2="68.42"/>
    <line x1="51.29" y1="66.95" x2="44.53" y2="66.89"/>
    <line x1="51.29" y1="66.95" x2="53.87" y2="66.96"/>
    <line x1="51.29" y1="66.95" x2="47.67" y2="69.71"/>
    <line x1="51.29" y1="66.95" x2="52.77" y2="70.64"/>
    <line x1="44.53" y1="66.89" x2="38.51" y2="68.36"/>
    <line x1="44.53" y1="66.89" x2="47.67" y2="69.71"/>
    <line x1="44.53" y1="66.89" x2="43.44" y2="70.29"/>
    <line x1="53.87" y1="66.96" x2="58.34" y2="67.47"/>
    <line x1="53.87" y1="66.96" x2="52.77" y2="70.64"/>
    <line x1="28.93" y1="67.46" x2="35.23" y2="68.77"/>
    <line x1="28.93" y1="67.46" x2="26.37" y2="72.56"/>
    <line x1="38.51" y1="68.36" x2="35.23" y2="68.77"/>
    <line x1="74.77" y1="67.68" x2="69.34" y2="68.59"/>
    <line x1="74.77" y1="67.68" x2="76.87" y2="69.24"/>
    <line x1="74.77" y1="67.68" x2="74.52" y2="71.36"/>
    <line x1="61.07" y1="67.74" x2="64.69" y2="68.87"/>
    <line x1="23.32" y1="68.42" x2="21.54" y2="69.24"/>
    <line x1="23.32" y1="68.42" x2="26.37" y2="72.56"/>
    <line x1="35.23" y1="68.77" x2="32.85" y2="71.09"/>
    <line x1="64.69" y1="68.87" x2="69.34" y2="68.59"/>
    <line x1="64.69" y1="68.87" x2="59.38" y2="70.58"/>
    <line x1="69.34" y1="68.59" x2="62.89" y2="71.01"/>
    <line x1="69.34" y1="68.59" x2="69.10" y2="69.61"/>
    <line x1="69.34" y1="68.59" x2="74.52" y2="71.36"/>
    <line x1="21.54" y1="69.24" x2="21.31" y2="73.04"/>
    <line x1="76.87" y1="69.24" x2="74.52" y2="71.36"/>
    <line x1="76.87" y1="69.24" x2="77.56" y2="74.58"/>
    <line x1="47.67" y1="69.71" x2="46.48" y2="74.69"/>
    <line x1="52.77" y1="70.64" x2="59.38" y2="70.58"/>
    <line x1="52.77" y1="70.64" x2="46.48" y2="74.69"/>
    <line x1="52.77" y1="70.64" x2="51.35" y2="76.80"/>
    <line x1="52.77" y1="70.64" x2="60.26" y2="75.98"/>
    <line x1="30.35" y1="69.87" x2="32.85" y2="71.09"/>
    <line x1="30.35" y1="69.87" x2="26.37" y2="72.56"/>
    <line x1="30.35" y1="69.87" x2="34.91" y2="74.61"/>
    <line x1="43.44" y1="70.29" x2="46.48" y2="74.69"/>
    <line x1="43.44" y1="70.29" x2="34.91" y2="74.61"/>
    <line x1="59.38" y1="70.58" x2="62.89" y2="71.01"/>
    <line x1="32.85" y1="71.09" x2="40.74" y2="71.19"/>
    <line x1="32.85" y1="71.09" x2="34.91" y2="74.61"/>
    <line x1="40.74" y1="71.19" x2="42.48" y2="74.02"/>
    <line x1="62.89" y1="71.01" x2="68.02" y2="74.27"/>
    <line x1="62.89" y1="71.01" x2="60.26" y2="75.98"/>
    <line x1="74.52" y1="71.36" x2="77.56" y2="74.58"/>
    <line x1="74.52" y1="71.36" x2="68.02" y2="74.27"/>
    <line x1="74.52" y1="71.36" x2="74.80" y2="74.75"/>
    <line x1="74.52" y1="71.36" x2="71.11" y2="78.23"/>
    <line x1="26.37" y1="72.56" x2="21.31" y2="73.04"/>
    <line x1="26.37" y1="72.56" x2="34.91" y2="74.61"/>
    <line x1="26.37" y1="72.56" x2="25.03" y2="73.93"/>
    <line x1="26.37" y1="72.56" x2="29.77" y2="77.56"/>
    <line x1="21.31" y1="73.04" x2="21.61" y2="75.27"/>
    <line x1="21.31" y1="73.04" x2="24.65" y2="78.54"/>
    <line x1="46.48" y1="74.69" x2="47.22" y2="75.55"/>
    <line x1="77.56" y1="74.58" x2="74.80" y2="74.75"/>
    <line x1="77.56" y1="74.58" x2="78.96" y2="77.98"/>
    <line x1="34.91" y1="74.61" x2="47.22" y2="75.55"/>
    <line x1="34.91" y1="74.61" x2="29.77" y2="77.56"/>
    <line x1="34.91" y1="74.61" x2="33.03" y2="79.81"/>
    <line x1="68.02" y1="74.27" x2="60.26" y2="75.98"/>
    <line x1="68.02" y1="74.27" x2="71.11" y2="78.23"/>
    <line x1="68.02" y1="74.27" x2="65.71" y2="79.74"/>
    <line x1="25.03" y1="73.93" x2="24.65" y2="78.54"/>
    <line x1="47.22" y1="75.55" x2="51.35" y2="76.80"/>
    <line x1="47.22" y1="75.55" x2="46.12" y2="80.70"/>
    <line x1="74.80" y1="74.75" x2="78.96" y2="77.98"/>
    <line x1="51.35" y1="76.80" x2="60.26" y2="75.98"/>
    <line x1="51.35" y1="76.80" x2="46.12" y2="80.70"/>
    <line x1="51.35" y1="76.80" x2="56.00" y2="81.68"/>
    <line x1="51.35" y1="76.80" x2="52.34" y2="82.18"/>
    <line x1="60.26" y1="75.98" x2="59.78" y2="76.49"/>
    <line x1="60.26" y1="75.98" x2="65.71" y2="79.74"/>
    <line x1="21.61" y1="75.27" x2="24.65" y2="78.54"/>
    <line x1="21.61" y1="75.27" x2="24.76" y2="80.10"/>
    <line x1="36.10" y1="76.09" x2="39.99" y2="80.27"/>
    <line x1="29.77" y1="77.56" x2="24.65" y2="78.54"/>
    <line x1="29.77" y1="77.56" x2="33.03" y2="79.81"/>
    <line x1="29.77" y1="77.56" x2="29.25" y2="83.13"/>
    <line x1="59.78" y1="76.49" x2="56.00" y2="81.68"/>
    <line x1="71.11" y1="78.23" x2="65.71" y2="79.74"/>
    <line x1="71.11" y1="78.23" x2="70.65" y2="79.46"/>
    <line x1="71.11" y1="78.23" x2="74.87" y2="81.77"/>
    <line x1="42.38" y1="76.69" x2="46.12" y2="80.70"/>
    <line x1="24.65" y1="78.54" x2="24.76" y2="80.10"/>
    <line x1="24.65" y1="78.54" x2="29.25" y2="83.13"/>
    <line x1="78.96" y1="77.98" x2="74.87" y2="81.77"/>
    <line x1="65.71" y1="79.74" x2="70.65" y2="79.46"/>
    <line x1="65.71" y1="79.74" x2="59.47" y2="81.88"/>
    <line x1="33.03" y1="79.81" x2="36.33" y2="80.93"/>
    <line x1="33.03" y1="79.81" x2="29.25" y2="83.13"/>
    <line x1="39.99" y1="80.27" x2="46.12" y2="80.70"/>
    <line x1="39.99" y1="80.27" x2="36.33" y2="80.93"/>
    <line x1="46.12" y1="80.70" x2="40.14" y2="84.74"/>
    <line x1="46.12" y1="80.70" x2="51.46" y2="85.77"/>
    <line x1="36.33" y1="80.93" x2="40.14" y2="84.74"/>
    <line x1="36.33" y1="80.93" x2="35.96" y2="82.37"/>
    <line x1="56.00" y1="81.68" x2="59.47" y2="81.88"/>
    <line x1="56.00" y1="81.68" x2="52.34" y2="82.18"/>
    <line x1="56.00" y1="81.68" x2="57.16" y2="83.40"/>
    <line x1="56.00" y1="81.68" x2="51.46" y2="85.77"/>
    <line x1="24.76" y1="80.10" x2="29.25" y2="83.13"/>
    <line x1="59.47" y1="81.88" x2="61.56" y2="83.07"/>
    <line x1="59.47" y1="81.88" x2="57.16" y2="83.40"/>
    <line x1="74.87" y1="81.77" x2="51.46" y2="85.77"/>
    <line x1="29.25" y1="83.13" x2="35.96" y2="82.37"/>
    <line x1="46.14" y1="82.07" x2="40.14" y2="84.74"/>
    <line x1="46.14" y1="82.07" x2="51.46" y2="85.77"/>
    <line x1="40.14" y1="84.74" x2="35.96" y2="82.37"/>
  </g>
  <g fill="#00B3E3">
    <circle cx="49.58" cy="9.22" r="0.85"/>
    <circle cx="43.14" cy="9.94" r="0.85"/>
    <circle cx="56.72" cy="9.26" r="0.85"/>
    <circle cx="36.89" cy="10.99" r="0.85"/>
    <circle cx="64.04" cy="10.99" r="0.85"/>
    <circle cx="48.32" cy="10.29" r="0.85"/>
    <circle cx="59.75" cy="10.73" r="0.85"/>
    <circle cx="31.64" cy="12.48" r="0.85"/>
    <circle cx="39.77" cy="11.72" r="0.85"/>
    <circle cx="57.42" cy="12.49" r="0.85"/>
    <circle cx="71.26" cy="13.25" r="0.85"/>
    <circle cx="68.39" cy="13.57" r="0.85"/>
    <circle cx="34.66" cy="13.17" r="0.85"/>
    <circle cx="26.07" cy="14.16" r="0.85"/>
    <circle cx="28.28" cy="14.59" r="0.85"/>
    <circle cx="40.47" cy="14.97" r="0.85"/>
    <circle cx="59.36" cy="13.93" r="0.85"/>
    <circle cx="43.09" cy="15.48" r="0.85"/>
    <circle cx="64.30" cy="15.52" r="0.85"/>
    <circle cx="76.00" cy="16.17" r="0.85"/>
    <circle cx="49.76" cy="15.87" r="0.85"/>
    <circle cx="72.87" cy="15.94" r="0.85"/>
    <circle cx="45.92" cy="15.82" r="0.85"/>
    <circle cx="21.92" cy="17.74" r="0.85"/>
    <circle cx="33.37" cy="16.54" r="0.85"/>
    <circle cx="39.31" cy="17.24" r="0.85"/>
    <circle cx="26.42" cy="18.00" r="0.85"/>
    <circle cx="56.08" cy="17.86" r="0.85"/>
    <circle cx="41.21" cy="17.36" r="0.85"/>
    <circle cx="64.34" cy="16.23" r="0.85"/>
    <circle cx="75.56" cy="17.99" r="0.85"/>
    <circle cx="30.92" cy="18.36" r="0.85"/>
    <circle cx="70.23" cy="19.29" r="0.85"/>
    <circle cx="46.96" cy="20.83" r="0.85"/>
    <circle cx="51.10" cy="19.57" r="0.85"/>
    <circle cx="21.60" cy="19.33" r="0.85"/>
    <circle cx="73.42" cy="20.02" r="0.85"/>
    <circle cx="24.86" cy="20.45" r="0.85"/>
    <circle cx="60.81" cy="21.78" r="0.85"/>
    <circle cx="77.04" cy="21.34" r="0.85"/>
    <circle cx="36.33" cy="22.07" r="0.85"/>
    <circle cx="41.41" cy="22.73" r="0.85"/>
    <circle cx="31.02" cy="22.77" r="0.85"/>
    <circle cx="66.83" cy="21.94" r="0.85"/>
    <circle cx="52.54" cy="22.75" r="0.85"/>
    <circle cx="78.72" cy="22.07" r="0.85"/>
    <circle cx="20.96" cy="23.23" r="0.85"/>
    <circle cx="25.80" cy="24.11" r="0.85"/>
    <circle cx="72.76" cy="24.06" r="0.85"/>
    <circle cx="46.95" cy="21.73" r="0.85"/>
    <circle cx="55.30" cy="24.47" r="0.85"/>
    <circle cx="41.81" cy="25.21" r="0.85"/>
    <circle cx="66.72" cy="25.49" r="0.85"/>
    <circle cx="24.65" cy="25.26" r="0.85"/>
    <circle cx="35.05" cy="27.01" r="0.85"/>
    <circle cx="74.28" cy="25.67" r="0.85"/>
    <circle cx="21.14" cy="25.93" r="0.85"/>
    <circle cx="26.14" cy="25.54" r="0.85"/>
    <circle cx="62.55" cy="27.00" r="0.85"/>
    <circle cx="72.25" cy="25.57" r="0.85"/>
    <circle cx="78.39" cy="26.39" r="0.85"/>
    <circle cx="60.17" cy="26.85" r="0.85"/>
    <circle cx="47.25" cy="27.91" r="0.85"/>
    <circle cx="31.21" cy="28.44" r="0.85"/>
    <circle cx="54.55" cy="27.54" r="0.85"/>
    <circle cx="65.92" cy="29.43" r="0.85"/>
    <circle cx="36.19" cy="28.20" r="0.85"/>
    <circle cx="74.17" cy="29.61" r="0.85"/>
    <circle cx="26.95" cy="30.10" r="0.85"/>
    <circle cx="24.20" cy="30.03" r="0.85"/>
    <circle cx="41.55" cy="30.26" r="0.85"/>
    <circle cx="21.76" cy="29.73" r="0.85"/>
    <circle cx="71.29" cy="29.88" r="0.85"/>
    <circle cx="46.97" cy="29.19" r="0.85"/>
    <circle cx="57.42" cy="31.56" r="0.85"/>
    <circle cx="78.26" cy="30.34" r="0.85"/>
    <circle cx="32.45" cy="31.77" r="0.85"/>
    <circle cx="65.79" cy="30.44" r="0.85"/>
    <circle cx="59.91" cy="32.09" r="0.85"/>
    <circle cx="36.90" cy="32.09" r="0.85"/>
    <circle cx="51.05" cy="32.70" r="0.85"/>
    <circle cx="28.18" cy="33.20" r="0.85"/>
    <circle cx="67.13" cy="33.04" r="0.85"/>
    <circle cx="46.67" cy="34.19" r="0.85"/>
    <circle cx="74.83" cy="33.65" r="0.85"/>
    <circle cx="25.44" cy="33.08" r="0.85"/>
    <circle cx="32.80" cy="33.20" r="0.85"/>
    <circle cx="63.22" cy="34.94" r="0.85"/>
    <circle cx="37.53" cy="34.08" r="0.85"/>
    <circle cx="55.47" cy="35.00" r="0.85"/>
    <circle cx="58.61" cy="35.92" r="0.85"/>
    <circle cx="28.52" cy="34.78" r="0.85"/>
    <circle cx="51.08" cy="34.97" r="0.85"/>
    <circle cx="42.84" cy="36.55" r="0.85"/>
    <circle cx="68.67" cy="35.47" r="0.85"/>
    <circle cx="47.22" cy="35.50" r="0.85"/>
    <circle cx="64.30" cy="35.51" r="0.85"/>
    <circle cx="74.79" cy="36.40" r="0.85"/>
    <circle cx="24.28" cy="40.56" r="0.85"/>
    <circle cx="28.58" cy="38.41" r="0.85"/>
    <circle cx="50.93" cy="40.32" r="0.85"/>
    <circle cx="77.42" cy="40.98" r="0.85"/>
    <circle cx="68.82" cy="41.93" r="0.85"/>
    <circle cx="21.58" cy="41.31" r="0.85"/>
    <circle cx="75.12" cy="41.97" r="0.85"/>
    <circle cx="28.99" cy="43.80" r="0.85"/>
    <circle cx="57.28" cy="43.07" r="0.85"/>
    <circle cx="43.67" cy="43.32" r="0.85"/>
    <circle cx="50.73" cy="42.99" r="0.85"/>
    <circle cx="38.42" cy="44.78" r="0.85"/>
    <circle cx="59.95" cy="44.69" r="0.85"/>
    <circle cx="63.09" cy="44.42" r="0.85"/>
    <circle cx="22.27" cy="45.01" r="0.85"/>
    <circle cx="76.93" cy="45.18" r="0.85"/>
    <circle cx="33.85" cy="45.55" r="0.85"/>
    <circle cx="68.75" cy="44.76" r="0.85"/>
    <circle cx="74.43" cy="45.26" r="0.85"/>
    <circle cx="48.22" cy="46.18" r="0.85"/>
    <circle cx="41.03" cy="46.50" r="0.85"/>
    <circle cx="53.16" cy="47.09" r="0.85"/>
    <circle cx="30.67" cy="45.97" r="0.85"/>
    <circle cx="79.07" cy="46.19" r="0.85"/>
    <circle cx="20.90" cy="46.90" r="0.85"/>
    <circle cx="59.07" cy="47.07" r="0.85"/>
    <circle cx="39.53" cy="46.59" r="0.85"/>
    <circle cx="61.50" cy="46.96" r="0.85"/>
    <circle cx="27.01" cy="47.87" r="0.85"/>
    <circle cx="34.78" cy="46.82" r="0.85"/>
    <circle cx="74.51" cy="47.44" r="0.85"/>
    <circle cx="64.28" cy="48.12" r="0.85"/>
    <circle cx="67.80" cy="49.64" r="0.85"/>
    <circle cx="45.41" cy="49.97" r="0.85"/>
    <circle cx="21.30" cy="50.11" r="0.85"/>
    <circle cx="59.10" cy="50.71" r="0.85"/>
    <circle cx="47.07" cy="50.79" r="0.85"/>
    <circle cx="77.20" cy="50.80" r="0.85"/>
    <circle cx="34.48" cy="51.57" r="0.85"/>
    <circle cx="24.94" cy="49.37" r="0.85"/>
    <circle cx="42.91" cy="51.62" r="0.85"/>
    <circle cx="51.50" cy="52.58" r="0.85"/>
    <circle cx="60.17" cy="52.02" r="0.85"/>
    <circle cx="75.48" cy="51.71" r="0.85"/>
    <circle cx="30.02" cy="53.37" r="0.85"/>
    <circle cx="35.28" cy="52.39" r="0.85"/>
    <circle cx="78.25" cy="53.42" r="0.85"/>
    <circle cx="21.26" cy="53.42" r="0.85"/>
    <circle cx="46.02" cy="54.06" r="0.85"/>
    <circle cx="70.72" cy="54.32" r="0.85"/>
    <circle cx="64.05" cy="55.05" r="0.85"/>
    <circle cx="24.41" cy="54.98" r="0.85"/>
    <circle cx="51.81" cy="54.04" r="0.85"/>
    <circle cx="67.55" cy="55.73" r="0.85"/>
    <circle cx="39.18" cy="55.74" r="0.85"/>
    <circle cx="74.82" cy="56.74" r="0.85"/>
    <circle cx="44.10" cy="55.86" r="0.85"/>
    <circle cx="29.51" cy="56.38" r="0.85"/>
    <circle cx="34.51" cy="57.00" r="0.85"/>
    <circle cx="56.04" cy="57.20" r="0.85"/>
    <circle cx="47.41" cy="57.26" r="0.85"/>
    <circle cx="61.84" cy="57.54" r="0.85"/>
    <circle cx="24.70" cy="56.62" r="0.85"/>
    <circle cx="35.39" cy="57.84" r="0.85"/>
    <circle cx="68.97" cy="58.61" r="0.85"/>
    <circle cx="39.73" cy="60.55" r="0.85"/>
    <circle cx="46.21" cy="58.75" r="0.85"/>
    <circle cx="64.73" cy="58.93" r="0.85"/>
    <circle cx="74.87" cy="58.34" r="0.85"/>
    <circle cx="35.13" cy="58.84" r="0.85"/>
    <circle cx="57.09" cy="60.55" r="0.85"/>
    <circle cx="51.07" cy="61.59" r="0.85"/>
    <circle cx="24.51" cy="64.06" r="0.85"/>
    <circle cx="29.49" cy="65.10" r="0.85"/>
    <circle cx="75.23" cy="64.65" r="0.85"/>
    <circle cx="69.34" cy="64.65" r="0.85"/>
    <circle cx="21.19" cy="65.69" r="0.85"/>
    <circle cx="23.75" cy="65.94" r="0.85"/>
    <circle cx="77.00" cy="66.36" r="0.85"/>
    <circle cx="51.29" cy="66.95" r="0.85"/>
    <circle cx="44.53" cy="66.89" r="0.85"/>
    <circle cx="53.87" cy="66.96" r="0.85"/>
    <circle cx="28.93" cy="67.46" r="0.85"/>
    <circle cx="58.34" cy="67.47" r="0.85"/>
    <circle cx="38.51" cy="68.36" r="0.85"/>
    <circle cx="74.77" cy="67.68" r="0.85"/>
    <circle cx="61.07" cy="67.74" r="0.85"/>
    <circle cx="23.32" cy="68.42" r="0.85"/>
    <circle cx="35.23" cy="68.77" r="0.85"/>
    <circle cx="64.69" cy="68.87" r="0.85"/>
    <circle cx="69.34" cy="68.59" r="0.85"/>
    <circle cx="21.54" cy="69.24" r="0.85"/>
    <circle cx="76.87" cy="69.24" r="0.85"/>
    <circle cx="47.67" cy="69.71" r="0.85"/>
    <circle cx="52.77" cy="70.64" r="0.85"/>
    <circle cx="30.35" cy="69.87" r="0.85"/>
    <circle cx="43.44" cy="70.29" r="0.85"/>
    <circle cx="59.38" cy="70.58" r="0.85"/>
    <circle cx="32.85" cy="71.09" r="0.85"/>
    <circle cx="40.74" cy="71.19" r="0.85"/>
    <circle cx="62.89" cy="71.01" r="0.85"/>
    <circle cx="69.10" cy="69.61" r="0.85"/>
    <circle cx="74.52" cy="71.36" r="0.85"/>
    <circle cx="26.37" cy="72.56" r="0.85"/>
    <circle cx="21.31" cy="73.04" r="0.85"/>
    <circle cx="46.48" cy="74.69" r="0.85"/>
    <circle cx="42.48" cy="74.02" r="0.85"/>
    <circle cx="77.56" cy="74.58" r="0.85"/>
    <circle cx="34.91" cy="74.61" r="0.85"/>
    <circle cx="68.02" cy="74.27" r="0.85"/>
    <circle cx="25.03" cy="73.93" r="0.85"/>
    <circle cx="47.22" cy="75.55" r="0.85"/>
    <circle cx="74.80" cy="74.75" r="0.85"/>
    <circle cx="51.35" cy="76.80" r="0.85"/>
    <circle cx="60.26" cy="75.98" r="0.85"/>
    <circle cx="21.61" cy="75.27" r="0.85"/>
    <circle cx="36.10" cy="76.09" r="0.85"/>
    <circle cx="29.77" cy="77.56" r="0.85"/>
    <circle cx="59.78" cy="76.49" r="0.85"/>
    <circle cx="71.11" cy="78.23" r="0.85"/>
    <circle cx="42.38" cy="76.69" r="0.85"/>
    <circle cx="24.65" cy="78.54" r="0.85"/>
    <circle cx="78.96" cy="77.98" r="0.85"/>
    <circle cx="65.71" cy="79.74" r="0.85"/>
    <circle cx="33.03" cy="79.81" r="0.85"/>
    <circle cx="39.99" cy="80.27" r="0.85"/>
    <circle cx="46.12" cy="80.70" r="0.85"/>
    <circle cx="36.33" cy="80.93" r="0.85"/>
    <circle cx="70.65" cy="79.46" r="0.85"/>
    <circle cx="56.00" cy="81.68" r="0.85"/>
    <circle cx="24.76" cy="80.10" r="0.85"/>
    <circle cx="47.66" cy="81.08" r="0.85"/>
    <circle cx="59.47" cy="81.88" r="0.85"/>
    <circle cx="52.34" cy="82.18" r="0.85"/>
    <circle cx="74.87" cy="81.77" r="0.85"/>
    <circle cx="64.75" cy="81.24" r="0.85"/>
    <circle cx="29.25" cy="83.13" r="0.85"/>
    <circle cx="46.14" cy="82.07" r="0.85"/>
    <circle cx="61.56" cy="83.07" r="0.85"/>
    <circle cx="40.14" cy="84.74" r="0.85"/>
    <circle cx="35.96" cy="82.37" r="0.85"/>
    <circle cx="57.16" cy="83.40" r="0.85"/>
    <circle cx="51.46" cy="85.77" r="0.85"/>
  </g>
</svg>