<svg xmlns="http://www.w3.org/2000/svg" viewBox="0 0 100 100" fill="none">
  <g stroke="#00B3E3" stroke-width="0.25" stroke-linecap="round">
    <line x1="13.87" y1="25.39" x2="21.48" y2="28.91"/>
    <line x1="26.37" y1="47.27" x2="33.20" y2="47.46"/>
    <line x1="67.19" y1="42.77" x2="72.27" y2="47.07"/>
    <line x1="71.88" y1="65.23" x2="77.34" y2="66.41"/>
    <line x1="54.49" y1="11.52" x2="47.66" y2="16.99"/>
    <line x1="56.05" y1="37.70" x2="63.28" y2="37.89"/>
    <line x1="20.90" y1="22.66" x2="27.93" y2="24.61"/>
    <line x1="56.05" y1="37.70" x2="55.08" y2="41.99"/>
    <line x1="72.46" y1="71.29" x2="71.88" y2="75.00"/>
    <line x1="52.54" y1="56.64" x2="57.23" y2="58.40"/>
    <line x1="72.85" y1="22.46" x2="74.80" y2="31.84"/>
    <line x1="35.35" y1="52.54" x2="28.52" y2="53.91"/>
    <line x1="56.25" y1="31.45" x2="54.10" y2="35.55"/>
    <line x1="50.00" y1="49.22" x2="45.90" y2="52.93"/>
    <line x1="83.59" y1="35.35" x2="82.42" y2="43.16"/>
    <line x1="19.53" y1="42.19" x2="12.70" y2="47.07"/>
    <line x1="72.27" y1="47.07" x2="66.99" y2="48.24"/>
    <line x1="77.34" y1="66.41" x2="77.54" y2="72.66"/>
    <line x1="72.27" y1="47.07" x2="76.95" y2="54.30"/>
    <line x1="28.71" y1="41.02" x2="34.38" y2="41.60"/>
    <line x1="35.94" y1="17.77" x2="40.23" y2="22.85"/>
    <line x1="90.43" y1="53.91" x2="84.38" y2="57.81"/>
    <line x1="90.62" y1="48.05" x2="83.98" y2="50.20"/>
    <line x1="34.38" y1="41.60" x2="41.80" y2="41.80"/>
    <line x1="84.38" y1="66.21" x2="81.05" y2="70.31"/>
    <line x1="58.40" y1="81.05" x2="56.84" y2="83.79"/>
    <line x1="35.35" y1="52.54" x2="41.02" y2="52.54"/>
    <line x1="68.55" y1="34.96" x2="67.19" y2="42.77"/>
    <line x1="84.38" y1="57.81" x2="80.66" y2="60.74"/>
    <line x1="57.42" y1="49.61" x2="53.71" y2="51.95"/>
    <line x1="77.34" y1="66.41" x2="81.05" y2="70.31"/>
    <line x1="47.46" y1="36.52" x2="51.37" y2="38.67"/>
    <line x1="67.19" y1="42.77" x2="60.74" y2="47.07"/>
    <line x1="92.19" y1="57.81" x2="89.26" y2="63.48"/>
    <line x1="71.48" y1="58.59" x2="69.73" y2="62.50"/>
    <line x1="83.98" y1="50.20" x2="76.95" y2="54.30"/>
    <line x1="46.68" y1="45.70" x2="44.73" y2="48.44"/>
    <line x1="62.30" y1="51.95" x2="57.81" y2="53.52"/>
    <line x1="72.46" y1="71.29" x2="75.59" y2="74.61"/>
    <line x1="41.80" y1="63.28" x2="34.96" y2="63.67"/>
    <line x1="83.59" y1="35.35" x2="89.45" y2="36.52"/>
    <line x1="39.65" y1="46.48" x2="41.02" y2="52.54"/>
    <line x1="68.55" y1="34.96" x2="63.28" y2="37.89"/>
    <line x1="68.16" y1="68.95" x2="72.46" y2="71.29"/>
    <line x1="27.73" y1="16.02" x2="27.93" y2="24.61"/>
    <line x1="51.37" y1="38.67" x2="55.08" y2="41.99"/>
    <line x1="48.05" y1="60.94" x2="41.80" y2="63.28"/>
    <line x1="84.38" y1="57.81" x2="87.70" y2="61.91"/>
    <line x1="54.49" y1="64.26" x2="58.20" y2="65.62"/>
    <line x1="60.74" y1="47.07" x2="57.42" y2="49.61"/>
    <line x1="47.46" y1="36.52" x2="43.75" y2="37.30"/>
    <line x1="50.98" y1="32.23" x2="54.10" y2="35.55"/>
    <line x1="50.98" y1="32.23" x2="51.37" y2="38.67"/>
    <line x1="21.48" y1="28.91" x2="14.26" y2="30.47"/>
    <line x1="55.08" y1="41.99" x2="50.98" y2="43.95"/>
    <line x1="56.05" y1="37.70" x2="58.59" y2="39.65"/>
    <line x1="78.52" y1="47.46" x2="76.95" y2="54.30"/>
    <line x1="38.48" y1="37.50" x2="34.38" y2="41.60"/>
    <line x1="39.65" y1="46.48" x2="33.20" y2="47.46"/>
    <line x1="56.25" y1="31.45" x2="50.98" y2="32.23"/>
    <line x1="68.55" y1="34.96" x2="75.20" y2="40.23"/>
    <line x1="27.93" y1="24.61" x2="34.18" y2="27.15"/>
    <line x1="49.80" y1="53.52" x2="52.54" y2="56.64"/>
    <line x1="19.53" y1="42.19" x2="26.37" y2="47.27"/>
    <line x1="48.05" y1="60.94" x2="52.93" y2="61.72"/>
    <line x1="64.84" y1="74.02" x2="71.88" y2="75.00"/>
    <line x1="19.73" y1="50.20" x2="11.52" y2="51.37"/>
    <line x1="28.71" y1="41.02" x2="19.53" y2="42.19"/>
    <line x1="66.41" y1="65.23" x2="68.16" y2="68.95"/>
    <line x1="73.24" y1="17.38" x2="72.85" y2="22.46"/>
    <line x1="21.48" y1="28.91" x2="19.34" y2="36.13"/>
    <line x1="66.02" y1="60.16" x2="59.96" y2="62.11"/>
    <line x1="62.30" y1="51.95" x2="61.91" y2="57.03"/>
    <line x1="32.23" y1="34.18" x2="34.38" y2="41.60"/>
    <line x1="33.59" y1="57.42" x2="29.88" y2="61.13"/>
    <line x1="33.59" y1="57.42" x2="34.96" y2="63.67"/>
    <line x1="42.19" y1="31.25" x2="47.46" y2="36.52"/>
    <line x1="84.38" y1="57.81" x2="92.19" y2="57.81"/>
    <line x1="59.18" y1="68.55" x2="61.52" y2="72.27"/>
    <line x1="51.37" y1="38.67" x2="50.98" y2="43.95"/>
    <line x1="47.85" y1="26.95" x2="42.19" y2="31.25"/>
    <line x1="63.48" y1="21.48" x2="69.34" y2="27.54"/>
    <line x1="66.41" y1="65.23" x2="61.91" y2="65.82"/>
    <line x1="57.23" y1="58.40" x2="54.49" y2="64.26"/>
    <line x1="33.20" y1="47.46" x2="28.52" y2="53.91"/>
    <line x1="50.98" y1="43.95" x2="46.68" y2="45.70"/>
    <line x1="55.08" y1="41.99" x2="58.20" y2="43.55"/>
    <line x1="21.48" y1="28.91" x2="25.39" y2="33.40"/>
    <line x1="41.02" y1="52.54" x2="38.28" y2="58.59"/>
    <line x1="44.53" y1="56.64" x2="48.05" y2="60.94"/>
    <line x1="62.89" y1="68.36" x2="64.84" y2="74.02"/>
    <line x1="12.70" y1="47.07" x2="19.73" y2="50.20"/>
    <line x1="52.93" y1="61.72" x2="54.49" y2="64.26"/>
    <line x1="49.80" y1="53.52" x2="44.53" y2="56.64"/>
    <line x1="47.85" y1="26.95" x2="50.98" y2="32.23"/>
    <line x1="65.43" y1="62.89" x2="61.91" y2="65.82"/>
    <line x1="38.28" y1="58.59" x2="41.80" y2="63.28"/>
    <line x1="89.26" y1="63.48" x2="84.38" y2="66.21"/>
    <line x1="32.23" y1="34.18" x2="28.71" y2="41.02"/>
    <line x1="44.53" y1="56.64" x2="38.28" y2="58.59"/>
    <line x1="58.20" y1="71.48" x2="58.98" y2="73.44"/>
    <line x1="56.25" y1="24.22" x2="47.85" y2="26.95"/>
    <line x1="56.25" y1="24.22" x2="61.72" y2="31.64"/>
    <line x1="59.18" y1="68.55" x2="58.20" y2="71.48"/>
    <line x1="47.07" y1="65.04" x2="51.56" y2="70.31"/>
    <line x1="47.66" y1="16.99" x2="40.23" y2="22.85"/>
    <line x1="63.48" y1="21.48" x2="72.85" y2="22.46"/>
    <line x1="43.75" y1="37.30" x2="46.88" y2="40.62"/>
    <line x1="46.88" y1="40.62" x2="43.95" y2="44.53"/>
    <line x1="50.59" y1="71.48" x2="54.10" y2="77.73"/>
    <line x1="61.91" y1="65.82" x2="59.18" y2="68.55"/>
    <line x1="74.80" y1="31.84" x2="75.20" y2="40.23"/>
    <line x1="53.71" y1="51.95" x2="52.54" y2="56.64"/>
    <line x1="8.20" y1="44.92" x2="11.52" y2="51.37"/>
    <line x1="62.89" y1="68.36" x2="68.16" y2="68.95"/>
    <line x1="58.20" y1="71.48" x2="54.10" y2="77.73"/>
    <line x1="79.88" y1="64.65" x2="84.38" y2="66.21"/>
    <line x1="33.59" y1="57.42" x2="38.28" y2="58.59"/>
    <line x1="59.18" y1="68.55" x2="55.86" y2="69.34"/>
    <line x1="69.73" y1="62.50" x2="65.43" y2="62.89"/>
    <line x1="69.73" y1="62.50" x2="71.88" y2="65.23"/>
    <line x1="51.56" y1="70.31" x2="58.20" y2="71.48"/>
    <line x1="68.16" y1="53.71" x2="71.48" y2="58.59"/>
    <line x1="58.20" y1="43.55" x2="55.47" y2="46.88"/>
    <line x1="76.95" y1="54.30" x2="84.38" y2="57.81"/>
    <line x1="41.80" y1="41.80" x2="43.95" y2="44.53"/>
    <line x1="80.27" y1="27.15" x2="74.80" y2="31.84"/>
    <line x1="41.02" y1="52.54" x2="45.90" y2="52.93"/>
    <line x1="55.47" y1="46.88" x2="53.71" y2="51.95"/>
    <line x1="60.35" y1="86.33" x2="59.18" y2="88.48"/>
    <line x1="58.98" y1="73.44" x2="59.77" y2="78.12"/>
    <line x1="8.20" y1="44.92" x2="12.70" y2="47.07"/>
    <line x1="40.23" y1="22.85" x2="42.19" y2="31.25"/>
    <line x1="87.50" y1="30.66" x2="83.59" y2="35.35"/>
    <line x1="45.90" y1="52.93" x2="49.80" y2="53.52"/>
    <line x1="42.58" y1="11.72" x2="47.66" y2="16.99"/>
    <line x1="61.91" y1="57.03" x2="57.23" y2="58.40"/>
    <line x1="57.81" y1="53.52" x2="61.91" y2="57.03"/>
    <line x1="87.70" y1="42.38" x2="90.62" y2="48.05"/>
    <line x1="89.45" y1="36.52" x2="87.70" y2="42.38"/>
    <line x1="75.20" y1="40.23" x2="72.27" y2="47.07"/>
    <line x1="46.88" y1="40.62" x2="41.80" y2="41.80"/>
    <line x1="46.88" y1="40.62" x2="50.98" y2="43.95"/>
    <line x1="26.37" y1="47.27" x2="23.83" y2="55.86"/>
    <line x1="54.10" y1="77.73" x2="56.84" y2="83.79"/>
    <line x1="76.95" y1="54.30" x2="71.48" y2="58.59"/>
    <line x1="25.39" y1="33.40" x2="32.23" y2="34.18"/>
    <line x1="55.47" y1="46.88" x2="60.74" y2="47.07"/>
    <line x1="55.47" y1="46.88" x2="57.42" y2="49.61"/>
    <line x1="63.28" y1="37.89" x2="67.19" y2="42.77"/>
    <line x1="61.72" y1="42.19" x2="67.19" y2="42.77"/>
    <line x1="56.84" y1="83.79" x2="60.35" y2="86.33"/>
    <line x1="69.34" y1="27.54" x2="68.55" y2="34.96"/>
    <line x1="87.50" y1="30.66" x2="89.45" y2="36.52"/>
    <line x1="62.89" y1="68.36" x2="59.18" y2="68.55"/>
    <line x1="54.10" y1="35.55" x2="51.37" y2="38.67"/>
    <line x1="87.70" y1="42.38" x2="82.42" y2="43.16"/>
    <line x1="61.91" y1="57.03" x2="66.02" y2="60.16"/>
    <line x1="57.81" y1="53.52" x2="57.23" y2="58.40"/>
    <line x1="13.87" y1="25.39" x2="9.18" y2="32.42"/>
    <line x1="69.73" y1="62.50" x2="66.41" y2="65.23"/>
    <line x1="26.37" y1="47.27" x2="19.73" y2="50.20"/>
    <line x1="68.16" y1="53.71" x2="76.95" y2="54.30"/>
    <line x1="43.95" y1="44.53" x2="44.73" y2="48.44"/>
    <line x1="43.75" y1="37.30" x2="41.80" y2="41.80"/>
    <line x1="54.49" y1="11.52" x2="56.64" y2="16.80"/>
    <line x1="34.38" y1="41.60" x2="39.65" y2="46.48"/>
    <line x1="25.39" y1="33.40" x2="19.34" y2="36.13"/>
    <line x1="52.54" y1="56.64" x2="52.93" y2="61.72"/>
    <line x1="75.59" y1="63.48" x2="71.88" y2="65.23"/>
    <line x1="41.02" y1="52.54" x2="44.53" y2="56.64"/>
    <line x1="75.20" y1="40.23" x2="82.42" y2="43.16"/>
    <line x1="57.81" y1="53.52" x2="52.54" y2="56.64"/>
    <line x1="68.16" y1="53.71" x2="61.91" y2="57.03"/>
    <line x1="71.88" y1="65.23" x2="68.16" y2="68.95"/>
    <line x1="26.17" y1="59.57" x2="29.88" y2="61.13"/>
    <line x1="58.20" y1="65.62" x2="55.86" y2="69.34"/>
    <line x1="55.47" y1="46.88" x2="50.00" y2="49.22"/>
    <line x1="75.59" y1="63.48" x2="77.34" y2="66.41"/>
    <line x1="56.64" y1="16.80" x2="47.66" y2="16.99"/>
    <line x1="58.59" y1="39.65" x2="55.08" y2="41.99"/>
    <line x1="19.53" y1="42.19" x2="19.73" y2="50.20"/>
    <line x1="34.18" y1="27.15" x2="42.19" y2="31.25"/>
    <line x1="43.95" y1="44.53" x2="39.65" y2="46.48"/>
    <line x1="59.96" y1="62.11" x2="61.91" y2="65.82"/>
    <line x1="71.88" y1="65.23" x2="72.46" y2="71.29"/>
    <line x1="83.98" y1="50.20" x2="90.43" y2="53.91"/>
    <line x1="79.10" y1="20.51" x2="83.79" y2="25.78"/>
    <line x1="20.90" y1="22.66" x2="21.48" y2="28.91"/>
    <line x1="39.65" y1="46.48" x2="44.73" y2="48.44"/>
    <line x1="83.59" y1="35.35" x2="75.20" y2="40.23"/>
    <line x1="56.64" y1="16.80" x2="63.48" y2="21.48"/>
    <line x1="35.35" y1="52.54" x2="33.59" y2="57.42"/>
    <line x1="39.65" y1="46.48" x2="35.35" y2="52.54"/>
    <line x1="68.16" y1="68.95" x2="71.88" y2="75.00"/>
    <line x1="14.26" y1="30.47" x2="19.34" y2="36.13"/>
    <line x1="72.27" y1="47.07" x2="78.52" y2="47.46"/>
    <line x1="54.49" y1="64.26" x2="51.56" y2="70.31"/>
    <line x1="47.46" y1="36.52" x2="46.88" y2="40.62"/>
    <line x1="61.72" y1="31.64" x2="68.55" y2="34.96"/>
    <line x1="92.19" y1="57.81" x2="87.70" y2="61.91"/>
    <line x1="90.62" y1="48.05" x2="92.97" y2="50.00"/>
    <line x1="71.48" y1="58.59" x2="75.59" y2="63.48"/>
    <line x1="56.05" y1="37.70" x2="51.37" y2="38.67"/>
    <line x1="61.52" y1="72.27" x2="64.84" y2="74.02"/>
    <line x1="72.85" y1="22.46" x2="69.34" y2="27.54"/>
    <line x1="41.80" y1="63.28" x2="47.07" y2="65.04"/>
    <line x1="63.28" y1="37.89" x2="58.59" y2="39.65"/>
    <line x1="80.66" y1="60.74" x2="84.38" y2="66.21"/>
    <line x1="35.35" y1="52.54" x2="38.28" y2="58.59"/>
    <line x1="77.54" y1="72.66" x2="75.59" y2="74.61"/>
    <line x1="75.59" y1="74.61" x2="71.88" y2="75.00"/>
    <line x1="81.05" y1="70.31" x2="77.54" y2="72.66"/>
    <line x1="43.95" y1="44.53" x2="46.68" y2="45.70"/>
    <line x1="28.71" y1="41.02" x2="33.20" y2="47.46"/>
    <line x1="59.77" y1="78.12" x2="60.35" y2="86.33"/>
    <line x1="59.96" y1="62.11" x2="58.20" y2="65.62"/>
    <line x1="61.52" y1="72.27" x2="59.77" y2="78.12"/>
    <line x1="52.54" y1="56.64" x2="48.05" y2="60.94"/>
    <line x1="56.25" y1="31.45" x2="56.05" y2="37.70"/>
    <line x1="27.93" y1="24.61" x2="21.48" y2="28.91"/>
    <line x1="27.93" y1="24.61" x2="25.39" y2="33.40"/>
    <line x1="28.52" y1="53.91" x2="26.17" y2="59.57"/>
    <line x1="54.49" y1="64.26" x2="55.86" y2="69.34"/>
    <line x1="19.73" y1="50.20" x2="23.83" y2="55.86"/>
    <line x1="71.48" y1="58.59" x2="66.02" y2="60.16"/>
    <line x1="9.18" y1="32.42" x2="11.33" y2="38.48"/>
    <line x1="61.52" y1="72.27" x2="58.98" y2="73.44"/>
    <line x1="66.41" y1="14.45" x2="73.24" y2="17.38"/>
    <line x1="72.85" y1="22.46" x2="80.27" y2="27.15"/>
    <line x1="56.25" y1="31.45" x2="61.72" y2="31.64"/>
    <line x1="80.66" y1="60.74" x2="75.59" y2="63.48"/>
    <line x1="50.00" y1="49.22" x2="49.80" y2="53.52"/>
    <line x1="27.73" y1="16.02" x2="35.94" y2="17.77"/>
    <line x1="42.19" y1="31.25" x2="38.48" y2="37.50"/>
    <line x1="28.52" y1="53.91" x2="29.88" y2="61.13"/>
    <line x1="50.98" y1="32.23" x2="47.46" y2="36.52"/>
    <line x1="66.41" y1="65.23" x2="62.89" y2="68.36"/>
    <line x1="33.20" y1="47.46" x2="35.35" y2="52.54"/>
    <line x1="73.24" y1="17.38" x2="79.10" y2="20.51"/>
    <line x1="90.43" y1="53.91" x2="92.19" y2="57.81"/>
    <line x1="50.98" y1="43.95" x2="50.00" y2="49.22"/>
    <line x1="72.46" y1="71.29" x2="77.54" y2="72.66"/>
    <line x1="80.66" y1="60.74" x2="87.70" y2="61.91"/>
    <line x1="80.66" y1="60.74" x2="79.88" y2="64.65"/>
    <line x1="56.25" y1="24.22" x2="56.25" y2="31.45"/>
    <line x1="92.19" y1="42.38" x2="92.97" y2="50.00"/>
    <line x1="27.73" y1="16.02" x2="20.90" y2="22.66"/>
    <line x1="44.73" y1="48.44" x2="45.90" y2="52.93"/>
    <line x1="28.52" y1="53.91" x2="23.83" y2="55.86"/>
    <line x1="64.84" y1="74.02" x2="59.77" y2="78.12"/>
    <line x1="49.80" y1="53.52" x2="48.05" y2="60.94"/>
    <line x1="87.70" y1="61.91" x2="89.26" y2="63.48"/>
    <line x1="60.74" y1="47.07" x2="66.99" y2="48.24"/>
    <line x1="66.41" y1="65.23" x2="71.88" y2="65.23"/>
    <line x1="60.74" y1="47.07" x2="62.30" y2="51.95"/>
    <line x1="61.91" y1="65.82" x2="62.89" y2="68.36"/>
    <line x1="81.05" y1="70.31" x2="75.59" y2="74.61"/>
    <line x1="11.33" y1="38.48" x2="19.53" y2="42.19"/>
    <line x1="23.83" y1="55.86" x2="26.17" y2="59.57"/>
    <line x1="38.28" y1="58.59" x2="34.96" y2="63.67"/>
    <line x1="11.33" y1="38.48" x2="8.20" y2="44.92"/>
    <line x1="78.52" y1="47.46" x2="83.98" y2="50.20"/>
    <line x1="46.68" y1="45.70" x2="50.00" y2="49.22"/>
    <line x1="66.02" y1="60.16" x2="65.43" y2="62.89"/>
    <line x1="62.30" y1="51.95" x2="68.16" y2="53.71"/>
    <line x1="44.53" y1="56.64" x2="41.80" y2="63.28"/>
    <line x1="92.19" y1="42.38" x2="90.62" y2="48.05"/>
    <line x1="42.19" y1="31.25" x2="43.75" y2="37.30"/>
    <line x1="47.07" y1="65.04" x2="50.59" y2="71.48"/>
    <line x1="28.52" y1="53.91" x2="33.59" y2="57.42"/>
    <line x1="51.56" y1="70.31" x2="50.59" y2="71.48"/>
    <line x1="63.48" y1="21.48" x2="56.25" y2="24.22"/>
    <line x1="57.23" y1="58.40" x2="59.96" y2="62.11"/>
    <line x1="59.77" y1="78.12" x2="58.40" y2="81.05"/>
    <line x1="50.98" y1="43.95" x2="55.47" y2="46.88"/>
    <line x1="11.33" y1="38.48" x2="12.70" y2="47.07"/>
    <line x1="69.34" y1="27.54" x2="74.80" y2="31.84"/>
    <line x1="58.98" y1="73.44" x2="54.10" y2="77.73"/>
    <line x1="38.48" y1="37.50" x2="41.80" y2="41.80"/>
    <line x1="66.41" y1="14.45" x2="63.48" y2="21.48"/>
    <line x1="58.20" y1="71.48" x2="61.52" y2="72.27"/>
    <line x1="92.97" y1="50.00" x2="90.43" y2="53.91"/>
    <line x1="44.73" y1="48.44" x2="50.00" y2="49.22"/>
    <line x1="44.73" y1="48.44" x2="41.02" y2="52.54"/>
    <line x1="51.37" y1="38.67" x2="46.88" y2="40.62"/>
    <line x1="19.34" y1="36.13" x2="11.33" y2="38.48"/>
    <line x1="12.70" y1="47.07" x2="11.52" y2="51.37"/>
    <line x1="52.93" y1="61.72" x2="47.07" y2="65.04"/>
    <line x1="19.34" y1="36.13" x2="19.53" y2="42.19"/>
    <line x1="54.10" y1="77.73" x2="58.40" y2="81.05"/>
    <line x1="41.80" y1="41.80" x2="39.65" y2="46.48"/>
    <line x1="66.99" y1="48.24" x2="68.16" y2="53.71"/>
    <line x1="55.08" y1="41.99" x2="55.47" y2="46.88"/>
    <line x1="66.02" y1="60.16" x2="69.73" y2="62.50"/>
    <line x1="40.23" y1="22.85" x2="34.18" y2="27.15"/>
    <line x1="62.89" y1="68.36" x2="61.52" y2="72.27"/>
    <line x1="79.88" y1="64.65" x2="81.05" y2="70.31"/>
    <line x1="56.25" y1="24.22" x2="50.98" y2="32.23"/>
    <line x1="42.19" y1="31.25" x2="50.98" y2="32.23"/>
    <line x1="82.42" y1="43.16" x2="78.52" y2="47.46"/>
    <line x1="75.20" y1="40.23" x2="78.52" y2="47.46"/>
    <line x1="43.75" y1="37.30" x2="38.48" y2="37.50"/>
    <line x1="51.56" y1="70.31" x2="54.10" y2="77.73"/>
    <line x1="46.88" y1="40.62" x2="46.68" y2="45.70"/>
    <line x1="76.95" y1="54.30" x2="80.66" y2="60.74"/>
    <line x1="65.43" y1="62.89" x2="66.41" y2="65.23"/>
    <line x1="76.95" y1="54.30" x2="75.59" y2="63.48"/>
    <line x1="53.71" y1="51.95" x2="57.81" y2="53.52"/>
    <line x1="69.34" y1="27.54" x2="61.72" y2="31.64"/>
    <line x1="45.90" y1="52.93" x2="44.53" y2="56.64"/>
    <line x1="92.97" y1="50.00" x2="92.19" y2="57.81"/>
    <line x1="75.20" y1="40.23" x2="67.19" y2="42.77"/>
    <line x1="83.79" y1="25.78" x2="80.27" y2="27.15"/>
    <line x1="87.70" y1="42.38" x2="83.98" y2="50.20"/>
    <line x1="69.73" y1="62.50" x2="75.59" y2="63.48"/>
    <line x1="61.72" y1="31.64" x2="63.28" y2="37.89"/>
    <line x1="58.20" y1="43.55" x2="60.74" y2="47.07"/>
    <line x1="68.16" y1="53.71" x2="66.02" y2="60.16"/>
    <line x1="54.10" y1="77.73" x2="59.77" y2="78.12"/>
    <line x1="74.80" y1="31.84" x2="83.59" y2="35.35"/>
    <line x1="25.39" y1="33.40" x2="28.71" y2="41.02"/>
    <line x1="40.23" y1="22.85" x2="47.85" y2="26.95"/>
    <line x1="56.64" y1="16.80" x2="56.25" y2="24.22"/>
    <line x1="32.23" y1="34.18" x2="38.48" y2="37.50"/>
    <line x1="42.58" y1="11.72" x2="35.94" y2="17.77"/>
    <line x1="87.70" y1="42.38" x2="92.19" y2="42.38"/>
    <line x1="83.79" y1="25.78" x2="87.50" y2="30.66"/>
    <line x1="82.42" y1="43.16" x2="83.98" y2="50.20"/>
    <line x1="57.23" y1="58.40" x2="52.93" y2="61.72"/>
    <line x1="90.62" y1="48.05" x2="90.43" y2="53.91"/>
    <line x1="80.27" y1="27.15" x2="83.59" y2="35.35"/>
    <line x1="58.20" y1="65.62" x2="61.91" y2="65.82"/>
    <line x1="53.71" y1="51.95" x2="49.80" y2="53.52"/>
    <line x1="66.99" y1="48.24" x2="62.30" y2="51.95"/>
    <line x1="61.72" y1="42.19" x2="58.20" y2="43.55"/>
    <line x1="83.59" y1="35.35" x2="87.70" y2="42.38"/>
    <line x1="29.88" y1="61.13" x2="34.96" y2="63.67"/>
    <line x1="79.88" y1="64.65" x2="77.34" y2="66.41"/>
    <line x1="72.27" y1="47.07" x2="68.16" y2="53.71"/>
    <line x1="13.87" y1="25.39" x2="14.26" y2="30.47"/>
    <line x1="35.94" y1="17.77" x2="34.18" y2="27.15"/>
    <line x1="61.72" y1="31.64" x2="56.05" y2="37.70"/>
    <line x1="59.96" y1="62.11" x2="54.49" y2="64.26"/>
    <line x1="55.86" y1="69.34" x2="51.56" y2="70.31"/>
    <line x1="26.37" y1="47.27" x2="28.52" y2="53.91"/>
    <line x1="79.10" y1="20.51" x2="72.85" y2="22.46"/>
    <line x1="79.10" y1="20.51" x2="80.27" y2="27.15"/>
    <line x1="74.80" y1="31.84" x2="68.55" y2="34.96"/>
    <line x1="20.90" y1="22.66" x2="13.87" y2="25.39"/>
    <line x1="58.20" y1="65.62" x2="59.18" y2="68.55"/>
    <line x1="63.28" y1="37.89" x2="61.72" y2="42.19"/>
    <line x1="58.59" y1="39.65" x2="58.20" y2="43.55"/>
    <line x1="14.26" y1="30.47" x2="9.18" y2="32.42"/>
    <line x1="54.10" y1="35.55" x2="56.05" y2="37.70"/>
    <line x1="57.42" y1="49.61" x2="57.81" y2="53.52"/>
    <line x1="61.91" y1="57.03" x2="59.96" y2="62.11"/>
    <line x1="89.45" y1="36.52" x2="92.19" y2="42.38"/>
    <line x1="67.19" y1="42.77" x2="66.99" y2="48.24"/>
    <line x1="59.96" y1="62.11" x2="65.43" y2="62.89"/>
    <line x1="28.71" y1="41.02" x2="26.37" y2="47.27"/>
    <line x1="34.18" y1="27.15" x2="32.23" y2="34.18"/>
    <line x1="55.86" y1="69.34" x2="58.20" y2="71.48"/>
    <line x1="80.27" y1="27.15" x2="87.50" y2="30.66"/>
    <line x1="83.98" y1="50.20" x2="84.38" y2="57.81"/>
    <line x1="58.40" y1="81.05" x2="60.35" y2="86.33"/>
    <line x1="34.38" y1="41.60" x2="33.20" y2="47.46"/>
    <line x1="75.59" y1="63.48" x2="79.88" y2="64.65"/>
    <line x1="50.00" y1="49.22" x2="53.71" y2="51.95"/>
    <line x1="56.84" y1="83.79" x2="59.18" y2="88.48"/>
    <line x1="58.59" y1="39.65" x2="61.72" y2="42.19"/>
    <line x1="61.72" y1="42.19" x2="60.74" y2="47.07"/>
    <line x1="68.16" y1="68.95" x2="64.84" y2="74.02"/>
    <line x1="14.26" y1="30.47" x2="11.33" y2="38.48"/>
    <line x1="57.42" y1="49.61" x2="62.30" y2="51.95"/>
    <line x1="77.34" y1="66.41" x2="72.46" y2="71.29"/>
    <line x1="48.05" y1="60.94" x2="47.07" y2="65.04"/>
    <line x1="54.49" y1="64.26" x2="47.07" y2="65.04"/>
    <line x1="87.70" y1="61.91" x2="84.38" y2="66.21"/>
  </g>
  <g fill="#00B3E3">
    <circle cx="54.49" cy="11.52" r="0.7"/>
    <circle cx="42.58" cy="11.72" r="0.7"/>
    <circle cx="66.41" cy="14.45" r="0.7"/>
    <circle cx="27.73" cy="16.02" r="0.7"/>
    <circle cx="56.64" cy="16.80" r="0.7"/>
    <circle cx="47.66" cy="16.99" r="0.7"/>
    <circle cx="73.24" cy="17.38" r="0.7"/>
    <circle cx="35.94" cy="17.77" r="0.7"/>
    <circle cx="79.10" cy="20.51" r="0.7"/>
    <circle cx="63.48" cy="21.48" r="0.7"/>
    <circle cx="72.85" cy="22.46" r="0.7"/>
    <circle cx="20.90" cy="22.66" r="0.7"/>
    <circle cx="40.23" cy="22.85" r="0.7"/>
    <circle cx="56.25" cy="24.22" r="0.7"/>
    <circle cx="27.93" cy="24.61" r="0.7"/>
    <circle cx="13.87" cy="25.39" r="0.7"/>
    <circle cx="83.79" cy="25.78" r="0.7"/>
    <circle cx="47.85" cy="26.95" r="0.7"/>
    <circle cx="34.18" cy="27.15" r="0.7"/>
    <circle cx="80.27" cy="27.15" r="0.7"/>
    <circle cx="69.34" cy="27.54" r="0.7"/>
    <circle cx="21.48" cy="28.91" r="0.7"/>
    <circle cx="14.26" cy="30.47" r="0.7"/>
    <circle cx="87.50" cy="30.66" r="0.7"/>
    <circle cx="42.19" cy="31.25" r="0.7"/>
    <circle cx="56.25" cy="31.45" r="0.7"/>
    <circle cx="61.72" cy="31.64" r="0.7"/>
    <circle cx="74.80" cy="31.84" r="0.7"/>
    <circle cx="50.98" cy="32.23" r="0.7"/>
    <circle cx="9.18" cy="32.42" r="0.7"/>
    <circle cx="25.39" cy="33.40" r="0.7"/>
    <circle cx="32.23" cy="34.18" r="0.7"/>
    <circle cx="68.55" cy="34.96" r="0.7"/>
    <circle cx="83.59" cy="35.35" r="0.7"/>
    <circle cx="54.10" cy="35.55" r="0.7"/>
    <circle cx="19.34" cy="36.13" r="0.7"/>
    <circle cx="47.46" cy="36.52" r="0.7"/>
    <circle cx="89.45" cy="36.52" r="0.7"/>
    <circle cx="43.75" cy="37.30" r="0.7"/>
    <circle cx="38.48" cy="37.50" r="0.7"/>
    <circle cx="56.05" cy="37.70" r="0.7"/>
    <circle cx="63.28" cy="37.89" r="0.7"/>
    <circle cx="11.33" cy="38.48" r="0.7"/>
    <circle cx="51.37" cy="38.67" r="0.7"/>
    <circle cx="58.59" cy="39.65" r="0.7"/>
    <circle cx="75.20" cy="40.23" r="0.7"/>
    <circle cx="46.88" cy="40.62" r="0.7"/>
    <circle cx="28.71" cy="41.02" r="0.7"/>
    <circle cx="34.38" cy="41.60" r="0.7"/>
    <circle cx="41.80" cy="41.80" r="0.7"/>
    <circle cx="55.08" cy="41.99" r="0.7"/>
    <circle cx="19.53" cy="42.19" r="0.7"/>
    <circle cx="61.72" cy="42.19" r="0.7"/>
    <circle cx="87.70" cy="42.38" r="0.7"/>
    <circle cx="92.19" cy="42.38" r="0.7"/>
    <circle cx="67.19" cy="42.77" r="0.7"/>
    <circle cx="82.42" cy="43.16" r="0.7"/>
    <circle cx="58.20" cy="43.55" r="0.7"/>
    <circle cx="50.98" cy="43.95" r="0.7"/>
    <circle cx="43.95" cy="44.53" r="0.7"/>
    <circle cx="8.20" cy="44.92" r="0.7"/>
    <circle cx="46.68" cy="45.70" r="0.7"/>
    <circle cx="39.65" cy="46.48" r="0.7"/>
    <circle cx="55.47" cy="46.88" r="0.7"/>
    <circle cx="12.70" cy="47.07" r="0.7"/>
    <circle cx="60.74" cy="47.07" r="0.7"/>
    <circle cx="72.27" cy="47.07" r="0.7"/>
    <circle cx="26.37" cy="47.27" r="0.7"/>
    <circle cx="33.20" cy="47.46" r="0.7"/>
    <circle cx="78.52" cy="47.46" r="0.7"/>
    <circle cx="90.62" cy="48.05" r="0.7"/>
    <circle cx="66.99" cy="48.24" r="0.7"/>
    <circle cx="44.73" cy="48.44" r="0.7"/>
    <circle cx="50.00" cy="49.22" r="0.7"/>
    <circle cx="57.42" cy="49.61" r="0.7"/>
    <circle cx="92.97" cy="50.00" r="0.7"/>
    <circle cx="19.73" cy="50.20" r="0.7"/>
    <circle cx="83.98" cy="50.20" r="0.7"/>
    <circle cx="11.52" cy="51.37" r="0.7"/>
    <circle cx="53.71" cy="51.95" r="0.7"/>
    <circle cx="62.30" cy="51.95" r="0.7"/>
    <circle cx="35.35" cy="52.54" r="0.7"/>
    <circle cx="41.02" cy="52.54" r="0.7"/>
    <circle cx="45.90" cy="52.93" r="0.7"/>
    <circle cx="49.80" cy="53.52" r="0.7"/>
    <circle cx="57.81" cy="53.52" r="0.7"/>
    <circle cx="68.16" cy="53.71" r="0.7"/>
    <circle cx="28.52" cy="53.91" r="0.7"/>
    <circle cx="90.43" cy="53.91" r="0.7"/>
    <circle cx="76.95" cy="54.30" r="0.7"/>
    <circle cx="23.83" cy="55.86" r="0.7"/>
    <circle cx="44.53" cy="56.64" r="0.7"/>
    <circle cx="52.54" cy="56.64" r="0.7"/>
    <circle cx="61.91" cy="57.03" r="0.7"/>
    <circle cx="33.59" cy="57.42" r="0.7"/>
    <circle cx="84.38" cy="57.81" r="0.7"/>
    <circle cx="92.19" cy="57.81" r="0.7"/>
    <circle cx="57.23" cy="58.40" r="0.7"/>
    <circle cx="38.28" cy="58.59" r="0.7"/>
    <circle cx="71.48" cy="58.59" r="0.7"/>
    <circle cx="26.17" cy="59.57" r="0.7"/>
    <circle cx="66.02" cy="60.16" r="0.7"/>
    <circle cx="80.66" cy="60.74" r="0.7"/>
    <circle cx="48.05" cy="60.94" r="0.7"/>
    <circle cx="29.88" cy="61.13" r="0.7"/>
    <circle cx="52.93" cy="61.72" r="0.7"/>
    <circle cx="87.70" cy="61.91" r="0.7"/>
    <circle cx="59.96" cy="62.11" r="0.7"/>
    <circle cx="69.73" cy="62.50" r="0.7"/>
    <circle cx="65.43" cy="62.89" r="0.7"/>
    <circle cx="41.80" cy="63.28" r="0.7"/>
    <circle cx="75.59" cy="63.48" r="0.7"/>
    <circle cx="89.26" cy="63.48" r="0.7"/>
    <circle cx="34.96" cy="63.67" r="0.7"/>
    <circle cx="54.49" cy="64.26" r="0.7"/>
    <circle cx="79.88" cy="64.65" r="0.7"/>
    <circle cx="47.07" cy="65.04" r="0.7"/>
    <circle cx="66.41" cy="65.23" r="0.7"/>
    <circle cx="71.88" cy="65.23" r="0.7"/>
    <circle cx="58.20" cy="65.62" r="0.7"/>
    <circle cx="61.91" cy="65.82" r="0.7"/>
    <circle cx="84.38" cy="66.21" r="0.7"/>
    <circle cx="77.34" cy="66.41" r="0.7"/>
    <circle cx="62.89" cy="68.36" r="0.7"/>
    <circle cx="59.18" cy="68.55" r="0.7"/>
    <circle cx="68.16" cy="68.95" r="0.7"/>
    <circle cx="55.86" cy="69.34" r="0.7"/>
    <circle cx="51.56" cy="70.31" r="0.7"/>
    <circle cx="81.05" cy="70.31" r="0.7"/>
    <circle cx="72.46" cy="71.29" r="0.7"/>
    <circle cx="50.59" cy="71.48" r="0.7"/>
    <circle cx="58.20" cy="71.48" r="0.7"/>
    <circle cx="61.52" cy="72.27" r="0.7"/>
    <circle cx="77.54" cy="72.66" r="0.7"/>
    <circle cx="58.98" cy="73.44" r="0.7"/>
    <circle cx="64.84" cy="74.02" r="0.7"/>
    <circle cx="75.59" cy="74.61" r="0.7"/>
    <circle cx="71.88" cy="75.00" r="0.7"/>
    <circle cx="54.10" cy="77.73" r="0.7"/>
    <circle cx="59.77" cy="78.12" r="0.7"/>
    <circle cx="58.40" cy="81.05" r="0.7"/>
    <circle cx="56.84" cy="83.79" r="0.7"/>
    <circle cx="60.35" cy="86.33" r="0.7"/>
    <circle cx="59.18" cy="88.48" r="0.7"/>
  </g>
</svg>