<svg xmlns="http://www.w3.org/2000/svg" viewBox="0 0 100 100" fill="none">
  <g stroke="#00B3E3" stroke-width="0.3" stroke-linecap="round">
    <line x1="41.21" y1="13.59" x2="37.52" y2="15.82"/>
    <line x1="41.21" y1="13.59" x2="39.87" y2="16.89"/>
    <line x1="36.65" y1="14.39" x2="35.35" y2="15.53"/>
    <line x1="36.65" y1="14.39" x2="37.52" y2="15.82"/>
    <line x1="35.35" y1="15.53" x2="35.18" y2="17.62"/>
    <line x1="37.52" y1="15.82" x2="36.73" y2="17.83"/>
    <line x1="35.18" y1="17.62" x2="36.73" y2="17.83"/>
    <line x1="35.18" y1="17.62" x2="33.95" y2="20.18"/>
    <line x1="36.73" y1="17.83" x2="36.77" y2="21.08"/>
    <line x1="52.02" y1="18.64" x2="53.85" y2="20.55"/>
    <line x1="52.02" y1="18.64" x2="49.41" y2="20.16"/>
    <line x1="52.02" y1="18.64" x2="52.28" y2="20.81"/>
    <line x1="41.86" y1="19.44" x2="39.15" y2="18.39"/>
    <line x1="41.86" y1="19.44" x2="42.42" y2="20.35"/>
    <line x1="41.86" y1="19.44" x2="40.70" y2="21.33"/>
    <line x1="23.83" y1="20.02" x2="25.13" y2="22.64"/>
    <line x1="23.83" y1="20.02" x2="20.36" y2="22.75"/>
    <line x1="27.23" y1="21.11" x2="19.66" y2="21.00"/>
    <line x1="27.23" y1="21.11" x2="30.03" y2="22.07"/>
    <line x1="27.23" y1="21.11" x2="25.13" y2="22.64"/>
    <line x1="27.23" y1="21.11" x2="27.19" y2="23.06"/>
    <line x1="53.85" y1="20.55" x2="55.86" y2="21.92"/>
    <line x1="33.95" y1="20.18" x2="30.03" y2="22.07"/>
    <line x1="33.95" y1="20.18" x2="30.99" y2="23.32"/>
    <line x1="49.41" y1="20.16" x2="52.28" y2="20.81"/>
    <line x1="36.77" y1="21.08" x2="40.70" y2="21.33"/>
    <line x1="36.77" y1="21.08" x2="37.78" y2="22.56"/>
    <line x1="36.77" y1="21.08" x2="33.49" y2="25.07"/>
    <line x1="19.66" y1="21.00" x2="23.18" y2="21.42"/>
    <line x1="19.66" y1="21.00" x2="20.36" y2="22.75"/>
    <line x1="42.42" y1="20.35" x2="43.58" y2="21.20"/>
    <line x1="23.18" y1="21.42" x2="25.13" y2="22.64"/>
    <line x1="40.70" y1="21.33" x2="39.97" y2="23.81"/>
    <line x1="43.58" y1="21.20" x2="47.89" y2="21.72"/>
    <line x1="43.58" y1="21.20" x2="44.75" y2="23.58"/>
    <line x1="52.28" y1="20.81" x2="50.52" y2="23.14"/>
    <line x1="47.89" y1="21.72" x2="50.52" y2="23.14"/>
    <line x1="47.89" y1="21.72" x2="44.75" y2="23.58"/>
    <line x1="55.86" y1="21.92" x2="54.24" y2="22.01"/>
    <line x1="55.86" y1="21.92" x2="54.74" y2="23.33"/>
    <line x1="25.13" y1="22.64" x2="27.19" y2="23.06"/>
    <line x1="25.13" y1="22.64" x2="22.40" y2="26.04"/>
    <line x1="54.24" y1="22.01" x2="54.74" y2="23.33"/>
    <line x1="37.78" y1="22.56" x2="39.97" y2="23.81"/>
    <line x1="30.99" y1="23.32" x2="27.19" y2="23.06"/>
    <line x1="50.52" y1="23.14" x2="51.28" y2="23.55"/>
    <line x1="50.52" y1="23.14" x2="47.64" y2="25.27"/>
    <line x1="50.52" y1="23.14" x2="53.68" y2="27.96"/>
    <line x1="27.19" y1="23.06" x2="26.82" y2="25.34"/>
    <line x1="44.75" y1="23.58" x2="41.30" y2="24.24"/>
    <line x1="44.75" y1="23.58" x2="47.64" y2="25.27"/>
    <line x1="44.75" y1="23.58" x2="46.04" y2="25.44"/>
    <line x1="39.97" y1="23.81" x2="41.30" y2="24.24"/>
    <line x1="39.97" y1="23.81" x2="40.39" y2="25.71"/>
    <line x1="51.28" y1="23.55" x2="50.37" y2="27.56"/>
    <line x1="23.24" y1="23.91" x2="22.40" y2="26.04"/>
    <line x1="33.49" y1="25.07" x2="30.27" y2="24.26"/>
    <line x1="33.49" y1="25.07" x2="36.23" y2="26.73"/>
    <line x1="33.49" y1="25.07" x2="30.99" y2="29.84"/>
    <line x1="41.30" y1="24.24" x2="40.39" y2="25.71"/>
    <line x1="54.74" y1="23.33" x2="53.68" y2="27.96"/>
    <line x1="47.64" y1="25.27" x2="46.04" y2="25.44"/>
    <line x1="47.64" y1="25.27" x2="50.37" y2="27.56"/>
    <line x1="22.40" y1="26.04" x2="22.66" y2="26.80"/>
    <line x1="26.82" y1="25.34" x2="24.22" y2="25.91"/>
    <line x1="26.82" y1="25.34" x2="26.32" y2="28.56"/>
    <line x1="46.04" y1="25.44" x2="43.75" y2="25.53"/>
    <line x1="46.04" y1="25.44" x2="43.16" y2="29.47"/>
    <line x1="40.39" y1="25.71" x2="36.23" y2="26.73"/>
    <line x1="40.39" y1="25.71" x2="36.88" y2="29.18"/>
    <line x1="36.23" y1="26.73" x2="36.88" y2="29.18"/>
    <line x1="22.66" y1="26.80" x2="26.32" y2="28.56"/>
    <line x1="22.66" y1="26.80" x2="19.14" y2="31.66"/>
    <line x1="22.66" y1="26.80" x2="22.12" y2="32.78"/>
    <line x1="50.37" y1="27.56" x2="51.40" y2="27.96"/>
    <line x1="50.37" y1="27.56" x2="45.61" y2="30.89"/>
    <line x1="53.68" y1="27.96" x2="54.41" y2="30.03"/>
    <line x1="41.18" y1="27.57" x2="43.16" y2="29.47"/>
    <line x1="41.18" y1="27.57" x2="41.93" y2="30.37"/>
    <line x1="46.97" y1="26.32" x2="45.61" y2="30.89"/>
    <line x1="51.40" y1="27.96" x2="54.41" y2="30.03"/>
    <line x1="51.40" y1="27.96" x2="50.78" y2="32.03"/>
    <line x1="26.32" y1="28.56" x2="22.12" y2="32.78"/>
    <line x1="30.99" y1="29.84" x2="30.45" y2="30.45"/>
    <line x1="43.16" y1="29.47" x2="45.61" y2="30.89"/>
    <line x1="54.41" y1="30.03" x2="55.24" y2="32.06"/>
    <line x1="30.45" y1="30.45" x2="29.00" y2="33.04"/>
    <line x1="30.45" y1="30.45" x2="26.95" y2="33.84"/>
    <line x1="45.61" y1="30.89" x2="44.01" y2="33.24"/>
    <line x1="12.89" y1="31.38" x2="11.33" y2="34.38"/>
    <line x1="26.56" y1="31.59" x2="26.95" y2="33.84"/>
    <line x1="15.76" y1="32.01" x2="19.14" y2="31.66"/>
    <line x1="19.14" y1="31.66" x2="15.61" y2="33.73"/>
    <line x1="19.14" y1="31.66" x2="18.33" y2="36.13"/>
    <line x1="50.78" y1="32.03" x2="48.34" y2="32.29"/>
    <line x1="55.24" y1="32.06" x2="52.42" y2="33.75"/>
    <line x1="55.24" y1="32.06" x2="54.61" y2="34.75"/>
    <line x1="55.24" y1="32.06" x2="60.07" y2="35.13"/>
    <line x1="22.12" y1="32.78" x2="18.33" y2="36.13"/>
    <line x1="22.12" y1="32.78" x2="22.30" y2="37.29"/>
    <line x1="44.01" y1="33.24" x2="45.44" y2="33.12"/>
    <line x1="58.51" y1="32.94" x2="60.28" y2="33.04"/>
    <line x1="58.51" y1="32.94" x2="60.07" y2="35.13"/>
    <line x1="60.28" y1="33.04" x2="62.22" y2="33.93"/>
    <line x1="60.28" y1="33.04" x2="60.07" y2="35.13"/>
    <line x1="29.00" y1="33.04" x2="26.95" y2="33.84"/>
    <line x1="14.37" y1="33.04" x2="12.70" y2="37.30"/>
    <line x1="52.42" y1="33.75" x2="50.70" y2="33.93"/>
    <line x1="26.95" y1="33.84" x2="27.43" y2="34.71"/>
    <line x1="26.95" y1="33.84" x2="22.30" y2="37.29"/>
    <line x1="26.95" y1="33.84" x2="26.45" y2="39.54"/>
    <line x1="45.44" y1="33.12" x2="45.35" y2="35.51"/>
    <line x1="15.61" y1="33.73" x2="14.31" y2="36.19"/>
    <line x1="15.61" y1="33.73" x2="16.18" y2="37.94"/>
    <line x1="50.70" y1="33.93" x2="45.35" y2="35.51"/>
    <line x1="50.70" y1="33.93" x2="50.22" y2="39.20"/>
    <line x1="54.61" y1="34.75" x2="56.80" y2="36.68"/>
    <line x1="54.61" y1="34.75" x2="54.05" y2="35.89"/>
    <line x1="60.07" y1="35.13" x2="60.81" y2="35.72"/>
    <line x1="60.07" y1="35.13" x2="56.80" y2="36.68"/>
    <line x1="60.07" y1="35.13" x2="59.98" y2="36.28"/>
    <line x1="18.33" y1="36.13" x2="22.30" y2="37.29"/>
    <line x1="18.33" y1="36.13" x2="18.77" y2="37.95"/>
    <line x1="45.35" y1="35.51" x2="47.40" y2="38.87"/>
    <line x1="60.81" y1="35.72" x2="63.32" y2="36.88"/>
    <line x1="60.81" y1="35.72" x2="59.98" y2="36.28"/>
    <line x1="14.31" y1="36.19" x2="12.70" y2="37.30"/>
    <line x1="56.80" y1="36.68" x2="57.54" y2="39.06"/>
    <line x1="56.80" y1="36.68" x2="54.49" y2="40.79"/>
    <line x1="54.05" y1="35.89" x2="50.22" y2="39.20"/>
    <line x1="54.05" y1="35.89" x2="54.49" y2="40.79"/>
    <line x1="22.30" y1="37.29" x2="24.26" y2="38.59"/>
    <line x1="59.98" y1="36.28" x2="57.54" y2="39.06"/>
    <line x1="16.18" y1="37.94" x2="18.77" y2="37.95"/>
    <line x1="18.77" y1="37.95" x2="17.65" y2="39.47"/>
    <line x1="24.26" y1="38.59" x2="26.45" y2="39.54"/>
    <line x1="24.26" y1="38.59" x2="21.17" y2="40.40"/>
    <line x1="50.22" y1="39.20" x2="49.95" y2="40.45"/>
    <line x1="62.99" y1="37.87" x2="60.71" y2="38.61"/>
    <line x1="47.40" y1="38.87" x2="49.95" y2="40.45"/>
    <line x1="47.40" y1="38.87" x2="45.55" y2="41.47"/>
    <line x1="57.54" y1="39.06" x2="60.71" y2="38.61"/>
    <line x1="57.54" y1="39.06" x2="56.71" y2="40.64"/>
    <line x1="26.45" y1="39.54" x2="26.93" y2="41.95"/>
    <line x1="73.02" y1="39.84" x2="71.46" y2="41.69"/>
    <line x1="21.17" y1="40.40" x2="17.65" y2="39.47"/>
    <line x1="21.17" y1="40.40" x2="21.47" y2="41.20"/>
    <line x1="21.17" y1="40.40" x2="18.26" y2="43.07"/>
    <line x1="54.49" y1="40.79" x2="56.71" y2="40.64"/>
    <line x1="54.49" y1="40.79" x2="54.47" y2="41.57"/>
    <line x1="70.70" y1="41.10" x2="71.46" y2="41.69"/>
    <line x1="70.70" y1="41.10" x2="69.71" y2="42.77"/>
    <line x1="49.95" y1="40.45" x2="51.59" y2="41.38"/>
    <line x1="49.95" y1="40.45" x2="45.55" y2="41.47"/>
    <line x1="49.95" y1="40.45" x2="49.82" y2="45.85"/>
    <line x1="49.95" y1="40.45" x2="46.76" y2="45.96"/>
    <line x1="56.71" y1="40.64" x2="56.79" y2="43.26"/>
    <line x1="51.59" y1="41.38" x2="51.98" y2="43.70"/>
    <line x1="45.55" y1="41.47" x2="45.45" y2="42.70"/>
    <line x1="26.93" y1="41.95" x2="26.42" y2="43.32"/>
    <line x1="26.93" y1="41.95" x2="27.88" y2="44.01"/>
    <line x1="21.47" y1="41.20" x2="26.42" y2="43.32"/>
    <line x1="21.47" y1="41.20" x2="21.53" y2="46.01"/>
    <line x1="60.94" y1="41.99" x2="56.79" y2="43.26"/>
    <line x1="71.46" y1="41.69" x2="69.71" y2="42.77"/>
    <line x1="71.46" y1="41.69" x2="73.95" y2="44.42"/>
    <line x1="18.26" y1="43.07" x2="18.39" y2="44.58"/>
    <line x1="61.85" y1="42.90" x2="64.16" y2="45.00"/>
    <line x1="61.85" y1="42.90" x2="61.22" y2="45.58"/>
    <line x1="69.71" y1="42.77" x2="65.70" y2="45.74"/>
    <line x1="69.71" y1="42.77" x2="69.86" y2="44.71"/>
    <line x1="56.79" y1="43.26" x2="55.47" y2="45.20"/>
    <line x1="56.79" y1="43.26" x2="58.46" y2="45.43"/>
    <line x1="26.42" y1="43.32" x2="27.88" y2="44.01"/>
    <line x1="26.42" y1="43.32" x2="25.20" y2="50.24"/>
    <line x1="45.45" y1="42.70" x2="46.76" y2="45.96"/>
    <line x1="45.45" y1="42.70" x2="42.35" y2="46.77"/>
    <line x1="51.98" y1="43.70" x2="55.47" y2="45.20"/>
    <line x1="51.98" y1="43.70" x2="49.82" y2="45.85"/>
    <line x1="51.98" y1="43.70" x2="52.43" y2="45.10"/>
    <line x1="27.88" y1="44.01" x2="28.96" y2="45.01"/>
    <line x1="73.95" y1="44.42" x2="74.97" y2="45.43"/>
    <line x1="64.16" y1="45.00" x2="65.70" y2="45.74"/>
    <line x1="64.16" y1="45.00" x2="61.22" y2="45.58"/>
    <line x1="18.39" y1="44.58" x2="21.53" y2="46.01"/>
    <line x1="18.39" y1="44.58" x2="15.82" y2="46.84"/>
    <line x1="18.39" y1="44.58" x2="17.16" y2="46.35"/>
    <line x1="55.47" y1="45.20" x2="55.98" y2="46.63"/>
    <line x1="55.47" y1="45.20" x2="51.48" y2="49.86"/>
    <line x1="55.47" y1="45.20" x2="57.44" y2="50.75"/>
    <line x1="65.70" y1="45.74" x2="66.22" y2="46.55"/>
    <line x1="69.86" y1="44.71" x2="71.42" y2="46.89"/>
    <line x1="69.86" y1="44.71" x2="69.03" y2="47.40"/>
    <line x1="58.46" y1="45.43" x2="61.22" y2="45.58"/>
    <line x1="58.46" y1="45.43" x2="59.23" y2="47.80"/>
    <line x1="25.00" y1="44.78" x2="21.53" y2="46.01"/>
    <line x1="28.96" y1="45.01" x2="31.98" y2="48.24"/>
    <line x1="28.96" y1="45.01" x2="25.20" y2="50.24"/>
    <line x1="49.82" y1="45.85" x2="51.04" y2="47.83"/>
    <line x1="61.22" y1="45.58" x2="59.23" y2="47.80"/>
    <line x1="61.22" y1="45.58" x2="63.02" y2="47.84"/>
    <line x1="21.53" y1="46.01" x2="20.96" y2="47.73"/>
    <line x1="21.53" y1="46.01" x2="25.20" y2="50.24"/>
    <line x1="74.97" y1="45.43" x2="71.42" y2="46.89"/>
    <line x1="74.97" y1="45.43" x2="78.73" y2="46.95"/>
    <line x1="74.97" y1="45.43" x2="72.48" y2="49.47"/>
    <line x1="74.97" y1="45.43" x2="77.62" y2="49.61"/>
    <line x1="46.76" y1="45.96" x2="41.34" y2="49.69"/>
    <line x1="46.76" y1="45.96" x2="46.07" y2="51.09"/>
    <line x1="46.76" y1="45.96" x2="51.48" y2="49.86"/>
    <line x1="81.78" y1="46.93" x2="84.02" y2="46.68"/>
    <line x1="81.78" y1="46.93" x2="78.73" y2="46.95"/>
    <line x1="81.78" y1="46.93" x2="81.78" y2="48.66"/>
    <line x1="84.02" y1="46.68" x2="86.17" y2="47.92"/>
    <line x1="15.82" y1="46.84" x2="13.17" y2="48.72"/>
    <line x1="42.35" y1="46.77" x2="38.92" y2="49.07"/>
    <line x1="42.35" y1="46.77" x2="41.34" y2="49.69"/>
    <line x1="17.16" y1="46.35" x2="20.96" y2="47.73"/>
    <line x1="17.16" y1="46.35" x2="18.09" y2="49.57"/>
    <line x1="66.22" y1="46.55" x2="69.03" y2="47.40"/>
    <line x1="66.22" y1="46.55" x2="63.02" y2="47.84"/>
    <line x1="78.73" y1="46.95" x2="77.62" y2="49.61"/>
    <line x1="31.98" y1="48.24" x2="32.63" y2="49.13"/>
    <line x1="31.98" y1="48.24" x2="30.54" y2="51.63"/>
    <line x1="59.23" y1="47.80" x2="63.02" y2="47.84"/>
    <line x1="59.23" y1="47.80" x2="59.90" y2="50.62"/>
    <line x1="63.02" y1="47.84" x2="63.92" y2="48.83"/>
    <line x1="63.02" y1="47.84" x2="59.90" y2="50.62"/>
    <line x1="63.02" y1="47.84" x2="63.02" y2="53.52"/>
    <line x1="55.98" y1="46.63" x2="57.44" y2="50.75"/>
    <line x1="55.98" y1="46.63" x2="56.96" y2="51.73"/>
    <line x1="51.04" y1="47.83" x2="51.48" y2="49.86"/>
    <line x1="86.17" y1="47.92" x2="84.24" y2="50.33"/>
    <line x1="20.96" y1="47.73" x2="20.01" y2="49.82"/>
    <line x1="38.92" y1="49.07" x2="38.78" y2="50.59"/>
    <line x1="13.17" y1="48.72" x2="13.84" y2="51.12"/>
    <line x1="36.33" y1="48.44" x2="35.18" y2="52.13"/>
    <line x1="72.48" y1="49.47" x2="70.29" y2="48.25"/>
    <line x1="72.48" y1="49.47" x2="77.62" y2="49.61"/>
    <line x1="72.48" y1="49.47" x2="72.04" y2="50.37"/>
    <line x1="72.48" y1="49.47" x2="74.66" y2="53.28"/>
    <line x1="70.29" y1="48.25" x2="67.97" y2="50.11"/>
    <line x1="41.34" y1="49.69" x2="45.17" y2="51.10"/>
    <line x1="41.34" y1="49.69" x2="40.91" y2="51.00"/>
    <line x1="77.62" y1="49.61" x2="79.75" y2="50.24"/>
    <line x1="77.62" y1="49.61" x2="78.02" y2="54.36"/>
    <line x1="18.09" y1="49.57" x2="20.01" y2="49.82"/>
    <line x1="18.09" y1="49.57" x2="18.33" y2="51.79"/>
    <line x1="25.20" y1="50.24" x2="22.07" y2="51.11"/>
    <line x1="25.20" y1="50.24" x2="25.39" y2="53.32"/>
    <line x1="25.20" y1="50.24" x2="29.72" y2="54.16"/>
    <line x1="63.92" y1="48.83" x2="67.97" y2="50.11"/>
    <line x1="28.42" y1="50.00" x2="30.54" y2="51.63"/>
    <line x1="46.07" y1="51.09" x2="46.32" y2="51.56"/>
    <line x1="46.07" y1="51.09" x2="42.13" y2="53.74"/>
    <line x1="51.48" y1="49.86" x2="50.99" y2="52.55"/>
    <line x1="51.48" y1="49.86" x2="54.01" y2="54.36"/>
    <line x1="20.01" y1="49.82" x2="22.07" y2="51.11"/>
    <line x1="20.01" y1="49.82" x2="18.33" y2="51.79"/>
    <line x1="59.90" y1="50.62" x2="57.44" y2="50.75"/>
    <line x1="59.90" y1="50.62" x2="60.32" y2="51.72"/>
    <line x1="84.24" y1="50.33" x2="81.52" y2="51.27"/>
    <line x1="84.24" y1="50.33" x2="82.33" y2="52.56"/>
    <line x1="57.44" y1="50.75" x2="56.96" y2="51.73"/>
    <line x1="67.97" y1="50.11" x2="72.04" y2="50.37"/>
    <line x1="72.04" y1="50.37" x2="70.74" y2="51.99"/>
    <line x1="72.04" y1="50.37" x2="72.27" y2="52.22"/>
    <line x1="50.69" y1="50.73" x2="50.99" y2="52.55"/>
    <line x1="16.85" y1="51.03" x2="18.33" y2="51.79"/>
    <line x1="22.07" y1="51.11" x2="25.52" y2="57.00"/>
    <line x1="30.54" y1="51.63" x2="33.92" y2="51.98"/>
    <line x1="81.52" y1="51.27" x2="82.33" y2="52.56"/>
    <line x1="81.52" y1="51.27" x2="78.02" y2="54.36"/>
    <line x1="35.18" y1="52.13" x2="33.92" y2="51.98"/>
    <line x1="35.18" y1="52.13" x2="36.53" y2="52.93"/>
    <line x1="46.32" y1="51.56" x2="49.75" y2="54.20"/>
    <line x1="46.32" y1="51.56" x2="45.88" y2="56.05"/>
    <line x1="33.92" y1="51.98" x2="29.72" y2="54.16"/>
    <line x1="60.32" y1="51.72" x2="63.02" y2="53.52"/>
    <line x1="60.32" y1="51.72" x2="59.44" y2="54.16"/>
    <line x1="74.66" y1="53.28" x2="78.02" y2="54.36"/>
    <line x1="74.66" y1="53.28" x2="75.01" y2="54.21"/>
    <line x1="56.96" y1="51.73" x2="54.01" y2="54.36"/>
    <line x1="66.67" y1="51.63" x2="63.02" y2="53.52"/>
    <line x1="50.99" y1="52.55" x2="49.75" y2="54.20"/>
    <line x1="50.99" y1="52.55" x2="54.01" y2="54.36"/>
    <line x1="50.99" y1="52.55" x2="50.42" y2="54.95"/>
    <line x1="63.02" y1="53.52" x2="61.36" y2="54.61"/>
    <line x1="39.02" y1="52.46" x2="42.13" y2="53.74"/>
    <line x1="39.02" y1="52.46" x2="38.28" y2="56.90"/>
    <line x1="42.13" y1="53.74" x2="38.28" y2="56.90"/>
    <line x1="82.33" y1="52.56" x2="84.27" y2="55.64"/>
    <line x1="36.53" y1="52.93" x2="36.29" y2="56.17"/>
    <line x1="29.72" y1="54.16" x2="27.98" y2="55.34"/>
    <line x1="29.72" y1="54.16" x2="29.99" y2="55.52"/>
    <line x1="29.72" y1="54.16" x2="26.67" y2="58.65"/>
    <line x1="78.02" y1="54.36" x2="75.01" y2="54.21"/>
    <line x1="78.02" y1="54.36" x2="77.33" y2="55.30"/>
    <line x1="49.75" y1="54.20" x2="50.42" y2="54.95"/>
    <line x1="49.75" y1="54.20" x2="45.88" y2="56.05"/>
    <line x1="59.44" y1="54.16" x2="61.36" y2="54.61"/>
    <line x1="59.44" y1="54.16" x2="59.61" y2="56.21"/>
    <line x1="54.01" y1="54.36" x2="54.74" y2="55.43"/>
    <line x1="54.01" y1="54.36" x2="51.89" y2="56.71"/>
    <line x1="61.36" y1="54.61" x2="59.61" y2="56.21"/>
    <line x1="75.01" y1="54.21" x2="77.33" y2="55.30"/>
    <line x1="27.98" y1="55.34" x2="26.67" y2="58.65"/>
    <line x1="43.44" y1="55.22" x2="45.88" y2="56.05"/>
    <line x1="43.44" y1="55.22" x2="42.12" y2="57.83"/>
    <line x1="80.98" y1="55.29" x2="84.27" y2="55.64"/>
    <line x1="80.98" y1="55.29" x2="80.27" y2="57.24"/>
    <line x1="50.42" y1="54.95" x2="51.89" y2="56.71"/>
    <line x1="77.33" y1="55.30" x2="80.27" y2="57.24"/>
    <line x1="84.27" y1="55.64" x2="80.27" y2="57.24"/>
    <line x1="84.27" y1="55.64" x2="86.05" y2="57.28"/>
    <line x1="36.29" y1="56.17" x2="38.28" y2="56.90"/>
    <line x1="45.88" y1="56.05" x2="45.80" y2="59.52"/>
    <line x1="45.88" y1="56.05" x2="42.64" y2="60.09"/>
    <line x1="54.74" y1="55.43" x2="54.49" y2="63.10"/>
    <line x1="38.28" y1="56.90" x2="36.88" y2="57.68"/>
    <line x1="59.61" y1="56.21" x2="57.67" y2="57.71"/>
    <line x1="80.27" y1="57.24" x2="80.93" y2="58.58"/>
    <line x1="86.05" y1="57.28" x2="89.60" y2="57.81"/>
    <line x1="57.67" y1="57.71" x2="58.79" y2="58.54"/>
    <line x1="57.67" y1="57.71" x2="54.49" y2="63.10"/>
    <line x1="42.12" y1="57.83" x2="40.71" y2="59.24"/>
    <line x1="42.12" y1="57.83" x2="42.64" y2="60.09"/>
    <line x1="89.60" y1="57.81" x2="86.20" y2="59.85"/>
    <line x1="76.80" y1="58.16" x2="79.14" y2="59.18"/>
    <line x1="26.67" y1="58.65" x2="27.95" y2="59.97"/>
    <line x1="26.67" y1="58.65" x2="24.41" y2="61.16"/>
    <line x1="36.88" y1="57.68" x2="32.23" y2="58.46"/>
    <line x1="60.51" y1="58.77" x2="58.79" y2="58.54"/>
    <line x1="60.51" y1="58.77" x2="58.46" y2="61.88"/>
    <line x1="80.93" y1="58.58" x2="79.88" y2="61.45"/>
    <line x1="24.94" y1="59.26" x2="24.41" y2="61.16"/>
    <line x1="32.23" y1="58.46" x2="27.95" y2="59.97"/>
    <line x1="40.71" y1="59.24" x2="42.04" y2="62.53"/>
    <line x1="79.14" y1="59.18" x2="79.88" y2="61.45"/>
    <line x1="45.80" y1="59.52" x2="46.19" y2="62.45"/>
    <line x1="83.77" y1="59.78" x2="81.42" y2="62.44"/>
    <line x1="86.20" y1="59.85" x2="85.82" y2="62.24"/>
    <line x1="27.95" y1="59.97" x2="28.28" y2="62.11"/>
    <line x1="60.77" y1="60.60" x2="61.44" y2="63.59"/>
    <line x1="24.41" y1="61.16" x2="28.28" y2="62.11"/>
    <line x1="58.46" y1="61.88" x2="59.72" y2="62.70"/>
    <line x1="58.46" y1="61.88" x2="55.75" y2="64.88"/>
    <line x1="79.88" y1="61.45" x2="76.99" y2="62.13"/>
    <line x1="46.19" y1="62.45" x2="44.75" y2="63.31"/>
    <line x1="76.99" y1="62.13" x2="76.70" y2="64.30"/>
    <line x1="42.04" y1="62.53" x2="44.75" y2="63.31"/>
    <line x1="54.49" y1="63.10" x2="53.18" y2="63.72"/>
    <line x1="54.49" y1="63.10" x2="55.75" y2="64.88"/>
    <line x1="81.42" y1="62.44" x2="85.82" y2="62.24"/>
    <line x1="81.42" y1="62.44" x2="76.70" y2="64.30"/>
    <line x1="85.82" y1="62.24" x2="83.17" y2="66.73"/>
    <line x1="53.18" y1="63.72" x2="50.94" y2="66.09"/>
    <line x1="61.44" y1="63.59" x2="58.03" y2="66.41"/>
    <line x1="61.44" y1="63.59" x2="60.97" y2="66.60"/>
    <line x1="61.44" y1="63.59" x2="64.18" y2="66.89"/>
    <line x1="76.70" y1="64.30" x2="76.86" y2="66.09"/>
    <line x1="74.54" y1="66.25" x2="74.07" y2="66.62"/>
    <line x1="74.54" y1="66.25" x2="74.33" y2="70.48"/>
    <line x1="58.03" y1="66.41" x2="54.28" y2="67.33"/>
    <line x1="58.03" y1="66.41" x2="59.24" y2="68.64"/>
    <line x1="83.17" y1="66.73" x2="82.51" y2="67.14"/>
    <line x1="83.17" y1="66.73" x2="83.75" y2="68.55"/>
    <line x1="52.62" y1="65.78" x2="54.28" y2="67.33"/>
    <line x1="52.62" y1="65.78" x2="51.22" y2="67.11"/>
    <line x1="60.97" y1="66.60" x2="64.18" y2="66.89"/>
    <line x1="76.86" y1="66.09" x2="80.22" y2="67.14"/>
    <line x1="76.86" y1="66.09" x2="74.33" y2="70.48"/>
    <line x1="64.18" y1="66.89" x2="70.73" y2="68.70"/>
    <line x1="64.18" y1="66.89" x2="60.74" y2="70.13"/>
    <line x1="80.22" y1="67.14" x2="82.51" y2="67.14"/>
    <line x1="74.07" y1="66.62" x2="70.73" y2="68.70"/>
    <line x1="82.51" y1="67.14" x2="80.84" y2="69.22"/>
    <line x1="54.28" y1="67.33" x2="55.89" y2="68.67"/>
    <line x1="70.73" y1="68.70" x2="67.71" y2="71.64"/>
    <line x1="59.24" y1="68.64" x2="60.74" y2="70.13"/>
    <line x1="83.75" y1="68.55" x2="82.43" y2="70.38"/>
    <line x1="83.75" y1="68.55" x2="85.24" y2="70.59"/>
    <line x1="55.89" y1="68.67" x2="59.11" y2="72.97"/>
    <line x1="80.84" y1="69.22" x2="78.12" y2="69.73"/>
    <line x1="80.84" y1="69.22" x2="82.43" y2="70.38"/>
    <line x1="80.84" y1="69.22" x2="79.10" y2="72.41"/>
    <line x1="72.25" y1="69.69" x2="74.33" y2="70.48"/>
    <line x1="72.25" y1="69.69" x2="71.69" y2="71.15"/>
    <line x1="60.74" y1="70.13" x2="63.83" y2="71.29"/>
    <line x1="60.74" y1="70.13" x2="60.81" y2="71.54"/>
    <line x1="60.74" y1="70.13" x2="59.11" y2="72.97"/>
    <line x1="74.33" y1="70.48" x2="73.68" y2="71.94"/>
    <line x1="82.43" y1="70.38" x2="85.24" y2="70.59"/>
    <line x1="82.43" y1="70.38" x2="79.10" y2="72.41"/>
    <line x1="82.43" y1="70.38" x2="82.88" y2="73.23"/>
    <line x1="85.24" y1="70.59" x2="82.88" y2="73.23"/>
    <line x1="67.71" y1="71.64" x2="71.69" y2="71.15"/>
    <line x1="67.71" y1="71.64" x2="61.72" y2="74.02"/>
    <line x1="71.69" y1="71.15" x2="71.64" y2="74.67"/>
    <line x1="60.81" y1="71.54" x2="59.11" y2="72.97"/>
    <line x1="60.81" y1="71.54" x2="61.72" y2="74.02"/>
    <line x1="76.26" y1="71.47" x2="79.10" y2="72.41"/>
    <line x1="79.10" y1="72.41" x2="81.62" y2="73.24"/>
    <line x1="79.10" y1="72.41" x2="73.54" y2="75.21"/>
    <line x1="59.11" y1="72.97" x2="58.22" y2="74.95"/>
    <line x1="73.68" y1="71.94" x2="71.64" y2="74.67"/>
    <line x1="73.68" y1="71.94" x2="73.54" y2="75.21"/>
    <line x1="82.88" y1="73.23" x2="81.62" y2="73.24"/>
    <line x1="66.74" y1="72.44" x2="67.66" y2="75.12"/>
    <line x1="68.05" y1="72.52" x2="71.64" y2="74.67"/>
    <line x1="61.72" y1="74.02" x2="62.74" y2="75.13"/>
    <line x1="71.64" y1="74.67" x2="73.54" y2="75.21"/>
    <line x1="58.22" y1="74.95" x2="60.47" y2="75.59"/>
    <line x1="58.22" y1="74.95" x2="57.60" y2="75.91"/>
    <line x1="73.54" y1="75.21" x2="75.14" y2="76.15"/>
    <line x1="73.54" y1="75.21" x2="71.95" y2="77.31"/>
    <line x1="70.16" y1="75.80" x2="71.95" y2="77.31"/>
    <line x1="70.16" y1="75.80" x2="69.77" y2="78.03"/>
    <line x1="60.47" y1="75.59" x2="59.75" y2="77.89"/>
    <line x1="62.74" y1="75.13" x2="59.75" y2="77.89"/>
    <line x1="57.60" y1="75.91" x2="59.75" y2="77.89"/>
    <line x1="71.95" y1="77.31" x2="69.77" y2="78.03"/>
    <line x1="71.95" y1="77.31" x2="71.20" y2="79.07"/>
    <line x1="71.95" y1="77.31" x2="74.22" y2="80.06"/>
    <line x1="71.20" y1="79.07" x2="74.22" y2="80.06"/>
  </g>
  <g fill="#00B3E3">
    <circle cx="41.21" cy="13.59" r="0.85"/>
    <circle cx="36.65" cy="14.39" r="0.85"/>
    <circle cx="35.35" cy="15.53" r="0.85"/>
    <circle cx="37.52" cy="15.82" r="0.85"/>
    <circle cx="39.87" cy="16.89" r="0.85"/>
    <circle cx="35.18" cy="17.62" r="0.85"/>
    <circle cx="36.73" cy="17.83" r="0.85"/>
    <circle cx="52.02" cy="18.64" r="0.85"/>
    <circle cx="41.86" cy="19.44" r="0.85"/>
    <circle cx="39.15" cy="18.39" r="0.85"/>
    <circle cx="23.83" cy="20.02" r="0.85"/>
    <circle cx="27.23" cy="21.11" r="0.85"/>
    <circle cx="53.85" cy="20.55" r="0.85"/>
    <circle cx="33.95" cy="20.18" r="0.85"/>
    <circle cx="49.41" cy="20.16" r="0.85"/>
    <circle cx="36.77" cy="21.08" r="0.85"/>
    <circle cx="19.66" cy="21.00" r="0.85"/>
    <circle cx="42.42" cy="20.35" r="0.85"/>
    <circle cx="30.03" cy="22.07" r="0.85"/>
    <circle cx="23.18" cy="21.42" r="0.85"/>
    <circle cx="40.70" cy="21.33" r="0.85"/>
    <circle cx="43.58" cy="21.20" r="0.85"/>
    <circle cx="52.28" cy="20.81" r="0.85"/>
    <circle cx="47.89" cy="21.72" r="0.85"/>
    <circle cx="55.86" cy="21.92" r="0.85"/>
    <circle cx="25.13" cy="22.64" r="0.85"/>
    <circle cx="54.24" cy="22.01" r="0.85"/>
    <circle cx="37.78" cy="22.56" r="0.85"/>
    <circle cx="30.99" cy="23.32" r="0.85"/>
    <circle cx="20.36" cy="22.75" r="0.85"/>
    <circle cx="50.52" cy="23.14" r="0.85"/>
    <circle cx="27.19" cy="23.06" r="0.85"/>
    <circle cx="44.75" cy="23.58" r="0.85"/>
    <circle cx="39.97" cy="23.81" r="0.85"/>
    <circle cx="51.28" cy="23.55" r="0.85"/>
    <circle cx="23.24" cy="23.91" r="0.85"/>
    <circle cx="33.49" cy="25.07" r="0.85"/>
    <circle cx="41.30" cy="24.24" r="0.85"/>
    <circle cx="54.74" cy="23.33" r="0.85"/>
    <circle cx="47.64" cy="25.27" r="0.85"/>
    <circle cx="22.40" cy="26.04" r="0.85"/>
    <circle cx="26.82" cy="25.34" r="0.85"/>
    <circle cx="30.27" cy="24.26" r="0.85"/>
    <circle cx="46.04" cy="25.44" r="0.85"/>
    <circle cx="40.39" cy="25.71" r="0.85"/>
    <circle cx="36.23" cy="26.73" r="0.85"/>
    <circle cx="24.22" cy="25.91" r="0.85"/>
    <circle cx="43.75" cy="25.53" r="0.85"/>
    <circle cx="33.69" cy="25.72" r="0.85"/>
    <circle cx="27.82" cy="26.41" r="0.85"/>
    <circle cx="22.66" cy="26.80" r="0.85"/>
    <circle cx="50.37" cy="27.56" r="0.85"/>
    <circle cx="53.68" cy="27.96" r="0.85"/>
    <circle cx="41.18" cy="27.57" r="0.85"/>
    <circle cx="46.97" cy="26.32" r="0.85"/>
    <circle cx="51.40" cy="27.96" r="0.85"/>
    <circle cx="26.32" cy="28.56" r="0.85"/>
    <circle cx="30.99" cy="29.84" r="0.85"/>
    <circle cx="43.16" cy="29.47" r="0.85"/>
    <circle cx="36.88" cy="29.18" r="0.85"/>
    <circle cx="54.41" cy="30.03" r="0.85"/>
    <circle cx="28.83" cy="29.65" r="0.85"/>
    <circle cx="30.45" cy="30.45" r="0.85"/>
    <circle cx="41.93" cy="30.37" r="0.85"/>
    <circle cx="45.61" cy="30.89" r="0.85"/>
    <circle cx="12.89" cy="31.38" r="0.85"/>
    <circle cx="26.56" cy="31.59" r="0.85"/>
    <circle cx="15.76" cy="32.01" r="0.85"/>
    <circle cx="19.14" cy="31.66" r="0.85"/>
    <circle cx="50.78" cy="32.03" r="0.85"/>
    <circle cx="55.24" cy="32.06" r="0.85"/>
    <circle cx="22.12" cy="32.78" r="0.85"/>
    <circle cx="44.01" cy="33.24" r="0.85"/>
    <circle cx="48.34" cy="32.29" r="0.85"/>
    <circle cx="58.51" cy="32.94" r="0.85"/>
    <circle cx="60.28" cy="33.04" r="0.85"/>
    <circle cx="29.00" cy="33.04" r="0.85"/>
    <circle cx="14.37" cy="33.04" r="0.85"/>
    <circle cx="52.42" cy="33.75" r="0.85"/>
    <circle cx="24.30" cy="32.84" r="0.85"/>
    <circle cx="26.95" cy="33.84" r="0.85"/>
    <circle cx="45.44" cy="33.12" r="0.85"/>
    <circle cx="15.61" cy="33.73" r="0.85"/>
    <circle cx="62.22" cy="33.93" r="0.85"/>
    <circle cx="50.70" cy="33.93" r="0.85"/>
    <circle cx="11.33" cy="34.38" r="0.85"/>
    <circle cx="54.61" cy="34.75" r="0.85"/>
    <circle cx="60.07" cy="35.13" r="0.85"/>
    <circle cx="18.33" cy="36.13" r="0.85"/>
    <circle cx="27.43" cy="34.71" r="0.85"/>
    <circle cx="45.35" cy="35.51" r="0.85"/>
    <circle cx="60.81" cy="35.72" r="0.85"/>
    <circle cx="14.31" cy="36.19" r="0.85"/>
    <circle cx="56.80" cy="36.68" r="0.85"/>
    <circle cx="63.32" cy="36.88" r="0.85"/>
    <circle cx="54.05" cy="35.89" r="0.85"/>
    <circle cx="22.30" cy="37.29" r="0.85"/>
    <circle cx="12.70" cy="37.30" r="0.85"/>
    <circle cx="59.98" cy="36.28" r="0.85"/>
    <circle cx="16.18" cy="37.94" r="0.85"/>
    <circle cx="18.77" cy="37.95" r="0.85"/>
    <circle cx="24.26" cy="38.59" r="0.85"/>
    <circle cx="50.22" cy="39.20" r="0.85"/>
    <circle cx="62.99" cy="37.87" r="0.85"/>
    <circle cx="47.40" cy="38.87" r="0.85"/>
    <circle cx="57.54" cy="39.06" r="0.85"/>
    <circle cx="26.45" cy="39.54" r="0.85"/>
    <circle cx="60.71" cy="38.61" r="0.85"/>
    <circle cx="73.02" cy="39.84" r="0.85"/>
    <circle cx="21.17" cy="40.40" r="0.85"/>
    <circle cx="54.49" cy="40.79" r="0.85"/>
    <circle cx="17.65" cy="39.47" r="0.85"/>
    <circle cx="70.70" cy="41.10" r="0.85"/>
    <circle cx="49.95" cy="40.45" r="0.85"/>
    <circle cx="56.71" cy="40.64" r="0.85"/>
    <circle cx="51.59" cy="41.38" r="0.85"/>
    <circle cx="45.55" cy="41.47" r="0.85"/>
    <circle cx="26.93" cy="41.95" r="0.85"/>
    <circle cx="21.47" cy="41.20" r="0.85"/>
    <circle cx="54.47" cy="41.57" r="0.85"/>
    <circle cx="60.94" cy="41.99" r="0.85"/>
    <circle cx="71.46" cy="41.69" r="0.85"/>
    <circle cx="18.26" cy="43.07" r="0.85"/>
    <circle cx="61.85" cy="42.90" r="0.85"/>
    <circle cx="69.71" cy="42.77" r="0.85"/>
    <circle cx="56.79" cy="43.26" r="0.85"/>
    <circle cx="26.42" cy="43.32" r="0.85"/>
    <circle cx="45.45" cy="42.70" r="0.85"/>
    <circle cx="51.98" cy="43.70" r="0.85"/>
    <circle cx="27.88" cy="44.01" r="0.85"/>
    <circle cx="73.95" cy="44.42" r="0.85"/>
    <circle cx="64.16" cy="45.00" r="0.85"/>
    <circle cx="18.39" cy="44.58" r="0.85"/>
    <circle cx="55.47" cy="45.20" r="0.85"/>
    <circle cx="65.70" cy="45.74" r="0.85"/>
    <circle cx="69.86" cy="44.71" r="0.85"/>
    <circle cx="58.46" cy="45.43" r="0.85"/>
    <circle cx="25.00" cy="44.78" r="0.85"/>
    <circle cx="28.96" cy="45.01" r="0.85"/>
    <circle cx="49.82" cy="45.85" r="0.85"/>
    <circle cx="61.22" cy="45.58" r="0.85"/>
    <circle cx="21.53" cy="46.01" r="0.85"/>
    <circle cx="74.97" cy="45.43" r="0.85"/>
    <circle cx="46.76" cy="45.96" r="0.85"/>
    <circle cx="52.43" cy="45.10" r="0.85"/>
    <circle cx="81.78" cy="46.93" r="0.85"/>
    <circle cx="84.02" cy="46.68" r="0.85"/>
    <circle cx="15.82" cy="46.84" r="0.85"/>
    <circle cx="42.35" cy="46.77" r="0.85"/>
    <circle cx="17.16" cy="46.35" r="0.85"/>
    <circle cx="66.22" cy="46.55" r="0.85"/>
    <circle cx="71.42" cy="46.89" r="0.85"/>
    <circle cx="78.73" cy="46.95" r="0.85"/>
    <circle cx="69.03" cy="47.40" r="0.85"/>
    <circle cx="31.98" cy="48.24" r="0.85"/>
    <circle cx="59.23" cy="47.80" r="0.85"/>
    <circle cx="63.02" cy="47.84" r="0.85"/>
    <circle cx="55.98" cy="46.63" r="0.85"/>
    <circle cx="51.04" cy="47.83" r="0.85"/>
    <circle cx="86.17" cy="47.92" r="0.85"/>
    <circle cx="20.96" cy="47.73" r="0.85"/>
    <circle cx="38.92" cy="49.07" r="0.85"/>
    <circle cx="13.17" cy="48.72" r="0.85"/>
    <circle cx="36.33" cy="48.44" r="0.85"/>
    <circle cx="81.78" cy="48.66" r="0.85"/>
    <circle cx="72.48" cy="49.47" r="0.85"/>
    <circle cx="30.83" cy="48.78" r="0.85"/>
    <circle cx="70.29" cy="48.25" r="0.85"/>
    <circle cx="41.34" cy="49.69" r="0.85"/>
    <circle cx="77.62" cy="49.61" r="0.85"/>
    <circle cx="54.54" cy="49.22" r="0.85"/>
    <circle cx="18.09" cy="49.57" r="0.85"/>
    <circle cx="25.20" cy="50.24" r="0.85"/>
    <circle cx="32.63" cy="49.13" r="0.85"/>
    <circle cx="63.92" cy="48.83" r="0.85"/>
    <circle cx="28.42" cy="50.00" r="0.85"/>
    <circle cx="46.07" cy="51.09" r="0.85"/>
    <circle cx="51.48" cy="49.86" r="0.85"/>
    <circle cx="20.01" cy="49.82" r="0.85"/>
    <circle cx="59.90" cy="50.62" r="0.85"/>
    <circle cx="84.24" cy="50.33" r="0.85"/>
    <circle cx="57.44" cy="50.75" r="0.85"/>
    <circle cx="67.97" cy="50.11" r="0.85"/>
    <circle cx="38.78" cy="50.59" r="0.85"/>
    <circle cx="72.04" cy="50.37" r="0.85"/>
    <circle cx="79.75" cy="50.24" r="0.85"/>
    <circle cx="50.69" cy="50.73" r="0.85"/>
    <circle cx="13.84" cy="51.12" r="0.85"/>
    <circle cx="16.85" cy="51.03" r="0.85"/>
    <circle cx="22.07" cy="51.11" r="0.85"/>
    <circle cx="45.17" cy="51.10" r="0.85"/>
    <circle cx="30.54" cy="51.63" r="0.85"/>
    <circle cx="40.91" cy="51.00" r="0.85"/>
    <circle cx="81.52" cy="51.27" r="0.85"/>
    <circle cx="35.18" cy="52.13" r="0.85"/>
    <circle cx="46.32" cy="51.56" r="0.85"/>
    <circle cx="70.74" cy="51.99" r="0.85"/>
    <circle cx="33.92" cy="51.98" r="0.85"/>
    <circle cx="60.32" cy="51.72" r="0.85"/>
    <circle cx="74.66" cy="53.28" r="0.85"/>
    <circle cx="18.33" cy="51.79" r="0.85"/>
    <circle cx="56.96" cy="51.73" r="0.85"/>
    <circle cx="66.67" cy="51.63" r="0.85"/>
    <circle cx="50.99" cy="52.55" r="0.85"/>
    <circle cx="63.02" cy="53.52" r="0.85"/>
    <circle cx="72.27" cy="52.22" r="0.85"/>
    <circle cx="39.02" cy="52.46" r="0.85"/>
    <circle cx="42.13" cy="53.74" r="0.85"/>
    <circle cx="82.33" cy="52.56" r="0.85"/>
    <circle cx="15.21" cy="52.65" r="0.85"/>
    <circle cx="25.39" cy="53.32" r="0.85"/>
    <circle cx="36.53" cy="52.93" r="0.85"/>
    <circle cx="29.72" cy="54.16" r="0.85"/>
    <circle cx="78.02" cy="54.36" r="0.85"/>
    <circle cx="49.75" cy="54.20" r="0.85"/>
    <circle cx="59.44" cy="54.16" r="0.85"/>
    <circle cx="54.01" cy="54.36" r="0.85"/>
    <circle cx="34.39" cy="53.60" r="0.85"/>
    <circle cx="61.36" cy="54.61" r="0.85"/>
    <circle cx="75.01" cy="54.21" r="0.85"/>
    <circle cx="27.98" cy="55.34" r="0.85"/>
    <circle cx="43.44" cy="55.22" r="0.85"/>
    <circle cx="80.98" cy="55.29" r="0.85"/>
    <circle cx="50.42" cy="54.95" r="0.85"/>
    <circle cx="77.33" cy="55.30" r="0.85"/>
    <circle cx="84.27" cy="55.64" r="0.85"/>
    <circle cx="29.99" cy="55.52" r="0.85"/>
    <circle cx="36.29" cy="56.17" r="0.85"/>
    <circle cx="45.88" cy="56.05" r="0.85"/>
    <circle cx="54.74" cy="55.43" r="0.85"/>
    <circle cx="32.36" cy="56.30" r="0.85"/>
    <circle cx="38.28" cy="56.90" r="0.85"/>
    <circle cx="59.61" cy="56.21" r="0.85"/>
    <circle cx="25.52" cy="57.00" r="0.85"/>
    <circle cx="80.27" cy="57.24" r="0.85"/>
    <circle cx="86.05" cy="57.28" r="0.85"/>
    <circle cx="34.04" cy="56.66" r="0.85"/>
    <circle cx="51.89" cy="56.71" r="0.85"/>
    <circle cx="57.67" cy="57.71" r="0.85"/>
    <circle cx="42.12" cy="57.83" r="0.85"/>
    <circle cx="89.60" cy="57.81" r="0.85"/>
    <circle cx="76.80" cy="58.16" r="0.85"/>
    <circle cx="26.67" cy="58.65" r="0.85"/>
    <circle cx="36.88" cy="57.68" r="0.85"/>
    <circle cx="60.51" cy="58.77" r="0.85"/>
    <circle cx="80.93" cy="58.58" r="0.85"/>
    <circle cx="24.94" cy="59.26" r="0.85"/>
    <circle cx="32.23" cy="58.46" r="0.85"/>
    <circle cx="40.71" cy="59.24" r="0.85"/>
    <circle cx="58.79" cy="58.54" r="0.85"/>
    <circle cx="79.14" cy="59.18" r="0.85"/>
    <circle cx="45.80" cy="59.52" r="0.85"/>
    <circle cx="83.77" cy="59.78" r="0.85"/>
    <circle cx="86.20" cy="59.85" r="0.85"/>
    <circle cx="42.64" cy="60.09" r="0.85"/>
    <circle cx="27.95" cy="59.97" r="0.85"/>
    <circle cx="88.25" cy="61.06" r="0.85"/>
    <circle cx="60.77" cy="60.60" r="0.85"/>
    <circle cx="24.41" cy="61.16" r="0.85"/>
    <circle cx="58.46" cy="61.88" r="0.85"/>
    <circle cx="79.88" cy="61.45" r="0.85"/>
    <circle cx="46.19" cy="62.45" r="0.85"/>
    <circle cx="76.99" cy="62.13" r="0.85"/>
    <circle cx="42.04" cy="62.53" r="0.85"/>
    <circle cx="54.49" cy="63.10" r="0.85"/>
    <circle cx="81.42" cy="62.44" r="0.85"/>
    <circle cx="85.82" cy="62.24" r="0.85"/>
    <circle cx="28.28" cy="62.11" r="0.85"/>
    <circle cx="59.72" cy="62.70" r="0.85"/>
    <circle cx="44.75" cy="63.31" r="0.85"/>
    <circle cx="53.18" cy="63.72" r="0.85"/>
    <circle cx="61.44" cy="63.59" r="0.85"/>
    <circle cx="55.75" cy="64.88" r="0.85"/>
    <circle cx="76.70" cy="64.30" r="0.85"/>
    <circle cx="81.94" cy="64.80" r="0.85"/>
    <circle cx="50.94" cy="66.09" r="0.85"/>
    <circle cx="74.54" cy="66.25" r="0.85"/>
    <circle cx="58.03" cy="66.41" r="0.85"/>
    <circle cx="83.17" cy="66.73" r="0.85"/>
    <circle cx="52.62" cy="65.78" r="0.85"/>
    <circle cx="60.97" cy="66.60" r="0.85"/>
    <circle cx="76.86" cy="66.09" r="0.85"/>
    <circle cx="64.18" cy="66.89" r="0.85"/>
    <circle cx="80.22" cy="67.14" r="0.85"/>
    <circle cx="74.07" cy="66.62" r="0.85"/>
    <circle cx="82.51" cy="67.14" r="0.85"/>
    <circle cx="54.28" cy="67.33" r="0.85"/>
    <circle cx="51.22" cy="67.11" r="0.85"/>
    <circle cx="70.73" cy="68.70" r="0.85"/>
    <circle cx="59.24" cy="68.64" r="0.85"/>
    <circle cx="83.75" cy="68.55" r="0.85"/>
    <circle cx="65.36" cy="68.72" r="0.85"/>
    <circle cx="55.89" cy="68.67" r="0.85"/>
    <circle cx="80.84" cy="69.22" r="0.85"/>
    <circle cx="52.12" cy="68.39" r="0.85"/>
    <circle cx="72.25" cy="69.69" r="0.85"/>
    <circle cx="60.74" cy="70.13" r="0.85"/>
    <circle cx="78.12" cy="69.73" r="0.85"/>
    <circle cx="74.33" cy="70.48" r="0.85"/>
    <circle cx="82.43" cy="70.38" r="0.85"/>
    <circle cx="85.24" cy="70.59" r="0.85"/>
    <circle cx="67.71" cy="71.64" r="0.85"/>
    <circle cx="63.83" cy="71.29" r="0.85"/>
    <circle cx="71.69" cy="71.15" r="0.85"/>
    <circle cx="60.81" cy="71.54" r="0.85"/>
    <circle cx="76.26" cy="71.47" r="0.85"/>
    <circle cx="79.10" cy="72.41" r="0.85"/>
    <circle cx="59.11" cy="72.97" r="0.85"/>
    <circle cx="73.68" cy="71.94" r="0.85"/>
    <circle cx="82.88" cy="73.23" r="0.85"/>
    <circle cx="66.74" cy="72.44" r="0.85"/>
    <circle cx="68.05" cy="72.52" r="0.85"/>
    <circle cx="81.62" cy="73.24" r="0.85"/>
    <circle cx="61.72" cy="74.02" r="0.85"/>
    <circle cx="71.64" cy="74.67" r="0.85"/>
    <circle cx="58.22" cy="74.95" r="0.85"/>
    <circle cx="73.54" cy="75.21" r="0.85"/>
    <circle cx="70.16" cy="75.80" r="0.85"/>
    <circle cx="67.66" cy="75.12" r="0.85"/>
    <circle cx="60.47" cy="75.59" r="0.85"/>
    <circle cx="62.74" cy="75.13" r="0.85"/>
    <circle cx="57.60" cy="75.91" r="0.85"/>
    <circle cx="75.14" cy="76.15" r="0.85"/>
    <circle cx="71.95" cy="77.31" r="0.85"/>
    <circle cx="59.75" cy="77.89" r="0.85"/>
    <circle cx="69.77" cy="78.03" r="0.85"/>
    <circle cx="71.20" cy="79.07" r="0.85"/>
    <circle cx="74.22" cy="80.06" r="0.85"/>
  </g>
</svg>