<svg xmlns="http://www.w3.org/2000/svg" viewBox="0 0 100 100" fill="none">
  <g stroke="#00B3E3" stroke-width="0.3" stroke-linecap="round">
    <line x1="49.82" y1="8.73" x2="56.29" y2="9.17"/>
    <line x1="49.82" y1="8.73" x2="49.57" y2="10.04"/>
    <line x1="48.37" y1="9.07" x2="43.55" y2="9.03"/>
    <line x1="43.55" y1="9.03" x2="36.64" y2="10.31"/>
    <line x1="43.55" y1="9.03" x2="41.13" y2="11.75"/>
    <line x1="56.29" y1="9.17" x2="57.10" y2="9.25"/>
    <line x1="56.29" y1="9.17" x2="49.57" y2="10.04"/>
    <line x1="56.29" y1="9.17" x2="57.03" y2="12.87"/>
    <line x1="57.10" y1="9.25" x2="64.42" y2="10.73"/>
    <line x1="57.10" y1="9.25" x2="59.91" y2="11.44"/>
    <line x1="36.64" y1="10.31" x2="30.71" y2="11.52"/>
    <line x1="36.64" y1="10.31" x2="33.90" y2="13.28"/>
    <line x1="64.42" y1="10.73" x2="59.91" y2="11.44"/>
    <line x1="64.42" y1="10.73" x2="71.80" y2="12.81"/>
    <line x1="64.42" y1="10.73" x2="68.46" y2="13.43"/>
    <line x1="37.57" y1="11.08" x2="41.13" y2="11.75"/>
    <line x1="37.57" y1="11.08" x2="35.80" y2="13.03"/>
    <line x1="49.57" y1="10.04" x2="46.95" y2="11.24"/>
    <line x1="49.57" y1="10.04" x2="55.63" y2="13.12"/>
    <line x1="49.57" y1="10.04" x2="50.07" y2="15.49"/>
    <line x1="41.13" y1="11.75" x2="46.95" y2="11.24"/>
    <line x1="41.13" y1="11.75" x2="40.57" y2="13.14"/>
    <line x1="41.13" y1="11.75" x2="43.50" y2="15.49"/>
    <line x1="59.91" y1="11.44" x2="57.03" y2="12.87"/>
    <line x1="59.91" y1="11.44" x2="64.43" y2="14.63"/>
    <line x1="30.71" y1="11.52" x2="33.90" y2="13.28"/>
    <line x1="30.71" y1="11.52" x2="25.78" y2="13.65"/>
    <line x1="30.71" y1="11.52" x2="28.34" y2="14.66"/>
    <line x1="46.95" y1="11.24" x2="43.50" y2="15.49"/>
    <line x1="33.90" y1="13.28" x2="33.57" y2="17.24"/>
    <line x1="33.90" y1="13.28" x2="40.73" y2="16.62"/>
    <line x1="57.03" y1="12.87" x2="55.63" y2="13.12"/>
    <line x1="71.80" y1="12.81" x2="68.46" y2="13.43"/>
    <line x1="71.80" y1="12.81" x2="76.41" y2="15.16"/>
    <line x1="55.63" y1="13.12" x2="50.07" y2="15.49"/>
    <line x1="55.63" y1="13.12" x2="56.08" y2="17.86"/>
    <line x1="68.46" y1="13.43" x2="64.43" y2="14.63"/>
    <line x1="68.46" y1="13.43" x2="71.04" y2="14.72"/>
    <line x1="25.78" y1="13.65" x2="21.70" y2="17.46"/>
    <line x1="25.78" y1="13.65" x2="26.74" y2="18.91"/>
    <line x1="64.43" y1="14.63" x2="63.96" y2="15.76"/>
    <line x1="32.29" y1="13.74" x2="28.34" y2="14.66"/>
    <line x1="58.52" y1="13.45" x2="63.96" y2="15.76"/>
    <line x1="28.34" y1="14.66" x2="26.46" y2="14.36"/>
    <line x1="28.34" y1="14.66" x2="33.57" y2="17.24"/>
    <line x1="28.34" y1="14.66" x2="26.74" y2="18.91"/>
    <line x1="43.50" y1="15.49" x2="45.54" y2="15.57"/>
    <line x1="43.50" y1="15.49" x2="40.73" y2="16.62"/>
    <line x1="71.04" y1="14.72" x2="73.09" y2="16.02"/>
    <line x1="71.04" y1="14.72" x2="64.98" y2="15.62"/>
    <line x1="71.04" y1="14.72" x2="71.40" y2="17.01"/>
    <line x1="76.41" y1="15.16" x2="73.09" y2="16.02"/>
    <line x1="76.41" y1="15.16" x2="78.61" y2="21.58"/>
    <line x1="45.54" y1="15.57" x2="50.07" y2="15.49"/>
    <line x1="50.07" y1="15.49" x2="50.86" y2="17.97"/>
    <line x1="50.07" y1="15.49" x2="56.08" y2="17.86"/>
    <line x1="50.07" y1="15.49" x2="47.02" y2="20.81"/>
    <line x1="26.46" y1="14.36" x2="21.70" y2="17.46"/>
    <line x1="63.96" y1="15.76" x2="71.40" y2="17.01"/>
    <line x1="63.96" y1="15.76" x2="60.80" y2="21.65"/>
    <line x1="33.57" y1="17.24" x2="37.50" y2="17.38"/>
    <line x1="33.57" y1="17.24" x2="36.33" y2="22.07"/>
    <line x1="40.73" y1="16.62" x2="37.50" y2="17.38"/>
    <line x1="40.73" y1="16.62" x2="47.02" y2="20.81"/>
    <line x1="40.73" y1="16.62" x2="36.33" y2="22.07"/>
    <line x1="21.70" y1="17.46" x2="23.01" y2="17.97"/>
    <line x1="21.70" y1="17.46" x2="20.97" y2="18.24"/>
    <line x1="21.70" y1="17.46" x2="23.83" y2="21.07"/>
    <line x1="61.04" y1="16.50" x2="56.08" y2="17.86"/>
    <line x1="74.95" y1="17.43" x2="71.40" y2="17.01"/>
    <line x1="74.95" y1="17.43" x2="78.61" y2="21.58"/>
    <line x1="64.29" y1="16.37" x2="68.85" y2="19.68"/>
    <line x1="71.40" y1="17.01" x2="71.04" y2="19.39"/>
    <line x1="71.40" y1="17.01" x2="67.46" y2="24.65"/>
    <line x1="26.74" y1="18.91" x2="23.01" y2="17.97"/>
    <line x1="26.74" y1="18.91" x2="29.98" y2="18.46"/>
    <line x1="26.74" y1="18.91" x2="23.83" y2="21.07"/>
    <line x1="26.74" y1="18.91" x2="25.33" y2="22.35"/>
    <line x1="26.74" y1="18.91" x2="30.47" y2="22.90"/>
    <line x1="50.86" y1="17.97" x2="56.08" y2="17.86"/>
    <line x1="50.86" y1="17.97" x2="51.20" y2="19.56"/>
    <line x1="56.08" y1="17.86" x2="60.80" y2="21.65"/>
    <line x1="56.08" y1="17.86" x2="52.25" y2="22.60"/>
    <line x1="33.33" y1="17.70" x2="29.98" y2="18.46"/>
    <line x1="33.33" y1="17.70" x2="35.18" y2="27.03"/>
    <line x1="20.97" y1="18.24" x2="21.00" y2="21.62"/>
    <line x1="40.62" y1="17.97" x2="41.33" y2="22.90"/>
    <line x1="75.67" y1="18.47" x2="74.07" y2="20.05"/>
    <line x1="47.02" y1="20.81" x2="51.20" y2="19.56"/>
    <line x1="47.02" y1="20.81" x2="46.89" y2="20.97"/>
    <line x1="47.02" y1="20.81" x2="52.25" y2="22.60"/>
    <line x1="47.02" y1="20.81" x2="47.17" y2="24.61"/>
    <line x1="71.04" y1="19.39" x2="68.85" y2="19.68"/>
    <line x1="71.04" y1="19.39" x2="72.02" y2="22.85"/>
    <line x1="74.07" y1="20.05" x2="75.68" y2="21.00"/>
    <line x1="74.07" y1="20.05" x2="73.05" y2="24.59"/>
    <line x1="78.61" y1="21.58" x2="78.92" y2="22.28"/>
    <line x1="78.61" y1="21.58" x2="73.05" y2="24.59"/>
    <line x1="23.83" y1="21.07" x2="25.33" y2="22.35"/>
    <line x1="60.80" y1="21.65" x2="65.82" y2="21.48"/>
    <line x1="60.80" y1="21.65" x2="52.25" y2="22.60"/>
    <line x1="60.80" y1="21.65" x2="67.46" y2="24.65"/>
    <line x1="60.80" y1="21.65" x2="56.66" y2="24.90"/>
    <line x1="65.82" y1="21.48" x2="65.54" y2="26.00"/>
    <line x1="46.89" y1="20.97" x2="41.33" y2="22.90"/>
    <line x1="21.00" y1="21.62" x2="25.85" y2="24.96"/>
    <line x1="36.33" y1="22.07" x2="41.33" y2="22.90"/>
    <line x1="36.33" y1="22.07" x2="33.20" y2="22.27"/>
    <line x1="36.33" y1="22.07" x2="35.18" y2="27.03"/>
    <line x1="25.33" y1="22.35" x2="25.85" y2="24.96"/>
    <line x1="41.33" y1="22.90" x2="36.09" y2="27.65"/>
    <line x1="52.25" y1="22.60" x2="53.11" y2="23.24"/>
    <line x1="52.25" y1="22.60" x2="47.42" y2="27.67"/>
    <line x1="30.47" y1="22.90" x2="25.85" y2="24.96"/>
    <line x1="72.02" y1="22.85" x2="73.05" y2="24.59"/>
    <line x1="78.92" y1="22.28" x2="78.96" y2="26.27"/>
    <line x1="78.92" y1="22.28" x2="78.96" y2="30.13"/>
    <line x1="60.68" y1="22.16" x2="60.76" y2="27.38"/>
    <line x1="73.05" y1="24.59" x2="67.46" y2="24.65"/>
    <line x1="73.05" y1="24.59" x2="75.33" y2="25.98"/>
    <line x1="73.05" y1="24.59" x2="74.37" y2="29.20"/>
    <line x1="20.83" y1="23.80" x2="20.98" y2="25.75"/>
    <line x1="47.17" y1="24.61" x2="47.42" y2="27.67"/>
    <line x1="41.67" y1="24.27" x2="47.42" y2="27.67"/>
    <line x1="25.85" y1="24.96" x2="22.56" y2="25.98"/>
    <line x1="25.85" y1="24.96" x2="25.28" y2="26.12"/>
    <line x1="25.85" y1="24.96" x2="28.17" y2="30.27"/>
    <line x1="56.66" y1="24.90" x2="54.34" y2="26.95"/>
    <line x1="56.66" y1="24.90" x2="60.76" y2="27.38"/>
    <line x1="26.74" y1="25.41" x2="35.18" y2="27.03"/>
    <line x1="26.74" y1="25.41" x2="30.96" y2="28.12"/>
    <line x1="65.54" y1="26.00" x2="72.13" y2="25.82"/>
    <line x1="65.54" y1="26.00" x2="60.76" y2="27.38"/>
    <line x1="65.54" y1="26.00" x2="66.57" y2="27.90"/>
    <line x1="72.13" y1="25.82" x2="66.57" y2="27.90"/>
    <line x1="35.18" y1="27.03" x2="36.09" y2="27.65"/>
    <line x1="35.18" y1="27.03" x2="33.05" y2="27.81"/>
    <line x1="35.18" y1="27.03" x2="32.63" y2="33.22"/>
    <line x1="20.98" y1="25.75" x2="21.24" y2="29.49"/>
    <line x1="54.34" y1="26.95" x2="54.76" y2="28.00"/>
    <line x1="75.33" y1="25.98" x2="75.00" y2="30.47"/>
    <line x1="78.96" y1="26.27" x2="78.96" y2="30.13"/>
    <line x1="60.76" y1="27.38" x2="61.70" y2="27.27"/>
    <line x1="60.76" y1="27.38" x2="54.76" y2="28.00"/>
    <line x1="60.76" y1="27.38" x2="57.60" y2="31.78"/>
    <line x1="61.70" y1="27.27" x2="63.54" y2="29.00"/>
    <line x1="47.42" y1="27.67" x2="54.76" y2="28.00"/>
    <line x1="47.42" y1="27.67" x2="46.98" y2="28.19"/>
    <line x1="47.42" y1="27.67" x2="51.30" y2="32.60"/>
    <line x1="25.28" y1="26.12" x2="24.41" y2="30.39"/>
    <line x1="36.09" y1="27.65" x2="42.15" y2="27.50"/>
    <line x1="36.09" y1="27.65" x2="41.39" y2="30.89"/>
    <line x1="36.09" y1="27.65" x2="36.64" y2="30.90"/>
    <line x1="71.88" y1="26.69" x2="71.00" y2="30.73"/>
    <line x1="30.96" y1="28.12" x2="33.05" y2="27.81"/>
    <line x1="30.96" y1="28.12" x2="28.17" y2="30.27"/>
    <line x1="30.96" y1="28.12" x2="32.19" y2="32.03"/>
    <line x1="42.15" y1="27.50" x2="46.98" y2="28.19"/>
    <line x1="42.15" y1="27.50" x2="41.39" y2="30.89"/>
    <line x1="54.76" y1="28.00" x2="57.60" y2="31.78"/>
    <line x1="54.76" y1="28.00" x2="51.30" y2="32.60"/>
    <line x1="46.98" y1="28.19" x2="41.39" y2="30.89"/>
    <line x1="46.98" y1="28.19" x2="46.97" y2="30.73"/>
    <line x1="66.57" y1="27.90" x2="65.90" y2="30.52"/>
    <line x1="21.24" y1="29.49" x2="24.41" y2="30.39"/>
    <line x1="21.24" y1="29.49" x2="24.66" y2="33.64"/>
    <line x1="74.37" y1="29.20" x2="75.00" y2="30.47"/>
    <line x1="63.54" y1="29.00" x2="65.90" y2="30.52"/>
    <line x1="78.96" y1="30.13" x2="77.57" y2="30.63"/>
    <line x1="78.96" y1="30.13" x2="74.74" y2="34.20"/>
    <line x1="28.17" y1="30.27" x2="24.41" y2="30.39"/>
    <line x1="28.17" y1="30.27" x2="32.19" y2="32.03"/>
    <line x1="24.41" y1="30.39" x2="24.61" y2="30.88"/>
    <line x1="71.00" y1="30.73" x2="65.90" y2="30.52"/>
    <line x1="71.00" y1="30.73" x2="69.58" y2="34.42"/>
    <line x1="71.00" y1="30.73" x2="74.74" y2="34.20"/>
    <line x1="41.39" y1="30.89" x2="39.11" y2="32.05"/>
    <line x1="41.39" y1="30.89" x2="46.57" y2="33.82"/>
    <line x1="41.39" y1="30.89" x2="37.57" y2="34.90"/>
    <line x1="65.90" y1="30.52" x2="60.16" y2="31.88"/>
    <line x1="65.90" y1="30.52" x2="67.77" y2="34.11"/>
    <line x1="65.90" y1="30.52" x2="62.66" y2="34.73"/>
    <line x1="36.64" y1="30.90" x2="39.11" y2="32.05"/>
    <line x1="46.97" y1="30.73" x2="46.57" y2="33.82"/>
    <line x1="57.60" y1="31.78" x2="55.21" y2="35.42"/>
    <line x1="57.60" y1="31.78" x2="58.89" y2="35.45"/>
    <line x1="75.00" y1="30.47" x2="74.74" y2="34.20"/>
    <line x1="32.19" y1="32.03" x2="32.63" y2="33.22"/>
    <line x1="28.29" y1="31.48" x2="27.99" y2="33.76"/>
    <line x1="60.16" y1="31.88" x2="62.66" y2="34.73"/>
    <line x1="24.61" y1="30.88" x2="27.99" y2="33.76"/>
    <line x1="51.30" y1="32.60" x2="55.66" y2="32.32"/>
    <line x1="51.30" y1="32.60" x2="48.52" y2="33.83"/>
    <line x1="51.30" y1="32.60" x2="55.21" y2="35.42"/>
    <line x1="51.30" y1="32.60" x2="51.04" y2="36.26"/>
    <line x1="39.11" y1="32.05" x2="36.78" y2="32.56"/>
    <line x1="32.63" y1="33.22" x2="37.57" y2="34.90"/>
    <line x1="32.63" y1="33.22" x2="28.65" y2="34.90"/>
    <line x1="27.99" y1="33.76" x2="28.65" y2="34.90"/>
    <line x1="46.57" y1="33.82" x2="48.52" y2="33.83"/>
    <line x1="46.57" y1="33.82" x2="44.86" y2="35.84"/>
    <line x1="46.57" y1="33.82" x2="46.57" y2="35.83"/>
    <line x1="69.58" y1="34.42" x2="68.66" y2="35.74"/>
    <line x1="74.74" y1="34.20" x2="68.66" y2="35.74"/>
    <line x1="74.74" y1="34.20" x2="74.77" y2="35.59"/>
    <line x1="24.66" y1="33.64" x2="28.65" y2="34.90"/>
    <line x1="24.66" y1="33.64" x2="24.34" y2="41.02"/>
    <line x1="62.66" y1="34.73" x2="63.50" y2="35.25"/>
    <line x1="62.66" y1="34.73" x2="59.38" y2="37.47"/>
    <line x1="28.65" y1="34.90" x2="45.05" y2="37.04"/>
    <line x1="28.65" y1="34.90" x2="28.58" y2="38.41"/>
    <line x1="55.21" y1="35.42" x2="50.66" y2="37.57"/>
    <line x1="58.89" y1="35.45" x2="59.38" y2="37.47"/>
    <line x1="63.50" y1="35.25" x2="68.66" y2="35.74"/>
    <line x1="63.50" y1="35.25" x2="59.38" y2="37.47"/>
    <line x1="44.86" y1="35.84" x2="45.05" y2="37.04"/>
    <line x1="65.59" y1="35.81" x2="68.66" y2="35.74"/>
    <line x1="46.57" y1="35.83" x2="50.66" y2="37.57"/>
    <line x1="68.66" y1="35.74" x2="68.85" y2="41.31"/>
    <line x1="74.77" y1="35.59" x2="74.73" y2="41.29"/>
    <line x1="74.77" y1="35.59" x2="78.08" y2="41.21"/>
    <line x1="50.66" y1="37.57" x2="59.38" y2="37.47"/>
    <line x1="50.66" y1="37.57" x2="45.05" y2="37.04"/>
    <line x1="24.02" y1="38.28" x2="21.17" y2="41.37"/>
    <line x1="28.58" y1="38.41" x2="28.78" y2="43.95"/>
    <line x1="74.73" y1="41.29" x2="78.08" y2="41.21"/>
    <line x1="74.73" y1="41.29" x2="74.24" y2="44.40"/>
    <line x1="78.08" y1="41.21" x2="75.92" y2="44.81"/>
    <line x1="78.08" y1="41.21" x2="79.12" y2="46.08"/>
    <line x1="24.34" y1="41.02" x2="21.17" y2="41.37"/>
    <line x1="24.34" y1="41.02" x2="28.78" y2="43.95"/>
    <line x1="24.34" y1="41.02" x2="23.27" y2="44.73"/>
    <line x1="68.85" y1="41.31" x2="68.63" y2="44.24"/>
    <line x1="21.17" y1="41.37" x2="23.27" y2="44.73"/>
    <line x1="21.17" y1="41.37" x2="21.01" y2="45.79"/>
    <line x1="28.78" y1="43.95" x2="23.27" y2="44.73"/>
    <line x1="28.78" y1="43.95" x2="25.59" y2="48.50"/>
    <line x1="50.82" y1="42.70" x2="44.04" y2="42.77"/>
    <line x1="50.82" y1="42.70" x2="56.72" y2="43.00"/>
    <line x1="50.82" y1="42.70" x2="47.77" y2="45.51"/>
    <line x1="50.82" y1="42.70" x2="53.24" y2="47.10"/>
    <line x1="57.44" y1="43.09" x2="60.64" y2="43.65"/>
    <line x1="57.44" y1="43.09" x2="53.24" y2="47.10"/>
    <line x1="57.44" y1="43.09" x2="59.92" y2="46.56"/>
    <line x1="44.04" y1="42.77" x2="38.36" y2="44.49"/>
    <line x1="44.04" y1="42.77" x2="47.77" y2="45.51"/>
    <line x1="44.04" y1="42.77" x2="41.57" y2="46.43"/>
    <line x1="68.63" y1="44.24" x2="74.24" y2="44.40"/>
    <line x1="68.63" y1="44.24" x2="63.44" y2="44.53"/>
    <line x1="68.63" y1="44.24" x2="68.96" y2="45.33"/>
    <line x1="38.36" y1="44.49" x2="37.60" y2="44.92"/>
    <line x1="38.36" y1="44.49" x2="40.43" y2="46.43"/>
    <line x1="74.24" y1="44.40" x2="75.92" y2="44.81"/>
    <line x1="63.44" y1="44.53" x2="59.92" y2="46.56"/>
    <line x1="63.44" y1="44.53" x2="64.13" y2="48.27"/>
    <line x1="75.92" y1="44.81" x2="75.03" y2="46.03"/>
    <line x1="29.77" y1="44.92" x2="34.02" y2="45.28"/>
    <line x1="29.77" y1="44.92" x2="30.27" y2="46.78"/>
    <line x1="21.01" y1="45.79" x2="25.59" y2="48.50"/>
    <line x1="47.77" y1="45.51" x2="41.57" y2="46.43"/>
    <line x1="47.77" y1="45.51" x2="49.61" y2="45.90"/>
    <line x1="47.77" y1="45.51" x2="47.56" y2="48.05"/>
    <line x1="68.96" y1="45.33" x2="64.13" y2="48.27"/>
    <line x1="68.96" y1="45.33" x2="68.16" y2="49.93"/>
    <line x1="79.12" y1="46.08" x2="74.38" y2="48.45"/>
    <line x1="79.12" y1="46.08" x2="78.81" y2="53.71"/>
    <line x1="41.57" y1="46.43" x2="44.82" y2="49.02"/>
    <line x1="41.57" y1="46.43" x2="34.51" y2="51.26"/>
    <line x1="49.61" y1="45.90" x2="53.24" y2="47.10"/>
    <line x1="53.24" y1="47.10" x2="57.10" y2="47.46"/>
    <line x1="53.24" y1="47.10" x2="47.43" y2="50.42"/>
    <line x1="53.24" y1="47.10" x2="51.76" y2="52.23"/>
    <line x1="24.12" y1="45.26" x2="25.59" y2="48.50"/>
    <line x1="34.79" y1="46.29" x2="32.18" y2="46.73"/>
    <line x1="34.79" y1="46.29" x2="38.79" y2="46.48"/>
    <line x1="59.92" y1="46.56" x2="60.39" y2="46.88"/>
    <line x1="75.03" y1="46.03" x2="74.38" y2="48.45"/>
    <line x1="30.27" y1="46.78" x2="34.51" y2="51.26"/>
    <line x1="57.10" y1="47.46" x2="54.41" y2="47.75"/>
    <line x1="70.96" y1="46.35" x2="74.38" y2="48.45"/>
    <line x1="60.39" y1="46.88" x2="64.13" y2="48.27"/>
    <line x1="79.05" y1="46.27" x2="77.48" y2="50.59"/>
    <line x1="27.47" y1="47.79" x2="25.59" y2="48.50"/>
    <line x1="41.37" y1="47.29" x2="42.46" y2="51.43"/>
    <line x1="47.56" y1="48.05" x2="47.43" y2="50.42"/>
    <line x1="64.13" y1="48.27" x2="66.50" y2="49.61"/>
    <line x1="64.13" y1="48.27" x2="60.01" y2="51.23"/>
    <line x1="25.59" y1="48.50" x2="21.44" y2="50.04"/>
    <line x1="25.59" y1="48.50" x2="34.51" y2="51.26"/>
    <line x1="25.59" y1="48.50" x2="29.41" y2="53.62"/>
    <line x1="54.41" y1="47.75" x2="57.70" y2="49.88"/>
    <line x1="20.75" y1="48.12" x2="21.44" y2="50.04"/>
    <line x1="74.38" y1="48.45" x2="68.16" y2="49.93"/>
    <line x1="74.38" y1="48.45" x2="77.48" y2="50.59"/>
    <line x1="74.38" y1="48.45" x2="70.85" y2="54.35"/>
    <line x1="68.16" y1="49.93" x2="66.50" y2="49.61"/>
    <line x1="44.82" y1="49.02" x2="47.43" y2="50.42"/>
    <line x1="66.50" y1="49.61" x2="60.01" y2="51.23"/>
    <line x1="66.50" y1="49.61" x2="67.85" y2="50.47"/>
    <line x1="21.44" y1="50.04" x2="21.21" y2="53.12"/>
    <line x1="21.44" y1="50.04" x2="24.31" y2="54.45"/>
    <line x1="47.43" y1="50.42" x2="44.63" y2="51.81"/>
    <line x1="47.43" y1="50.42" x2="50.64" y2="52.15"/>
    <line x1="47.43" y1="50.42" x2="47.02" y2="51.74"/>
    <line x1="60.01" y1="51.23" x2="51.76" y2="52.23"/>
    <line x1="60.01" y1="51.23" x2="60.11" y2="52.16"/>
    <line x1="60.01" y1="51.23" x2="62.89" y2="53.81"/>
    <line x1="34.51" y1="51.26" x2="34.89" y2="51.55"/>
    <line x1="77.48" y1="50.59" x2="74.87" y2="51.89"/>
    <line x1="77.48" y1="50.59" x2="78.81" y2="53.71"/>
    <line x1="25.54" y1="49.37" x2="24.31" y2="54.45"/>
    <line x1="42.46" y1="51.43" x2="44.63" y2="51.81"/>
    <line x1="42.46" y1="51.43" x2="34.89" y2="51.55"/>
    <line x1="42.46" y1="51.43" x2="39.45" y2="55.70"/>
    <line x1="51.76" y1="52.23" x2="50.64" y2="52.15"/>
    <line x1="51.76" y1="52.23" x2="45.79" y2="55.66"/>
    <line x1="67.85" y1="50.47" x2="70.85" y2="54.35"/>
    <line x1="67.85" y1="50.47" x2="65.84" y2="55.37"/>
    <line x1="44.63" y1="51.81" x2="47.02" y2="51.74"/>
    <line x1="50.64" y1="52.15" x2="47.02" y2="51.74"/>
    <line x1="60.11" y1="52.16" x2="56.04" y2="56.84"/>
    <line x1="60.11" y1="52.16" x2="57.23" y2="57.48"/>
    <line x1="74.87" y1="51.89" x2="72.36" y2="54.39"/>
    <line x1="33.14" y1="52.51" x2="32.81" y2="56.56"/>
    <line x1="47.02" y1="51.74" x2="45.79" y2="55.66"/>
    <line x1="21.21" y1="53.12" x2="24.78" y2="56.11"/>
    <line x1="78.81" y1="53.71" x2="75.24" y2="54.79"/>
    <line x1="78.81" y1="53.71" x2="74.79" y2="57.41"/>
    <line x1="29.41" y1="53.62" x2="24.31" y2="54.45"/>
    <line x1="29.41" y1="53.62" x2="29.49" y2="56.35"/>
    <line x1="29.41" y1="53.62" x2="32.81" y2="56.56"/>
    <line x1="43.05" y1="52.17" x2="45.79" y2="55.66"/>
    <line x1="36.46" y1="53.52" x2="39.45" y2="55.70"/>
    <line x1="36.46" y1="53.52" x2="35.66" y2="56.93"/>
    <line x1="51.86" y1="53.25" x2="56.04" y2="56.84"/>
    <line x1="51.86" y1="53.25" x2="51.89" y2="57.45"/>
    <line x1="24.31" y1="54.45" x2="29.30" y2="58.51"/>
    <line x1="62.89" y1="53.81" x2="65.84" y2="55.37"/>
    <line x1="70.85" y1="54.35" x2="72.36" y2="54.39"/>
    <line x1="70.85" y1="54.35" x2="68.36" y2="54.88"/>
    <line x1="70.85" y1="54.35" x2="70.36" y2="55.14"/>
    <line x1="70.85" y1="54.35" x2="74.79" y2="57.41"/>
    <line x1="65.84" y1="55.37" x2="64.65" y2="56.27"/>
    <line x1="65.84" y1="55.37" x2="67.55" y2="57.87"/>
    <line x1="75.24" y1="54.79" x2="74.79" y2="57.41"/>
    <line x1="45.79" y1="55.66" x2="43.46" y2="56.15"/>
    <line x1="45.79" y1="55.66" x2="47.77" y2="57.03"/>
    <line x1="45.79" y1="55.66" x2="39.74" y2="60.74"/>
    <line x1="39.45" y1="55.70" x2="35.66" y2="56.93"/>
    <line x1="39.45" y1="55.70" x2="43.46" y2="56.15"/>
    <line x1="39.45" y1="55.70" x2="39.31" y2="59.52"/>
    <line x1="35.66" y1="56.93" x2="32.81" y2="56.56"/>
    <line x1="35.66" y1="56.93" x2="35.72" y2="57.69"/>
    <line x1="24.78" y1="56.11" x2="29.30" y2="58.51"/>
    <line x1="24.78" y1="56.11" x2="24.66" y2="64.84"/>
    <line x1="64.65" y1="56.27" x2="60.25" y2="57.88"/>
    <line x1="64.65" y1="56.27" x2="64.14" y2="59.69"/>
    <line x1="70.36" y1="55.14" x2="69.00" y2="59.16"/>
    <line x1="32.81" y1="56.56" x2="29.30" y2="58.51"/>
    <line x1="56.04" y1="56.84" x2="51.89" y2="57.45"/>
    <line x1="56.04" y1="56.84" x2="57.23" y2="57.48"/>
    <line x1="56.04" y1="56.84" x2="51.29" y2="61.78"/>
    <line x1="47.77" y1="57.03" x2="48.76" y2="59.64"/>
    <line x1="51.89" y1="57.45" x2="48.76" y2="59.64"/>
    <line x1="51.89" y1="57.45" x2="51.29" y2="61.78"/>
    <line x1="74.79" y1="57.41" x2="69.00" y2="59.16"/>
    <line x1="74.79" y1="57.41" x2="74.98" y2="58.90"/>
    <line x1="57.23" y1="57.48" x2="60.25" y2="57.88"/>
    <line x1="57.23" y1="57.48" x2="57.09" y2="60.55"/>
    <line x1="67.55" y1="57.87" x2="69.00" y2="59.16"/>
    <line x1="60.25" y1="57.88" x2="64.14" y2="59.69"/>
    <line x1="35.72" y1="57.69" x2="39.31" y2="59.52"/>
    <line x1="35.72" y1="57.69" x2="34.72" y2="59.91"/>
    <line x1="39.31" y1="59.52" x2="39.74" y2="60.74"/>
    <line x1="29.30" y1="58.51" x2="34.72" y2="59.91"/>
    <line x1="69.00" y1="59.16" x2="64.14" y2="59.69"/>
    <line x1="69.00" y1="59.16" x2="69.34" y2="64.65"/>
    <line x1="46.00" y1="59.73" x2="48.76" y2="59.64"/>
    <line x1="64.14" y1="59.69" x2="57.09" y2="60.55"/>
    <line x1="48.76" y1="59.64" x2="51.29" y2="61.78"/>
    <line x1="74.98" y1="58.90" x2="74.97" y2="64.52"/>
    <line x1="74.98" y1="58.90" x2="77.73" y2="69.25"/>
    <line x1="34.72" y1="59.91" x2="39.74" y2="60.74"/>
    <line x1="57.09" y1="60.55" x2="51.29" y2="61.78"/>
    <line x1="39.74" y1="60.74" x2="51.29" y2="61.78"/>
    <line x1="51.29" y1="61.78" x2="51.12" y2="66.75"/>
    <line x1="24.02" y1="61.91" x2="21.19" y2="65.69"/>
    <line x1="74.97" y1="64.52" x2="77.93" y2="65.33"/>
    <line x1="74.97" y1="64.52" x2="74.78" y2="65.94"/>
    <line x1="69.34" y1="64.65" x2="69.38" y2="68.77"/>
    <line x1="24.66" y1="64.84" x2="29.15" y2="66.99"/>
    <line x1="24.66" y1="64.84" x2="23.41" y2="67.94"/>
    <line x1="77.93" y1="65.33" x2="75.63" y2="68.13"/>
    <line x1="21.19" y1="65.69" x2="23.41" y2="67.94"/>
    <line x1="21.19" y1="65.69" x2="22.02" y2="68.70"/>
    <line x1="29.15" y1="66.99" x2="23.41" y2="67.94"/>
    <line x1="29.15" y1="66.99" x2="29.14" y2="68.00"/>
    <line x1="29.15" y1="66.99" x2="35.21" y2="68.42"/>
    <line x1="74.78" y1="65.94" x2="75.63" y2="68.13"/>
    <line x1="51.12" y1="66.75" x2="44.53" y2="66.89"/>
    <line x1="51.12" y1="66.75" x2="55.27" y2="66.70"/>
    <line x1="51.12" y1="66.75" x2="47.66" y2="69.64"/>
    <line x1="44.53" y1="66.89" x2="38.80" y2="67.58"/>
    <line x1="44.53" y1="66.89" x2="47.66" y2="69.64"/>
    <line x1="44.53" y1="66.89" x2="40.74" y2="70.90"/>
    <line x1="55.27" y1="66.70" x2="57.77" y2="67.07"/>
    <line x1="57.77" y1="67.07" x2="59.91" y2="67.33"/>
    <line x1="57.77" y1="67.07" x2="59.06" y2="70.39"/>
    <line x1="57.77" y1="67.07" x2="52.99" y2="70.95"/>
    <line x1="23.41" y1="67.94" x2="22.02" y2="68.70"/>
    <line x1="23.41" y1="67.94" x2="23.78" y2="68.70"/>
    <line x1="59.91" y1="67.33" x2="62.76" y2="68.23"/>
    <line x1="51.56" y1="67.09" x2="52.99" y2="70.95"/>
    <line x1="62.76" y1="68.23" x2="63.87" y2="71.09"/>
    <line x1="75.63" y1="68.13" x2="73.47" y2="68.72"/>
    <line x1="75.63" y1="68.13" x2="77.73" y2="69.25"/>
    <line x1="75.63" y1="68.13" x2="74.79" y2="71.14"/>
    <line x1="29.14" y1="68.00" x2="31.76" y2="70.86"/>
    <line x1="29.14" y1="68.00" x2="26.07" y2="72.67"/>
    <line x1="35.21" y1="68.42" x2="36.25" y2="68.41"/>
    <line x1="35.21" y1="68.42" x2="31.76" y2="70.86"/>
    <line x1="65.49" y1="68.62" x2="69.38" y2="68.77"/>
    <line x1="65.49" y1="68.62" x2="59.06" y2="70.39"/>
    <line x1="69.38" y1="68.77" x2="73.47" y2="68.72"/>
    <line x1="69.38" y1="68.77" x2="63.87" y2="71.09"/>
    <line x1="69.38" y1="68.77" x2="74.79" y2="71.14"/>
    <line x1="73.47" y1="68.72" x2="74.79" y2="71.14"/>
    <line x1="36.25" y1="68.41" x2="40.74" y2="70.90"/>
    <line x1="22.02" y1="68.70" x2="20.64" y2="70.35"/>
    <line x1="22.02" y1="68.70" x2="26.07" y2="72.67"/>
    <line x1="77.73" y1="69.25" x2="74.79" y2="71.14"/>
    <line x1="77.73" y1="69.25" x2="77.32" y2="74.27"/>
    <line x1="77.73" y1="69.25" x2="78.96" y2="77.98"/>
    <line x1="47.66" y1="69.64" x2="45.36" y2="70.07"/>
    <line x1="47.66" y1="69.64" x2="51.17" y2="70.31"/>
    <line x1="47.66" y1="69.64" x2="46.73" y2="74.39"/>
    <line x1="59.06" y1="70.39" x2="61.02" y2="70.86"/>
    <line x1="52.99" y1="70.95" x2="57.88" y2="70.70"/>
    <line x1="52.99" y1="70.95" x2="51.54" y2="76.90"/>
    <line x1="31.76" y1="70.86" x2="35.69" y2="71.44"/>
    <line x1="31.76" y1="70.86" x2="30.71" y2="70.94"/>
    <line x1="31.76" y1="70.86" x2="34.86" y2="75.46"/>
    <line x1="40.74" y1="70.90" x2="45.36" y2="70.07"/>
    <line x1="40.74" y1="70.90" x2="36.08" y2="75.37"/>
    <line x1="69.15" y1="69.35" x2="68.00" y2="73.66"/>
    <line x1="20.64" y1="70.35" x2="21.38" y2="73.79"/>
    <line x1="35.69" y1="71.44" x2="37.06" y2="71.53"/>
    <line x1="35.69" y1="71.44" x2="34.86" y2="75.46"/>
    <line x1="63.87" y1="71.09" x2="61.02" y2="70.86"/>
    <line x1="63.87" y1="71.09" x2="68.00" y2="73.66"/>
    <line x1="63.87" y1="71.09" x2="59.96" y2="76.12"/>
    <line x1="30.71" y1="70.94" x2="26.07" y2="72.67"/>
    <line x1="74.79" y1="71.14" x2="74.27" y2="72.67"/>
    <line x1="41.80" y1="71.26" x2="46.73" y2="74.39"/>
    <line x1="41.80" y1="71.26" x2="42.09" y2="74.12"/>
    <line x1="52.78" y1="71.12" x2="46.73" y2="74.39"/>
    <line x1="53.55" y1="71.23" x2="59.96" y2="76.12"/>
    <line x1="26.07" y1="72.67" x2="21.38" y2="73.79"/>
    <line x1="26.07" y1="72.67" x2="34.86" y2="75.46"/>
    <line x1="26.07" y1="72.67" x2="25.33" y2="74.87"/>
    <line x1="26.07" y1="72.67" x2="29.55" y2="77.65"/>
    <line x1="74.27" y1="72.67" x2="68.00" y2="73.66"/>
    <line x1="74.27" y1="72.67" x2="77.32" y2="74.27"/>
    <line x1="74.27" y1="72.67" x2="74.61" y2="75.98"/>
    <line x1="74.27" y1="72.67" x2="71.18" y2="78.21"/>
    <line x1="68.00" y1="73.66" x2="61.23" y2="76.03"/>
    <line x1="68.00" y1="73.66" x2="66.07" y2="79.58"/>
    <line x1="21.38" y1="73.79" x2="21.80" y2="74.84"/>
    <line x1="21.38" y1="73.79" x2="21.52" y2="76.43"/>
    <line x1="46.73" y1="74.39" x2="47.46" y2="75.38"/>
    <line x1="46.73" y1="74.39" x2="43.23" y2="76.37"/>
    <line x1="77.32" y1="74.27" x2="78.96" y2="77.98"/>
    <line x1="77.32" y1="74.27" x2="74.69" y2="77.90"/>
    <line x1="34.86" y1="75.46" x2="36.08" y2="75.37"/>
    <line x1="34.86" y1="75.46" x2="32.89" y2="75.86"/>
    <line x1="34.86" y1="75.46" x2="46.73" y2="76.44"/>
    <line x1="34.86" y1="75.46" x2="32.91" y2="80.08"/>
    <line x1="21.80" y1="74.84" x2="24.98" y2="78.25"/>
    <line x1="25.33" y1="74.87" x2="24.98" y2="78.25"/>
    <line x1="47.46" y1="75.38" x2="51.54" y2="76.90"/>
    <line x1="47.46" y1="75.38" x2="46.73" y2="76.44"/>
    <line x1="74.61" y1="75.98" x2="74.69" y2="77.90"/>
    <line x1="51.54" y1="76.90" x2="59.96" y2="76.12"/>
    <line x1="51.54" y1="76.90" x2="46.29" y2="80.71"/>
    <line x1="51.54" y1="76.90" x2="55.86" y2="81.25"/>
    <line x1="51.54" y1="76.90" x2="51.72" y2="85.70"/>
    <line x1="61.23" y1="76.03" x2="59.96" y2="76.12"/>
    <line x1="61.23" y1="76.03" x2="65.55" y2="79.79"/>
    <line x1="67.85" y1="74.96" x2="71.18" y2="78.21"/>
    <line x1="59.96" y1="76.12" x2="59.67" y2="80.66"/>
    <line x1="59.96" y1="76.12" x2="55.86" y2="81.25"/>
    <line x1="43.23" y1="76.37" x2="46.29" y2="80.71"/>
    <line x1="32.89" y1="75.86" x2="29.55" y2="77.65"/>
    <line x1="46.73" y1="76.44" x2="46.29" y2="80.71"/>
    <line x1="78.96" y1="77.98" x2="74.69" y2="77.90"/>
    <line x1="78.96" y1="77.98" x2="74.87" y2="81.77"/>
    <line x1="21.52" y1="76.43" x2="24.98" y2="78.25"/>
    <line x1="21.52" y1="76.43" x2="24.80" y2="81.05"/>
    <line x1="36.00" y1="75.92" x2="39.98" y2="79.97"/>
    <line x1="36.00" y1="75.92" x2="36.20" y2="80.27"/>
    <line x1="29.55" y1="77.65" x2="24.98" y2="78.25"/>
    <line x1="29.55" y1="77.65" x2="32.91" y2="80.08"/>
    <line x1="29.55" y1="77.65" x2="29.25" y2="83.13"/>
    <line x1="71.18" y1="78.21" x2="66.07" y2="79.58"/>
    <line x1="71.18" y1="78.21" x2="70.90" y2="78.99"/>
    <line x1="71.18" y1="78.21" x2="74.87" y2="81.77"/>
    <line x1="42.58" y1="76.82" x2="39.98" y2="79.97"/>
    <line x1="24.98" y1="78.25" x2="24.80" y2="81.05"/>
    <line x1="24.98" y1="78.25" x2="29.25" y2="83.13"/>
    <line x1="66.07" y1="79.58" x2="65.55" y2="79.79"/>
    <line x1="66.07" y1="79.58" x2="69.68" y2="81.59"/>
    <line x1="39.98" y1="79.97" x2="44.34" y2="80.53"/>
    <line x1="39.98" y1="79.97" x2="36.39" y2="81.45"/>
    <line x1="39.98" y1="79.97" x2="40.14" y2="82.67"/>
    <line x1="36.20" y1="80.27" x2="32.91" y2="80.08"/>
    <line x1="36.20" y1="80.27" x2="36.39" y2="81.45"/>
    <line x1="65.55" y1="79.79" x2="59.79" y2="82.20"/>
    <line x1="70.90" y1="78.99" x2="69.68" y2="81.59"/>
    <line x1="32.91" y1="80.08" x2="29.25" y2="83.13"/>
    <line x1="59.67" y1="80.66" x2="59.79" y2="82.20"/>
    <line x1="46.29" y1="80.71" x2="44.34" y2="80.53"/>
    <line x1="46.29" y1="80.71" x2="47.62" y2="81.15"/>
    <line x1="46.29" y1="80.71" x2="51.72" y2="85.70"/>
    <line x1="46.29" y1="80.71" x2="40.15" y2="85.07"/>
    <line x1="55.86" y1="81.25" x2="50.72" y2="81.58"/>
    <line x1="55.86" y1="81.25" x2="59.79" y2="82.20"/>
    <line x1="55.86" y1="81.25" x2="56.48" y2="82.68"/>
    <line x1="55.86" y1="81.25" x2="51.72" y2="85.70"/>
    <line x1="47.62" y1="81.15" x2="50.72" y2="81.58"/>
    <line x1="24.80" y1="81.05" x2="29.25" y2="83.13"/>
    <line x1="36.39" y1="81.45" x2="34.77" y2="84.44"/>
    <line x1="36.39" y1="81.45" x2="40.15" y2="85.07"/>
    <line x1="74.87" y1="81.77" x2="51.72" y2="85.70"/>
    <line x1="59.79" y1="82.20" x2="62.14" y2="83.51"/>
    <line x1="59.79" y1="82.20" x2="57.16" y2="84.24"/>
    <line x1="29.25" y1="83.13" x2="34.77" y2="84.44"/>
    <line x1="46.58" y1="82.52" x2="45.70" y2="86.08"/>
    <line x1="34.77" y1="84.44" x2="40.15" y2="85.07"/>
    <line x1="40.15" y1="85.07" x2="45.70" y2="86.08"/>
    <line x1="45.70" y1="86.08" x2="51.45" y2="86.09"/>
  </g>
  <g fill="#00B3E3">
    <circle cx="49.82" cy="8.73" r="0.85"/>
    <circle cx="48.37" cy="9.07" r="0.85"/>
    <circle cx="43.55" cy="9.03" r="0.85"/>
    <circle cx="56.29" cy="9.17" r="0.85"/>
    <circle cx="57.10" cy="9.25" r="0.85"/>
    <circle cx="36.64" cy="10.31" r="0.85"/>
    <circle cx="64.42" cy="10.73" r="0.85"/>
    <circle cx="37.57" cy="11.08" r="0.85"/>
    <circle cx="49.57" cy="10.04" r="0.85"/>
    <circle cx="41.13" cy="11.75" r="0.85"/>
    <circle cx="59.91" cy="11.44" r="0.85"/>
    <circle cx="30.71" cy="11.52" r="0.85"/>
    <circle cx="46.95" cy="11.24" r="0.85"/>
    <circle cx="33.90" cy="13.28" r="0.85"/>
    <circle cx="57.03" cy="12.87" r="0.85"/>
    <circle cx="71.80" cy="12.81" r="0.85"/>
    <circle cx="35.80" cy="13.03" r="0.85"/>
    <circle cx="55.63" cy="13.12" r="0.85"/>
    <circle cx="68.46" cy="13.43" r="0.85"/>
    <circle cx="25.78" cy="13.65" r="0.85"/>
    <circle cx="64.43" cy="14.63" r="0.85"/>
    <circle cx="40.57" cy="13.14" r="0.85"/>
    <circle cx="32.29" cy="13.74" r="0.85"/>
    <circle cx="58.52" cy="13.45" r="0.85"/>
    <circle cx="28.34" cy="14.66" r="0.85"/>
    <circle cx="43.50" cy="15.49" r="0.85"/>
    <circle cx="71.04" cy="14.72" r="0.85"/>
    <circle cx="76.41" cy="15.16" r="0.85"/>
    <circle cx="45.54" cy="15.57" r="0.85"/>
    <circle cx="50.07" cy="15.49" r="0.85"/>
    <circle cx="26.46" cy="14.36" r="0.85"/>
    <circle cx="73.09" cy="16.02" r="0.85"/>
    <circle cx="63.96" cy="15.76" r="0.85"/>
    <circle cx="64.98" cy="15.62" r="0.85"/>
    <circle cx="33.57" cy="17.24" r="0.85"/>
    <circle cx="40.73" cy="16.62" r="0.85"/>
    <circle cx="21.70" cy="17.46" r="0.85"/>
    <circle cx="61.04" cy="16.50" r="0.85"/>
    <circle cx="74.95" cy="17.43" r="0.85"/>
    <circle cx="37.50" cy="17.38" r="0.85"/>
    <circle cx="64.29" cy="16.37" r="0.85"/>
    <circle cx="71.40" cy="17.01" r="0.85"/>
    <circle cx="26.74" cy="18.91" r="0.85"/>
    <circle cx="50.86" cy="17.97" r="0.85"/>
    <circle cx="56.08" cy="17.86" r="0.85"/>
    <circle cx="33.33" cy="17.70" r="0.85"/>
    <circle cx="23.01" cy="17.97" r="0.85"/>
    <circle cx="29.98" cy="18.46" r="0.85"/>
    <circle cx="20.97" cy="18.24" r="0.85"/>
    <circle cx="40.62" cy="17.97" r="0.85"/>
    <circle cx="75.67" cy="18.47" r="0.85"/>
    <circle cx="47.02" cy="20.81" r="0.85"/>
    <circle cx="71.04" cy="19.39" r="0.85"/>
    <circle cx="51.20" cy="19.56" r="0.85"/>
    <circle cx="68.85" cy="19.68" r="0.85"/>
    <circle cx="74.07" cy="20.05" r="0.85"/>
    <circle cx="78.61" cy="21.58" r="0.85"/>
    <circle cx="23.83" cy="21.07" r="0.85"/>
    <circle cx="60.80" cy="21.65" r="0.85"/>
    <circle cx="65.82" cy="21.48" r="0.85"/>
    <circle cx="46.89" cy="20.97" r="0.85"/>
    <circle cx="75.68" cy="21.00" r="0.85"/>
    <circle cx="21.00" cy="21.62" r="0.85"/>
    <circle cx="36.33" cy="22.07" r="0.85"/>
    <circle cx="25.33" cy="22.35" r="0.85"/>
    <circle cx="41.33" cy="22.90" r="0.85"/>
    <circle cx="52.25" cy="22.60" r="0.85"/>
    <circle cx="30.47" cy="22.90" r="0.85"/>
    <circle cx="72.02" cy="22.85" r="0.85"/>
    <circle cx="33.20" cy="22.27" r="0.85"/>
    <circle cx="78.92" cy="22.28" r="0.85"/>
    <circle cx="53.11" cy="23.24" r="0.85"/>
    <circle cx="60.68" cy="22.16" r="0.85"/>
    <circle cx="73.05" cy="24.59" r="0.85"/>
    <circle cx="20.83" cy="23.80" r="0.85"/>
    <circle cx="47.17" cy="24.61" r="0.85"/>
    <circle cx="67.46" cy="24.65" r="0.85"/>
    <circle cx="41.67" cy="24.27" r="0.85"/>
    <circle cx="25.85" cy="24.96" r="0.85"/>
    <circle cx="56.66" cy="24.90" r="0.85"/>
    <circle cx="26.74" cy="25.41" r="0.85"/>
    <circle cx="65.54" cy="26.00" r="0.85"/>
    <circle cx="72.13" cy="25.82" r="0.85"/>
    <circle cx="35.18" cy="27.03" r="0.85"/>
    <circle cx="20.98" cy="25.75" r="0.85"/>
    <circle cx="54.34" cy="26.95" r="0.85"/>
    <circle cx="75.33" cy="25.98" r="0.85"/>
    <circle cx="22.56" cy="25.98" r="0.85"/>
    <circle cx="78.96" cy="26.27" r="0.85"/>
    <circle cx="60.76" cy="27.38" r="0.85"/>
    <circle cx="61.70" cy="27.27" r="0.85"/>
    <circle cx="47.42" cy="27.67" r="0.85"/>
    <circle cx="25.28" cy="26.12" r="0.85"/>
    <circle cx="36.09" cy="27.65" r="0.85"/>
    <circle cx="71.88" cy="26.69" r="0.85"/>
    <circle cx="30.96" cy="28.12" r="0.85"/>
    <circle cx="42.15" cy="27.50" r="0.85"/>
    <circle cx="33.05" cy="27.81" r="0.85"/>
    <circle cx="54.76" cy="28.00" r="0.85"/>
    <circle cx="46.98" cy="28.19" r="0.85"/>
    <circle cx="66.57" cy="27.90" r="0.85"/>
    <circle cx="21.24" cy="29.49" r="0.85"/>
    <circle cx="74.37" cy="29.20" r="0.85"/>
    <circle cx="63.54" cy="29.00" r="0.85"/>
    <circle cx="78.96" cy="30.13" r="0.85"/>
    <circle cx="28.17" cy="30.27" r="0.85"/>
    <circle cx="24.41" cy="30.39" r="0.85"/>
    <circle cx="71.00" cy="30.73" r="0.85"/>
    <circle cx="41.39" cy="30.89" r="0.85"/>
    <circle cx="65.90" cy="30.52" r="0.85"/>
    <circle cx="36.64" cy="30.90" r="0.85"/>
    <circle cx="46.97" cy="30.73" r="0.85"/>
    <circle cx="57.60" cy="31.78" r="0.85"/>
    <circle cx="75.00" cy="30.47" r="0.85"/>
    <circle cx="77.57" cy="30.63" r="0.85"/>
    <circle cx="32.19" cy="32.03" r="0.85"/>
    <circle cx="28.29" cy="31.48" r="0.85"/>
    <circle cx="60.16" cy="31.88" r="0.85"/>
    <circle cx="24.61" cy="30.88" r="0.85"/>
    <circle cx="51.30" cy="32.60" r="0.85"/>
    <circle cx="39.11" cy="32.05" r="0.85"/>
    <circle cx="55.66" cy="32.32" r="0.85"/>
    <circle cx="36.78" cy="32.56" r="0.85"/>
    <circle cx="32.63" cy="33.22" r="0.85"/>
    <circle cx="67.77" cy="34.11" r="0.85"/>
    <circle cx="27.99" cy="33.76" r="0.85"/>
    <circle cx="46.57" cy="33.82" r="0.85"/>
    <circle cx="48.52" cy="33.83" r="0.85"/>
    <circle cx="69.58" cy="34.42" r="0.85"/>
    <circle cx="74.74" cy="34.20" r="0.85"/>
    <circle cx="24.66" cy="33.64" r="0.85"/>
    <circle cx="62.66" cy="34.73" r="0.85"/>
    <circle cx="37.57" cy="34.90" r="0.85"/>
    <circle cx="28.65" cy="34.90" r="0.85"/>
    <circle cx="55.21" cy="35.42" r="0.85"/>
    <circle cx="58.89" cy="35.45" r="0.85"/>
    <circle cx="63.50" cy="35.25" r="0.85"/>
    <circle cx="51.04" cy="36.26" r="0.85"/>
    <circle cx="44.86" cy="35.84" r="0.85"/>
    <circle cx="65.59" cy="35.81" r="0.85"/>
    <circle cx="46.57" cy="35.83" r="0.85"/>
    <circle cx="68.66" cy="35.74" r="0.85"/>
    <circle cx="74.77" cy="35.59" r="0.85"/>
    <circle cx="41.17" cy="36.45" r="0.85"/>
    <circle cx="56.45" cy="36.18" r="0.85"/>
    <circle cx="50.66" cy="37.57" r="0.85"/>
    <circle cx="59.38" cy="37.47" r="0.85"/>
    <circle cx="45.05" cy="37.04" r="0.85"/>
    <circle cx="24.02" cy="38.28" r="0.85"/>
    <circle cx="28.58" cy="38.41" r="0.85"/>
    <circle cx="51.24" cy="39.06" r="0.85"/>
    <circle cx="74.73" cy="41.29" r="0.85"/>
    <circle cx="78.08" cy="41.21" r="0.85"/>
    <circle cx="24.34" cy="41.02" r="0.85"/>
    <circle cx="68.85" cy="41.31" r="0.85"/>
    <circle cx="21.17" cy="41.37" r="0.85"/>
    <circle cx="28.78" cy="43.95" r="0.85"/>
    <circle cx="50.82" cy="42.70" r="0.85"/>
    <circle cx="57.44" cy="43.09" r="0.85"/>
    <circle cx="44.04" cy="42.77" r="0.85"/>
    <circle cx="56.72" cy="43.00" r="0.85"/>
    <circle cx="68.63" cy="44.24" r="0.85"/>
    <circle cx="38.36" cy="44.49" r="0.85"/>
    <circle cx="60.64" cy="43.65" r="0.85"/>
    <circle cx="74.24" cy="44.40" r="0.85"/>
    <circle cx="63.44" cy="44.53" r="0.85"/>
    <circle cx="23.27" cy="44.73" r="0.85"/>
    <circle cx="75.92" cy="44.81" r="0.85"/>
    <circle cx="29.77" cy="44.92" r="0.85"/>
    <circle cx="34.02" cy="45.28" r="0.85"/>
    <circle cx="37.60" cy="44.92" r="0.85"/>
    <circle cx="21.01" cy="45.79" r="0.85"/>
    <circle cx="47.77" cy="45.51" r="0.85"/>
    <circle cx="68.96" cy="45.33" r="0.85"/>
    <circle cx="79.12" cy="46.08" r="0.85"/>
    <circle cx="41.57" cy="46.43" r="0.85"/>
    <circle cx="49.61" cy="45.90" r="0.85"/>
    <circle cx="40.43" cy="46.43" r="0.85"/>
    <circle cx="53.24" cy="47.10" r="0.85"/>
    <circle cx="24.12" cy="45.26" r="0.85"/>
    <circle cx="34.79" cy="46.29" r="0.85"/>
    <circle cx="59.92" cy="46.56" r="0.85"/>
    <circle cx="75.03" cy="46.03" r="0.85"/>
    <circle cx="30.27" cy="46.78" r="0.85"/>
    <circle cx="57.10" cy="47.46" r="0.85"/>
    <circle cx="70.96" cy="46.35" r="0.85"/>
    <circle cx="32.18" cy="46.73" r="0.85"/>
    <circle cx="38.79" cy="46.48" r="0.85"/>
    <circle cx="60.39" cy="46.88" r="0.85"/>
    <circle cx="79.05" cy="46.27" r="0.85"/>
    <circle cx="27.47" cy="47.79" r="0.85"/>
    <circle cx="41.37" cy="47.29" r="0.85"/>
    <circle cx="47.56" cy="48.05" r="0.85"/>
    <circle cx="64.13" cy="48.27" r="0.85"/>
    <circle cx="25.59" cy="48.50" r="0.85"/>
    <circle cx="54.41" cy="47.75" r="0.85"/>
    <circle cx="20.75" cy="48.12" r="0.85"/>
    <circle cx="74.38" cy="48.45" r="0.85"/>
    <circle cx="68.16" cy="49.93" r="0.85"/>
    <circle cx="44.82" cy="49.02" r="0.85"/>
    <circle cx="66.50" cy="49.61" r="0.85"/>
    <circle cx="21.44" cy="50.04" r="0.85"/>
    <circle cx="47.43" cy="50.42" r="0.85"/>
    <circle cx="57.70" cy="49.88" r="0.85"/>
    <circle cx="60.01" cy="51.23" r="0.85"/>
    <circle cx="34.51" cy="51.26" r="0.85"/>
    <circle cx="77.48" cy="50.59" r="0.85"/>
    <circle cx="25.54" cy="49.37" r="0.85"/>
    <circle cx="42.46" cy="51.43" r="0.85"/>
    <circle cx="51.76" cy="52.23" r="0.85"/>
    <circle cx="67.85" cy="50.47" r="0.85"/>
    <circle cx="44.63" cy="51.81" r="0.85"/>
    <circle cx="34.89" cy="51.55" r="0.85"/>
    <circle cx="50.64" cy="52.15" r="0.85"/>
    <circle cx="60.11" cy="52.16" r="0.85"/>
    <circle cx="74.87" cy="51.89" r="0.85"/>
    <circle cx="33.14" cy="52.51" r="0.85"/>
    <circle cx="47.02" cy="51.74" r="0.85"/>
    <circle cx="21.21" cy="53.12" r="0.85"/>
    <circle cx="78.81" cy="53.71" r="0.85"/>
    <circle cx="29.41" cy="53.62" r="0.85"/>
    <circle cx="43.05" cy="52.17" r="0.85"/>
    <circle cx="36.46" cy="53.52" r="0.85"/>
    <circle cx="51.86" cy="53.25" r="0.85"/>
    <circle cx="24.31" cy="54.45" r="0.85"/>
    <circle cx="62.89" cy="53.81" r="0.85"/>
    <circle cx="70.85" cy="54.35" r="0.85"/>
    <circle cx="65.84" cy="55.37" r="0.85"/>
    <circle cx="72.36" cy="54.39" r="0.85"/>
    <circle cx="75.24" cy="54.79" r="0.85"/>
    <circle cx="68.36" cy="54.88" r="0.85"/>
    <circle cx="45.79" cy="55.66" r="0.85"/>
    <circle cx="39.45" cy="55.70" r="0.85"/>
    <circle cx="35.66" cy="56.93" r="0.85"/>
    <circle cx="24.78" cy="56.11" r="0.85"/>
    <circle cx="43.46" cy="56.15" r="0.85"/>
    <circle cx="64.65" cy="56.27" r="0.85"/>
    <circle cx="70.36" cy="55.14" r="0.85"/>
    <circle cx="29.49" cy="56.35" r="0.85"/>
    <circle cx="32.81" cy="56.56" r="0.85"/>
    <circle cx="56.04" cy="56.84" r="0.85"/>
    <circle cx="47.77" cy="57.03" r="0.85"/>
    <circle cx="51.89" cy="57.45" r="0.85"/>
    <circle cx="74.79" cy="57.41" r="0.85"/>
    <circle cx="57.23" cy="57.48" r="0.85"/>
    <circle cx="67.55" cy="57.87" r="0.85"/>
    <circle cx="60.25" cy="57.88" r="0.85"/>
    <circle cx="35.72" cy="57.69" r="0.85"/>
    <circle cx="39.31" cy="59.52" r="0.85"/>
    <circle cx="29.30" cy="58.51" r="0.85"/>
    <circle cx="69.00" cy="59.16" r="0.85"/>
    <circle cx="46.00" cy="59.73" r="0.85"/>
    <circle cx="64.14" cy="59.69" r="0.85"/>
    <circle cx="48.76" cy="59.64" r="0.85"/>
    <circle cx="74.98" cy="58.90" r="0.85"/>
    <circle cx="34.72" cy="59.91" r="0.85"/>
    <circle cx="57.09" cy="60.55" r="0.85"/>
    <circle cx="39.74" cy="60.74" r="0.85"/>
    <circle cx="51.29" cy="61.78" r="0.85"/>
    <circle cx="24.02" cy="61.91" r="0.85"/>
    <circle cx="29.49" cy="64.50" r="0.85"/>
    <circle cx="74.97" cy="64.52" r="0.85"/>
    <circle cx="69.34" cy="64.65" r="0.85"/>
    <circle cx="24.66" cy="64.84" r="0.85"/>
    <circle cx="77.93" cy="65.33" r="0.85"/>
    <circle cx="21.19" cy="65.69" r="0.85"/>
    <circle cx="29.15" cy="66.99" r="0.85"/>
    <circle cx="74.78" cy="65.94" r="0.85"/>
    <circle cx="51.12" cy="66.75" r="0.85"/>
    <circle cx="44.53" cy="66.89" r="0.85"/>
    <circle cx="55.27" cy="66.70" r="0.85"/>
    <circle cx="57.77" cy="67.07" r="0.85"/>
    <circle cx="23.41" cy="67.94" r="0.85"/>
    <circle cx="38.80" cy="67.58" r="0.85"/>
    <circle cx="59.91" cy="67.33" r="0.85"/>
    <circle cx="51.56" cy="67.09" r="0.85"/>
    <circle cx="62.76" cy="68.23" r="0.85"/>
    <circle cx="75.63" cy="68.13" r="0.85"/>
    <circle cx="29.14" cy="68.00" r="0.85"/>
    <circle cx="35.21" cy="68.42" r="0.85"/>
    <circle cx="65.49" cy="68.62" r="0.85"/>
    <circle cx="69.38" cy="68.77" r="0.85"/>
    <circle cx="73.47" cy="68.72" r="0.85"/>
    <circle cx="36.25" cy="68.41" r="0.85"/>
    <circle cx="22.02" cy="68.70" r="0.85"/>
    <circle cx="77.73" cy="69.25" r="0.85"/>
    <circle cx="47.66" cy="69.64" r="0.85"/>
    <circle cx="59.06" cy="70.39" r="0.85"/>
    <circle cx="23.78" cy="68.70" r="0.85"/>
    <circle cx="52.99" cy="70.95" r="0.85"/>
    <circle cx="31.76" cy="70.86" r="0.85"/>
    <circle cx="40.74" cy="70.90" r="0.85"/>
    <circle cx="45.36" cy="70.07" r="0.85"/>
    <circle cx="51.17" cy="70.31" r="0.85"/>
    <circle cx="69.15" cy="69.35" r="0.85"/>
    <circle cx="20.64" cy="70.35" r="0.85"/>
    <circle cx="35.69" cy="71.44" r="0.85"/>
    <circle cx="57.88" cy="70.70" r="0.85"/>
    <circle cx="63.87" cy="71.09" r="0.85"/>
    <circle cx="30.71" cy="70.94" r="0.85"/>
    <circle cx="61.02" cy="70.86" r="0.85"/>
    <circle cx="74.79" cy="71.14" r="0.85"/>
    <circle cx="37.06" cy="71.53" r="0.85"/>
    <circle cx="41.80" cy="71.26" r="0.85"/>
    <circle cx="52.78" cy="71.12" r="0.85"/>
    <circle cx="53.55" cy="71.23" r="0.85"/>
    <circle cx="26.07" cy="72.67" r="0.85"/>
    <circle cx="74.27" cy="72.67" r="0.85"/>
    <circle cx="68.00" cy="73.66" r="0.85"/>
    <circle cx="21.38" cy="73.79" r="0.85"/>
    <circle cx="46.73" cy="74.39" r="0.85"/>
    <circle cx="42.09" cy="74.12" r="0.85"/>
    <circle cx="77.32" cy="74.27" r="0.85"/>
    <circle cx="34.86" cy="75.46" r="0.85"/>
    <circle cx="36.08" cy="75.37" r="0.85"/>
    <circle cx="21.80" cy="74.84" r="0.85"/>
    <circle cx="25.33" cy="74.87" r="0.85"/>
    <circle cx="47.46" cy="75.38" r="0.85"/>
    <circle cx="74.61" cy="75.98" r="0.85"/>
    <circle cx="51.54" cy="76.90" r="0.85"/>
    <circle cx="61.23" cy="76.03" r="0.85"/>
    <circle cx="67.85" cy="74.96" r="0.85"/>
    <circle cx="59.96" cy="76.12" r="0.85"/>
    <circle cx="43.23" cy="76.37" r="0.85"/>
    <circle cx="32.89" cy="75.86" r="0.85"/>
    <circle cx="46.73" cy="76.44" r="0.85"/>
    <circle cx="78.96" cy="77.98" r="0.85"/>
    <circle cx="21.52" cy="76.43" r="0.85"/>
    <circle cx="36.00" cy="75.92" r="0.85"/>
    <circle cx="29.55" cy="77.65" r="0.85"/>
    <circle cx="71.18" cy="78.21" r="0.85"/>
    <circle cx="42.58" cy="76.82" r="0.85"/>
    <circle cx="74.69" cy="77.90" r="0.85"/>
    <circle cx="24.98" cy="78.25" r="0.85"/>
    <circle cx="66.07" cy="79.58" r="0.85"/>
    <circle cx="39.98" cy="79.97" r="0.85"/>
    <circle cx="36.20" cy="80.27" r="0.85"/>
    <circle cx="65.55" cy="79.79" r="0.85"/>
    <circle cx="70.90" cy="78.99" r="0.85"/>
    <circle cx="32.91" cy="80.08" r="0.85"/>
    <circle cx="59.67" cy="80.66" r="0.85"/>
    <circle cx="46.29" cy="80.71" r="0.85"/>
    <circle cx="44.34" cy="80.53" r="0.85"/>
    <circle cx="55.86" cy="81.25" r="0.85"/>
    <circle cx="47.62" cy="81.15" r="0.85"/>
    <circle cx="24.80" cy="81.05" r="0.85"/>
    <circle cx="36.39" cy="81.45" r="0.85"/>
    <circle cx="50.72" cy="81.58" r="0.85"/>
    <circle cx="74.87" cy="81.77" r="0.85"/>
    <circle cx="59.79" cy="82.20" r="0.85"/>
    <circle cx="65.23" cy="81.33" r="0.85"/>
    <circle cx="69.68" cy="81.59" r="0.85"/>
    <circle cx="29.25" cy="83.13" r="0.85"/>
    <circle cx="40.14" cy="82.67" r="0.85"/>
    <circle cx="46.58" cy="82.52" r="0.85"/>
    <circle cx="56.48" cy="82.68" r="0.85"/>
    <circle cx="62.14" cy="83.51" r="0.85"/>
    <circle cx="34.77" cy="84.44" r="0.85"/>
    <circle cx="51.72" cy="85.70" r="0.85"/>
    <circle cx="57.16" cy="84.24" r="0.85"/>
    <circle cx="40.15" cy="85.07" r="0.85"/>
    <circle cx="45.70" cy="86.08" r="0.85"/>
    <circle cx="51.45" cy="86.09" r="0.85"/>
  </g>
</svg>