<svg xmlns="http://www.w3.org/2000/svg" viewBox="0 0 100 100" fill="none">
  <g stroke="#00B3E3" stroke-width="0.35" stroke-linecap="round">
    <line x1="19.83" y1="48.58" x2="17.22" y2="48.84"/>
    <line x1="41.00" y1="50.33" x2="34.69" y2="52.53"/>
    <line x1="67.08" y1="72.01" x2="64.96" y2="75.36"/>
    <line x1="55.12" y1="54.47" x2="50.10" y2="55.88"/>
    <line x1="63.92" y1="37.62" x2="61.18" y2="38.91"/>
    <line x1="50.90" y1="69.06" x2="55.78" y2="68.52"/>
    <line x1="81.84" y1="51.86" x2="84.22" y2="55.83"/>
    <line x1="36.72" y1="29.35" x2="43.41" y2="29.21"/>
    <line x1="32.03" y1="47.66" x2="34.69" y2="52.53"/>
    <line x1="41.00" y1="50.33" x2="42.66" y2="54.57"/>
    <line x1="81.31" y1="66.94" x2="81.39" y2="70.12"/>
    <line x1="55.12" y1="54.47" x2="52.08" y2="57.11"/>
    <line x1="85.31" y1="69.95" x2="86.56" y2="71.40"/>
    <line x1="27.55" y1="42.49" x2="29.58" y2="45.62"/>
    <line x1="67.08" y1="72.01" x2="71.39" y2="74.87"/>
    <line x1="27.12" y1="59.06" x2="30.48" y2="61.15"/>
    <line x1="79.70" y1="69.43" x2="78.69" y2="72.99"/>
    <line x1="71.30" y1="39.08" x2="72.09" y2="42.16"/>
    <line x1="17.83" y1="36.33" x2="21.20" y2="41.04"/>
    <line x1="61.61" y1="56.52" x2="60.81" y2="59.89"/>
    <line x1="27.55" y1="42.49" x2="21.81" y2="46.49"/>
    <line x1="19.83" y1="48.58" x2="20.95" y2="51.36"/>
    <line x1="63.92" y1="37.62" x2="61.13" y2="41.36"/>
    <line x1="67.59" y1="51.78" x2="73.85" y2="53.52"/>
    <line x1="58.14" y1="44.77" x2="56.16" y2="45.95"/>
    <line x1="44.21" y1="44.12" x2="42.06" y2="46.57"/>
    <line x1="79.70" y1="69.43" x2="81.39" y2="70.12"/>
    <line x1="50.10" y1="55.88" x2="52.08" y2="57.11"/>
    <line x1="36.72" y1="29.35" x2="42.46" y2="31.48"/>
    <line x1="85.31" y1="69.95" x2="82.76" y2="71.37"/>
    <line x1="90.21" y1="61.61" x2="87.76" y2="62.43"/>
    <line x1="51.92" y1="64.12" x2="55.78" y2="68.52"/>
    <line x1="79.68" y1="47.31" x2="86.29" y2="48.00"/>
    <line x1="79.68" y1="47.31" x2="81.84" y2="51.86"/>
    <line x1="27.12" y1="59.06" x2="23.78" y2="61.22"/>
    <line x1="73.65" y1="73.58" x2="71.39" y2="74.87"/>
    <line x1="14.96" y1="34.20" x2="10.98" y2="36.49"/>
    <line x1="61.18" y1="38.91" x2="58.14" y2="44.77"/>
    <line x1="51.92" y1="64.12" x2="49.79" y2="65.61"/>
    <line x1="17.22" y1="48.84" x2="20.95" y2="51.36"/>
    <line x1="42.66" y1="54.57" x2="49.06" y2="54.06"/>
    <line x1="51.48" y1="50.52" x2="55.12" y2="54.47"/>
    <line x1="83.64" y1="45.01" x2="86.29" y2="48.00"/>
    <line x1="67.59" y1="51.78" x2="63.51" y2="53.66"/>
    <line x1="55.78" y1="68.52" x2="57.78" y2="74.65"/>
    <line x1="26.74" y1="38.87" x2="21.20" y2="41.04"/>
    <line x1="20.91" y1="23.88" x2="27.41" y2="25.09"/>
    <line x1="53.63" y1="27.52" x2="51.51" y2="33.35"/>
    <line x1="61.18" y1="38.91" x2="61.13" y2="41.36"/>
    <line x1="61.13" y1="41.36" x2="58.14" y2="44.77"/>
    <line x1="23.78" y1="61.22" x2="28.89" y2="63.43"/>
    <line x1="42.66" y1="54.57" x2="43.24" y2="59.83"/>
    <line x1="49.43" y1="20.24" x2="54.37" y2="22.98"/>
    <line x1="81.47" y1="63.18" x2="77.22" y2="66.23"/>
    <line x1="26.57" y1="33.59" x2="27.82" y2="34.92"/>
    <line x1="75.94" y1="56.06" x2="77.24" y2="59.52"/>
    <line x1="86.29" y1="48.00" x2="81.84" y2="51.86"/>
    <line x1="81.07" y1="55.25" x2="75.94" y2="56.06"/>
    <line x1="82.76" y1="71.37" x2="78.69" y2="72.99"/>
    <line x1="17.84" y1="44.28" x2="15.43" y2="46.34"/>
    <line x1="17.84" y1="44.28" x2="19.83" y2="48.58"/>
    <line x1="72.50" y1="77.86" x2="74.83" y2="80.66"/>
    <line x1="81.47" y1="63.18" x2="85.01" y2="63.42"/>
    <line x1="83.35" y1="67.68" x2="82.76" y2="71.37"/>
    <line x1="26.05" y1="29.58" x2="30.82" y2="30.53"/>
    <line x1="14.96" y1="34.20" x2="13.77" y2="37.74"/>
    <line x1="52.23" y1="18.29" x2="56.54" y2="21.84"/>
    <line x1="77.22" y1="66.23" x2="81.31" y2="66.94"/>
    <line x1="46.17" y1="63.09" x2="51.92" y2="64.12"/>
    <line x1="78.69" y1="72.99" x2="73.65" y2="73.58"/>
    <line x1="60.59" y1="52.01" x2="55.12" y2="54.47"/>
    <line x1="46.82" y1="25.54" x2="43.41" y2="29.21"/>
    <line x1="46.49" y1="46.37" x2="42.06" y2="46.57"/>
    <line x1="81.07" y1="55.25" x2="84.22" y2="55.83"/>
    <line x1="26.05" y1="29.58" x2="29.22" y2="32.67"/>
    <line x1="40.13" y1="61.38" x2="41.64" y2="64.22"/>
    <line x1="66.31" y1="46.29" x2="68.35" y2="48.07"/>
    <line x1="55.87" y1="32.22" x2="51.51" y2="33.35"/>
    <line x1="38.70" y1="58.41" x2="43.24" y2="59.83"/>
    <line x1="25.19" y1="54.78" x2="24.75" y2="57.49"/>
    <line x1="71.39" y1="74.87" x2="68.47" y2="75.91"/>
    <line x1="63.09" y1="35.09" x2="63.92" y2="37.62"/>
    <line x1="52.23" y1="18.29" x2="49.43" y2="20.24"/>
    <line x1="46.17" y1="63.09" x2="41.64" y2="64.22"/>
    <line x1="35.43" y1="13.59" x2="36.48" y2="17.65"/>
    <line x1="10.98" y1="36.49" x2="13.77" y2="37.74"/>
    <line x1="75.14" y1="45.42" x2="79.68" y2="47.31"/>
    <line x1="38.74" y1="16.36" x2="36.48" y2="17.65"/>
    <line x1="21.20" y1="41.04" x2="17.84" y2="44.28"/>
    <line x1="21.20" y1="41.04" x2="21.81" y2="46.49"/>
    <line x1="24.75" y1="57.49" x2="27.12" y2="59.06"/>
    <line x1="55.12" y1="54.47" x2="61.61" y2="56.52"/>
    <line x1="27.41" y1="25.09" x2="30.82" y2="30.53"/>
    <line x1="77.24" y1="59.52" x2="81.47" y2="63.18"/>
    <line x1="59.38" y1="47.87" x2="60.59" y2="52.01"/>
    <line x1="21.81" y1="46.49" x2="20.95" y2="51.36"/>
    <line x1="73.85" y1="53.52" x2="75.94" y2="56.06"/>
    <line x1="24.75" y1="57.49" x2="23.78" y2="61.22"/>
    <line x1="81.84" y1="51.86" x2="81.07" y2="55.25"/>
    <line x1="75.17" y1="75.68" x2="75.06" y2="77.89"/>
    <line x1="30.48" y1="61.15" x2="28.89" y2="63.43"/>
    <line x1="21.81" y1="46.49" x2="19.83" y2="48.58"/>
    <line x1="63.09" y1="35.09" x2="61.18" y2="38.91"/>
    <line x1="81.31" y1="66.94" x2="79.70" y2="69.43"/>
    <line x1="67.08" y1="72.01" x2="68.47" y2="75.91"/>
    <line x1="31.08" y1="23.09" x2="27.41" y2="25.09"/>
    <line x1="42.06" y1="46.57" x2="37.78" y2="48.54"/>
    <line x1="27.41" y1="25.09" x2="26.05" y2="29.58"/>
    <line x1="58.14" y1="44.77" x2="59.38" y2="47.87"/>
    <line x1="85.01" y1="63.42" x2="81.31" y2="66.94"/>
    <line x1="36.72" y1="29.35" x2="30.82" y2="30.53"/>
    <line x1="51.92" y1="64.12" x2="50.90" y2="69.06"/>
    <line x1="43.41" y1="29.21" x2="42.46" y2="31.48"/>
    <line x1="67.08" y1="72.01" x2="73.65" y2="73.58"/>
    <line x1="75.06" y1="77.89" x2="74.83" y2="80.66"/>
    <line x1="29.22" y1="32.67" x2="27.82" y2="34.92"/>
    <line x1="35.43" y1="13.59" x2="34.57" y2="16.84"/>
    <line x1="85.01" y1="63.42" x2="85.31" y2="69.95"/>
    <line x1="27.82" y1="34.92" x2="26.74" y2="38.87"/>
    <line x1="75.17" y1="75.68" x2="72.50" y2="77.86"/>
    <line x1="56.54" y1="21.84" x2="54.37" y2="22.98"/>
    <line x1="87.76" y1="62.43" x2="85.01" y2="63.42"/>
    <line x1="51.48" y1="50.52" x2="49.06" y2="54.06"/>
    <line x1="32.03" y1="47.66" x2="37.78" y2="48.54"/>
    <line x1="51.48" y1="50.52" x2="50.10" y2="55.88"/>
    <line x1="49.06" y1="54.06" x2="50.10" y2="55.88"/>
    <line x1="64.96" y1="75.36" x2="59.73" y2="75.81"/>
    <line x1="27.12" y1="59.06" x2="28.89" y2="63.43"/>
    <line x1="60.81" y1="59.89" x2="61.74" y2="63.94"/>
    <line x1="61.13" y1="41.36" x2="59.38" y2="47.87"/>
    <line x1="72.50" y1="77.86" x2="75.06" y2="77.89"/>
    <line x1="78.69" y1="72.99" x2="75.17" y2="75.68"/>
    <line x1="49.43" y1="20.24" x2="46.82" y2="25.54"/>
    <line x1="83.35" y1="67.68" x2="81.39" y2="70.12"/>
    <line x1="44.21" y1="44.12" x2="46.49" y2="46.37"/>
    <line x1="73.65" y1="73.58" x2="75.17" y2="75.68"/>
    <line x1="68.35" y1="48.07" x2="67.59" y2="51.78"/>
    <line x1="29.58" y1="45.62" x2="32.03" y2="47.66"/>
    <line x1="54.37" y1="22.98" x2="53.63" y2="27.52"/>
    <line x1="78.69" y1="72.99" x2="75.06" y2="77.89"/>
    <line x1="38.70" y1="58.41" x2="40.13" y2="61.38"/>
    <line x1="83.35" y1="67.68" x2="81.31" y2="66.94"/>
    <line x1="29.22" y1="32.67" x2="26.57" y2="33.59"/>
    <line x1="64.96" y1="75.36" x2="68.47" y2="75.91"/>
    <line x1="26.74" y1="38.87" x2="27.55" y2="42.49"/>
    <line x1="30.82" y1="30.53" x2="29.22" y2="32.67"/>
    <line x1="15.43" y1="46.34" x2="17.22" y2="48.84"/>
    <line x1="17.83" y1="36.33" x2="13.77" y2="37.74"/>
    <line x1="77.22" y1="66.23" x2="79.70" y2="69.43"/>
    <line x1="83.35" y1="67.68" x2="85.31" y2="69.95"/>
    <line x1="83.64" y1="45.01" x2="79.68" y2="47.31"/>
    <line x1="43.24" y1="59.83" x2="40.13" y2="61.38"/>
    <line x1="81.47" y1="63.18" x2="81.31" y2="66.94"/>
    <line x1="55.78" y1="68.52" x2="58.61" y2="72.33"/>
    <line x1="34.57" y1="16.84" x2="36.48" y2="17.65"/>
    <line x1="71.39" y1="74.87" x2="75.17" y2="75.68"/>
    <line x1="53.63" y1="27.52" x2="55.87" y2="32.22"/>
    <line x1="14.96" y1="34.20" x2="17.83" y2="36.33"/>
    <line x1="58.61" y1="72.33" x2="59.73" y2="75.81"/>
    <line x1="17.84" y1="44.28" x2="17.22" y2="48.84"/>
    <line x1="42.66" y1="54.57" x2="38.70" y2="58.41"/>
    <line x1="62.73" y1="32.42" x2="63.09" y2="35.09"/>
    <line x1="20.95" y1="51.36" x2="25.19" y2="54.78"/>
    <line x1="81.39" y1="70.12" x2="82.76" y2="71.37"/>
    <line x1="26.57" y1="33.59" x2="26.74" y2="38.87"/>
    <line x1="82.76" y1="71.37" x2="86.56" y2="71.40"/>
    <line x1="81.07" y1="55.25" x2="77.24" y2="59.52"/>
    <line x1="37.78" y1="48.54" x2="34.69" y2="52.53"/>
    <line x1="58.61" y1="72.33" x2="57.78" y2="74.65"/>
    <line x1="52.23" y1="18.29" x2="54.37" y2="22.98"/>
    <line x1="17.22" y1="48.84" x2="15.15" y2="53.50"/>
    <line x1="66.31" y1="46.29" x2="67.59" y2="51.78"/>
    <line x1="55.87" y1="32.22" x2="62.73" y2="32.42"/>
    <line x1="43.24" y1="59.83" x2="41.64" y2="64.22"/>
    <line x1="56.16" y1="45.95" x2="51.48" y2="50.52"/>
    <line x1="81.39" y1="70.12" x2="78.69" y2="72.99"/>
    <line x1="26.05" y1="29.58" x2="26.57" y2="33.59"/>
    <line x1="46.49" y1="46.37" x2="41.00" y2="50.33"/>
    <line x1="37.78" y1="48.54" x2="41.00" y2="50.33"/>
    <line x1="17.84" y1="44.28" x2="21.81" y2="46.49"/>
    <line x1="25.19" y1="54.78" x2="27.12" y2="59.06"/>
    <line x1="57.78" y1="74.65" x2="59.73" y2="75.81"/>
    <line x1="60.59" y1="52.01" x2="61.61" y2="56.52"/>
    <line x1="43.24" y1="59.83" x2="46.17" y2="63.09"/>
    <line x1="71.39" y1="74.87" x2="72.50" y2="77.86"/>
    <line x1="21.20" y1="41.04" x2="27.55" y2="42.49"/>
    <line x1="72.09" y1="42.16" x2="75.14" y2="45.42"/>
    <line x1="46.17" y1="63.09" x2="49.79" y2="65.61"/>
    <line x1="85.01" y1="63.42" x2="83.35" y2="67.68"/>
    <line x1="20.95" y1="51.36" x2="15.15" y2="53.50"/>
    <line x1="77.24" y1="59.52" x2="77.22" y2="66.23"/>
    <line x1="68.47" y1="75.91" x2="72.50" y2="77.86"/>
    <line x1="46.49" y1="46.37" x2="51.48" y2="50.52"/>
    <line x1="72.09" y1="42.16" x2="68.35" y2="48.07"/>
    <line x1="56.54" y1="21.84" x2="53.63" y2="27.52"/>
    <line x1="49.79" y1="65.61" x2="50.90" y2="69.06"/>
    <line x1="35.43" y1="13.59" x2="38.74" y2="16.36"/>
    <line x1="42.06" y1="46.57" x2="41.00" y2="50.33"/>
    <line x1="60.59" y1="52.01" x2="63.51" y2="53.66"/>
    <line x1="56.16" y1="45.95" x2="59.38" y2="47.87"/>
    <line x1="63.51" y1="53.66" x2="61.61" y2="56.52"/>
  </g>
  <g fill="#00B3E3">
    <circle cx="35.43" cy="13.59" r="0.9"/>
    <circle cx="38.74" cy="16.36" r="0.9"/>
    <circle cx="34.57" cy="16.84" r="0.9"/>
    <circle cx="23.63" cy="17.37" r="0.9"/>
    <circle cx="36.48" cy="17.65" r="0.9"/>
    <circle cx="52.23" cy="18.29" r="0.9"/>
    <circle cx="49.43" cy="20.24" r="0.9"/>
    <circle cx="56.54" cy="21.84" r="0.9"/>
    <circle cx="31.08" cy="23.09" r="0.9"/>
    <circle cx="54.37" cy="22.98" r="0.9"/>
    <circle cx="20.91" cy="23.88" r="0.9"/>
    <circle cx="27.41" cy="25.09" r="0.9"/>
    <circle cx="46.82" cy="25.54" r="0.9"/>
    <circle cx="53.63" cy="27.52" r="0.9"/>
    <circle cx="36.72" cy="29.35" r="0.9"/>
    <circle cx="43.41" cy="29.21" r="0.9"/>
    <circle cx="26.05" cy="29.58" r="0.9"/>
    <circle cx="30.82" cy="30.53" r="0.9"/>
    <circle cx="42.46" cy="31.48" r="0.9"/>
    <circle cx="55.87" cy="32.22" r="0.9"/>
    <circle cx="62.73" cy="32.42" r="0.9"/>
    <circle cx="29.22" cy="32.67" r="0.9"/>
    <circle cx="51.51" cy="33.35" r="0.9"/>
    <circle cx="26.57" cy="33.59" r="0.9"/>
    <circle cx="14.96" cy="34.20" r="0.9"/>
    <circle cx="27.82" cy="34.92" r="0.9"/>
    <circle cx="63.09" cy="35.09" r="0.9"/>
    <circle cx="10.98" cy="36.49" r="0.9"/>
    <circle cx="17.83" cy="36.33" r="0.9"/>
    <circle cx="63.92" cy="37.62" r="0.9"/>
    <circle cx="13.77" cy="37.74" r="0.9"/>
    <circle cx="26.74" cy="38.87" r="0.9"/>
    <circle cx="61.18" cy="38.91" r="0.9"/>
    <circle cx="71.30" cy="39.08" r="0.9"/>
    <circle cx="21.20" cy="41.04" r="0.9"/>
    <circle cx="61.13" cy="41.36" r="0.9"/>
    <circle cx="27.55" cy="42.49" r="0.9"/>
    <circle cx="72.09" cy="42.16" r="0.9"/>
    <circle cx="17.84" cy="44.28" r="0.9"/>
    <circle cx="44.21" cy="44.12" r="0.9"/>
    <circle cx="58.14" cy="44.77" r="0.9"/>
    <circle cx="75.14" cy="45.42" r="0.9"/>
    <circle cx="83.64" cy="45.01" r="0.9"/>
    <circle cx="29.58" cy="45.62" r="0.9"/>
    <circle cx="56.16" cy="45.95" r="0.9"/>
    <circle cx="46.49" cy="46.37" r="0.9"/>
    <circle cx="15.43" cy="46.34" r="0.9"/>
    <circle cx="21.81" cy="46.49" r="0.9"/>
    <circle cx="42.06" cy="46.57" r="0.9"/>
    <circle cx="66.31" cy="46.29" r="0.9"/>
    <circle cx="79.68" cy="47.31" r="0.9"/>
    <circle cx="32.03" cy="47.66" r="0.9"/>
    <circle cx="59.38" cy="47.87" r="0.9"/>
    <circle cx="86.29" cy="48.00" r="0.9"/>
    <circle cx="68.35" cy="48.07" r="0.9"/>
    <circle cx="19.83" cy="48.58" r="0.9"/>
    <circle cx="37.78" cy="48.54" r="0.9"/>
    <circle cx="17.22" cy="48.84" r="0.9"/>
    <circle cx="51.48" cy="50.52" r="0.9"/>
    <circle cx="41.00" cy="50.33" r="0.9"/>
    <circle cx="20.95" cy="51.36" r="0.9"/>
    <circle cx="67.59" cy="51.78" r="0.9"/>
    <circle cx="81.84" cy="51.86" r="0.9"/>
    <circle cx="60.59" cy="52.01" r="0.9"/>
    <circle cx="34.69" cy="52.53" r="0.9"/>
    <circle cx="15.15" cy="53.50" r="0.9"/>
    <circle cx="63.51" cy="53.66" r="0.9"/>
    <circle cx="73.85" cy="53.52" r="0.9"/>
    <circle cx="42.66" cy="54.57" r="0.9"/>
    <circle cx="49.06" cy="54.06" r="0.9"/>
    <circle cx="55.12" cy="54.47" r="0.9"/>
    <circle cx="25.19" cy="54.78" r="0.9"/>
    <circle cx="81.07" cy="55.25" r="0.9"/>
    <circle cx="50.10" cy="55.88" r="0.9"/>
    <circle cx="84.22" cy="55.83" r="0.9"/>
    <circle cx="75.94" cy="56.06" r="0.9"/>
    <circle cx="61.61" cy="56.52" r="0.9"/>
    <circle cx="52.08" cy="57.11" r="0.9"/>
    <circle cx="24.75" cy="57.49" r="0.9"/>
    <circle cx="38.70" cy="58.41" r="0.9"/>
    <circle cx="27.12" cy="59.06" r="0.9"/>
    <circle cx="77.24" cy="59.52" r="0.9"/>
    <circle cx="43.24" cy="59.83" r="0.9"/>
    <circle cx="60.81" cy="59.89" r="0.9"/>
    <circle cx="23.78" cy="61.22" r="0.9"/>
    <circle cx="30.48" cy="61.15" r="0.9"/>
    <circle cx="40.13" cy="61.38" r="0.9"/>
    <circle cx="90.21" cy="61.61" r="0.9"/>
    <circle cx="87.76" cy="62.43" r="0.9"/>
    <circle cx="46.17" cy="63.09" r="0.9"/>
    <circle cx="81.47" cy="63.18" r="0.9"/>
    <circle cx="28.89" cy="63.43" r="0.9"/>
    <circle cx="85.01" cy="63.42" r="0.9"/>
    <circle cx="61.74" cy="63.94" r="0.9"/>
    <circle cx="41.64" cy="64.22" r="0.9"/>
    <circle cx="51.92" cy="64.12" r="0.9"/>
    <circle cx="49.79" cy="65.61" r="0.9"/>
    <circle cx="77.22" cy="66.23" r="0.9"/>
    <circle cx="83.35" cy="67.68" r="0.9"/>
    <circle cx="81.31" cy="66.94" r="0.9"/>
    <circle cx="50.90" cy="69.06" r="0.9"/>
    <circle cx="55.78" cy="68.52" r="0.9"/>
    <circle cx="79.70" cy="69.43" r="0.9"/>
    <circle cx="85.31" cy="69.95" r="0.9"/>
    <circle cx="81.39" cy="70.12" r="0.9"/>
    <circle cx="82.76" cy="71.37" r="0.9"/>
    <circle cx="86.56" cy="71.40" r="0.9"/>
    <circle cx="67.08" cy="72.01" r="0.9"/>
    <circle cx="58.61" cy="72.33" r="0.9"/>
    <circle cx="78.69" cy="72.99" r="0.9"/>
    <circle cx="73.65" cy="73.58" r="0.9"/>
    <circle cx="57.78" cy="74.65" r="0.9"/>
    <circle cx="71.39" cy="74.87" r="0.9"/>
    <circle cx="64.96" cy="75.36" r="0.9"/>
    <circle cx="75.17" cy="75.68" r="0.9"/>
    <circle cx="68.47" cy="75.91" r="0.9"/>
    <circle cx="59.73" cy="75.81" r="0.9"/>
    <circle cx="72.50" cy="77.86" r="0.9"/>
    <circle cx="75.06" cy="77.89" r="0.9"/>
    <circle cx="74.83" cy="80.66" r="0.9"/>
  </g>
</svg>