<svg xmlns="http://www.w3.org/2000/svg" viewBox="0 0 100 100" fill="none">
  <g stroke="#00B3E3" stroke-width="0.35" stroke-linecap="round">
    <line x1="73.73" y1="26.31" x2="62.43" y2="27.70"/>
    <line x1="62.43" y1="27.70" x2="67.89" y2="38.62"/>
    <line x1="73.73" y1="26.31" x2="68.86" y2="32.19"/>
    <line x1="62.43" y1="27.70" x2="66.23" y2="29.16"/>
    <line x1="23.94" y1="27.26" x2="25.35" y2="41.50"/>
    <line x1="80.43" y1="37.21" x2="67.89" y2="38.62"/>
    <line x1="67.89" y1="38.62" x2="65.12" y2="55.40"/>
    <line x1="17.20" y1="24.02" x2="23.94" y2="27.26"/>
    <line x1="25.35" y1="41.50" x2="15.17" y2="50.86"/>
    <line x1="73.73" y1="26.31" x2="66.23" y2="29.16"/>
    <line x1="38.13" y1="15.69" x2="32.11" y2="20.98"/>
    <line x1="32.11" y1="20.98" x2="17.20" y2="24.02"/>
    <line x1="25.35" y1="41.50" x2="23.68" y2="48.55"/>
    <line x1="32.11" y1="20.98" x2="23.94" y2="27.26"/>
    <line x1="23.68" y1="48.55" x2="39.73" y2="55.59"/>
    <line x1="39.73" y1="55.59" x2="43.28" y2="59.81"/>
    <line x1="68.86" y1="32.19" x2="67.89" y2="38.62"/>
    <line x1="66.23" y1="29.16" x2="68.86" y2="32.19"/>
    <line x1="73.73" y1="26.31" x2="80.43" y2="37.21"/>
    <line x1="23.68" y1="48.55" x2="15.17" y2="50.86"/>
    <line x1="68.86" y1="32.19" x2="80.43" y2="37.21"/>
    <line x1="66.23" y1="29.16" x2="67.89" y2="38.62"/>
  </g>
  <g fill="#00B3E3">
    <circle cx="38.13" cy="15.69" r="0.9"/>
    <circle cx="32.11" cy="20.98" r="0.9"/>
    <circle cx="17.20" cy="24.02" r="0.9"/>
    <circle cx="73.73" cy="26.31" r="0.9"/>
    <circle cx="62.43" cy="27.70" r="0.9"/>
    <circle cx="23.94" cy="27.26" r="0.9"/>
    <circle cx="66.23" cy="29.16" r="0.9"/>
    <circle cx="68.86" cy="32.19" r="0.9"/>
    <circle cx="80.43" cy="37.21" r="0.9"/>
    <circle cx="67.89" cy="38.62" r="0.9"/>
    <circle cx="25.35" cy="41.50" r="0.9"/>
    <circle cx="23.68" cy="48.55" r="0.9"/>
    <circle cx="15.17" cy="50.86" r="0.9"/>
    <circle cx="39.73" cy="55.59" r="0.9"/>
    <circle cx="65.12" cy="55.40" r="0.9"/>
    <circle cx="89.12" cy="57.48" r="0.9"/>
    <circle cx="43.28" cy="59.81" r="0.9"/>
    <circle cx="68.56" cy="77.04" r="0.9"/>
  </g>
</svg>