<svg xmlns="http://www.w3.org/2000/svg" viewBox="0 0 100 100" fill="none">
  <g stroke="#00B3E3" stroke-width="0.35" stroke-linecap="round">
    <line x1="66.38" y1="14.52" x2="54.01" y2="35.52"/>
    <line x1="58.21" y1="71.46" x2="60.32" y2="86.30"/>
    <line x1="11.74" y1="51.27" x2="26.29" y2="59.61"/>
    <line x1="8.28" y1="44.95" x2="26.29" y2="59.61"/>
    <line x1="70.91" y1="77.02" x2="60.32" y2="86.30"/>
    <line x1="66.38" y1="14.52" x2="87.51" y2="30.82"/>
    <line x1="58.21" y1="71.46" x2="70.91" y2="77.02"/>
    <line x1="8.28" y1="44.95" x2="11.74" y2="51.27"/>
    <line x1="54.12" y1="77.52" x2="60.32" y2="86.30"/>
    <line x1="87.51" y1="30.82" x2="92.95" y2="50.21"/>
    <line x1="58.21" y1="71.46" x2="54.12" y2="77.52"/>
  </g>
  <g fill="#00B3E3">
    <circle cx="66.38" cy="14.52" r="0.9"/>
    <circle cx="87.51" cy="30.82" r="0.9"/>
    <circle cx="54.01" cy="35.52" r="0.9"/>
    <circle cx="8.28" cy="44.95" r="0.9"/>
    <circle cx="92.95" cy="50.21" r="0.9"/>
    <circle cx="11.74" cy="51.27" r="0.9"/>
    <circle cx="26.29" cy="59.61" r="0.9"/>
    <circle cx="58.21" cy="71.46" r="0.9"/>
    <circle cx="54.12" cy="77.52" r="0.9"/>
    <circle cx="70.91" cy="77.02" r="0.9"/>
    <circle cx="60.32" cy="86.30" r="0.9"/>
  </g>
</svg>