<svg xmlns="http://www.w3.org/2000/svg" viewBox="0 0 100 100" fill="none">
  <g stroke="#00B3E3" stroke-width="0.35" stroke-linecap="round">
    <line x1="72.37" y1="59.97" x2="72.97" y2="69.89"/>
    <line x1="72.37" y1="59.97" x2="77.26" y2="65.51"/>
    <line x1="19.43" y1="64.28" x2="27.92" y2="59.94"/>
    <line x1="77.26" y1="65.51" x2="72.97" y2="69.89"/>
    <line x1="53.00" y1="39.50" x2="40.51" y2="46.72"/>
    <line x1="62.25" y1="57.94" x2="64.65" y2="60.06"/>
    <line x1="57.80" y1="29.90" x2="53.00" y2="39.50"/>
    <line x1="27.92" y1="59.94" x2="32.25" y2="66.95"/>
    <line x1="61.77" y1="67.03" x2="62.25" y2="57.94"/>
    <line x1="69.46" y1="43.36" x2="53.00" y2="39.50"/>
    <line x1="59.86" y1="29.79" x2="61.60" y2="36.20"/>
    <line x1="23.04" y1="53.75" x2="27.92" y2="59.94"/>
    <line x1="69.46" y1="43.36" x2="62.25" y2="57.94"/>
    <line x1="76.46" y1="54.98" x2="62.25" y2="57.94"/>
    <line x1="61.77" y1="67.03" x2="72.97" y2="69.89"/>
    <line x1="14.93" y1="53.92" x2="23.04" y2="53.75"/>
    <line x1="76.46" y1="54.98" x2="77.26" y2="65.51"/>
    <line x1="14.93" y1="53.92" x2="29.50" y2="49.68"/>
    <line x1="19.43" y1="64.28" x2="13.09" y2="68.61"/>
    <line x1="72.37" y1="59.97" x2="64.65" y2="60.06"/>
    <line x1="34.80" y1="37.94" x2="29.50" y2="49.68"/>
    <line x1="32.25" y1="66.95" x2="35.16" y2="70.51"/>
    <line x1="47.12" y1="53.19" x2="50.96" y2="61.19"/>
    <line x1="62.25" y1="57.94" x2="72.37" y2="59.97"/>
    <line x1="62.25" y1="57.94" x2="50.96" y2="61.19"/>
    <line x1="53.00" y1="39.50" x2="47.12" y2="53.19"/>
    <line x1="29.50" y1="49.68" x2="23.04" y2="53.75"/>
    <line x1="57.80" y1="29.90" x2="59.86" y2="29.79"/>
    <line x1="59.86" y1="29.79" x2="69.46" y2="43.36"/>
    <line x1="61.77" y1="67.03" x2="64.65" y2="60.06"/>
    <line x1="29.50" y1="49.68" x2="27.92" y2="59.94"/>
    <line x1="23.04" y1="53.75" x2="19.43" y2="64.28"/>
    <line x1="64.65" y1="60.06" x2="72.97" y2="69.89"/>
    <line x1="69.46" y1="43.36" x2="79.11" y2="51.58"/>
    <line x1="69.46" y1="43.36" x2="76.46" y2="54.98"/>
    <line x1="79.11" y1="51.58" x2="77.26" y2="65.51"/>
    <line x1="19.43" y1="64.28" x2="32.25" y2="66.95"/>
    <line x1="40.51" y1="46.72" x2="47.12" y2="53.19"/>
    <line x1="14.93" y1="53.92" x2="19.43" y2="64.28"/>
    <line x1="34.80" y1="37.94" x2="40.51" y2="46.72"/>
    <line x1="14.93" y1="53.92" x2="13.09" y2="68.61"/>
    <line x1="47.12" y1="53.19" x2="62.25" y2="57.94"/>
    <line x1="61.60" y1="36.20" x2="53.00" y2="39.50"/>
    <line x1="57.80" y1="29.90" x2="61.60" y2="36.20"/>
    <line x1="79.11" y1="51.58" x2="76.46" y2="54.98"/>
    <line x1="61.77" y1="67.03" x2="50.96" y2="61.19"/>
    <line x1="69.46" y1="43.36" x2="61.60" y2="36.20"/>
    <line x1="76.46" y1="54.98" x2="72.37" y2="59.97"/>
    <line x1="40.51" y1="46.72" x2="29.50" y2="49.68"/>
  </g>
  <g fill="#00B3E3">
    <circle cx="57.80" cy="29.90" r="0.9"/>
    <circle cx="59.86" cy="29.79" r="0.9"/>
    <circle cx="69.46" cy="43.36" r="0.9"/>
    <circle cx="61.60" cy="36.20" r="0.9"/>
    <circle cx="34.80" cy="37.94" r="0.9"/>
    <circle cx="53.00" cy="39.50" r="0.9"/>
    <circle cx="14.93" cy="53.92" r="0.9"/>
    <circle cx="40.51" cy="46.72" r="0.9"/>
    <circle cx="29.50" cy="49.68" r="0.9"/>
    <circle cx="61.77" cy="67.03" r="0.9"/>
    <circle cx="79.11" cy="51.58" r="0.9"/>
    <circle cx="23.04" cy="53.75" r="0.9"/>
    <circle cx="47.12" cy="53.19" r="0.9"/>
    <circle cx="76.46" cy="54.98" r="0.9"/>
    <circle cx="62.25" cy="57.94" r="0.9"/>
    <circle cx="50.96" cy="61.19" r="0.9"/>
    <circle cx="19.43" cy="64.28" r="0.9"/>
    <circle cx="27.92" cy="59.94" r="0.9"/>
    <circle cx="72.37" cy="59.97" r="0.9"/>
    <circle cx="64.65" cy="60.06" r="0.9"/>
    <circle cx="77.26" cy="65.51" r="0.9"/>
    <circle cx="32.25" cy="66.95" r="0.9"/>
    <circle cx="13.09" cy="68.61" r="0.9"/>
    <circle cx="72.97" cy="69.89" r="0.9"/>
    <circle cx="35.16" cy="70.51" r="0.9"/>
  </g>
</svg>