<svg xmlns="http://www.w3.org/2000/svg" viewBox="0 0 100 100" fill="none">
  <g stroke="#00B3E3" stroke-width="0.35" stroke-linecap="round">
    <line x1="69.98" y1="23.87" x2="65.16" y2="39.14"/>
    <line x1="19.14" y1="57.57" x2="31.37" y2="66.89"/>
    <line x1="49.77" y1="60.18" x2="47.37" y2="73.93"/>
    <line x1="41.42" y1="22.48" x2="46.88" y2="30.74"/>
    <line x1="23.46" y1="20.92" x2="23.32" y2="26.48"/>
    <line x1="58.15" y1="78.98" x2="53.58" y2="89.78"/>
    <line x1="65.16" y1="39.14" x2="69.06" y2="40.70"/>
    <line x1="68.26" y1="66.89" x2="61.97" y2="72.42"/>
    <line x1="61.97" y1="72.42" x2="47.37" y2="73.93"/>
    <line x1="68.26" y1="66.89" x2="64.58" y2="77.18"/>
    <line x1="39.45" y1="30.37" x2="46.88" y2="30.74"/>
    <line x1="61.97" y1="72.42" x2="58.15" y2="78.98"/>
    <line x1="58.93" y1="16.11" x2="56.05" y2="24.76"/>
    <line x1="76.03" y1="35.66" x2="78.46" y2="48.99"/>
    <line x1="49.91" y1="20.07" x2="46.88" y2="30.74"/>
    <line x1="64.58" y1="77.18" x2="58.15" y2="78.98"/>
    <line x1="27.63" y1="34.24" x2="24.86" y2="49.88"/>
    <line x1="69.06" y1="40.70" x2="78.46" y2="48.99"/>
    <line x1="38.33" y1="59.44" x2="49.77" y2="60.18"/>
    <line x1="34.16" y1="65.83" x2="29.96" y2="75.90"/>
    <line x1="69.98" y1="23.87" x2="76.03" y2="35.66"/>
    <line x1="23.32" y1="26.48" x2="27.63" y2="34.24"/>
    <line x1="24.86" y1="49.88" x2="38.33" y2="59.44"/>
    <line x1="49.77" y1="60.18" x2="61.97" y2="72.42"/>
    <line x1="56.05" y1="24.76" x2="69.98" y2="23.87"/>
    <line x1="41.42" y1="22.48" x2="39.45" y2="30.37"/>
    <line x1="56.05" y1="24.76" x2="46.88" y2="30.74"/>
    <line x1="61.97" y1="72.42" x2="64.58" y2="77.18"/>
    <line x1="47.37" y1="73.93" x2="29.96" y2="75.90"/>
    <line x1="56.05" y1="24.76" x2="65.16" y2="39.14"/>
    <line x1="58.93" y1="16.11" x2="49.91" y2="20.07"/>
    <line x1="47.37" y1="73.93" x2="53.58" y2="89.78"/>
    <line x1="38.33" y1="59.44" x2="47.37" y2="73.93"/>
    <line x1="38.33" y1="59.44" x2="31.37" y2="66.89"/>
    <line x1="20.27" y1="20.12" x2="23.32" y2="26.48"/>
    <line x1="49.91" y1="20.07" x2="56.05" y2="24.76"/>
    <line x1="76.03" y1="35.66" x2="69.06" y2="40.70"/>
    <line x1="34.16" y1="65.83" x2="47.37" y2="73.93"/>
    <line x1="34.16" y1="65.83" x2="31.37" y2="66.89"/>
    <line x1="24.86" y1="49.88" x2="19.14" y2="57.57"/>
    <line x1="64.58" y1="77.18" x2="53.58" y2="89.78"/>
    <line x1="31.37" y1="66.89" x2="29.96" y2="75.90"/>
    <line x1="47.37" y1="73.93" x2="58.15" y2="78.98"/>
    <line x1="39.45" y1="30.37" x2="27.63" y2="34.24"/>
    <line x1="49.91" y1="20.07" x2="41.42" y2="22.48"/>
    <line x1="58.93" y1="16.11" x2="69.98" y2="23.87"/>
    <line x1="20.27" y1="20.12" x2="23.46" y2="20.92"/>
    <line x1="76.03" y1="35.66" x2="65.16" y2="39.14"/>
    <line x1="38.33" y1="59.44" x2="34.16" y2="65.83"/>
    <line x1="23.32" y1="26.48" x2="39.45" y2="30.37"/>
  </g>
  <g fill="#00B3E3">
    <circle cx="58.93" cy="16.11" r="0.9"/>
    <circle cx="49.91" cy="20.07" r="0.9"/>
    <circle cx="20.27" cy="20.12" r="0.9"/>
    <circle cx="23.46" cy="20.92" r="0.9"/>
    <circle cx="41.42" cy="22.48" r="0.9"/>
    <circle cx="56.05" cy="24.76" r="0.9"/>
    <circle cx="69.98" cy="23.87" r="0.9"/>
    <circle cx="23.32" cy="26.48" r="0.9"/>
    <circle cx="39.45" cy="30.37" r="0.9"/>
    <circle cx="46.88" cy="30.74" r="0.9"/>
    <circle cx="27.63" cy="34.24" r="0.9"/>
    <circle cx="76.03" cy="35.66" r="0.9"/>
    <circle cx="65.16" cy="39.14" r="0.9"/>
    <circle cx="69.06" cy="40.70" r="0.9"/>
    <circle cx="78.46" cy="48.99" r="0.9"/>
    <circle cx="24.86" cy="49.88" r="0.9"/>
    <circle cx="19.14" cy="57.57" r="0.9"/>
    <circle cx="38.33" cy="59.44" r="0.9"/>
    <circle cx="49.77" cy="60.18" r="0.9"/>
    <circle cx="34.16" cy="65.83" r="0.9"/>
    <circle cx="31.37" cy="66.89" r="0.9"/>
    <circle cx="68.26" cy="66.89" r="0.9"/>
    <circle cx="61.97" cy="72.42" r="0.9"/>
    <circle cx="47.37" cy="73.93" r="0.9"/>
    <circle cx="29.96" cy="75.90" r="0.9"/>
    <circle cx="64.58" cy="77.18" r="0.9"/>
    <circle cx="58.15" cy="78.98" r="0.9"/>
    <circle cx="53.58" cy="89.78" r="0.9"/>
  </g>
</svg>