<svg xmlns="http://www.w3.org/2000/svg" viewBox="0 0 100 100" fill="none">
  <g stroke="#00B3E3" stroke-width="0.3" stroke-linecap="round">
    <line x1="62.52" y1="26.74" x2="54.04" y2="27.21"/>
    <line x1="62.52" y1="26.74" x2="71.35" y2="30.92"/>
    <line x1="62.52" y1="26.74" x2="56.98" y2="34.01"/>
    <line x1="62.52" y1="26.74" x2="68.11" y2="37.33"/>
    <line x1="54.04" y1="27.21" x2="47.22" y2="31.25"/>
    <line x1="54.04" y1="27.21" x2="56.98" y2="34.01"/>
    <line x1="71.35" y1="30.92" x2="68.11" y2="37.33"/>
    <line x1="71.35" y1="30.92" x2="75.91" y2="37.24"/>
    <line x1="47.22" y1="31.25" x2="51.33" y2="36.33"/>
    <line x1="47.22" y1="31.25" x2="42.86" y2="38.96"/>
    <line x1="56.98" y1="34.01" x2="51.33" y2="36.33"/>
    <line x1="56.98" y1="34.01" x2="56.68" y2="43.78"/>
    <line x1="51.33" y1="36.33" x2="45.19" y2="39.97"/>
    <line x1="51.33" y1="36.33" x2="56.68" y2="43.78"/>
    <line x1="61.60" y1="36.37" x2="64.00" y2="39.68"/>
    <line x1="61.60" y1="36.37" x2="56.68" y2="43.78"/>
    <line x1="68.11" y1="37.33" x2="75.91" y2="37.24"/>
    <line x1="68.11" y1="37.33" x2="64.00" y2="39.68"/>
    <line x1="75.91" y1="37.24" x2="76.17" y2="43.55"/>
    <line x1="28.74" y1="37.75" x2="42.86" y2="38.96"/>
    <line x1="28.74" y1="37.75" x2="22.46" y2="45.23"/>
    <line x1="28.74" y1="37.75" x2="40.30" y2="47.02"/>
    <line x1="28.74" y1="37.75" x2="29.49" y2="49.78"/>
    <line x1="42.86" y1="38.96" x2="40.30" y2="47.02"/>
    <line x1="64.00" y1="39.68" x2="56.68" y2="43.78"/>
    <line x1="64.00" y1="39.68" x2="66.80" y2="44.14"/>
    <line x1="45.19" y1="39.97" x2="56.68" y2="43.78"/>
    <line x1="45.19" y1="39.97" x2="40.30" y2="47.02"/>
    <line x1="56.68" y1="43.78" x2="66.80" y2="44.14"/>
    <line x1="56.68" y1="43.78" x2="56.11" y2="44.01"/>
    <line x1="56.68" y1="43.78" x2="58.98" y2="45.31"/>
    <line x1="56.68" y1="43.78" x2="54.79" y2="47.75"/>
    <line x1="56.68" y1="43.78" x2="59.30" y2="53.98"/>
    <line x1="76.17" y1="43.55" x2="66.80" y2="44.14"/>
    <line x1="76.17" y1="43.55" x2="82.13" y2="46.19"/>
    <line x1="76.17" y1="43.55" x2="69.34" y2="50.49"/>
    <line x1="66.80" y1="44.14" x2="69.34" y2="50.49"/>
    <line x1="22.46" y1="45.23" x2="18.68" y2="48.70"/>
    <line x1="22.46" y1="45.23" x2="29.49" y2="49.78"/>
    <line x1="51.76" y1="44.95" x2="40.30" y2="47.02"/>
    <line x1="82.13" y1="46.19" x2="69.99" y2="50.94"/>
    <line x1="82.13" y1="46.19" x2="88.61" y2="51.30"/>
    <line x1="82.13" y1="46.19" x2="79.69" y2="52.44"/>
    <line x1="82.13" y1="46.19" x2="83.43" y2="57.85"/>
    <line x1="40.30" y1="47.02" x2="29.49" y2="49.78"/>
    <line x1="40.30" y1="47.02" x2="50.65" y2="56.42"/>
    <line x1="40.30" y1="47.02" x2="39.95" y2="58.86"/>
    <line x1="54.79" y1="47.75" x2="53.22" y2="50.78"/>
    <line x1="65.18" y1="48.30" x2="69.34" y2="50.49"/>
    <line x1="18.68" y1="48.70" x2="13.82" y2="51.56"/>
    <line x1="18.68" y1="48.70" x2="22.20" y2="53.74"/>
    <line x1="29.49" y1="49.78" x2="22.20" y2="53.74"/>
    <line x1="29.49" y1="49.78" x2="39.95" y2="58.86"/>
    <line x1="69.34" y1="50.49" x2="69.99" y2="50.94"/>
    <line x1="69.34" y1="50.49" x2="61.52" y2="58.64"/>
    <line x1="53.22" y1="50.78" x2="50.65" y2="56.42"/>
    <line x1="88.61" y1="51.30" x2="90.56" y2="57.16"/>
    <line x1="88.61" y1="51.30" x2="83.43" y2="57.85"/>
    <line x1="13.82" y1="51.56" x2="9.53" y2="57.62"/>
    <line x1="13.82" y1="51.56" x2="16.06" y2="60.74"/>
    <line x1="79.69" y1="52.44" x2="70.26" y2="62.40"/>
    <line x1="22.20" y1="53.74" x2="27.12" y2="59.31"/>
    <line x1="22.20" y1="53.74" x2="16.06" y2="60.74"/>
    <line x1="59.30" y1="53.98" x2="56.45" y2="54.74"/>
    <line x1="59.30" y1="53.98" x2="61.52" y2="58.64"/>
    <line x1="80.91" y1="54.20" x2="83.43" y2="57.85"/>
    <line x1="53.81" y1="55.96" x2="50.65" y2="56.42"/>
    <line x1="53.81" y1="55.96" x2="59.18" y2="58.01"/>
    <line x1="50.65" y1="56.42" x2="51.15" y2="65.13"/>
    <line x1="50.08" y1="56.58" x2="39.95" y2="58.86"/>
    <line x1="90.56" y1="57.16" x2="83.43" y2="57.85"/>
    <line x1="90.56" y1="57.16" x2="89.97" y2="63.35"/>
    <line x1="83.43" y1="57.85" x2="80.81" y2="59.18"/>
    <line x1="83.43" y1="57.85" x2="89.97" y2="63.35"/>
    <line x1="83.43" y1="57.85" x2="76.86" y2="65.55"/>
    <line x1="9.53" y1="57.62" x2="16.06" y2="60.74"/>
    <line x1="9.53" y1="57.62" x2="10.40" y2="64.84"/>
    <line x1="70.26" y1="57.81" x2="70.26" y2="62.40"/>
    <line x1="27.12" y1="59.31" x2="39.95" y2="58.86"/>
    <line x1="27.12" y1="59.31" x2="32.10" y2="66.86"/>
    <line x1="27.12" y1="59.31" x2="21.04" y2="67.63"/>
    <line x1="61.52" y1="58.64" x2="70.26" y2="62.40"/>
    <line x1="61.52" y1="58.64" x2="55.57" y2="62.50"/>
    <line x1="39.95" y1="58.86" x2="46.24" y2="62.45"/>
    <line x1="39.95" y1="58.86" x2="32.10" y2="66.86"/>
    <line x1="39.95" y1="58.86" x2="38.26" y2="73.71"/>
    <line x1="77.54" y1="60.32" x2="75.44" y2="61.04"/>
    <line x1="16.06" y1="60.74" x2="10.40" y2="64.84"/>
    <line x1="16.06" y1="60.74" x2="21.04" y2="67.63"/>
    <line x1="61.64" y1="59.45" x2="61.54" y2="72.95"/>
    <line x1="75.44" y1="61.04" x2="70.26" y2="62.40"/>
    <line x1="70.26" y1="62.40" x2="73.05" y2="70.12"/>
    <line x1="70.26" y1="62.40" x2="61.54" y2="72.95"/>
    <line x1="46.24" y1="62.45" x2="47.27" y2="63.05"/>
    <line x1="55.57" y1="62.50" x2="51.15" y2="65.13"/>
    <line x1="89.97" y1="63.35" x2="79.95" y2="72.79"/>
    <line x1="47.27" y1="63.05" x2="51.15" y2="65.13"/>
    <line x1="71.14" y1="62.95" x2="74.77" y2="64.61"/>
    <line x1="74.77" y1="64.61" x2="76.86" y2="65.55"/>
    <line x1="10.40" y1="64.84" x2="17.19" y2="71.63"/>
    <line x1="51.15" y1="65.13" x2="49.51" y2="66.47"/>
    <line x1="51.15" y1="65.13" x2="54.43" y2="67.71"/>
    <line x1="51.15" y1="65.13" x2="50.07" y2="73.57"/>
    <line x1="76.86" y1="65.55" x2="73.05" y2="70.12"/>
    <line x1="76.86" y1="65.55" x2="79.95" y2="72.79"/>
    <line x1="32.10" y1="66.86" x2="25.59" y2="73.32"/>
    <line x1="32.10" y1="66.86" x2="38.26" y2="73.71"/>
    <line x1="49.51" y1="66.47" x2="45.12" y2="69.43"/>
    <line x1="21.04" y1="67.63" x2="17.19" y2="71.63"/>
    <line x1="21.04" y1="67.63" x2="25.59" y2="73.32"/>
    <line x1="56.14" y1="68.92" x2="58.17" y2="70.41"/>
    <line x1="45.12" y1="69.43" x2="38.26" y2="73.71"/>
    <line x1="73.05" y1="70.12" x2="70.51" y2="73.39"/>
    <line x1="73.05" y1="70.12" x2="74.61" y2="73.78"/>
    <line x1="17.19" y1="71.63" x2="25.59" y2="73.32"/>
    <line x1="61.54" y1="72.95" x2="70.51" y2="73.39"/>
    <line x1="61.54" y1="72.95" x2="50.07" y2="73.57"/>
    <line x1="79.95" y1="72.79" x2="74.61" y2="73.78"/>
    <line x1="25.59" y1="73.32" x2="38.26" y2="73.71"/>
    <line x1="70.51" y1="73.39" x2="74.61" y2="73.78"/>
    <line x1="38.26" y1="73.71" x2="50.07" y2="73.57"/>
  </g>
  <g fill="#00B3E3">
    <circle cx="62.52" cy="26.74" r="0.85"/>
    <circle cx="54.04" cy="27.21" r="0.85"/>
    <circle cx="71.35" cy="30.92" r="0.85"/>
    <circle cx="47.22" cy="31.25" r="0.85"/>
    <circle cx="56.98" cy="34.01" r="0.85"/>
    <circle cx="51.33" cy="36.33" r="0.85"/>
    <circle cx="61.60" cy="36.37" r="0.85"/>
    <circle cx="68.11" cy="37.33" r="0.85"/>
    <circle cx="75.91" cy="37.24" r="0.85"/>
    <circle cx="28.74" cy="37.75" r="0.85"/>
    <circle cx="42.86" cy="38.96" r="0.85"/>
    <circle cx="64.00" cy="39.68" r="0.85"/>
    <circle cx="45.19" cy="39.97" r="0.85"/>
    <circle cx="56.68" cy="43.78" r="0.85"/>
    <circle cx="76.17" cy="43.55" r="0.85"/>
    <circle cx="66.80" cy="44.14" r="0.85"/>
    <circle cx="22.46" cy="45.23" r="0.85"/>
    <circle cx="56.11" cy="44.01" r="0.85"/>
    <circle cx="51.76" cy="44.95" r="0.85"/>
    <circle cx="58.98" cy="45.31" r="0.85"/>
    <circle cx="82.13" cy="46.19" r="0.85"/>
    <circle cx="40.30" cy="47.02" r="0.85"/>
    <circle cx="62.66" cy="47.07" r="0.85"/>
    <circle cx="54.79" cy="47.75" r="0.85"/>
    <circle cx="65.18" cy="48.30" r="0.85"/>
    <circle cx="18.68" cy="48.70" r="0.85"/>
    <circle cx="29.49" cy="49.78" r="0.85"/>
    <circle cx="69.34" cy="50.49" r="0.85"/>
    <circle cx="53.22" cy="50.78" r="0.85"/>
    <circle cx="69.99" cy="50.94" r="0.85"/>
    <circle cx="88.61" cy="51.30" r="0.85"/>
    <circle cx="13.82" cy="51.56" r="0.85"/>
    <circle cx="79.69" cy="52.44" r="0.85"/>
    <circle cx="65.53" cy="52.34" r="0.85"/>
    <circle cx="22.20" cy="53.74" r="0.85"/>
    <circle cx="59.30" cy="53.98" r="0.85"/>
    <circle cx="80.91" cy="54.20" r="0.85"/>
    <circle cx="70.39" cy="54.45" r="0.85"/>
    <circle cx="56.45" cy="54.74" r="0.85"/>
    <circle cx="53.81" cy="55.96" r="0.85"/>
    <circle cx="50.65" cy="56.42" r="0.85"/>
    <circle cx="50.08" cy="56.58" r="0.85"/>
    <circle cx="90.56" cy="57.16" r="0.85"/>
    <circle cx="83.43" cy="57.85" r="0.85"/>
    <circle cx="9.53" cy="57.62" r="0.85"/>
    <circle cx="59.18" cy="58.01" r="0.85"/>
    <circle cx="70.26" cy="57.81" r="0.85"/>
    <circle cx="27.12" cy="59.31" r="0.85"/>
    <circle cx="61.52" cy="58.64" r="0.85"/>
    <circle cx="39.95" cy="58.86" r="0.85"/>
    <circle cx="80.81" cy="59.18" r="0.85"/>
    <circle cx="77.54" cy="60.32" r="0.85"/>
    <circle cx="16.06" cy="60.74" r="0.85"/>
    <circle cx="61.64" cy="59.45" r="0.85"/>
    <circle cx="75.44" cy="61.04" r="0.85"/>
    <circle cx="70.26" cy="62.40" r="0.85"/>
    <circle cx="46.24" cy="62.45" r="0.85"/>
    <circle cx="55.57" cy="62.50" r="0.85"/>
    <circle cx="89.97" cy="63.35" r="0.85"/>
    <circle cx="47.27" cy="63.05" r="0.85"/>
    <circle cx="71.14" cy="62.95" r="0.85"/>
    <circle cx="74.77" cy="64.61" r="0.85"/>
    <circle cx="10.40" cy="64.84" r="0.85"/>
    <circle cx="51.15" cy="65.13" r="0.85"/>
    <circle cx="76.86" cy="65.55" r="0.85"/>
    <circle cx="32.10" cy="66.86" r="0.85"/>
    <circle cx="49.51" cy="66.47" r="0.85"/>
    <circle cx="54.43" cy="67.71" r="0.85"/>
    <circle cx="21.04" cy="67.63" r="0.85"/>
    <circle cx="56.14" cy="68.92" r="0.85"/>
    <circle cx="45.12" cy="69.43" r="0.85"/>
    <circle cx="73.05" cy="70.12" r="0.85"/>
    <circle cx="58.17" cy="70.41" r="0.85"/>
    <circle cx="17.19" cy="71.63" r="0.85"/>
    <circle cx="61.54" cy="72.95" r="0.85"/>
    <circle cx="79.95" cy="72.79" r="0.85"/>
    <circle cx="25.59" cy="73.32" r="0.85"/>
    <circle cx="70.51" cy="73.39" r="0.85"/>
    <circle cx="38.26" cy="73.71" r="0.85"/>
    <circle cx="50.07" cy="73.57" r="0.85"/>
    <circle cx="74.61" cy="73.78" r="0.85"/>
  </g>
</svg>