<?xml version="1.0" encoding="UTF-8"?>
<svg id="Layer_1" xmlns="http://www.w3.org/2000/svg" version="1.1" viewBox="0 0 865.82 252.69">
  <!-- Generator: Adobe Illustrator 29.5.1, SVG Export Plug-In . SVG Version: 2.1.0 Build 141)  -->
  <defs>
    <style>
      .st0 {
        fill: #fff;
      }
    </style>
  </defs>
  <g>
    <path class="st0" d="M356.72,65v-31.2h-11.8v-7.2h37.6v7.2h-11.8v71.9h11.8v7.2h-37.6v-7.2h11.8v-32.2h-44.2v32.1h12v7.2h-37.9v-7.2h12V33.8h-12v-7.2h37.9v7.2h-12v31.2h44.2Z"/>
    <path class="st0" d="M418.02,50.9c18.6,0,33.1,14,33.1,31.8s-14.5,31.8-33.1,31.8-33.1-14-33.1-31.8,14.6-31.8,33.1-31.8ZM418.02,108.7c11.5,0,18.3-9.6,18.3-25.9s-6.8-25.9-18.3-25.9-18.3,9.6-18.3,25.9c.1,16.2,7,25.9,18.3,25.9Z"/>
    <path class="st0" d="M452.62,106.9h10.7v-48.3h-10.7v-5.9h23.9v6.9c9.2-4.9,16.1-8.6,23.8-8.6,6.9,0,12.5,3.7,14.8,10.1,6.2-4.8,16.1-10.1,24.2-10.1,11.2,0,17.3,7.2,17.3,20.2v35.9h10.5v5.9h-33.8v-5.9h10v-32c0-10.4-3.6-15.3-11.1-15.3-4.5,0-10.4,2.7-15.7,6.5v40.8h10.5v5.9h-33.8v-5.9h10.1v-30.3c0-10.2-1.4-17.1-10.8-17.1-5.5,0-9.2,2.3-16,6.5v40.8h10.2v5.9h-34.1v-6h0Z"/>
    <path class="st0" d="M580.22,78c0,17.3,7.9,29.4,20.7,29.4,6.2,0,12.8-2.3,20-6.9l-1,6.5c-9.8,6-14.4,7.6-22.6,7.6-20.4,0-31.5-16.7-31.5-33.6,0-18.3,10.8-30.1,27.4-30.1,15,0,24.5,9.6,26.8,27.1h-39.8ZM605.82,72.1c-1.2-9.8-5.9-15.3-13.5-15.3s-11.2,5-12.1,15.3h25.6Z"/>
    <path class="st0" d="M627.62,106.9h10.7V24h-10.7v-5.9h23.9v88.8h10.2v5.9h-34.1v-5.9h0Z"/>
    <path class="st0" d="M667.62,60.9c7.2-6.3,15.7-9.9,22.9-9.9,11.7,0,18.9,8.1,18.9,21.2v24.6c0,6,2.6,9.8,6.2,9.8,1.2,0,4.9-.6,6.2-.9v4c-4.5,3.2-8.9,4.9-13.1,4.9-4.6,0-7.8-2.6-10.9-8.9-7.2,5.3-12.4,8.9-17.6,8.9-7.9,0-14-7.1-14-15.8s4.9-14,16.7-16.8l13.2-3.3v-8.2c0-7.1-2.2-12-10.1-12-4.6,0-9.8,2-17,6.5l-1.4-4.1h0ZM678.52,97c0,4.6,3.3,8.1,7.8,8.1,2.9,0,6-1.4,9.8-4.5v-16.1c-12.5,3-17.6,6.6-17.6,12.5Z"/>
    <path class="st0" d="M722.72,106.9h10.9v-48.3h-10.9v-5.9h24.2v6.8c7.1-5.2,14.3-8.5,22.3-8.5,9.5,0,16.6,6,16.6,17.6v38.4h10.7v5.9h-33.4v-5.9h9.5v-35.5c0-8.2-4.5-12.5-10.7-12.5-4.5,0-9.9,2.3-15,6.3v41.6h9.9v5.9h-34.1v-5.9Z"/>
    <path class="st0" d="M831.22,18.1h23.9v88.8h10.7v5.9h-34.6c-20.9,0-34.4-12.1-34.4-31.1,0-16.8,12.2-30.8,26.8-30.8,6,0,12.4,2.6,18.3,7.6V24h-10.7v-5.9ZM841.82,65.3c-4.5-4.5-9.5-6.8-14.1-6.8-10.1,0-16.1,8.5-16.1,23.2,0,18.4,10.2,25.2,24.5,25.2h5.8v-41.6h-.1Z"/>
    <path class="st0" d="M291.22,191.7h7.2v10.9c5.8,6.9,11.4,9.9,17.4,9.9,8.1,0,14.4-6,14.4-13.8,0-14.5-20-17.4-31.7-29.1-5.6-5.6-7.8-11.5-7.8-17.4,0-11.4,9.5-22.3,24.5-22.3,6.2,0,11.8,1.2,16.7,4.3v-4.6h7.2v23.5h-7.2v-9.4c-3.6-4.6-9.1-7.3-15-7.3-9.6,0-13.8,5.8-13.8,12.4,0,13.5,19.7,15.6,32.1,27.9,5.5,5.5,7.3,10.4,7.3,17.4,0,14.7-10.4,24.9-25.9,24.9-6.6,0-11.8-2-18.3-6v6.3h-7.2v-27.6h.1,0Z"/>
    <path class="st0" d="M364.92,182.8c0,17.3,7.9,29.4,20.7,29.4,6.2,0,12.8-2.3,20-6.9l-1,6.5c-9.8,6-14.4,7.6-22.6,7.6-20.4,0-31.5-16.7-31.5-33.6,0-18.3,10.8-30.1,27.4-30.1,15,0,24.5,9.6,26.8,27.1h-39.8ZM390.52,176.9c-1.2-9.8-5.9-15.3-13.5-15.3s-11.2,5-12.1,15.3h25.6Z"/>
    <path class="st0" d="M460.12,174.7h-4.2c-1.6-8.8-7.9-13.1-14.4-13.1-9.6,0-16.1,7.1-16.1,22.5,0,17.7,6.8,27.2,19.3,27.2,9.8,0,15.6-6.6,17-6.6,1.2,0,2,2.6,2,3.6,0,2.4-9.9,11.1-23.5,11.1-16.8,0-29.7-14.4-29.7-33.3,0-17.7,12-30.4,28.8-30.4,5,0,8.8.9,15.4,3.7l1.2-3.6h4.2v18.9h0Z"/>
    <path class="st0" d="M465.02,157.4h24v41.5c0,7.8,4.2,12.4,10.9,12.4,4,0,9.2-2.2,14.7-6.2v-41.8h-10.7v-5.9h23.9v54.3h10.8v5.9h-24v-7.2c-7.5,6.3-14.5,8.9-21.6,8.9-10.7,0-17.3-6-17.3-18.4v-37.6h-10.8v-5.9h.1Z"/>
    <path class="st0" d="M540.92,211.7h10.8v-48.4h-10.8v-5.9h24v10.1h.3c7.2-8.9,10.8-11.8,14.7-11.8,3.6,0,6.8,1.7,10.2,5.8-1.2,6-3,10.9-5.5,14.8-3.5-6.3-5.5-8.5-9.5-8.5s-6.9,2.6-10.2,7.2v36.7h10.8v5.9h-34.8v-5.9Z"/>
    <path class="st0" d="M596.72,211.7h10.6v-48.4h-10.5v-5.9h23.8v54.3h10.2v5.9h-34v-5.9h-.1ZM620.82,136.1c0,4.5-3.7,8.2-8.2,8.2s-8.2-3.7-8.2-8.2,3.7-8.2,8.2-8.2,8.2,3.8,8.2,8.2Z"/>
    <path class="st0" d="M637.12,163.4l21.6-22.3v16.4h16.8v5.9h-16.8v34.8c0,9.5,2.6,14,8.1,14,5.8,0,8.6-4.6,10.1-4.6.9,0,1.4,1.2,1.4,1.9,0,1.6-5.3,9.9-15.8,9.9s-17-7.1-17-20v-36h-8.4,0Z"/>
    <path class="st0" d="M678.42,157.4h29.2v5.9h-7.6l14.4,38.6,15-38.6h-7.1v-5.9h20.2v5.9h-7.2l-35.3,89.4h-11.2l17-37.7-19.5-51.6h-7.9v-6h0Z"/>
  </g>
  <g>
    <g>
      <path class="st0" d="M200.34,80.26c-1.4.51-2.79.9-4.19,1.2,7.78,12.72,12.27,27.76,12.27,43.79,0,46.5-37.49,84.17-83.77,84.17s-83.77-37.67-83.77-84.17c0-16.73,4.88-32.36,13.26-45.5-1.3-.41-2.59-.9-3.99-1.51-8.57,13.63-13.47,29.75-13.47,46.99,0,48.8,39.39,88.38,87.96,88.38s87.96-39.58,87.96-88.38c0-16.43-4.49-31.85-12.27-44.98Z"/>
      <path class="st0" d="M75.99,56.71c13.67-9.83,30.52-15.63,48.67-15.63,20.35,0,38.89,7.22,53.45,19.33,1.6-.51,3.2-.9,4.88-1.3-15.56-13.83-35.91-22.14-58.24-22.14-20.05,0-38.5,6.71-53.35,18.03.69.3,1.4.51,2.09.8.81.3,1.71.61,2.51.91Z"/>
    </g>
    <path class="st0" d="M124.66,0C55.84,0,0,56.12,0,125.25s55.85,125.25,124.66,125.25,124.66-56.12,124.66-125.25S193.47,0,124.66,0ZM124.66,242.79c-64.63,0-116.98-52.6-116.98-117.54S60.03,7.71,124.66,7.71s116.98,52.6,116.98,117.54-52.35,117.54-116.98,117.54Z"/>
    <g>
      <path class="st0" d="M94.54,100.1c-1.8-.9-3.28-2-4.98-3.5-5.39-4.91-6.58-10.01-4.98-15.93.89-3.5,2.39-5.31,1.9-9.02-.3-2.1-1.8-3.81-3.28-5.21-3.59-3.4-7.78-5.62-14.06-7.71-3.89-1.3-15.15-4.8-20.05-9.32-1.09,3.3,1.3,7.71,4.19,8.32-2.49.3-4.68,1.61-5.69,3.01,1.9,2.2,5.69,4.52,8.87,4.62-1.5,1-3.2,3.01-3.79,4.21,2.69,1.51,7.09,2.71,10.37,2.4-1.4,1.1-2.59,2.6-3.38,3.91,2.29,1,6.68,2.5,10.87,2.81-1.5.8-3.79,3.4-4.88,5.01,2.39,1.1,7.48,1.71,10.57,2-2.29,1.2-4.59,3.6-5.89,5.72,2.29,1.1,6.58,2.3,10.17,2.2-1.7,1.71-2.89,3.7-3.59,5.72,2.69.51,5.49.61,8.67.1-1.99,2.5-2.79,5.82-3.1,8.22,2.69-.1,6.18-.69,8.67-2.2-.5,2-.4,4.8.5,6.71.99-.2,2.19-.69,3.59-1.4-.4-3.55-.5-7.45-.71-10.65Z"/>
      <path class="st0" d="M202.04,55.51c-4.98,4.52-12.86,5.72-21.24,8.52-6.28,2.1-10.17,3.3-15.76,7.81-1.6,1.3-3.1,3.21-3,6.41.2,3.6.79,5.21.89,10.22.1,3.6-1.2,6.51-2.69,8.22-1.6,1.81-3.69,3.4-5.49,4.31-.1,3.11-.2,6.11-.4,9.72,1.3.69,3,1.4,3.99,1.61.89-1.91.99-4.7.4-6.71,2.49,1.51,5.98,2.1,8.57,2.2-.3-2.4-1.09-5.72-3.1-8.22,3.28.41,6.08.41,8.67-.1-.69-2-1.8-4.01-3.49-5.72,3.49.1,7.88-1.1,10.17-2.2-1.3-2.2-3.69-4.52-5.89-5.72,3.2-.3,8.38-.9,10.77-2-1.09-1.61-3.49-4.31-4.98-5.01,4.19-.3,8.57-1.81,10.87-2.81-.79-1.3-1.99-2.71-3.38-3.91,3.89-.3,7.68-1,10.37-2.4-.6-1.2-2.39-3.21-3.79-4.21,8.3-2.52,8.4-6.73,8.5-10.03Z"/>
      <path class="st0" d="M166.64,64.43c-11.87-8.32-26.33-13.13-41.98-13.13-14.26,0-27.52,4.01-38.79,11.03,2.89,2.3,4.68,4.7,5.08,7.22.4,2.2.6,4.8-.6,8.71-1.3,4.11-2.09,8.32.89,12.62,3,4.21,6.88,6.11,10.07,6.71h0c4.19-.69,8.87-1.4,13.57-1.71h0c.6-2,2.39-3.7,4.19-5.11,2.59-2,1.99-3.81,1.4-5.21-.5-1.1-1.4-2-2.79-2.71-1.2-.61-5.49-1.1-5.39,1.71-.69-1-1.3-2.4-.89-4.11.6-2.4,4.49-3.01,5.49-3.01-.79-.61-.3-1.71,1.4-2.2,2.09-.61,4.09-.69,5.98-.61,3.99.1,4.59,1.1,6.58,2.91,2.39,2.2,5.59,2.91,6.88,1.61-.89,2.1-3.79,3.21-5.59,2.81.89,2.91,1.2,5.31,1.5,8.32.1,1.4.4,3.7.79,5.51,5.29.41,10.57,1.2,15.25,2.1h0c1.9-.61,3.89-1.71,5.69-3.81,1.7-2,3.28-4.41,2.59-10.72-.2-1.81-1.09-6.31-.89-8.42.4-4.8,3.99-7.92,9.58-10.52Z"/>
      <path class="st0" d="M117.67,77.66c.69.61,1.2.61,1.4.61,0,.1.3.3.3.41.2.1.2.3.3.41.3-.1,1.2-.51,1.99-.8.79-.3,1.9-.61,1.9-.61-3.4-.82-3.89.29-5.89-.01Z"/>
    </g>
    <g>
      <g>
        <path class="st0" d="M122.57,136.18l-1.5-.69-.99-2.5-2.19-.9-2.39-2.2-1.4,1.61-2.19.51-1.09,1.81-1.71,1.77-2.39,1.2-1.6,2.81-.89,1.2-1.6,1.2-.89-.9-.89.9-1.09,2.3c-.6-1.61-.99-2.91-1.2-5.51-.3-4.8-.69-10.93-.99-17.13,7.98-1.71,18.05-2.91,26.23-2.91v18.84c-.42-.29-.82-.49-1.21-1.39Z"/>
        <path class="st0" d="M123.76,145.3h-23.63c.3.69.79,1.4,1.2,2.1,1.7,2.4,4.09,4.21,7.19,5.11,4.19,1.3,6.88,2.1,8.77,2.71l2.29.69c1.9.61,3.2,1.4,4.19,2.4,0,.01,0-13.01,0-13.01Z"/>
        <path class="st0" d="M148.69,136.08c.6-.51,1.4-1.1,2.39-1.51.1-2.2.3-4.62.4-7.02-.3.2-.5.41-.89.69-1.09.9-2.49,2.1-4.98,2.1-2.29,0-3.79-.9-5.08-1.71-.99-.61-1.8-1.1-2.89-1.1-1.3,0-2.39.69-3.59,1.4-1.3.8-2.69,1.61-4.39,1.61-1.8,0-3.1-.51-4.09-1.1v6.71c.2.1.5.3.69.41,1.09.69,1.99,1.2,3.38,1.2.89,0,1.8-.51,2.79-1.2,1.4-.8,3-1.81,5.08-1.81s3.38.8,4.49,1.51,1.99,1.2,3.38,1.2c1.6.01,2.39-.59,3.3-1.39Z"/>
        <path class="st0" d="M129.64,151.3c-1.8,0-3.1-.51-4.09-1.1v8.12c.89-.9,2.29-1.81,4.19-2.4l2.29-.69c1.9-.61,4.59-1.51,8.77-2.71,1.2-.41,2.29-.9,3.38-1.51-1.5-.3-2.59-1-3.59-1.51-.99-.61-1.8-1.1-2.89-1.1-1.3,0-2.39.69-3.59,1.4-1.28.59-2.68,1.49-4.48,1.49Z"/>
        <path class="st0" d="M148.69,125.85c.79-.61,1.7-1.4,3-1.71,0-.9.1-1.71.1-2.6-7.98-1.71-18.05-2.81-26.23-2.91v7.12c.2.1.5.3.69.41,1.09.69,1.99,1.2,3.38,1.2.89,0,1.8-.51,2.79-1.2,1.4-.8,3-1.81,5.08-1.81s3.38.8,4.49,1.51,1.99,1.2,3.38,1.2c1.6.2,2.39-.39,3.3-1.2Z"/>
        <path class="st0" d="M125.55,139.58v6.92c.2.1.5.3.69.41,1.09.69,1.99,1.2,3.38,1.2.89,0,1.8-.51,2.79-1.2,1.4-.8,3-1.81,5.08-1.81s3.38.8,4.49,1.51c1.09.69,1.99,1.2,3.38,1.2,1.09,0,1.8-.41,2.59-1,1.5-2.3,2.39-5.01,2.59-8.32v-.41q-.1.1-.2.2c-1.09.9-2.49,2.1-4.98,2.1-2.29,0-3.79-.9-5.08-1.71-.99-.61-1.8-1.1-2.89-1.1-1.3,0-2.39.69-3.59,1.4-1.3.8-2.69,1.61-4.39,1.61-1.48.2-2.78-.39-3.87-1Z"/>
      </g>
      <path class="st0" d="M124.67,97.09c-8.79,0-19.85,1.3-28.23,3.21.2,5.51.49,12.52.89,19.44,7.88-1.61,18.38-2.91,27.35-2.91s19.44,1.2,27.32,2.91c.39-6.9.69-13.92.89-19.44-8.38-1.91-19.56-3.21-28.23-3.21ZM145.3,102.5l.6-1.4.2,1.61,1.5.1-1.4.59.29,1.51-.99-1.1-1.3.8.71-1.39-1.11-1.01,1.5.3ZM138.32,101.61l.49-1.4.3,1.51,1.5.1-1.4.69.4,1.51-1.11-1.1-1.2.8.71-1.3-1.2-1,1.5.2ZM131.34,101l.5-1.4.29,1.51h1.5l-1.3.81.4,1.39-1.09-1-1.2.91.59-1.4-1.2-.91,1.5.1ZM124.25,100.8l.4-1.4.4,1.4h1.5l-1.21.81.5,1.4-1.2-.91-1.09.91.49-1.4-1.3-.81h1.5ZM117.28,101.1l.29-1.51.5,1.4,1.5-.1-1.2.91.59,1.4-1.2-.91-1.2,1,.5-1.39-1.3-.81h1.5ZM110.3,101.71l.2-1.51.49,1.4,1.5-.2-1.09.9.71,1.4-1.3-.8-1.11,1.1.4-1.51-1.3-.69,1.5-.1ZM103.31,102.71l.1-1.61.71,1.4,1.4-.3-1.11,1.01.81,1.39-1.3-.8-1.09,1.1.39-1.51-1.4-.59,1.5-.1ZM100.52,110.62l.3-1.51-1.3-.59,1.5-.2.1-1.51.59,1.4,1.5-.41-1.09,1.1.81,1.3-1.4-.8-1.01,1.2ZM106.21,115.83l-1.3-.8-.99,1.1.3-1.51-1.4-.61,1.48-.1.2-1.59.6,1.4,1.5-.3-1.2,1,.79,1.4ZM107.2,109.52l.3-1.51-1.4-.61,1.6-.2.2-1.49.49,1.4,1.5-.2-1.09,1,.71,1.3-1.31-.8-.99,1.1ZM112.79,115.04l-1.2-.81-1.09,1,.39-1.4-1.38-.69,1.48-.1.3-1.51.5,1.4,1.5-.2-1.2.91.69,1.4ZM114.88,107.71l-1.09,1.1.4-1.51-1.3-.69,1.5-.1.2-1.51.59,1.51,1.4-.2-1.09.9.59,1.4-1.2-.9ZM119.47,114.53l-1.3-.9-1.09,1,.49-1.4-1.3-.8h1.5l.3-1.51.5,1.51,1.48-.2-1.2.9.6,1.4ZM121.46,107.31l-1.09,1.01.5-1.4-1.3-.81h1.5l.29-1.51.5,1.51,1.5-.1-1.3.91.59,1.4-1.2-1.01ZM126.05,114.43l-1.09-1-1.2,1,.49-1.4-1.2-.9,1.5.1.4-1.51.3,1.51,1.58-.1-1.3.9.5,1.4ZM128.14,107.31l-1.2,1.01.6-1.4-1.2-.91,1.5.1.39-1.4.4,1.4h1.5l-1.3.81.49,1.51-1.2-1.11ZM132.74,114.73l-1.09-1.1-1.3.9.69-1.4-1.3-.9,1.5.2.5-1.4.29,1.4,1.5.09-1.3.71.5,1.51ZM134.82,107.71l-1.3.9.71-1.4-1.2-.9,1.48.2.5-1.4.3,1.51h1.5l-1.3.69.39,1.51-1.09-1.1ZM139.32,115.32l-.99-1.1-1.3.81.69-1.3-1.2-1.01,1.5.3.49-1.51.3,1.51,1.5.1-1.4.69.4,1.51ZM141.51,108.52l-1.3.8.71-1.4-1.2-1,1.48.29.6-1.39.2,1.49,1.5.1-1.4.71.39,1.51-.99-1.1ZM146,116.24l-1.09-1.1-1.3.8.79-1.4-1.09-1,1.4.29.69-1.39.1,1.49,1.5.2-1.4.61.4,1.51ZM149.08,110.62l-.99-1.1-1.3.69.81-1.3-1.11-1,1.4.3.71-1.4.1,1.51,1.5.2-1.4.59.29,1.51Z"/>
    </g>
    <g>
      <g>
        <path class="st0" d="M217.01,80.26c3.38-1.51,7.37-.8,8.38,1.51.99,2.3-1.2,5.72-4.59,7.22-3.49,1.51-7.37.8-8.38-1.51-.99-2.32,1.2-5.72,4.59-7.22ZM222.19,92.08c4.39-1.91,6.28-6.82,4.49-11.03-1.8-4.21-6.68-6.01-11.08-4.11-4.39,1.91-6.38,6.82-4.49,11.03,1.8,4.21,6.78,6.02,11.08,4.11Z"/>
        <path class="st0" d="M216.2,103.5l-1.7-6.61.99-.3.5,1.81,13.86-3.5-.5-1.81.99-.3,2.49,9.91.69-.2.3,1.3-3.79,1-.3-1.3,1.7-.41-1.3-5.01-5.69,1.4.99,3.91,1.6-.41.4,1.3-4.78,1.2-.4-1.3,1.7-.41-.99-3.91-6.38,1.61.4,1.61-.79.42Z"/>
      </g>
      <g>
        <path class="st0" d="M22.24,85.88l-.6,2,8.97,2.71c2.69.8,4.09,2.2,4.49,4.62.2,1.2.1,2.4-.3,3.7-1.2,3.91-3.99,5.72-7.27,4.8l-9.58-2.91-.5,1.81-.99-.3,1.99-6.71.99.3-.5,1.81,8.87,2.71c2.39.69,3.59.61,4.59-.41.5-.51.79-1.1.99-1.81.89-2.91-.3-5.01-3.28-5.92l-8.87-2.6-.6,2-.99-.3,1.7-5.51.91.03Z"/>
        <path class="st0" d="M37.99,89.68c-.4.8-1.3,1.2-2.19.9-.79-.41-1.2-1.3-.89-2.2.4-.9,1.3-1.3,2.19-.9.79.39,1.2,1.39.89,2.2Z"/>
        <path class="st0" d="M41.09,82.56l-.69,1.2-3.89-2.2.69-1.2,1.6.9c1.3-.51,1.99-1.1,2.59-2.2.79-1.3.5-2.81-.6-3.4-.99-.51-1.99-.3-4.49,1-2.49,1.4-2.89,1.51-3.89,1.71-.89.2-1.99,0-2.89-.61-2.39-1.3-3-4.01-1.5-6.61.5-.8.99-1.4,1.8-2.1l-.6-.41.69-1.2,3.69,2.1-.69,1.3-1.5-.8c-1.09.61-1.6,1-2.09,1.81-.6,1.1-.3,2.4.69,3.01.89.51,1.7.3,4.19-1,1.2-.61,1.99-1,2.29-1.2.6-.3,1.4-.51,2.19-.51.89,0,1.7.2,2.59.61,2.49,1.4,3.2,4.21,1.8,6.71-.69,1.3-1.5,2-2.59,2.71l.62.38Z"/>
        <path class="st0" d="M47.57,71.24c0,.9-.69,1.61-1.6,1.61s-1.6-.69-1.6-1.61.69-1.61,1.6-1.61,1.6.69,1.6,1.61Z"/>
      </g>
      <g>
        <path class="st0" d="M85.96,39.17l-10.47,5.41-.5-.9,1.7-.9-6.58-12.74-1.7.9-.5-.9,9.07-4.7-.2-.69,1.2-.61,1.8,3.5-1.2.61-.79-1.61-4.59,2.4,2.69,5.21,3.49-1.81-.79-1.51,1.2-.61,2.19,4.41-1.2.61-.79-1.61-3.49,1.81,2.79,5.51,4.78-2.5-.79-1.61,1.2-.61,1.5,2.91Z"/>
        <path class="st0" d="M96.14,35.47l-6.88,2.3-.3-1,1.8-.61-4.49-13.62-1.8.61-.3-1,7.19-2.4c2.89-1,5.39.2,6.28,2.91.89,2.6-.69,5.51-3.49,6.41-.4.1-.69.2-1.3.3l-.4-1.2c.3,0,.5-.1.69-.1,1.6-.51,2.09-2,1.4-4.11-.69-2.2-1.99-3.11-3.69-2.5l-1.4.51,4.39,13.33,1.99-.69.32.87Z"/>
        <path class="st0" d="M104.22,26.45l1.4-6.61,3.38,5.72-4.78.9ZM116.27,29.96l-.99.2-8.77-14.63-1.5.3-3.59,16.83-1.5.3.2,1,5.08-.9-.2-1-1.99.3.89-4.31,5.98-1,2.19,3.7-1.7.3.2,1,5.98-1-.29-1.11Z"/>
        <path class="st0" d="M123.36,15.93h1.6c1.8,0,2.79,1.2,2.79,3.11s-1.2,3.3-2.89,3.3h-1.5v-6.41ZM133.43,29.96h-.99c-.5,0-.79-.2-1.4-1.1l-3.49-5.41c2.29-.69,3.49-2.2,3.49-4.41,0-1.3-.4-2.4-1.2-3.21-.89-.9-2.09-1.2-4.19-1.2h-7.27v1h1.9v14.33h-1.9v1h6.99v-1h-1.9v-6.31h.69l3.69,5.92c.79,1.3,1.09,1.51,2.59,1.51h3.2l-.2-1.1Z"/>
        <path class="st0" d="M144.7,33.07l-7.88-1.3.2-1,2.39.41,2.29-13.73-4.29-.69-.3,2-1.3-.2.69-4.21,1.4.2-.1.69,11.57,2,.1-.69,1.3.2-.69,4.21-1.3-.2.3-2-4.19-.69-2.29,13.73,2.39.41-.29.88Z"/>
        <path class="st0" d="M167.94,40.88l-6.88-2.71.4-1,1.99.8,3.89-10.01-9.48,9.32-1.4-13.23-3.79,9.83,1.99.8-.4,1-5.39-2.1.4-1,1.9.8,5.19-13.43-1.99-.8.4-1,4.09,1.61,1.3,12.92,8.97-8.91,4.59,1.81-.4,1-1.9-.8-5.19,13.43,1.9.8-.2.88Z"/>
        <path class="st0" d="M180.01,48.9l-9.97-6.41.6-.9,1.6,1,7.68-12.13-1.6-1,.6-.9,8.57,5.51.4-.61,1.09.69-2.09,3.3-1.09-.69.99-1.51-4.39-2.81-3.2,5.01,3.38,2.1.89-1.4,1.09.69-2.59,4.11-1.09-.69.89-1.51-3.38-2.1-3.28,5.21,4.59,2.91.99-1.61,1.09.69-1.8,3.02Z"/>
        <path class="st0" d="M69.81,38.67c-2.69-3.7-7.78-4.41-11.57-1.61l-6.29,4.62.6.8,1.5-1.1,8.48,11.52c.4.2.79.3,1.2.51l4.19-3.11c1.99-1.4,3-3.01,3.38-5.21.39-2.3-.1-4.6-1.5-6.41ZM66.61,49.49l-1.6,1.2-8.08-11.03,1.7-1.3c2.39-1.71,6.18-.69,8.38,2.3,2.29,3.21,2.19,7.03-.4,8.83Z"/>
        <path class="st0" d="M201.15,45.38l-.69.8,1.5,1.3-6.99,7.71,1.8-13.92-3.69-3.3-.69.8,1.3,1.2-.3,1.51-8.77,9.72-1.5-1.4-.69.8,4.19,3.81.69-.8-1.5-1.3,7.27-8.02-1.6,12.62c1.5-.41,3.1-.8,4.88-1.3.1,0,.3-.1.4-.1l6.27-6.9,1.5,1.4.69-.8-4.08-3.82Z"/>
        <path class="st0" d="M217.9,63.63l-.6.41-7.19-9.42.6-.41-.79-1.1-3.38,2.6.79,1.1,1.6-1.3,2.59,3.4-11.08,8.52-.6-.69c-.3.2-.6.3-.99.51l4.09,5.41.79-.61-1.5-1.91,11.08-8.52,2.59,3.4-1.6,1.3.79,1.1,3.38-2.6-.58-1.19Z"/>
      </g>
      <g>
        <path class="st0" d="M145.3,234.98l-1.3.3-.99-4.41,1.3-.3.4,1.81c1.3.61,2.19.8,3.38.51,1.5-.3,2.39-1.51,2.09-2.71-.2-1.1-1.09-1.71-3.69-2.71-2.69-1-3.1-1.2-3.89-1.81s-1.3-1.51-1.5-2.5c-.6-2.71.99-4.91,3.99-5.51.89-.2,1.7-.2,2.69,0l-.2-.69,1.3-.3.89,4.21-1.3.3-.4-1.71c-1.2-.41-1.9-.51-2.79-.3-1.3.3-1.99,1.4-1.8,2.5.2,1,.89,1.51,3.59,2.4,1.3.51,2.09.8,2.39.9.6.3,1.3.69,1.8,1.3.6.69.99,1.4,1.2,2.4.6,2.81-.99,5.21-3.79,5.82-1.4.3-2.49.2-3.79-.2l.42.71Z"/>
        <path class="st0" d="M170.53,226.96l-10.97,4.31-.4-1,1.8-.69-5.19-13.43-1.8.69-.4-1,9.58-3.81-.3-.69,1.3-.51,1.4,3.7-1.2.51-.69-1.71-4.78,1.91,2.09,5.51,3.69-1.51-.6-1.61,1.2-.51,1.8,4.62-1.2.51-.6-1.61-3.69,1.51,2.19,5.72,4.98-2-.69-1.71,1.3-.51,1.21,3.29Z"/>
        <path class="st0" d="M187.08,216.83c-1.4,1.81-2.39,2.71-3.99,3.7-4.49,2.71-9.48,1.61-12.07-2.6-2.49-4.21-1.2-9.32,3-11.92,1.4-.8,2.49-1.2,3.99-1.4l-.5-.9,1.2-.69,2.29,3.81-1.2.69-.79-1.4c-1.7-.1-2.59.1-3.69.69-3,1.81-3.49,5.51-1.4,9.12,2.09,3.5,5.98,4.8,8.87,3.01,1.09-.61,1.7-1.3,2.29-2.6l-.99-1.61,1.2-.69,1.8,2.81Z"/>
        <path class="st0" d="M194.57,191.08l-1.5,1.4,6.28,6.92c1.9,2.1,2.39,4.01,1.5,6.21-.5,1.1-1.2,2.1-2.09,3.01-3,2.71-6.38,2.81-8.67.3l-6.78-7.41-1.4,1.3-.69-.8,5.08-4.7.69.8-1.4,1.3,6.28,6.92c1.7,1.91,2.79,2.4,4.19,2,.6-.2,1.3-.51,1.8-1,2.19-2,2.29-4.52.3-6.71l-6.18-6.82-1.5,1.4-.69-.8,4.29-3.91.48.58Z"/>
        <path class="st0" d="M222.49,176.55l-3.28,6.11-.89-.51.89-1.71-12.56-6.82-.89,1.71-.89-.51,3.28-6.11.89.51-.89,1.61,12.56,6.82.89-1.61.89.51Z"/>
        <path class="st0" d="M228.77,161.62l-2.79,7.51-.99-.41.79-2.3-12.96-4.91-1.5,4.01,1.9.69-.5,1.3-3.99-1.51.5-1.3.69.2,4.19-11.03-.69-.2.5-1.3,3.99,1.51-.5,1.3-1.9-.69-1.5,4.01,12.96,4.91.79-2.2,1.01.41Z"/>
        <path class="st0" d="M233.15,143.18l-1.3,6.82-.99-.2.4-1.81-6.68-1.3-8.28,3.4-.3,1.51-.99-.2,1.3-6.82.99.2-.4,1.81,5.98-2.4-4.68-4.31-.4,2.1-.99-.2,1.09-5.72.99.2-.3,1.81,5.89,5.41,7.37,1.4.4-1.91.91.22Z"/>
        <path class="st0" d="M216.5,185.57l-.6.8c-.3.41-.69.51-1.7.41l-6.48-.41c.79-2.3.3-4.11-1.5-5.41-1.09-.8-2.19-1.1-3.28-.9-1.3.2-2.19,1-3.49,2.71l-4.39,5.92.79.61,1.09-1.51,11.46,8.61-1.09,1.51.79.61,4.19-5.62-.79-.61-1.09,1.51-4.98-3.7.4-.51,6.88.51c1.6.1,1.8,0,2.69-1.2l1.9-2.5-.81-.81ZM199.25,185.37l.89-1.3c1.09-1.4,2.59-1.61,4.19-.41,1.6,1.2,1.99,2.91.99,4.31l-.89,1.2-5.19-3.81Z"/>
      </g>
      <g>
        <path class="st0" d="M19.65,158.62l-1.7-6.82.99-.2.4,1.81,6.38-1.61-1.9-7.92-6.38,1.61.4,1.81-.99.2-1.7-6.82.99-.2.4,1.81,13.86-3.4-.4-1.81.99-.2,1.7,6.82-.99.2-.4-1.81-6.08,1.51,1.9,7.92,6.08-1.51-.4-1.81.99-.3,1.7,6.82-.99.2-.4-1.81-13.86,3.4.5,1.81-1.09.3Z"/>
        <path class="st0" d="M29.12,162.43c3.38-1.61,7.37-.9,8.38,1.3.99,2.3-1.09,5.72-4.49,7.31-3.38,1.61-7.37.9-8.38-1.4-1.09-2.2.99-5.62,4.49-7.21ZM34.41,174.25c4.29-2,6.18-6.92,4.29-11.03-1.9-4.21-6.78-5.92-11.18-3.91-4.29,2-6.28,6.92-4.39,11.03,2,4.11,6.99,5.9,11.28,3.91Z"/>
        <path class="st0" d="M40.79,198l-4.29-6.01.79-.61,1.2,1.71,8.67-6.31-12.96,2.6,5.98-11.82-8.48,6.21,1.2,1.71-.79.61-3.38-4.7.79-.61,1.2,1.71,11.57-8.42-1.2-1.71.79-.61,2.59,3.6-5.89,11.62,12.37-2.6,2.89,4.01-.79.61-1.2-1.71-11.57,8.42,1.2,1.71-.68.59Z"/>
        <path class="st0" d="M53.65,210.72l-8.67-8.02.69-.8,1.4,1.3,9.68-10.52-1.4-1.3.69-.8,7.58,7.02.5-.51.99.9-2.69,2.91-.99-.9,1.2-1.3-3.79-3.5-3.99,4.31,2.89,2.71,1.09-1.2.99.9-3.28,3.6-.99-.9,1.2-1.3-2.89-2.71-4.19,4.52,3.99,3.7,1.2-1.4.99.9-2.19,2.39Z"/>
        <path class="st0" d="M68.51,220.94l-9.78-6.61.6-.9,1.6,1.1,7.98-11.92-1.6-1.1.6-.9,5.79,3.91-.6.9-1.6-1-7.68,11.62,4.39,3.01.99-1.51,1.09.8-1.8,2.6Z"/>
        <path class="st0" d="M78.38,218.84l4.88-4.62-.4,6.61-4.48-2ZM86.36,228.57l-.99-.41.99-17.03-1.4-.61-12.37,11.82-1.4-.61-.4,1,4.68,2.1.4-1-1.8-.8,3.1-3.01,5.49,2.5-.3,4.31-1.6-.69-.4.9,5.49,2.5.52-.98Z"/>
        <path class="st0" d="M103.51,234.47l-1.7-.41-5.59-13.92-2.49,10.62,1.9.51-.2,1-5.49-1.3.2-1,1.99.51,3-12.72-.5-1.4-1.7-.41.2-1,4.78,1.2,5.19,13.02,2.39-10.22-1.9-.51.2-1,5.49,1.3-.2,1-1.99-.51-3.57,15.22Z"/>
        <path class="st0" d="M119.67,219.25l-7.78-.3v1l1.9.1-.5,14.33h0l-1.9-.1v1l7.68.3h0c2.39.1,4.19-.51,5.89-2,1.8-1.61,2.69-3.7,2.79-6.01.19-4.41-3.4-8.12-8.08-8.32ZM124.25,227.65c-.1,3.91-2.59,6.82-5.69,6.71l-1.99-.1.5-13.73,2.09.1c2.79.12,5.19,3.31,5.08,7.02Z"/>
      </g>
    </g>
    <g>
      <path class="st0" d="M201.16,132.78l.1,1.51,3.79-5.21-5.79,2.71,1.4.41-2.69,2.2c.2-1.51.3-3.11.4-4.7l3.28-3.7.3,1.51,3.1-5.62-5.59,3.4,1.5.2-2.59,2.81c0-1,.1-2,.1-2.91,0-7.41-1.09-14.53-3.1-21.24-3.28.3-6.68-.8-8.28-1.1,4.29,2.5,5.79,5.21,6.38,8.32-3.38.8-7.98-.41-10.47-2.3,2.49,2.1,3.99,5.51,4.09,9.02-3.49.2-6.78-1.51-9.17-3.91,1.5,1.71,3.49,6.11,3,9.12-2.89-.3-6.38-2.2-8.28-4.62,1.6,3.5,2.29,6.31,2.09,9.42-2.89-.61-5.19-1.4-7.78-3.91,1.3,3.21,1.7,6.31,1.5,8.91-3.38-1.2-5.59-2.5-7.48-5.72.99,2.81,1.7,6.51.99,8.71-2.89-.9-4.78-2.6-6.18-5.51,1.5,3.11,1.3,6.71.79,8.61-1.2-.2-2.79-1.1-3.59-2,0,.61-.1,1.1-.1,1.61-.1,2.1-.6,4.11-1.2,5.92.2.3.79.9.79,1,1.5,1.61,3.59,3.21,5.19,3.7-.69.1-1.7.69-2.59.8,1.09,1.2,3.28,1.51,4.59,2.91-1.09.1-1.3.9-2.59.69,2.39,1.91,4.68,2,5.89,2.1.5.1,2.09.2,3.2.1,1.18-.16,2.35.25,3.08.56l13.35-27.12-1.5.3,4.19-4.91-1.3,6.31-.69-1.3-13.31,27.13c.3.27.46.68.52,1.09l.32-.25,21.55-17.13-1.4-.41,5.79-2.49-3.89,5.11-.1-1.52-21.45,16.93c.6.1,1.09.41,1.3.61.3.61.2.91-.1,1.91-.3,1-.59,1.3-1.2,1.4-.2,0-.49.1-.89-.1.2.1.3.2.4.51.1.2.29.71-.5,1.61-.71.8-1.4,1.1-1.9.8-.4-.1-.5-.3-.6-.51.1.19.2.49.2.69.2.8-.4,1.1-1.2,1.4-1.4.49-2.19.3-2.49-.2-.69-1.1-.3-2.6.2-2.81-.1.41-.1.91,0,1.4.1.49.3,1.2,1.09,1.1.4,0,1.2-.2,1.7-.51.4-.3.4-.8.2-1.3-.1-.19-.2-.49-.5-.8.4.09.69.39,1.09.69.4.3.99.3,1.3,0,.39-.49.69-.8.79-1.1.4-.81-.59-1.4-1.2-1.71.99,0,1.2.41,1.99.3.89-.2,1.09-1.51,1.09-1.91s-.29-.69-.79-.8c-.29-.07-.56-.09-.81-.1-.01.1-.04.2-.07.29-.1.41-.3.8-.89,1.2-.4.1-.6.1-.2-.1.4-.3.69-1.81-.1-2.4-.6-.41-1.4-.8-2.39-.8-1.09.1-2.79.2-3.59.1-.69-.1-1.2.9-1.3,1.3-.3,1-.6,2.2-1.99,1.61-1.7-1-4.19-.9-7.09-2.1.4.9.2,1.61.69,2.6-2.49-.61-3.2-1.91-5.59-2.81.4.9.3,1.61.79,2.4-1.99-.41-3.89-2.2-6.78-2.91-.1,0-.2.1-.3.1-.99.3-1.99.61-2.79.9,1.99,2.3,3.69,5.11,4.39,8.42,0,0-1.4,0-3.49-.69.6,1.81.99,3.81.99,5.92,0,0-1.6-.3-3.79-1.61.2,2,.1,4.11-.3,6.21,0,0-1.8-.8-3.99-3.01-.2,2.1-.79,4.21-1.7,6.21,0,0-1.7-1.1-3.38-3.81-.69,2.1-1.7,4.11-3.1,6.01,0,0-1.8-1.91-3.1-5.82-1.7,2.5-3.2,3.6-3.2,3.6-.89-2.1-1.4-4.21-1.7-6.21-2.19,2.2-3.99,3.01-3.99,3.01-.4-2.1-.5-4.21-.3-6.21-2.19,1.3-3.79,1.61-3.79,1.61,0-2.1.4-4.11.99-5.92-2.09.69-3.49.69-3.49.69.79-3.4,3-7.02,4.59-8.61-.69-.2-1.5-.51-2.39-.69-.1,0-.2-.1-.3-.1-2.79.8-4.68,2.6-6.78,2.91.5-.8.4-1.51.79-2.4-2.39.8-3.1,2.1-5.59,2.81.4-1,.3-1.71.69-2.6-2.39,1.1-5.59,2-6.99,2.3-1.6.3-1.7-2-2.19-2.5-.2-.2-1.5-.3-1.99-.2-.79.1-2.29.1-3.38,0-1.09,0-1.9.3-2.49.8-.79.61-.4,2.3-.1,2.5.4.3.1.3-.2.1-.69-.41-.79-.8-.99-1.2-.2-.61-.2-1.91.69-2.4.6-.3,2.09-1.1,3.59-.9.99.2,2.69,0,3.2-.1s4.19-.69,6.58-2.6c-1.3.1-1.5-.61-2.59-.69,1.4-1.4,3.59-1.71,4.59-2.91-.99-.1-1.8-.9-2.49-1,2.09-1.2,3.59-1.91,5.08-3.5,0,0,.6-.69.79-.9-.69-1.81-1.09-3.81-1.3-5.92,0-.51-.1-1-.1-1.61-.5.61-1.6,1.2-3.38,1.81-.79-2-.4-5.72.6-8.61-1.5,2.91-3.2,4.8-6.08,5.72-.69-2.2-.3-5.92.69-8.71-1.9,3.21-3.89,4.8-7.27,6.01-.3-2.6,0-6.01,1.2-9.22-2.59,2.5-4.78,3.3-7.78,3.91-.2-3.11.6-5.92,2.09-9.42-1.9,2.3-5.79,3.91-8.67,4.21.2-2.71,2.09-6.31,3.2-8.52-2.79,2-5.69,3.4-8.87,3.6.4-3.01,1.8-6.31,4.09-9.02-2.79,2-6.99,3.11-10.07,2.71.79-3.3,2.79-6.61,5.59-8.32-1.6.3-4.49,1-7.88.69-1.99,6.61-3.1,13.63-3.1,20.94-1.7-1.3-2.79-1.61-3.99-2.81.2,1.61.4,2.4.6,4.41.3,3.5,1.6,5.51,3.79,6.71.1,1,.2,2,.4,3.01-1.6-1-3.79-1.71-6.68-1.71,1.8,5.72,4.19,6.11,7.58,6.71.1.51.2,1,.4,1.61-1.8-.51-3.89-.51-6.38.2,1.7,2.6,3.99,4.21,7.78,4.8v.1c-2.29-.2-4.78.1-6.78,1.2,2.79,2.4,5.59,3.4,8.28,3.11.1.3.3.69.4,1-2.09.61-3.89,1.61-4.98,2.71,2.19.69,4.49,1.1,6.48.9q0,.1.1.2c-1.2.9-2.19,2.4-2.89,4.7,1.6-.41,3.2-.51,4.78-1,.3.61.69,1.2.99,1.81-.79,1.61-1.09,3.6-.6,5.92,1.3-.3,2.49-.8,3.38-1.51.3.51.6.9.99,1.4-.3,2.6.3,5.21,1.8,6.92.6-.69,1.09-1.4,1.5-2,3.28-5.11,1.3-8.81,1.4-12.13,0-.1.1-.1.1-.2.3,3.91,3.69,7.81-.3,12.62-.1.1-.1.2-.2.3,13.26,15.33,33.31,25.35,55.65,25.35,31.71,0,58.73-20.14,69.1-48.39l3.38-1.51-.3,1.51,4.78-4.21-6.28,1.3,1.3.69-2.59,1.1c.17-.45.33-.9.49-1.36l-2.56,2.26.2-1.51-18.55,9.32c0-.1-.1-.1-.1-.2l-.3-.3c.09-.2.39-.41.69-.61l17.85-9.02-1.28-.59,4.57-.94c.1-.35.2-.69.3-1.06l3.69-2-.1,1.51,4.39-4.62-6.08,1.91,1.4.61-2.89,1.61c.16-.58.32-1.17.45-1.77l-3.14,3.44.1-1.51-11.87,7.81c-1.5.69-2.89,1.39-4.09,2,.79-.59,1.7-1.3,2.61-1.98l12.86-8.52-1.4-.51,5.16-1.69c.13-.56.27-1.13.42-1.69l2.79-1.81-.1,1.51,4.39-4.73-6.08,1.91,1.4.61-2.09,1.4c.2-1.2.4-2.5.6-3.81l3.38-2.81ZM168.54,160.42c-.1.69-.4,2.1-1.8,2.3.2-.59.2-1.81-.2-2.5.5-.39,1.5-.29,2,.2ZM167.03,163.62c-.4.3-.89.41-1.4.41q-.4-.1-.4-.3c.1-.69.4-1.79.6-2.1.1.51.2.9.5,1.3.2.3.5.51.69.69ZM164.94,159.42c.2.39.5.8,1.3.9-.59.41-1.2.3-1.6.1-.3-.1-.3-.39-.3-1,0-.69.4-.41.6,0ZM82.17,160.72c-.4.69-.4,1.91-.2,2.5-1.38-.2-1.69-1.61-1.79-2.3.4-.51,1.4-.61,1.99-.2ZM82.37,163.43c.3-.41.4-.9.5-1.3.1.3.39,1.4.6,2.1.1.2.1.3-.4.3-.5.1-.99-.1-1.4-.41.19-.19.49-.39.69-.69ZM64.91,136.97c4.19,8.81-.59,10.32-1.5,13.6-.49-3.11.1-8.32.5-10.93-1.4,1.81-1.8,4.31-1.6,6.71v.51c.1,1.11.3,2.11.6,3.11-.4-.59-.79-1.4-1.09-2.2-.1.1-.3.2-.4.2-.6.2-1.3-.29-1.4-.9-.2-.61.29-1.3.89-1.4h.4c-.4-2.89.49-6.11,3.59-8.71ZM61.23,153.31c-.81.2-1.5-.29-1.7-1.1s.3-1.51,1.09-1.71c.81-.2,1.5.3,1.7,1.1s-.29,1.61-1.09,1.71ZM62.03,129.85c1.89,8.52-2.3,9.22-4.49,12.43-2.49-4.41-.29-10.33,4.49-12.43ZM58.14,145.6c-.81.2-1.5-.3-1.7-1.1-.2-.81.3-1.51,1.09-1.71.81-.2,1.5.3,1.7,1.1s-.29,1.51-1.09,1.71ZM57.24,120.94c1.4,4.52.4,9.12-2.41,11.72.1-1.2-.19-2.5-.69-3.81.49-2.2,1.5-5.11,2.29-6.41-1.09,1-2.29,3.42-2.79,5.41-.3-.51-.59-1-.99-1.4.91-2.81,3.1-4.91,4.59-5.51ZM48.97,125.35c3.69,2.5,4.49,5.02,5.29,8.32h.09c.71-.1,1.4.3,1.5,1s-.29,1.4-.98,1.51c-.71.1-1.4-.3-1.5-1-.1-.61.19-1.2.79-1.4-1.2-2.6-3.28-6.02-5.19-8.42ZM47.47,136.18c3.69.39,5.88,2.6,7.37,4.7.49,0,.89.29.99.8s-.29,1.01-.68,1.1c-.59.1-1.09-.19-1.2-.8-.1-.49.19-1,.69-1.1-2.2-1.9-5.2-3.7-7.19-4.7ZM50.55,144.09c1.79.1,3.99.1,7.27,3.01.1-.2.3-.41.6-.41.59-.1,1.09.29,1.2.8.1.61-.29,1.1-.79,1.11-.59.1-1.09-.19-1.2-.8,0-.2,0-.41.1-.61-2.41-1.71-6.19-2.71-7.19-3.11ZM53.05,149.2c3.1-.41,4.7,0,6.99,1.3-2.09-.81-4.09-1.1-6.99-1.3ZM53.87,155.43c2.59-1.51,5.67-1.91,8.57-1.51.19-.3.49-.51.79-.61.59-.1,1.09.19,1.2.8.1.61-.2,1.1-.88,1.22-.59.1-1.09-.29-1.2-.8v-.41c-2.51,0-5.59.61-8.48,1.3ZM56.95,159.33c2.19-2.5,5.69-3.11,7.78-3.01h.1c-.2-.71.3-1.4.99-1.51.81-.2,1.5.3,1.6,1,.09.69-.3,1.4-1.09,1.61-.71.1-1.3-.3-1.5-1h-.1c-2.09.3-5.59,1.61-7.78,2.91ZM61.43,166.24c.3-2.1,1.7-4.7,3.79-6.41,1.5-1.2,2.29-1.71,1.09-.41-1.89,1.91-3.99,5.01-4.88,6.82ZM65.92,172.04c-.79-2-.1-5.21.79-7.41.6-1.51,2.09-3.7,2.59-3.91-1.7,2.6-3.49,9.42-3.38,11.32ZM69.81,158.12c-.6.1-1.2-.29-1.3-.9s.29-1.2.89-1.3c.6-.2,1.2.19,1.3.8.1.61-.2,1.2-.89,1.4ZM72.5,161.33c-.81.2-1.6-.39-1.8-1.2-.2-.81.4-1.61,1.2-1.81.81-.2,1.6.41,1.8,1.2s-.3,1.61-1.2,1.81ZM72.99,156.71c-.81.2-1.6-.39-1.8-1.2s.4-1.61,1.2-1.81c.81-.2,1.6.41,1.8,1.2.2.81-.29,1.61-1.2,1.81ZM71.41,153.21c.3-2.71,1.7-6.31,4.09-9.42-3.3,2.2-4.39,5.4-4.49,8.61-.3-.69-.4-1.39-.5-2-.4.8-.91,1.51-1.6,2.3-.6-4.01.39-8.32.89-10.42-1.7,1.71-2.29,5.92-1.6,9.22.3.2.5.49.6.9.2.81-.3,1.51-1.09,1.71-.81.2-1.5-.29-1.7-1.1s.3-1.51,1.09-1.71h.5c-1.7-3.81-.3-9.12,3.89-12.23-.3,2.4,0,4.62,0,6.71,1.4-2.1,3.8-3.6,5.99-4.3-.29,8.81-4.28,9.52-6.08,11.72ZM75,157.42c-.2-.61.29-1.3.89-1.4.6-.2,1.3.29,1.4.9.1.69-.3,1.3-.89,1.4-.6.2-1.3-.29-1.4-.9ZM83.77,167.03c-.4.61-1.09.81-2.49.2-.79-.3-1.4-.59-1.18-1.61,0-.19.1-.49.2-.69-.2.1-.3.3-.6.51-.6.3-1.21,0-1.9-.8-.81-.91-.6-1.3-.5-1.61s.2-.41.4-.51c-.39.2-.69.1-.89.1-.69-.1-.89-.41-1.2-1.4-.3-1.01-.4-1.3,0-1.91.3-.41,1.9-.71,2.69-.51,0,.29.1.49.1.69-.3-.1-.89-.1-1.3,0-.49.09-.89.39-.89.69,0,.51.2,1.81.99,1.91s.99-.3,1.99-.3c-.5.41-1.5.91-1.2,1.71.1.3.39.69.79,1.1.4.41.89.3,1.3,0,.4-.29.69-.59,1.2-.69-.3.19-.4.59-.5.8-.2.51-.2,1.1.1,1.3.5.3,1.3.61,1.7.61.79.1.99-.59,1.09-1,.1-.51.1-1,0-1.4.5.3.89,1.71.1,2.81ZM83.97,161.03c-.3.1-.99.2-1.6-.2.79-.1,1.09-.51,1.3-.9.1-.41.6-.69.6,0,0,.61,0,.9-.3,1.1ZM93.13,177.47c-.79-5.31-3.59-9.72-7.98-13.23.22-.81.42-1.42.71-1.71,5.98,4.52,9.38,10.82,10.27,15.93-.79-.61-2.19-1.1-3-1ZM151.59,167.74l1.2.41,9.07-4.52.1-.1h.1l-.2.1h0c-1.69,1.1-8.77,5.51-8.77,5.51l-.99-.2-2.89,2-3.1,1.91-.19-1-1.7-.61,7.37-3.5ZM146.71,176.35l-.2-1.3-1.8-.41,6.18-3.91.69-.41,1.2.3,9.68-6.41c-.29.41-1.3,1.4-2.19,2.4l-7.78,5.51-.79-.1-4.98,4.31ZM153.78,175.27l-1.5.1h-.4l5.89-5.92.1-.1,1.2-.1,4.19-4.62c0,.41,0,.69.1,1.1l-3.5,4.33-.89.2-4.88,6.41-.3-1.4ZM162.05,175.25l-3.59,7.41-.69-1.81-1.8.61,3.79-7.31,1.2-.41,3.2-6.61c.19.2.39.3.69.41l-3.2,6.51.4,1.2ZM192.67,125.64l5.08-3.91-2.59,5.92-.4-1.4-15.25,19.33c-.79.91-1.69,1.81-2.48,2.71,1.09-1.61,2.19-3.4,3.28-5.01l13.86-17.54-1.5-.1ZM175.81,146.99l8.38-12.72-1.5.1,4.68-4.4-2.09,6.11-.5-1.4-11.67,17.83-.1.1c.89-1.71,1.8-3.62,2.79-5.62ZM171.13,156.51c.19-.41.39-.8.6-1.22l21.83-23.85-1.5-.2,5.39-3.5-3,5.72-.3-1.51-20.84,22.85c-.89.71-1.69,1.3-2.19,1.71ZM194.47,137.87l-.2-1.51-12.66,11.82c-1.3,1.01-2.59,2.11-3.89,3.11.99-1.1,2.19-2.4,3.38-3.7l12.66-11.82-1.5-.3,5.59-3.01-3.38,5.41Z"/>
      <path class="st0" d="M57.54,142.08c1.09-4.11,1.7-7.02,3.1-10.12-2.2,1.3-3.7,7.71-3.1,10.12Z"/>
      <path class="st0" d="M170.53,158.06l-.19.16h-.1v.69h.29c.03-.25.04-.55,0-.85Z"/>
      <path class="st0" d="M196.77,146.6l-1.71.36c-.16.55-.33,1.07-.5,1.59l2.22-1.95Z"/>
      <path class="st0" d="M197.36,141.89l-.92.3c-.07.32-.14.64-.22.96l1.14-1.26Z"/>
      <path class="st0" d="M169.25,156.57v.03c.09.1.19.1.29.2.2.1.3.2.4.3l.06-.12c-.07-.07-.16-.13-.24-.19-.13-.07-.29-.14-.5-.23Z"/>
    </g>
  </g>
</svg>